<svg width="230" height="130" viewBox="0 0 230 130" fill="none" xmlns="http://www.w3.org/2000/svg">
<path d="M91.4045 85.1439H84.1007V53.1164H76.9867C76.9582 53.0881 76.9203 53.0692 76.8918 53.0409V45.8649H106.012V77.9962H114.293C114.302 77.8546 114.34 77.6752 114.331 77.4958C114.312 75.4563 114.264 73.4168 114.264 71.3679C114.264 68.3181 114.312 65.2683 114.331 62.2186C114.331 61.3593 114.264 60.4907 114.264 59.6314C114.274 56.7044 114.312 53.7868 114.331 50.8598C114.34 49.1885 114.35 47.5267 114.359 45.8555H152.775V85.1344C150.375 85.1344 147.966 85.1344 145.566 85.1344C145.556 84.9173 145.528 84.7001 145.528 84.4735C145.528 74.2289 145.528 63.9842 145.528 53.7396V53.1447H137.209C137.209 53.3808 137.209 53.5791 137.209 53.7868C137.209 64.0031 137.209 74.21 137.209 84.4263C137.209 84.634 137.209 84.8323 137.2 85.04C137.171 85.0683 137.152 85.1061 137.124 85.1344H130.01L129.934 85.04C129.934 84.8323 129.925 84.634 129.925 84.4263C129.925 74.2005 129.925 63.9653 129.925 53.7396V53.1447H121.606C121.606 53.3997 121.606 53.6168 121.606 53.834C121.606 64.0598 121.606 74.295 121.606 84.5207C121.606 84.7284 121.587 84.9267 121.577 85.1344H98.7177V53.1447H91.4614C91.4614 53.3808 91.4614 53.598 91.4614 53.8151C91.4614 64.0409 91.4614 74.2666 91.4614 84.4924C91.4614 84.7095 91.4329 84.9267 91.4139 85.1439H91.4045Z" fill="#212121"/>
</svg>
