<svg width="230" height="130" viewBox="0 0 230 130" fill="none" xmlns="http://www.w3.org/2000/svg">
<path d="M157.932 87.6145C157.932 87.6145 157.932 87.6145 158.083 87.5439C157.705 87.5439 157.403 87.4029 157.101 87.1913C156.875 87.0502 156.875 87.0502 157.101 86.8386C157.177 86.6976 157.328 86.5565 157.403 86.486C157.554 86.486 157.63 86.627 157.781 86.6976C158.309 87.0502 158.762 87.0502 159.215 86.6976C159.517 86.486 159.592 86.2038 159.592 85.8512C159.592 85.7101 159.517 85.8512 159.441 85.8512C159.139 85.9922 158.837 86.0628 158.536 86.1333C157.856 86.1333 157.026 85.6396 156.875 84.7932C156.724 84.0879 156.951 83.5236 157.63 83.1004C158.234 82.7478 158.837 82.7478 159.517 83.1004C159.592 83.1004 159.668 83.171 159.668 83.1004C159.668 83.0299 159.743 82.9594 159.819 82.9594C160.498 82.9594 160.423 82.8888 160.423 83.4531C160.423 84.2289 160.423 85.0753 160.423 85.8512C160.423 86.627 160.045 87.3323 159.064 87.5439C159.064 87.5439 158.913 87.5439 158.913 87.6145C158.611 87.6145 158.234 87.6145 157.932 87.6145ZM157.63 84.5111C157.63 85.0753 158.007 85.428 158.611 85.428C159.139 85.428 159.517 85.0753 159.517 84.5111C159.517 83.8763 159.139 83.5236 158.611 83.5236C158.007 83.5236 157.63 83.8763 157.63 84.5111Z" fill="#212121"/>
<path d="M74.5282 87.6131C74.5282 87.6131 74.5282 87.6131 74.6792 87.5426C74.3018 87.5426 73.9999 87.4015 73.7735 87.2605C73.4715 87.0489 73.4715 87.0489 73.698 86.7667C73.9999 86.4141 73.9999 86.4141 74.3018 86.6962C74.7547 86.9783 75.1321 87.1194 75.6604 86.8373C76.0378 86.6962 76.2642 86.3435 76.1888 85.9204C76.1888 85.7793 76.1133 85.8498 76.0378 85.9204C75.7359 86.0614 75.434 86.2025 75.1321 86.1319C74.4528 86.1319 73.9244 85.8498 73.6225 85.2856C73.3206 84.7213 73.3206 84.0865 73.7735 83.5223C74.3018 82.8875 75.2075 82.6759 75.9623 83.0991C76.0378 83.0991 76.1888 83.2401 76.1888 83.0991C76.1888 83.0991 76.1888 83.0285 76.3397 83.0285C77.0945 83.0285 76.9435 82.8875 76.9435 83.5928C76.9435 84.3686 76.9435 85.1445 76.9435 85.9204C76.9435 86.1319 76.9435 86.4141 76.7926 86.6257C76.5662 87.1194 76.1888 87.4721 75.6604 87.6131C75.6604 87.6131 75.5095 87.6131 75.5095 87.6836H74.4528L74.5282 87.6131ZM76.1888 84.5097C76.1888 83.8749 75.8114 83.5223 75.2075 83.5223C74.6037 83.5223 74.2263 83.8749 74.2263 84.5097C74.2263 85.0034 74.6037 85.4266 75.2075 85.3561C75.7359 85.3561 76.1888 85.0034 76.1133 84.4392L76.1888 84.5097Z" fill="#212121"/>
<path d="M112.266 87.6107C112.342 87.4697 112.266 87.5402 112.191 87.4697C111.889 87.4697 111.587 87.2581 111.361 87.117C111.21 87.0465 111.21 86.976 111.361 86.8349C111.512 86.6938 111.587 86.4822 111.738 86.4117C111.889 86.4117 112.04 86.5528 112.191 86.6938C112.644 86.976 113.097 86.976 113.55 86.6938C113.927 86.4822 113.927 86.1296 114.002 85.7769C114.002 85.7769 114.002 85.7064 113.927 85.7769C113.927 85.7769 113.927 85.7769 113.851 85.7769C113.248 86.2001 112.342 86.059 111.814 85.7064C111.285 85.2832 111.059 84.5779 111.285 83.8726C111.587 82.8851 112.87 82.4619 113.776 83.0262C113.927 83.0967 114.002 83.0967 114.002 83.0262C114.002 82.9556 114.078 82.8851 114.153 82.8851C114.682 82.8146 114.757 82.8851 114.757 83.3083C114.757 84.1547 114.757 85.0011 114.757 85.918C114.757 86.6938 114.304 87.2581 113.55 87.4697C113.474 87.4697 113.399 87.4697 113.323 87.5402H112.342L112.266 87.6107ZM112.946 83.5199C112.342 83.5199 111.964 83.8725 111.964 84.3663C111.964 85.0011 112.417 85.3537 112.87 85.3537C113.474 85.3537 113.851 85.0011 113.927 84.5073C113.927 84.0136 113.625 83.5199 113.021 83.5199H112.946Z" fill="#212121"/>
<path d="M144.724 62.2899C144.875 62.431 145.026 62.2899 145.177 62.3605C147.441 62.8542 149.706 63.3479 151.895 64.0532C153.329 64.4764 154.763 64.9702 156.121 65.6049C156.348 65.6755 156.574 65.8165 156.574 66.0987C156.574 66.3103 156.574 66.5924 156.423 66.7335C156.197 66.945 155.971 67.0156 155.744 66.8745C155.216 66.7335 154.763 66.5219 154.31 66.3103C152.272 65.5344 150.234 64.8996 148.121 64.4059C146.309 63.9827 144.498 63.63 142.686 63.2774C141.781 63.1363 140.95 62.9247 140.045 62.7837C139.667 62.7131 139.214 62.6426 138.761 62.5721C138.761 62.6426 138.912 62.6426 138.912 62.6426C140.95 62.9953 142.913 63.489 144.875 63.9122C146.989 64.4059 149.102 64.9702 151.215 65.746C153.253 66.4513 155.216 67.2977 157.027 68.4262C157.254 68.5673 157.556 68.7083 157.707 68.9199C157.933 69.1315 158.008 69.3431 157.857 69.6253C157.782 69.9074 157.556 70.0485 157.254 70.119C157.027 70.119 156.801 70.0485 156.574 69.9074C156.121 69.6253 155.669 69.3431 155.216 69.1315C153.48 68.2146 151.593 67.4388 149.706 66.8745C147.743 66.2397 145.781 65.746 143.743 65.2523C141.403 64.688 139.139 64.2648 136.799 63.7711C134.157 63.2069 131.44 62.7131 128.798 62.2194C125.779 61.5846 122.685 60.8793 119.741 59.9624C117.778 59.3276 115.891 58.6928 114.155 57.7054C114.004 57.6348 113.778 57.5643 113.703 57.3527C113.703 57.1411 113.929 57.1411 114.08 57C114.835 56.6474 115.363 56.0831 115.891 55.5189C116.118 55.2368 116.118 55.2368 116.495 55.3778C119.439 56.5063 122.458 57.4232 125.477 58.1286C127.515 58.6223 129.553 59.0455 131.591 59.3981C133.176 59.6803 134.686 59.8919 136.271 60.1035C137.931 60.315 139.667 60.4561 141.328 60.6677C143.592 60.8793 145.781 61.232 148.045 61.5846C149.932 61.8667 151.895 62.2194 153.782 62.6426C154.159 62.7131 154.536 62.8542 154.914 62.9247C155.367 63.0658 155.518 63.3479 155.367 63.7711C155.291 64.1238 154.914 64.2648 154.536 64.1943C153.404 63.9122 152.348 63.63 151.215 63.4185C149.706 63.1363 148.272 62.8542 146.762 62.6426C146.083 62.5721 145.479 62.431 144.8 62.3605C144.724 62.3605 144.649 62.3605 144.498 62.3605L144.724 62.2899Z" fill="#212121"/>
<path d="M149.855 56.1552C150.232 56.1552 150.609 56.1552 150.987 56.0141C152.723 55.732 154.534 55.4499 156.27 55.0267C156.648 54.9561 157.025 55.1677 157.101 55.5204C157.176 55.8731 157.101 56.2257 156.648 56.2962C156.119 56.5078 155.591 56.5784 154.987 56.6489C153.251 57.0016 151.591 57.2837 149.855 57.4953C148.194 57.7069 146.609 57.848 144.948 57.9185C144.194 57.9185 143.363 58.0595 142.609 58.0595C142.609 58.0595 142.609 58.0595 142.458 58.0595C142.533 58.1301 142.684 58.0595 142.76 58.0595C143.363 58.0595 144.043 58.0595 144.647 58.0595C146.534 58.0595 148.496 57.989 150.383 57.848C151.968 57.7774 153.553 57.6364 155.138 57.4248C155.44 57.4248 155.666 57.4248 155.817 57.7069C155.968 57.9185 155.968 58.1301 155.817 58.4122C155.666 58.6238 155.515 58.7649 155.214 58.7649C154.157 58.8354 153.1 58.9765 152.043 59.047C151.062 59.1175 150.156 59.1881 149.175 59.2586C147.968 59.2586 146.684 59.3291 145.477 59.3997C143.288 59.4702 141.175 59.3997 138.986 59.2586C137.25 59.1881 135.589 59.047 133.929 58.8354C132.419 58.6238 130.909 58.3417 129.4 58.0595C126.381 57.4248 123.362 56.7194 120.418 55.8025C119.21 55.4499 118.078 55.0267 116.87 54.6035C116.72 54.6035 116.72 54.4624 116.795 54.3919C116.87 54.2508 116.946 54.0392 117.021 53.8982C117.021 53.8276 117.021 53.7571 117.172 53.7571C117.852 53.5455 118.531 53.3339 119.059 52.8402C119.135 52.7697 119.286 52.8402 119.437 52.8402C120.72 53.1223 122.003 53.4044 123.286 53.6866C125.551 54.1098 127.815 54.533 130.079 54.8151C132.117 55.0972 134.155 55.3088 136.268 55.4499C138.004 55.5909 139.74 55.5909 141.476 55.5909C144.345 55.5909 147.137 55.3793 149.93 54.8151C152.345 54.3214 154.61 53.616 156.799 52.4875C157.025 52.3465 157.327 52.2054 157.553 52.0643C157.931 51.8527 158.308 51.9233 158.535 52.2759C158.761 52.6286 158.686 52.9812 158.308 53.1928C157.251 53.8276 156.195 54.3919 154.987 54.8151C153.779 55.2383 152.572 55.6615 151.364 55.9436C150.836 56.0847 150.383 56.1552 149.855 56.2962V56.1552Z" fill="#212121"/>
<path d="M113.703 64.4058C113.703 65.1111 113.627 66.0985 113.627 67.1565C113.627 68.0029 113.778 68.8493 113.929 69.6251C113.929 69.6251 114.004 69.7662 113.929 69.7662H113.778C112.797 69.343 111.891 68.8493 111.136 68.0734C110.608 67.5092 110.381 66.9449 110.306 66.2396C110.231 65.0406 110.08 63.8415 110.004 62.6425C110.004 61.9371 109.929 61.2318 109.702 60.5265C109.627 60.2444 109.476 59.9623 109.4 59.6801C109.4 59.6801 109.4 59.6096 109.4 59.5391C109.4 59.5391 109.476 59.5391 109.551 59.5391C110.91 59.9623 112.117 60.597 113.023 61.655C113.627 62.3603 113.778 63.2773 113.778 64.4763L113.703 64.4058Z" fill="#212121"/>
<path d="M125.553 74.4923C123.666 74.7744 122.081 74.4923 120.571 73.4343C120.345 73.2227 120.118 73.0111 119.968 72.729C119.288 71.3889 118.835 70.0488 118.76 68.5676C118.76 67.7212 118.76 66.8748 118.533 66.0284C118.533 65.8874 118.382 65.7463 118.533 65.6758C118.609 65.6758 118.76 65.6758 118.911 65.7463C119.741 66.0284 120.496 66.4516 121.175 67.0159C121.628 67.3685 121.93 67.8623 122.156 68.4265C122.458 69.1318 122.609 69.9077 122.836 70.613C123.289 72.0237 124.119 73.2932 125.326 74.3512C125.326 74.3512 125.477 74.4923 125.628 74.5628L125.553 74.4923Z" fill="#212121"/>
<path d="M82.7562 45.6459C82.9072 45.5048 83.0581 45.3638 83.2846 45.2227C84.3413 44.4468 85.6244 44.0237 86.983 43.9531C87.9642 43.9531 88.7945 44.2353 89.5493 44.7995C90.3041 45.3638 90.8324 46.0691 91.4362 46.7744C92.191 47.6208 92.8703 48.6082 93.5496 49.4546C93.6251 49.5251 93.6251 49.5957 93.5496 49.5957C92.4929 49.8073 91.3608 49.8778 90.3041 49.5251C90.0776 49.4546 89.8512 49.3136 89.6248 49.102C88.2662 48.044 86.9075 47.0565 85.3225 46.2807C84.5677 45.928 83.8129 45.6459 82.9827 45.6459C82.9827 45.6459 82.9072 45.6459 82.8317 45.6459H82.7562Z" fill="#212121"/>
<path d="M117.93 45.6459C119.138 44.6584 120.421 44.0237 122.006 43.9531C122.761 43.9531 123.44 44.0942 124.12 44.5174C125.327 45.2227 126.308 46.2101 127.063 47.3387C127.592 48.044 127.969 48.8198 128.497 49.5251C128.573 49.5957 128.573 49.6662 128.497 49.7367C128.044 49.8073 127.516 49.8778 127.063 49.8073C126.837 49.8073 126.61 49.8073 126.384 49.8073C125.478 49.8073 124.799 49.3136 124.12 48.8198C123.516 48.3966 122.987 47.8324 122.384 47.4092C121.1 46.4923 119.742 45.9986 118.157 45.7164C118.157 45.7164 118.157 45.7164 118.006 45.7164L117.93 45.6459Z" fill="#212121"/>
<path d="M114.383 66.3081C114.383 65.3911 114.534 64.4037 114.534 63.4868C114.534 63.2752 114.534 63.0636 114.458 62.852C114.458 62.852 114.458 62.7815 114.458 62.7109C114.458 62.7109 114.534 62.7109 114.609 62.7109C115.666 63.2047 116.571 63.8394 117.251 64.6858C117.704 65.1796 117.855 65.8143 117.93 66.4491C118.006 67.2955 118.006 68.2124 118.081 69.0588C118.232 70.3284 118.534 71.4569 119.062 72.6559C119.062 72.6559 119.213 72.797 119.062 72.8675C119.062 72.8675 118.911 72.8675 118.836 72.8675C118.006 72.6559 117.251 72.4443 116.571 72.0211C116.043 71.6685 115.515 71.2453 115.137 70.8221C114.986 70.6105 114.835 70.3989 114.76 70.1168C114.458 69.0588 114.307 68.0008 114.307 66.8723C114.307 66.7313 114.307 66.5197 114.307 66.3786L114.383 66.3081Z" fill="#212121"/>
<path d="M84.0399 69.6958C84.0399 68.3556 84.1908 67.0155 84.4173 65.6754C84.4173 65.4638 84.4928 65.4638 84.6437 65.5344C85.323 65.887 86.0023 66.3808 86.5307 66.945C86.8326 67.2977 86.9835 67.7914 87.059 68.2146C87.4364 69.8368 87.9648 71.3885 88.795 72.8697C89.0969 73.4339 89.5498 73.9277 90.0782 74.3509C90.0782 74.3509 90.2291 74.4214 90.2291 74.4919C90.2291 74.5625 90.0782 74.4919 90.0782 74.4919C88.795 74.633 87.5874 74.3509 86.4552 73.8571C85.0966 73.2929 84.4173 72.3054 84.1154 70.9653C84.0399 70.4716 84.0399 70.0484 84.0399 69.5547V69.6958Z" fill="#212121"/>
<path d="M82.4536 46.4924C83.2838 46.4924 84.0386 46.704 84.6425 46.9861C86.0766 47.6209 87.4352 48.3968 88.6428 49.3137C88.6428 49.3137 88.6428 49.3137 88.7183 49.3137C89.0202 49.5253 89.0202 49.5958 88.7183 49.7369C87.9635 50.1601 87.2842 50.4422 86.3785 50.5127C86.0011 50.5127 85.6992 50.5127 85.3972 50.3717C83.5858 49.8779 81.7743 49.6663 79.9628 49.7369C79.2835 49.7369 78.6042 49.9485 78.0004 50.1601C78.0004 50.1601 77.9249 50.2306 77.8494 50.1601V50.019C78.0758 49.3137 78.4532 48.7494 78.9816 48.2557C79.5099 47.6914 80.0383 47.1977 80.7176 46.8451C81.3214 46.5629 81.9252 46.4219 82.4536 46.4219V46.4924Z" fill="#212121"/>
<path d="M116.194 53.3315C115.137 53.3315 114.231 53.1904 113.401 53.0494C112.344 52.9083 111.287 52.9083 110.155 53.0494C109.702 53.0494 109.325 53.1904 108.872 53.261C108.872 53.261 108.797 53.261 108.721 53.261C108.721 53.261 108.721 53.1904 108.721 53.1199C108.948 52.6967 109.174 52.2735 109.4 51.8503C109.929 51.145 110.608 50.5808 111.363 50.087C111.816 49.8754 112.269 49.7344 112.797 49.7344C114.382 49.7344 115.816 49.8754 117.326 50.3692C118.156 50.6513 118.986 50.9334 119.817 51.0745C119.892 51.0745 120.043 51.0745 119.892 51.2861C119.137 52.0619 118.307 52.6967 117.326 53.0494C116.873 53.1904 116.42 53.261 116.118 53.261L116.194 53.3315Z" fill="#212121"/>
<path d="M132.421 73.4314C132.194 73.643 131.893 73.7841 131.591 73.9251C130.308 74.5599 128.873 74.7715 127.439 74.5599C126.986 74.4894 126.609 74.2072 126.232 73.9251C124.873 72.8671 123.967 71.527 123.514 69.9753C123.288 69.27 123.137 68.6352 122.835 68.0004C122.835 67.8594 122.835 67.8594 122.986 67.8594C123.514 67.8594 124.043 68.0004 124.571 68.1415C125.401 68.3531 126.081 68.7058 126.685 69.3405C127.137 69.8343 127.59 70.328 128.043 70.8217C129.251 72.1618 130.76 72.9377 132.572 73.3609L132.421 73.4314Z" fill="#212121"/>
<path d="M75.9611 62.5732C75.6592 62.0795 75.5082 61.6563 75.3573 61.1626C75.2063 60.3867 75.1308 59.5403 75.2818 58.6939C75.5082 57.5654 76.1875 56.7896 77.2442 56.1548C77.999 55.7316 78.8293 55.4495 79.5841 55.0968C80.5653 54.6736 81.622 54.3915 82.6787 54.1094C82.8296 54.1094 82.8296 54.1094 82.8296 54.2504C82.8296 55.2379 82.5277 56.1548 81.9239 57.0012C81.6974 57.2833 81.3955 57.4949 81.0936 57.7065C80.0369 58.4118 79.0557 59.1877 78.0745 60.0341C77.1687 60.7394 76.414 61.5858 76.0366 62.6437L75.9611 62.5732Z" fill="#212121"/>
<path d="M130.908 44.0237C132.795 44.0237 134.455 44.5879 135.738 45.928C136.116 46.3512 136.267 46.9155 136.342 47.4092C136.72 48.9609 136.418 50.4421 135.814 51.8527C135.587 52.417 135.285 52.9107 135.135 53.4749C135.135 53.616 134.984 53.6865 134.908 53.4749C134.002 52.6285 133.172 51.7116 133.097 50.4421C133.097 49.5957 133.097 48.6788 132.87 47.8324C132.644 46.4217 131.964 45.2227 130.983 44.0942C130.983 44.0942 130.983 44.0942 130.983 43.9531L130.908 44.0237Z" fill="#212121"/>
<path d="M97.0979 73.6467C96.9469 73.7877 96.7205 73.9288 96.5695 73.9993C95.3619 74.5636 94.0788 74.8457 92.6447 74.7047C91.6634 74.6341 90.9087 74.1404 90.3048 73.4351C89.701 72.8003 89.3236 72.0244 88.8707 71.1781C88.4179 70.1906 87.965 69.2032 87.6631 68.1452C87.6631 68.0041 87.6631 67.9336 87.814 67.9336C88.7198 67.9336 89.6255 68.1452 90.3803 68.5684C90.6822 68.7094 90.9087 68.921 91.1351 69.2032C92.2673 70.5433 93.5504 71.7423 95.06 72.8003C95.6638 73.153 96.2676 73.4351 96.9469 73.5761C96.9469 73.5761 96.9469 73.5761 97.0224 73.5761L97.0979 73.6467Z" fill="#212121"/>
<path d="M102.608 69.8358C101.853 69.8358 101.099 69.6243 100.268 69.4127C98.8343 68.9189 97.3248 68.4957 95.8907 67.861C95.7397 67.861 95.6642 67.7904 95.8907 67.6494C96.419 67.2262 96.8719 66.803 97.4757 66.5208C97.9286 66.3093 98.3815 66.1682 98.8343 66.0977C99.2117 66.0977 99.6646 66.0977 100.042 66.1682C101.174 66.3093 102.306 66.3798 103.439 66.5208C104.118 66.5914 104.873 66.6619 105.552 66.6619C106.005 66.6619 106.458 66.6619 106.911 66.4503C106.911 66.4503 107.061 66.4503 107.137 66.4503V66.5914C106.76 67.3672 106.156 68.0725 105.476 68.6368C104.873 69.1305 104.269 69.5537 103.514 69.6948C103.212 69.6948 102.986 69.7653 102.608 69.7653V69.8358Z" fill="#212121"/>
<path d="M66.3014 54.883C66.9807 54.883 67.66 54.883 68.2638 55.0946C69.0186 55.3768 69.6224 55.941 70.1508 56.5053C70.8301 57.2106 71.3584 57.9864 72.0378 58.6918C72.7171 59.3971 73.3209 60.0319 74.0757 60.6666C74.2266 60.7372 74.2266 60.8077 74.0757 60.8782C72.7925 61.2309 71.5849 61.3014 70.3017 60.9488C69.9244 60.8077 69.6224 60.6666 69.3205 60.3845C68.0374 59.3265 66.9052 58.1275 65.924 56.7874C65.4711 56.2231 65.0183 55.7294 64.4144 55.2357C64.4144 55.2357 64.2635 55.2357 64.3389 55.0946C64.3389 55.0241 64.4144 55.0241 64.4899 55.0241C65.0937 54.883 65.773 54.8125 66.3769 54.8125L66.3014 54.883Z" fill="#212121"/>
<path d="M91.436 43.3164C92.8701 43.3164 93.9268 43.5985 94.908 44.3744C95.4364 44.7976 95.7383 45.2913 96.0402 45.8556C96.795 47.4073 97.5498 48.959 98.3046 50.5107C98.38 50.7223 98.38 50.7223 98.1536 50.7223C97.3233 50.7223 96.4931 50.5812 95.7383 50.2991C95.059 50.0875 94.6061 49.7348 94.2287 49.1706C93.323 47.8305 92.3418 46.4198 91.2096 45.2208C90.8322 44.7976 90.4548 44.4449 90.0019 44.0923C89.851 43.9512 89.7 43.8807 89.4736 43.8101C89.4736 43.8101 89.3981 43.8101 89.3981 43.7396C89.3981 43.7396 89.3981 43.7396 89.4736 43.7396C90.2284 43.5985 90.9077 43.3869 91.436 43.4575V43.3164Z" fill="#212121"/>
<path d="M88.1921 54.5312C88.7959 54.5312 89.3243 54.5313 89.7771 54.6723C90.6074 54.8134 91.2867 55.2366 91.8905 55.8714C92.4944 56.4356 92.8718 57.1409 93.3246 57.8463C94.0039 58.9748 94.7587 60.0327 95.589 61.0907C95.8154 61.3728 95.8154 61.3728 95.438 61.3728C94.6832 61.4434 93.853 61.4434 93.0982 61.3023C92.2679 61.0907 91.5886 60.7381 91.0603 60.1738C89.9281 58.9042 88.8714 57.5641 87.8902 56.224C87.5128 55.7303 87.1354 55.3071 86.607 54.9544C86.607 54.9544 86.4561 54.9544 86.5316 54.8134C86.5316 54.8134 86.607 54.8134 86.6825 54.7428C87.2109 54.6018 87.8147 54.6018 88.2676 54.5312H88.1921Z" fill="#212121"/>
<path d="M92.19 55.025C92.4164 54.9545 92.6429 54.884 92.7938 54.884C93.8505 54.8134 94.8317 54.884 95.8129 55.2366C96.7942 55.5187 97.4735 56.2241 97.9263 57.0704C98.3792 57.7758 98.6811 58.6221 99.0585 59.3275C99.5869 60.3149 100.04 61.3024 100.568 62.2898C100.568 62.3603 100.568 62.4309 100.493 62.4309C99.285 62.4309 98.1528 62.2193 97.0961 61.655C96.7942 61.514 96.6432 61.3024 96.4168 61.0202C95.4356 59.7507 94.5298 58.4105 93.775 57.0704C93.4731 56.5062 93.0202 55.9419 92.5674 55.4482C92.4164 55.3071 92.2655 55.1661 92.1145 55.025H92.19Z" fill="#212121"/>
<path d="M129.401 68.0742C130.005 68.0742 130.609 68.2858 131.137 68.5679C131.967 68.9206 132.798 69.3438 133.703 69.5554C135.062 69.908 136.345 69.9786 137.779 69.767H137.93C137.93 69.767 137.93 69.8375 137.93 69.908C137.024 71.3187 135.817 72.3061 134.081 72.7293C133.703 72.7999 133.326 72.7293 132.873 72.7293C130.986 72.3767 129.401 71.4598 128.193 70.0491C127.816 69.6259 127.439 69.2733 127.061 68.8501C126.91 68.709 126.91 68.6385 127.061 68.5679C127.514 68.4269 127.967 68.2858 128.42 68.2153C128.722 68.2153 129.099 68.1448 129.401 68.0742Z" fill="#212121"/>
<path d="M79.661 68.2145C79.661 67.2976 80.0384 66.4512 80.4158 65.6048C80.9441 64.4058 81.6235 63.2773 82.3028 62.1488C82.3028 62.0077 82.3782 62.0077 82.5292 62.1488C83.133 62.9246 83.6614 63.7005 83.8123 64.6879C83.8123 65.1111 83.7368 65.4638 83.6614 65.887C83.3595 67.5092 83.133 69.1314 83.2085 70.7537C83.2085 71.3179 83.3595 71.8822 83.6614 72.4464C83.6614 72.4464 83.7368 72.517 83.6614 72.5875C83.6614 72.5875 83.5859 72.5875 83.5104 72.5875C82.4537 72.3054 81.6235 71.6706 80.8687 70.8947C80.2648 70.3305 79.8874 69.6957 79.7365 68.9198C79.7365 68.7082 79.7365 68.4966 79.7365 68.285L79.661 68.2145Z" fill="#212121"/>
<path d="M103.966 57.1406C104.948 57.2112 105.853 57.5638 106.759 57.987C108.042 58.6218 108.722 59.6798 108.948 61.0199C109.099 62.0073 109.099 62.9242 109.25 63.9117C109.325 64.7581 109.476 65.6045 109.552 66.4508C109.552 66.5214 109.552 66.6624 109.401 66.5919C108.42 66.2392 107.514 65.816 106.835 65.1107C106.533 64.8286 106.306 64.4759 106.155 64.0528C105.627 62.36 105.174 60.6672 104.646 58.9039C104.495 58.3397 104.193 57.7754 103.891 57.2817C103.891 57.2817 103.891 57.2112 103.891 57.1406C103.891 57.1406 103.966 57.1406 104.042 57.1406H103.966Z" fill="#212121"/>
<path d="M98.3016 72.9387C97.3203 72.9387 96.4146 72.5861 95.6598 72.0924C94.3767 71.246 93.169 70.3291 92.1123 69.2711C91.9614 69.13 91.8859 68.9889 91.7349 68.8479C91.7349 68.7774 91.6595 68.7068 91.7349 68.6363C92.7162 68.2836 93.6219 68.0015 94.6786 68.1426C95.056 68.1426 95.4334 68.3542 95.7353 68.4952C97.2449 69.13 98.8299 69.7648 100.415 70.2585C101.094 70.4701 101.774 70.5407 102.453 70.5407C102.453 70.5407 102.528 70.5407 102.604 70.5407C102.604 70.5407 102.604 70.6112 102.604 70.6817C101.623 71.7397 100.415 72.445 98.9809 72.7977C98.7544 72.7977 98.528 72.7977 98.2261 72.7977L98.3016 72.9387Z" fill="#212121"/>
<path d="M113.776 49.0987C113.55 49.0987 113.248 49.0987 113.022 49.0987C112.871 49.0987 112.871 49.0987 112.946 48.9576C113.776 47.8291 114.758 46.9827 116.192 46.489C116.871 46.2774 117.55 46.3479 118.305 46.489C120.041 46.8417 121.551 47.6175 122.834 48.6755C123.211 48.9576 123.664 49.3103 124.041 49.5924C124.192 49.6629 124.192 49.7335 124.041 49.804C123.136 50.2272 122.23 50.5799 121.249 50.6504C120.494 50.6504 119.739 50.4388 119.06 50.1567C118.079 49.804 117.097 49.4514 116.116 49.2398C115.361 49.0987 114.607 49.0282 113.852 49.0282L113.776 49.0987Z" fill="#212121"/>
<path d="M105.324 64.1925C104.796 64.1219 104.192 63.9809 103.664 63.8398C103.06 63.6282 102.456 63.2755 101.928 62.8524C101.626 62.6408 101.475 62.3586 101.324 62.0765C100.494 60.5953 99.8146 59.0436 99.1353 57.5625C98.8333 56.9982 98.5314 56.434 98.0786 55.9402C98.0786 55.9402 98.0031 55.8697 98.0786 55.7992C98.0786 55.7992 98.154 55.7992 98.2295 55.7992C99.0598 55.7286 99.89 55.9402 100.645 56.0813C102.154 56.434 103.06 57.3509 103.588 58.691C103.966 59.6784 104.192 60.6659 104.494 61.6533C104.721 62.4997 104.947 63.3461 105.249 64.1219C105.249 64.1219 105.249 64.1219 105.249 64.1925H105.324Z" fill="#212121"/>
<path d="M75.6597 56.3635C75.5088 55.4466 75.6597 54.6708 75.9617 53.8949C76.0371 53.6128 76.1881 53.3307 76.3391 52.978C76.9429 51.7084 77.9996 51.0031 79.4337 50.721C80.3394 50.5799 81.3206 50.6504 82.3019 50.6504C83.2831 50.6504 84.2643 50.862 85.2455 51.0736C85.2455 51.0736 85.3965 51.0736 85.472 51.0736C85.0946 51.7084 84.6417 52.2727 84.0379 52.7664C83.6605 53.0485 83.2076 53.2601 82.6792 53.4012C81.3961 53.6833 80.113 54.1065 78.9053 54.5297C77.9996 54.8118 77.1693 55.1645 76.4145 55.7287C76.1881 55.8698 75.9617 56.0814 75.7352 56.3635H75.6597Z" fill="#212121"/>
<path d="M124.27 43.741C124.647 43.5999 125.025 43.5294 125.402 43.4589C126.534 43.2473 127.591 43.3178 128.723 43.6705C129.402 43.8821 129.855 44.3052 130.308 44.799C131.44 46.0685 131.969 47.5497 132.12 49.172C132.12 49.7362 132.271 50.3005 132.271 50.8647C132.271 51.0058 132.271 51.0058 132.12 51.0058C131.289 50.8647 130.61 50.5121 129.855 50.0889C129.327 49.8067 129.025 49.313 128.723 48.8193C128.27 48.0434 127.893 47.2676 127.365 46.5623C126.61 45.5043 125.553 44.5874 124.421 43.8821C124.421 43.8821 124.345 43.8821 124.27 43.8115V43.741Z" fill="#212121"/>
<path d="M135.967 65.7444C137.476 65.8855 138.835 65.5328 140.194 64.9686C140.571 64.8275 140.873 64.9686 141.175 65.1097C141.25 65.1097 141.175 65.2507 141.175 65.2507C140.797 66.5203 140.194 67.5783 139.061 68.4247C138.609 68.7773 138.08 68.8478 137.552 68.9184C135.665 69.271 133.929 68.9184 132.193 68.2131C131.74 68.0015 131.287 67.8604 130.834 67.7193C130.759 67.7193 130.608 67.6488 130.759 67.5077C131.438 66.8024 132.193 66.2382 133.174 65.8855C133.778 65.6739 134.382 65.7444 134.986 65.6739C135.287 65.6739 135.589 65.6739 135.891 65.6739L135.967 65.7444Z" fill="#212121"/>
<path d="M82.2287 59.9624C82.2287 60.5972 82.0777 61.0909 81.7003 61.6551C80.7191 63.0658 79.8888 64.6175 79.134 66.1692C78.9076 66.7334 78.7567 67.3682 78.7567 68.003V68.1441C78.7567 68.1441 78.6812 68.1441 78.6057 68.0735C77.4735 67.0156 76.7187 65.746 76.5678 64.2648C76.5678 63.63 76.7187 63.0658 76.9452 62.572C77.398 61.7257 78.0773 61.0909 78.8321 60.3856C79.7379 59.5392 80.6436 58.8339 81.6248 58.058C81.7758 57.9875 81.8513 57.9169 81.8513 58.058C82.0022 58.6928 82.1532 59.257 82.1532 59.8918L82.2287 59.9624Z" fill="#212121"/>
<path d="M107.815 57.4216C107.74 57.4216 107.665 57.4216 107.589 57.351C107.136 57.1394 106.759 56.8573 106.23 56.7868C106.155 56.7868 106.079 56.7162 106.155 56.5752C106.834 55.3056 107.665 54.2476 109.25 54.036C110.004 53.895 110.684 53.8244 111.438 53.7539C112.193 53.7539 113.023 53.7539 113.778 53.895C114.533 53.9655 115.363 54.1066 116.118 54.036C116.345 54.036 116.345 54.036 116.269 54.2476C116.043 54.6003 115.741 54.9529 115.439 55.3056C115.137 55.5877 114.835 55.8699 114.533 56.152C113.854 56.7162 113.099 56.9278 112.269 56.9984C111.212 57.1394 110.155 57.0689 109.023 57.21C108.646 57.21 108.268 57.351 107.815 57.4216C107.815 57.4216 107.74 57.4216 107.665 57.4216H107.815Z" fill="#212121"/>
<path d="M137.625 54.9547C137.021 54.9547 136.342 54.8842 135.738 54.8136C135.436 54.8136 135.436 54.8136 135.512 54.5315C135.663 53.9673 135.889 53.403 136.191 52.9093C136.569 52.1334 136.946 51.4281 137.172 50.5817C137.323 49.8764 137.399 49.2416 137.399 48.5363C137.399 48.0426 137.399 47.5488 137.172 47.0551C137.172 47.0551 137.172 46.9846 137.172 46.9141C137.172 46.9141 137.172 46.9141 137.248 46.9141C138.908 47.7604 140.041 48.9595 140.493 50.7228C140.569 51.2165 140.493 51.6397 140.343 52.0629C140.041 52.9798 139.588 53.8262 138.984 54.602C138.833 54.8136 138.607 54.9547 138.305 54.8842C138.078 54.8842 137.852 54.8842 137.625 54.8842V54.9547Z" fill="#212121"/>
<path d="M90.6049 60.8086C89.2463 61.1613 87.8877 61.1613 86.6045 60.6675C86.3781 60.597 86.1517 60.3854 86.0007 60.2443C84.944 59.3274 84.0383 58.4105 83.208 57.3525C83.057 57.2115 83.057 57.0704 83.208 56.9293C83.5854 56.3651 83.8118 55.6598 83.8873 54.9544C83.8873 54.9544 83.8873 54.8134 83.8873 54.7428C83.8873 54.5313 84.0383 54.5312 84.1892 54.5312C84.8685 54.6018 85.3969 54.8839 85.9252 55.2366C86.4536 55.6598 86.831 56.083 87.2084 56.5767C88.1141 57.7757 89.0198 58.9748 90.0765 60.0327C90.2275 60.2443 90.4539 60.3854 90.6049 60.597V60.8086Z" fill="#212121"/>
<path d="M95.4374 44.0923C96.7961 43.528 98.6075 43.6691 99.5888 45.2208C99.9661 45.8556 100.193 46.6314 100.344 47.3368C100.721 48.6063 101.023 49.9464 101.4 51.216C101.4 51.4276 101.4 51.4276 101.249 51.3571C100.796 51.3571 100.344 51.216 99.8907 51.0044C99.2868 50.7223 98.7585 50.2991 98.5321 49.7348C98.1547 48.8179 97.7773 47.901 97.3999 47.0546C97.098 46.3493 96.7206 45.7145 96.3432 45.0092C96.1167 44.6565 95.8903 44.3039 95.4374 44.0218V44.0923Z" fill="#212121"/>
<path d="M100.871 44.9375C101.928 44.9375 102.683 45.5723 103.06 46.5597C103.287 47.1945 103.362 47.8998 103.437 48.6052C103.588 49.9453 103.739 51.2148 103.89 52.5549C103.89 52.7665 103.89 52.7665 103.664 52.696C103.136 52.5549 102.607 52.3434 102.23 51.9202C101.928 51.5675 101.777 51.1443 101.701 50.7211C101.4 49.3105 101.098 47.8998 100.645 46.4892C100.494 46.066 100.343 45.5723 99.9655 45.2196C99.9655 45.1491 99.9655 45.0786 99.9655 45.0786C100.267 45.008 100.569 44.9375 100.871 44.9375Z" fill="#212121"/>
<path d="M74.2256 59.6785C73.8482 59.3964 73.4708 59.0437 73.1689 58.7616C72.5651 58.1974 72.1122 57.5626 71.5838 56.9278C71.0555 56.293 70.5271 55.6582 69.8478 55.1645C69.6969 55.0234 69.7724 55.0234 69.8478 54.9529C70.7536 54.7413 71.5838 54.6708 72.4896 54.7413C73.0934 54.7413 73.6218 54.8824 74.1501 55.1645C74.3765 55.3055 74.452 55.3761 74.452 55.6582C74.452 56.0814 74.452 56.5046 74.603 56.9278C74.603 57.0688 74.603 57.2099 74.603 57.4215C74.2256 58.1268 74.1501 58.8321 74.0746 59.608C74.0746 59.608 74.0746 59.6785 74.0746 59.7491L74.2256 59.6785Z" fill="#212121"/>
<path d="M105.627 50.9344C105.627 51.7808 105.627 52.6977 105.627 53.5441C105.627 53.7557 105.627 53.7557 105.4 53.6851C104.721 53.403 104.268 52.9093 104.268 52.204C104.192 51.2165 104.117 50.2996 104.041 49.3122C104.041 48.5363 103.89 47.6899 103.664 46.9141C103.664 46.773 103.589 46.5614 103.513 46.4204C103.438 46.2793 103.513 46.2088 103.589 46.1382C104.268 45.8561 104.947 46.0677 105.249 46.7025C105.551 47.2667 105.627 47.831 105.627 48.4658C105.627 49.3122 105.627 50.088 105.627 50.9344Z" fill="#212121"/>
<path d="M66.9818 83.7338C66.9818 83.0285 66.9818 82.2526 66.9818 81.5473C66.9818 81.4062 66.9818 81.4062 67.1328 81.4062C67.963 81.4062 68.7178 81.4062 69.5481 81.5473C70.6803 81.7589 71.3596 82.6053 71.3596 83.7338C71.3596 84.7212 70.7557 85.6382 69.699 85.9908C69.2462 86.1319 68.8688 86.1319 68.4159 86.1319C68.0385 86.1319 67.6611 86.1319 67.2082 86.1319C67.0573 86.1319 66.9818 86.1319 66.9818 85.9203C66.9818 85.215 66.9818 84.5097 66.9818 83.8043V83.7338ZM67.8876 83.7338C67.8876 84.2275 67.8876 84.6507 67.8876 85.1444C67.8876 85.2855 67.8876 85.356 68.0385 85.356C68.4159 85.356 68.7933 85.356 69.0952 85.356C69.9255 85.215 70.5293 84.5802 70.5293 83.8043C70.5293 82.958 69.9255 82.3232 69.0952 82.2526C68.7178 82.2526 68.3404 82.2526 67.963 82.2526C67.8121 82.2526 67.8121 82.3232 67.8121 82.3937C67.8121 82.8874 67.8121 83.3811 67.8121 83.8043L67.8876 83.7338Z" fill="#212121"/>
<path d="M107.588 49.0286C107.588 49.875 107.437 50.7919 107.362 51.6383C107.286 52.4846 107.211 53.2605 107.135 54.1069C107.135 54.2479 107.135 54.389 107.06 54.389C106.909 54.389 106.834 54.389 106.758 54.2479C106.305 53.9658 106.079 53.5426 106.079 53.0489C106.079 52.0614 106.079 51.074 106.079 50.0866C106.079 49.2402 106.079 48.3938 105.928 47.5474C105.928 47.5474 105.928 47.4063 105.928 47.3358C105.852 47.0537 105.852 47.0537 106.154 46.9832C106.985 46.8421 107.513 47.1947 107.664 48.1117C107.664 48.3938 107.664 48.6759 107.664 49.0286H107.588Z" fill="#212121"/>
<path d="M132.496 83.7338C132.496 83.0285 132.496 82.3232 132.496 81.6178C132.496 81.4062 132.496 81.4062 132.722 81.4062C133.326 81.4062 133.25 81.4062 133.25 81.9705C133.25 82.3937 133.25 82.7464 133.25 83.1695C133.25 83.3106 133.25 83.3106 133.401 83.3106C134.081 83.3106 134.76 83.3106 135.439 83.3106C135.59 83.3106 135.59 83.2401 135.59 83.1695C135.59 82.6758 135.59 82.1821 135.59 81.6178C135.59 81.4768 135.59 81.4062 135.817 81.4062C136.496 81.4062 136.496 81.4062 136.496 81.9705C136.496 83.2401 136.496 84.5802 136.496 85.8498C136.496 85.9908 136.496 86.0614 136.27 86.0614C136.043 86.0614 135.817 86.0614 135.666 86.0614C135.515 85.9908 135.666 85.7087 135.666 85.4971C135.666 85.0739 135.666 84.6507 135.666 84.2275C135.666 84.0865 135.666 84.0865 135.515 84.0865C134.835 84.0865 134.232 84.0865 133.552 84.0865C133.401 84.0865 133.401 84.0865 133.401 84.2275C133.401 84.7918 133.401 85.2855 133.401 85.8498C133.401 86.0614 133.401 86.1319 133.175 86.1319C132.647 86.1319 132.647 86.1319 132.647 85.6382C132.647 85.0034 132.647 84.3686 132.647 83.8043L132.496 83.7338Z" fill="#212121"/>
<path d="M93.0216 83.734C93.0216 84.4393 93.0216 85.1447 93.0216 85.85C93.0216 85.991 93.0216 86.0616 92.7952 86.0616C92.2668 86.0616 92.2668 86.0616 92.2668 85.5679C92.2668 85.1447 92.2668 84.6509 92.2668 84.2277C92.2668 84.0867 92.2668 84.0867 92.1159 84.0867C91.4366 84.0867 90.7573 84.0867 90.078 84.0867C89.927 84.0867 89.927 84.0867 89.927 84.2277C89.927 84.792 89.927 85.3563 89.927 85.9205C89.927 86.0616 89.927 86.0616 89.7006 86.0616C89.0213 86.0616 89.0213 86.0616 89.0213 85.4973C89.0213 84.2277 89.0213 82.9582 89.0213 81.6886C89.0213 81.4065 89.0213 81.4065 89.3232 81.4065C89.6754 81.4065 89.8515 81.571 89.8515 81.9002C89.8515 82.3234 89.8515 82.7466 89.8515 83.0992C89.8515 83.2403 89.8515 83.2403 90.0025 83.2403C90.6818 83.2403 91.2856 83.2403 91.9649 83.2403C92.1159 83.2403 92.1914 83.2403 92.1914 83.0287C92.1914 82.535 92.1914 82.0413 92.1914 81.5475C92.1914 81.4065 92.1914 81.3359 92.4178 81.3359C93.0216 81.3359 92.9462 81.3359 92.9462 81.9002C92.9462 82.535 92.9462 83.0992 92.9462 83.734H93.0216Z" fill="#212121"/>
<path d="M140.875 84.5066C140.875 84.0128 140.875 83.5896 140.875 83.0959C140.875 82.9549 140.875 82.8843 141.101 82.8843C141.176 82.8843 141.327 82.8843 141.403 82.8843C141.554 82.8843 141.629 82.8843 141.629 83.0254C141.629 83.1665 141.705 83.0959 141.78 83.0254C142.007 82.8843 142.233 82.8138 142.46 82.8138C142.912 82.8138 143.214 82.8138 143.516 83.1665C143.592 83.237 143.667 83.237 143.743 83.1665C144.498 82.4611 145.63 82.8138 145.856 83.7307C145.932 84.0128 145.856 84.295 145.856 84.5771C145.856 85.0003 145.856 85.4235 145.856 85.8467C145.856 85.9877 145.856 86.0583 145.705 85.9877C145.554 85.9877 145.403 85.9877 145.328 85.9877C145.177 85.9877 145.101 85.9877 145.101 85.7761C145.101 85.2119 145.101 84.6476 145.101 84.0834C145.101 84.0128 145.101 83.9423 145.101 83.8012C145.101 83.5896 144.95 83.4486 144.724 83.3781C144.422 83.3781 144.12 83.378 143.969 83.6602C143.818 83.8718 143.818 84.0128 143.818 84.295C143.818 84.7887 143.818 85.2824 143.818 85.7761C143.818 85.9172 143.818 85.9877 143.592 85.9877C143.063 85.9877 143.063 85.9877 143.063 85.494C143.063 85.1413 143.063 84.7182 143.063 84.3655C143.063 84.2244 143.063 84.0834 143.063 83.9423C143.063 83.6602 142.837 83.5191 142.535 83.5191C142.233 83.5191 142.007 83.6602 141.856 83.9423C141.78 84.1539 141.705 84.436 141.705 84.7182C141.705 85.1413 141.705 85.494 141.705 85.9172C141.705 86.0583 141.705 86.1288 141.478 86.1288C140.875 86.1288 140.875 86.1288 140.875 85.5645C140.875 85.2119 140.875 84.8592 140.875 84.5066Z" fill="#212121"/>
<path d="M98.5309 83.1704C99.3611 82.6062 100.418 82.8883 100.871 83.3115C101.399 83.8757 101.475 84.8632 101.022 85.498C100.72 85.8506 100.342 86.0622 99.8895 86.1328C99.5121 86.1328 99.3611 86.1328 98.6063 85.8506C98.6063 86.1328 98.4554 86.1328 98.3044 86.1328C97.8516 86.1328 97.8516 86.1328 97.8516 85.7096C97.8516 84.2989 97.8516 82.8883 97.8516 81.4071C97.8516 81.1955 97.8516 81.125 98.1535 81.125C98.6818 81.125 98.6818 81.125 98.6818 81.6187C98.6818 82.1124 98.6818 82.6062 98.6818 83.1704H98.5309ZM99.5121 83.5231C98.9083 83.5231 98.5309 83.8757 98.5309 84.44C98.5309 85.0043 98.9083 85.4274 99.5121 85.4274C100.04 85.4274 100.418 85.0748 100.493 84.5105C100.493 83.9463 100.116 83.5231 99.5121 83.5231Z" fill="#212121"/>
<path d="M146.684 83.5936C146.684 82.8178 146.684 82.1124 146.684 81.3366C146.684 81.1955 146.684 81.125 146.911 81.125C147.514 81.125 147.514 81.125 147.514 81.6893C147.514 82.183 147.514 82.6062 147.514 83.0999V83.1704C147.514 83.1704 147.59 83.1704 147.665 83.1704C148.42 82.7472 149.326 82.8883 149.854 83.4526C150.534 84.2284 150.383 85.4274 149.477 85.9917C148.949 86.3444 148.269 86.3444 147.741 85.9917C147.59 85.9917 147.514 85.8506 147.514 86.0622C147.514 86.0622 147.514 86.2033 147.363 86.1328C146.961 86.1328 146.76 85.9447 146.76 85.5685C146.76 84.9337 146.76 84.2989 146.76 83.6641L146.684 83.5936ZM149.401 84.5105C149.401 83.9463 149.024 83.5231 148.496 83.5231C147.892 83.5231 147.514 83.8757 147.514 84.5105C147.514 85.0748 147.892 85.4274 148.496 85.4274C149.024 85.4274 149.401 85.0748 149.401 84.5105Z" fill="#212121"/>
<path d="M154.158 61.3722C152.573 61.3017 151.063 61.2312 149.478 61.1606C148.874 61.1606 148.497 60.7374 148.648 60.2437C148.723 59.8911 149.101 59.75 149.554 59.75C150.384 59.75 151.214 59.8205 152.045 59.8911C152.799 59.8911 153.554 59.8911 154.309 59.9616C154.46 59.9616 154.686 59.9616 154.837 60.1027C155.139 60.2437 155.29 60.5259 155.215 60.808C155.215 61.0901 154.988 61.3017 154.686 61.3017C154.535 61.3017 154.309 61.3017 154.158 61.3017V61.3722Z" fill="#212121"/>
<path d="M107.512 53.5412C107.588 52.7654 107.739 51.919 107.814 51.1431C107.889 50.2262 108.04 49.3093 107.965 48.3924C107.965 48.3924 107.965 48.2513 107.965 48.1808C107.965 47.9927 108.04 47.8751 108.191 47.8281C108.72 47.8281 109.173 48.0397 109.399 48.5334C109.625 49.0272 109.55 49.5209 109.475 50.0851C109.475 50.3673 109.399 50.7199 109.324 51.0021C109.324 51.1431 109.324 51.2842 109.173 51.3547C108.644 52.06 108.267 52.7654 107.965 53.6117C107.965 53.7528 107.663 54.0349 107.588 53.9644C107.437 53.8939 107.588 53.6823 107.588 53.5412H107.512Z" fill="#212121"/>
<path d="M105.022 65.8155C103.361 65.6744 101.701 65.6039 100.04 65.4628C99.5875 65.4628 99.5875 65.4628 99.8139 65.0396C100.191 64.4754 100.569 63.9817 101.097 63.629C101.173 63.629 101.248 63.5585 101.323 63.629C102.38 64.4754 103.663 64.9691 105.097 65.1102C105.55 65.1102 105.777 65.4628 106.003 65.745C106.079 65.8155 106.003 65.886 105.928 65.886C105.626 65.886 105.399 65.886 105.097 65.886L105.022 65.8155Z" fill="#212121"/>
<path d="M108.87 86.1312C107.889 86.1312 107.059 85.4259 107.059 84.509C107.059 83.592 107.813 82.8867 108.87 82.8867C109.851 82.8867 110.682 83.592 110.682 84.509C110.682 85.4259 109.927 86.1312 108.87 86.2017V86.1312ZM109.851 84.509C109.851 83.9447 109.474 83.592 108.946 83.592C108.342 83.592 107.964 83.9447 107.964 84.509C107.964 85.0732 108.342 85.4259 108.946 85.4964C109.549 85.4964 109.851 85.1437 109.851 84.509Z" fill="#212121"/>
<path d="M140.195 84.8601C140.195 85.2127 140.195 85.5654 140.195 85.9181C140.195 86.0591 140.195 86.1297 140.044 86.0591C139.969 86.0591 139.818 86.0591 139.742 86.0591C139.591 86.0591 139.516 86.0591 139.516 85.9181C139.516 85.777 139.516 85.777 139.365 85.9181C138.987 86.2002 138.535 86.2002 138.082 86.1297C137.704 86.1297 137.402 85.8475 137.327 85.4949C137.176 85.1422 137.251 84.7895 137.553 84.5074C137.855 84.2253 138.308 84.0842 138.685 84.0842C138.912 84.0842 139.063 84.0842 139.289 84.0842C139.44 84.0842 139.44 84.0842 139.44 83.9432C139.44 83.7316 139.289 83.5905 139.063 83.5905C138.685 83.52 138.384 83.5905 138.082 83.7316C137.931 83.8726 137.855 83.8021 137.704 83.7316C137.327 83.3789 137.327 83.3789 137.78 83.1673C138.308 82.8852 138.836 82.8852 139.365 83.0263C139.893 83.1673 140.12 83.52 140.195 84.0137C140.195 84.2958 140.195 84.6485 140.195 84.9306V84.8601ZM139.44 84.719C139.44 84.578 139.44 84.5074 139.289 84.578C139.138 84.578 138.987 84.578 138.761 84.578C138.535 84.578 138.384 84.578 138.157 84.7895C137.931 85.0011 137.931 85.2833 138.157 85.4243C138.685 85.6359 139.365 85.2833 139.365 84.719H139.44Z" fill="#212121"/>
<path d="M84.6417 84.7898C84.6417 85.1424 84.6417 85.5656 84.6417 85.9183C84.6417 86.0593 84.6417 86.0593 84.4907 86.0593C84.3398 86.0593 84.1888 86.0593 84.1133 86.0593C84.1133 86.0593 83.9624 86.0593 83.9624 85.9888C83.9624 85.7772 83.8114 85.8478 83.7359 85.9888C83.2076 86.2709 82.6792 86.2709 82.1509 85.9888C81.698 85.7772 81.5471 84.8603 81.9999 84.5076C82.3773 84.2255 82.7547 84.0845 83.2076 84.0845C83.3586 84.0845 83.5095 84.0845 83.7359 84.0845C83.9624 84.0845 84.0379 84.0139 83.8869 83.8023C83.7359 83.5907 83.585 83.4497 83.3586 83.4497C83.0566 83.4497 82.7547 83.4497 82.5283 83.6613C82.3773 83.8023 82.3019 83.7318 82.1509 83.6613C81.7735 83.3086 81.7735 83.3791 82.2264 83.097C82.7547 82.8149 83.2831 82.8149 83.8114 82.9559C84.3398 83.097 84.5662 83.4497 84.6417 83.9434C84.6417 84.2255 84.6417 84.5076 84.6417 84.7898ZM83.8869 84.7898C83.8869 84.6487 83.8869 84.6487 83.6605 84.6487C83.3586 84.6487 83.0566 84.6487 82.8302 84.7898C82.6793 84.7898 82.5283 85.0014 82.5283 85.1424C82.5283 85.2835 82.5283 85.4246 82.7547 85.4951C83.0566 85.6362 83.3586 85.5656 83.585 85.4951C83.8114 85.354 83.9624 85.1424 83.9624 84.8603L83.8869 84.7898Z" fill="#212121"/>
<path d="M96.1925 85.7787C95.8905 86.0609 95.5131 86.1314 95.1358 86.1314C94.4564 86.1314 94.0036 85.7082 93.9281 85.0029C93.9281 84.3681 93.9281 83.7333 93.9281 83.028C93.9281 82.8869 93.9281 82.8164 94.0791 82.8869C94.8338 82.8869 94.6829 82.7459 94.7584 83.4512C94.7584 83.8744 94.7584 84.227 94.7584 84.6502C94.7584 84.7913 94.7584 84.9324 94.8338 85.0734C94.9848 85.3556 95.2112 85.4261 95.5131 85.3556C95.8151 85.3556 96.0415 85.144 96.117 84.9324C96.2679 84.6502 96.2679 84.2976 96.2679 84.0154C96.2679 83.6628 96.2679 83.3807 96.2679 83.028C96.2679 82.8869 96.2679 82.8164 96.4944 82.8164C97.0227 82.8164 97.0227 82.8164 97.0227 83.3101C97.0227 84.1565 97.0227 85.0029 97.0227 85.8493C97.0227 85.9903 97.0227 86.0609 96.7963 86.0609C96.7963 86.0609 96.6453 86.0609 96.5698 86.0609C96.3434 86.0609 96.117 86.0609 96.2679 85.7787H96.1925Z" fill="#212121"/>
<path d="M153.854 84.5075C153.854 85.0012 153.854 85.4244 153.854 85.9182C153.854 86.0592 153.854 86.1298 153.704 86.1298C153.553 86.1298 153.402 86.1298 153.251 86.1298H153.1C153.1 85.9887 152.949 85.9887 152.798 86.1298C152.345 86.3414 151.892 86.3414 151.439 86.1298C151.062 85.9182 150.835 85.5655 150.835 85.1423C150.835 84.5075 150.835 83.8727 150.835 83.3085C150.835 83.1674 150.835 83.0969 151.062 83.0969C151.137 83.0969 151.288 83.0969 151.364 83.0969C151.59 83.0969 151.666 83.1674 151.59 83.379C151.59 83.8022 151.59 84.2254 151.59 84.6486C151.59 84.7897 151.59 85.0012 151.666 85.1423C151.817 85.495 151.968 85.636 152.345 85.636C152.647 85.636 152.949 85.4244 153.024 85.1423C153.024 85.0012 153.024 84.7897 153.024 84.6486C153.024 84.2254 153.024 83.8022 153.024 83.3085C153.024 83.1674 153.024 83.0264 153.251 83.0969C153.93 83.0969 153.854 82.9558 153.854 83.6611C153.854 84.0138 153.854 84.3665 153.854 84.7191V84.5075Z" fill="#212121"/>
<path d="M103.814 83.7338C103.814 83.0285 103.814 82.3232 103.814 81.5473C103.814 81.4062 103.814 81.4062 103.965 81.4062C104.418 81.4062 104.645 81.5943 104.645 81.9705C104.645 83.0285 104.645 84.0159 104.645 85.0739C104.645 85.356 104.645 85.356 104.947 85.356C105.475 85.356 106.079 85.356 106.607 85.356C106.833 85.356 106.909 85.356 106.833 85.5676C106.833 85.5676 106.833 85.6382 106.833 85.7087C106.833 85.9908 106.708 86.1319 106.456 86.1319C105.701 86.1319 104.871 86.1319 104.116 86.1319C103.89 86.1319 103.814 86.1319 103.814 85.8498C103.814 85.1444 103.814 84.4391 103.814 83.7338Z" fill="#212121"/>
<path d="M118.079 86.1309C117.626 86.1309 117.173 86.0604 116.871 85.6372C116.796 85.4961 116.796 85.4256 116.871 85.3551C116.947 85.2845 117.098 85.1435 117.173 85.1435C117.324 85.1435 117.4 85.2845 117.475 85.3551C117.702 85.4961 118.004 85.5667 118.306 85.4256C118.457 85.4256 118.532 85.2845 118.532 85.1435C118.532 85.0024 118.381 85.0024 118.306 84.9319C118.079 84.7908 117.777 84.7908 117.551 84.7203C117.249 84.6497 116.947 84.5087 116.796 84.156C116.645 83.7328 116.796 83.3096 117.249 83.098C117.777 82.8159 118.607 82.8159 118.985 83.1686C119.211 83.3802 119.211 83.4507 118.985 83.6623C118.985 83.6623 118.834 83.6623 118.834 83.8034C118.683 83.9444 118.607 83.8739 118.532 83.8034C118.306 83.5918 117.777 83.5918 117.626 83.8034C117.626 83.8739 117.626 84.015 117.626 84.0855C117.702 84.156 117.853 84.2266 117.928 84.2266C118.079 84.2266 118.306 84.2971 118.457 84.3676C118.985 84.5087 119.287 84.8613 119.287 85.3551C119.287 85.7077 118.834 86.1309 118.306 86.2015C118.155 86.2015 118.004 86.2015 117.777 86.2015L118.079 86.1309Z" fill="#212121"/>
<path d="M128.344 86.1313C127.967 86.1313 127.59 85.9902 127.212 85.6376C127.137 85.567 127.137 85.4965 127.212 85.426C127.363 85.3554 127.439 85.2144 127.59 85.1438C127.665 85.0733 127.741 85.1438 127.816 85.1438C128.042 85.3554 128.344 85.426 128.722 85.3554C128.873 85.3554 128.948 85.2849 129.024 85.1438C129.024 85.0028 128.948 84.9322 128.797 84.8617C128.495 84.7912 128.193 84.7206 127.967 84.5796C127.665 84.509 127.439 84.2974 127.363 83.9448C127.288 83.5921 127.363 83.2395 127.741 83.0279C128.269 82.6047 129.25 82.6752 129.778 83.1689C129.929 83.31 129.929 83.3805 129.778 83.4511C129.778 83.4511 129.778 83.4511 129.703 83.5216C129.401 83.7332 129.401 83.7332 129.099 83.5216C128.873 83.3805 128.646 83.4511 128.495 83.5216C128.42 83.5216 128.344 83.6627 128.344 83.7332C128.344 83.8037 128.344 83.8743 128.495 83.9448C128.646 84.0153 128.797 84.0859 128.948 84.0859C129.175 84.0859 129.326 84.2269 129.552 84.2974C130.156 84.509 130.231 85.426 129.778 85.7786C129.477 85.9902 129.175 86.1313 128.571 86.1313H128.344Z" fill="#212121"/>
<path d="M124.042 84.3658C124.042 83.872 124.269 83.3078 125.023 83.0256C125.703 82.7435 126.307 82.8141 126.91 83.1667C127.137 83.3078 127.137 83.3783 126.91 83.5899C126.835 83.6604 126.684 83.8015 126.608 83.872C126.458 83.872 126.382 83.731 126.307 83.6604C125.854 83.4488 125.174 83.5194 125.023 84.0836C124.948 84.4363 124.948 84.7889 125.174 85.1416C125.476 85.4943 126.156 85.4943 126.458 85.1416C126.608 85.0005 126.684 85.0005 126.759 85.1416C126.759 85.2121 126.91 85.2827 126.986 85.3532C127.137 85.4943 127.137 85.5648 126.986 85.7059C126.382 86.1291 125.703 86.1291 125.023 85.9175C124.344 85.6353 124.118 85.1416 124.118 84.2952L124.042 84.3658Z" fill="#212121"/>
<path d="M79.5846 84.4367C79.5846 84.1546 79.5846 83.943 79.5846 83.7314C79.5846 83.5903 79.5846 83.5903 79.4337 83.5903C79.4337 83.5903 79.2827 83.5903 79.2072 83.5903C79.1318 83.5903 78.9053 83.5903 78.9053 83.5903C78.9053 83.4493 78.9053 83.2377 78.9053 83.0261C78.9053 82.9555 79.0563 83.0261 79.1318 83.0261C79.4337 83.0261 79.5846 82.885 79.5846 82.6029C79.5846 82.3208 79.7356 82.1797 80.0375 82.1797C80.0375 82.1797 80.113 82.1797 80.1885 82.1797C80.3394 82.1797 80.4149 82.1797 80.4149 82.3913C80.4149 82.5323 80.4149 82.6734 80.4149 82.885C80.4149 83.0261 80.4149 83.0261 80.5659 83.0261C80.7168 83.0261 80.9433 83.0261 81.0942 83.0261C81.2452 83.0261 81.2452 83.0261 81.2452 83.1671C81.2452 83.4963 81.0942 83.6609 80.7923 83.6609C80.7923 83.6609 80.7923 83.6609 80.7168 83.6609C80.4149 83.6609 80.4149 83.6609 80.4149 83.943C80.4149 84.2956 80.4149 84.6483 80.4149 85.001C80.4149 85.5652 80.5659 85.6358 81.1697 85.4947C81.3206 85.4947 81.3206 85.4947 81.3206 85.6358C81.3206 86.2 81.3206 86.2 80.7168 86.2705C80.0375 86.2705 79.7356 86.0589 79.6601 85.4242C79.6601 85.142 79.6601 84.7894 79.6601 84.5778L79.5846 84.4367Z" fill="#212121"/>
<path d="M120.267 84.3666C120.267 84.155 120.267 83.8729 120.267 83.6613C120.267 83.5908 120.267 83.5202 120.116 83.5202C120.116 83.5202 120.041 83.5202 119.965 83.5202C119.814 83.5202 119.664 83.5202 119.588 83.5202C119.513 83.3792 119.588 83.1676 119.588 82.956C119.588 82.8854 119.664 82.8854 119.739 82.8854C120.267 82.8854 120.267 82.8854 120.267 82.3917C120.267 82.1566 120.393 82.0391 120.645 82.0391C120.896 82.0391 121.047 82.1801 121.098 82.4623C121.148 82.7444 121.299 82.8854 121.55 82.8854C122.003 82.8854 122.003 82.8854 122.003 83.3086C122.003 83.5202 122.003 83.5908 121.701 83.5908C121.55 83.5908 121.475 83.5908 121.324 83.5908C121.173 83.5908 121.098 83.5908 121.098 83.8024C121.098 84.2256 121.098 84.6487 121.098 85.0719C121.098 85.4246 121.249 85.4951 121.626 85.4951C121.701 85.4951 121.852 85.3541 121.928 85.4951C122.003 85.5657 121.928 85.7067 121.928 85.8478C121.928 86.2004 121.928 86.2004 121.55 86.2004C120.569 86.271 120.192 85.9888 120.192 85.0719C120.192 84.8603 120.192 84.6487 120.192 84.5077L120.267 84.3666Z" fill="#212121"/>
<path d="M113.173 57.5625C113.324 57.5625 113.324 57.5625 113.249 57.7036C113.249 57.9152 113.098 58.1268 113.022 58.3384C112.796 58.7615 112.569 59.1847 112.268 59.6079C112.268 59.6785 112.192 59.6785 112.041 59.6079C111.211 59.0437 110.305 58.6205 109.173 58.5499C108.947 58.5499 108.72 58.4089 108.645 58.1973C108.645 58.1268 108.645 58.0562 108.72 58.0562C109.626 58.0562 110.456 57.9152 111.362 57.9152C111.966 57.9152 112.494 57.7741 113.098 57.7036L113.173 57.5625Z" fill="#212121"/>
<path d="M139.741 55.0244C140.194 54.3896 140.571 53.7548 140.873 53.0495C140.949 52.7674 141.1 52.4853 141.175 52.2737V52.2031C141.175 52.2031 141.175 52.2031 141.251 52.2031C141.779 52.979 142.232 53.8254 142.383 54.7423C142.383 54.8833 142.383 54.9539 142.156 54.9539C141.854 54.9539 141.552 54.9539 141.175 54.9539C140.647 54.9539 140.194 54.9539 139.665 54.9539L139.741 55.0244Z" fill="#212121"/>
<path d="M85.3981 83.5936C85.3981 82.8178 85.3981 82.0419 85.3981 81.2661C85.3981 81.125 85.3981 81.125 85.549 81.125C86.2283 81.125 86.2283 81.125 86.2283 81.6893C86.2283 83.0999 86.2283 84.5105 86.2283 85.8506C86.2283 85.9917 86.2283 86.1328 86.0019 86.0622C86.0019 86.0622 85.9264 86.0622 85.8509 86.0622C85.3981 86.0622 85.3981 86.0622 85.3981 85.639C85.3981 84.9337 85.3981 84.2284 85.3981 83.5231V83.5936Z" fill="#212121"/>
<path d="M134.005 65.1098C133.854 65.1098 133.854 65.1098 133.854 64.9688C134.005 64.5456 134.231 64.1929 134.382 63.7697C134.382 63.6287 134.533 63.7697 134.609 63.7697C135.741 63.9813 136.948 64.1929 138.081 64.475C138.232 64.475 138.458 64.475 138.609 64.5456H138.76C138.76 64.5456 138.76 64.5456 138.609 64.6161C138.005 64.7572 137.477 64.8277 136.873 64.8982C135.892 64.9688 134.911 64.8982 133.929 65.0393L134.005 65.1098Z" fill="#212121"/>
<path d="M154.61 84.5092C154.61 84.0154 154.61 83.5923 154.61 83.0985C154.61 82.9575 154.61 82.8164 154.836 82.8869C154.987 82.8869 155.063 82.8869 155.214 82.8869C155.214 82.8869 155.364 82.8869 155.364 82.9575C155.364 83.1691 155.44 83.0985 155.591 83.028C155.893 82.8869 156.119 82.8164 156.497 82.8164C156.648 82.8164 156.723 82.8164 156.648 83.028C156.648 83.1691 156.648 83.3101 156.648 83.5217C156.648 83.6628 156.648 83.6628 156.497 83.6628C155.817 83.5217 155.44 83.8039 155.44 84.4386C155.44 84.9324 155.44 85.4261 155.44 85.8493C155.44 86.0609 155.44 86.0609 155.214 86.0609C154.685 86.0609 154.685 86.0609 154.685 85.5671C154.685 85.2145 154.685 84.7913 154.685 84.4386L154.61 84.5092Z" fill="#212121"/>
<path d="M115.438 84.5079C115.438 84.0847 115.438 83.591 115.438 83.1678C115.438 83.0267 115.438 82.8856 115.664 82.8856C116.268 82.8856 116.268 82.8151 116.268 83.3794C116.268 84.2257 116.268 85.0721 116.268 85.848C116.268 85.989 116.268 85.989 116.041 85.989C115.438 85.989 115.438 85.989 115.438 85.4248C115.438 85.0721 115.438 84.7195 115.438 84.3668V84.5079Z" fill="#212121"/>
<path d="M77.7748 84.509C77.7748 84.0152 77.7748 83.592 77.7748 83.0983C77.7748 82.9573 77.7748 82.8867 78.0013 82.8867C78.6051 82.8867 78.6051 82.8867 78.6051 83.3804C78.6051 84.2268 78.6051 85.0732 78.6051 85.8491C78.6051 85.9901 78.6051 86.0607 78.3787 86.0607C78.2277 86.0607 78.0768 86.0607 77.9258 86.0607C77.7748 86.0607 77.7748 86.0607 77.7748 85.9196C77.7748 85.4259 77.7748 85.0027 77.7748 84.509Z" fill="#212121"/>
<path d="M71.9632 84.509C71.9632 84.0152 71.9632 83.592 71.9632 83.0983C71.9632 82.9573 71.9632 82.8867 72.1896 82.8867C72.1896 82.8867 72.3406 82.8867 72.4161 82.8867C72.7935 82.8867 72.7935 82.8867 72.7935 83.3099C72.7935 84.1563 72.7935 85.0027 72.7935 85.8491C72.7935 86.0607 72.7935 86.1312 72.567 86.1312C72.0387 86.1312 72.0387 86.1312 72.0387 85.6375C72.0387 85.2848 72.0387 84.9321 72.0387 84.5795L71.9632 84.509Z" fill="#212121"/>
<path d="M83.1331 58.551C83.284 58.6921 83.435 58.8331 83.5859 59.0447C84.1143 59.609 84.6426 60.1027 85.171 60.5964C85.171 60.5964 85.3219 60.667 85.2465 60.7375C85.2465 60.7375 85.171 60.7375 85.0955 60.7375C84.5671 60.808 84.0388 60.9491 83.435 60.9491C83.1331 60.9491 83.1331 60.9491 83.2085 60.7375C83.284 60.0322 83.284 59.3974 83.2085 58.6921C83.2085 58.6921 83.2085 58.6215 83.2085 58.4805L83.1331 58.551Z" fill="#212121"/>
<path d="M122.607 84.5079C122.607 84.0141 122.607 83.591 122.607 83.0972C122.607 82.9562 122.607 82.8856 122.758 82.8856C123.513 82.8856 123.362 82.8151 123.362 83.3794C123.362 84.1552 123.362 85.0016 123.362 85.7774C123.362 86.0596 123.362 86.0596 123.06 86.0596C122.758 86.0596 122.607 85.9185 122.607 85.6364C122.607 85.2837 122.607 84.8605 122.607 84.5079Z" fill="#212121"/>
<path d="M161.477 65.9555C161.477 65.5323 161.779 65.1797 162.232 65.1797C162.685 65.1797 162.987 65.5323 162.987 65.9555C162.987 66.3787 162.685 66.7314 162.232 66.6609C161.855 66.6609 161.553 66.3082 161.553 65.885L161.477 65.9555Z" fill="#212121"/>
<path d="M164.422 64.6174C164.799 64.6174 165.176 64.9701 165.176 65.3933C165.176 65.8164 164.799 66.0986 164.422 66.0986C164.044 66.0986 163.742 65.7459 163.742 65.3227C163.742 64.8995 164.044 64.5469 164.422 64.5469V64.6174Z" fill="#212121"/>
<path d="M162.837 64.2636C162.459 64.2636 162.082 63.911 162.082 63.4878C162.082 63.0646 162.459 62.7119 162.837 62.7825C163.214 62.7825 163.516 63.1351 163.516 63.5583C163.516 63.9815 163.138 64.3342 162.761 64.3342L162.837 64.2636Z" fill="#212121"/>
<path d="M158.384 59.9634C158.384 59.5402 158.686 59.1875 159.139 59.1875C159.516 59.1875 159.894 59.5402 159.894 59.9634C159.894 60.3865 159.592 60.7392 159.214 60.7392C158.837 60.7392 158.46 60.3865 158.46 59.9634H158.384Z" fill="#212121"/>
<path d="M158.384 62.643C158.384 62.2198 158.686 61.8672 159.063 61.8672C159.441 61.8672 159.818 62.2198 159.818 62.643C159.818 63.0662 159.516 63.4189 159.139 63.4189C158.761 63.4189 158.384 63.0662 158.384 62.643Z" fill="#212121"/>
<path d="M160.875 60.668C161.252 60.668 161.63 61.0206 161.554 61.4438C161.554 61.867 161.177 62.2197 160.799 62.2197C160.422 62.2197 160.044 61.867 160.044 61.4438C160.044 61.0206 160.346 60.7385 160.799 60.7385L160.875 60.668Z" fill="#212121"/>
<path d="M160.723 65.1118C160.723 65.535 160.421 65.8171 159.968 65.8171C159.591 65.8171 159.289 65.4644 159.289 65.0413C159.289 64.6886 159.666 64.3359 160.044 64.3359C160.496 64.3359 160.723 64.6886 160.723 65.1118Z" fill="#212121"/>
<path d="M165.176 58.1977C165.176 58.6209 164.874 58.9736 164.497 58.9736C164.12 58.9736 163.742 58.6209 163.742 58.1977C163.742 57.7745 164.12 57.4219 164.497 57.4219C164.874 57.4219 165.176 57.7745 165.176 58.1977Z" fill="#212121"/>
<path d="M160.648 51.4284C160.648 51.8516 160.346 52.1337 159.894 52.1337C159.516 52.1337 159.214 51.7811 159.214 51.3579C159.214 50.9347 159.592 50.582 159.969 50.582C160.346 50.582 160.648 50.9347 160.648 51.3579V51.4284Z" fill="#212121"/>
<path d="M165.026 61.5117C165.404 61.5117 165.781 61.8644 165.781 62.2876C165.781 62.7108 165.479 63.0634 165.026 62.9929C164.573 62.9929 164.347 62.6402 164.347 62.217C164.347 61.8644 164.649 61.5117 165.026 61.5117Z" fill="#212121"/>
<path d="M160.723 57.8462C160.723 58.2694 160.421 58.5515 159.968 58.5515C159.591 58.5515 159.289 58.1988 159.289 57.7756C159.289 57.423 159.666 57.0703 160.044 57.0703C160.496 57.0703 160.723 57.423 160.723 57.8462Z" fill="#212121"/>
<path d="M164.198 60.8069C164.198 61.2301 163.821 61.5827 163.443 61.5827C163.066 61.5827 162.688 61.2301 162.688 60.8069C162.688 60.3837 162.99 60.1016 163.368 60.1016C163.821 60.1016 164.122 60.4542 164.122 60.8774L164.198 60.8069Z" fill="#212121"/>
<path d="M159.14 67.0178C159.14 67.441 158.838 67.7937 158.385 67.7937C158.008 67.7937 157.63 67.441 157.63 67.0178C157.63 66.5946 158.008 66.3125 158.385 66.3125C158.763 66.3125 159.064 66.6652 159.064 67.0883L159.14 67.0178Z" fill="#212121"/>
<path d="M164.571 55.5883C164.571 56.0115 164.269 56.2937 163.816 56.2937C163.439 56.2937 163.061 56.0115 163.061 55.5883C163.061 55.1652 163.363 54.8125 163.74 54.8125C164.118 54.8125 164.495 55.1652 164.495 55.5883H164.571Z" fill="#212121"/>
<path d="M159.289 71.1765C158.836 71.1765 158.61 70.8238 158.61 70.4006C158.61 69.9774 158.912 69.6953 159.364 69.6953C159.742 69.6953 160.044 70.048 160.044 70.4006C160.044 70.8238 159.742 71.1765 159.289 71.1765Z" fill="#212121"/>
<path d="M156.647 64.1938C156.647 63.7706 156.949 63.418 157.402 63.418C157.779 63.418 158.081 63.7706 158.081 64.1233C158.081 64.5465 157.779 64.8991 157.402 64.8991C157.024 64.8991 156.647 64.5465 156.647 64.1233V64.1938Z" fill="#212121"/>
<path d="M165.026 59.9634C165.026 59.5402 165.328 59.1875 165.781 59.1875C166.158 59.1875 166.46 59.5402 166.46 59.9634C166.46 60.3865 166.158 60.7392 165.705 60.7392C165.328 60.7392 165.026 60.3865 165.026 59.9634Z" fill="#212121"/>
<path d="M158.08 55.3071C158.08 54.8839 158.457 54.5312 158.835 54.5312C159.212 54.5312 159.589 54.8839 159.589 55.3071C159.589 55.7303 159.287 56.083 158.835 56.083C158.457 56.083 158.08 55.8008 158.08 55.3776V55.3071Z" fill="#212121"/>
<path d="M156.572 58.1274C156.572 57.7042 156.874 57.3516 157.327 57.3516C157.705 57.3516 158.082 57.7042 158.082 58.1274C158.082 58.5506 157.78 58.8327 157.327 58.8327C156.95 58.8327 156.648 58.4801 156.648 58.1274H156.572Z" fill="#212121"/>
<path d="M157.854 60.8071C157.854 61.1598 157.477 61.5124 157.099 61.5124C156.722 61.5124 156.345 61.1598 156.345 60.7366C156.345 60.3134 156.722 60.0312 157.099 60.0312C157.552 60.0312 157.854 60.3839 157.854 60.8071Z" fill="#212121"/>
<path d="M161.329 58.3384C161.329 57.9152 161.631 57.5625 162.008 57.5625C162.386 57.5625 162.763 57.9152 162.763 58.3384C162.763 58.691 162.461 59.1142 162.008 59.1142C161.631 59.1142 161.254 58.7615 161.254 58.4089L161.329 58.3384Z" fill="#212121"/>
<path d="M160.873 55.8733C160.873 55.4501 161.175 55.168 161.552 55.168C161.929 55.168 162.307 55.5206 162.307 55.8733C162.307 56.2965 161.929 56.6491 161.552 56.6491C161.175 56.6491 160.873 56.2965 160.873 55.8733Z" fill="#212121"/>
<path d="M161.329 68.0727C161.329 68.4959 161.028 68.778 160.65 68.778C160.273 68.778 159.895 68.4254 159.895 68.0727C159.895 67.6495 160.273 67.2969 160.65 67.2969C161.103 67.2969 161.405 67.579 161.405 68.0727H161.329Z" fill="#212121"/>
<path d="M162.007 68.0764C162.007 67.6532 162.309 67.3711 162.687 67.3711C163.064 67.3711 163.441 67.7238 163.441 68.0764C163.441 68.4996 163.139 68.8523 162.687 68.8523C162.309 68.8523 162.007 68.4996 162.007 68.0764Z" fill="#212121"/>
<path d="M161.855 52.6955C162.233 52.6955 162.61 53.0482 162.61 53.4714C162.61 53.824 162.233 54.1767 161.855 54.1767C161.478 54.1767 161.1 53.824 161.1 53.4009C161.1 52.9777 161.402 52.625 161.78 52.625L161.855 52.6955Z" fill="#212121"/>
<path d="M109.701 50.7223C109.776 50.2991 109.851 49.9464 109.927 49.5938C109.927 49.3822 109.927 49.1706 109.927 48.959C109.927 48.8179 109.927 48.8179 110.078 48.8179C110.606 48.7474 111.059 48.959 111.21 49.4527C111.21 49.5938 111.21 49.6643 111.135 49.7348C110.606 49.9464 110.229 50.2991 109.776 50.6517C109.776 50.6517 109.776 50.6517 109.701 50.6517V50.7223Z" fill="#212121"/>
<path d="M78.1532 82.3937C77.9267 82.3937 77.7003 82.1821 77.7003 81.9C77.7003 81.6884 78.0022 81.4062 78.2286 81.4062C78.5306 81.4062 78.757 81.6178 78.757 81.9C78.757 82.1821 78.5306 82.3232 78.2286 82.3232L78.1532 82.3937Z" fill="#212121"/>
<path d="M122.985 82.3937C122.759 82.3937 122.457 82.1821 122.533 81.9C122.533 81.6884 122.835 81.4062 123.061 81.4062C123.287 81.4062 123.589 81.6884 123.589 81.9C123.589 82.1821 123.363 82.3937 123.061 82.3937H122.985Z" fill="#212121"/>
<path d="M72.9429 81.8998C72.9429 82.1819 72.7165 82.3935 72.4146 82.3935C72.1127 82.3935 71.8862 82.1819 71.9617 81.9703C71.9617 81.6882 72.1881 81.4766 72.4901 81.4766C72.792 81.4766 73.0184 81.6882 72.9429 81.9703V81.8998Z" fill="#212121"/>
<path d="M115.816 82.3935C115.514 82.3935 115.363 82.1819 115.363 81.8998C115.363 81.6882 115.589 81.4766 115.816 81.4766C116.118 81.4766 116.344 81.6882 116.344 81.9703C116.344 82.2524 116.118 82.3935 115.816 82.3935Z" fill="#212121"/>
</svg>
