<svg width="230" height="130" viewBox="0 0 230 130" fill="none" xmlns="http://www.w3.org/2000/svg">
<path d="M69.5255 68.3363C69.5255 67.9594 69.5255 67.6363 69.5255 67.2773C81.5691 67.2773 93.5768 67.2773 105.638 67.2773C105.638 67.6363 105.638 67.9773 105.638 68.3363C93.5948 68.3363 81.587 68.3363 69.5255 68.3363Z" fill="#212121"/>
<path d="M108.348 55.5039C108.348 55.8808 108.348 56.2219 108.348 56.5808C96.2867 56.5808 84.279 56.5808 72.2354 56.5808C72.2354 56.2219 72.2354 55.8808 72.2354 55.5039C84.261 55.5039 96.2687 55.5039 108.348 55.5039Z" fill="#212121"/>
<path d="M108.331 75.4609C108.331 75.8379 108.331 76.1609 108.331 76.5379C97.6155 76.5379 86.9539 76.5379 76.2744 76.5379C76.2744 76.1609 76.2744 75.8199 76.2744 75.4609C86.9539 75.4609 97.6155 75.4609 108.331 75.4609Z" fill="#212121"/>
<path d="M77.6024 64.8558C77.6024 64.4969 77.6024 64.1738 77.6024 63.7969C87.8332 63.7969 98.064 63.7969 108.331 63.7969C108.331 64.1558 108.331 64.4789 108.331 64.8558C98.0999 64.8558 87.8871 64.8558 77.6024 64.8558Z" fill="#212121"/>
<path d="M81.7126 80.0574C81.7126 79.6805 81.7126 79.3394 81.7126 78.9805C90.6152 78.9805 99.4819 78.9805 108.438 78.9805C108.438 79.16 108.438 79.3394 108.438 79.501C108.438 79.6805 108.438 79.842 108.438 80.0394C99.4999 80.0574 90.6332 80.0574 81.7126 80.0574Z" fill="#212121"/>
<path d="M104.293 60.3516C104.293 60.7285 104.293 61.0695 104.293 61.4105C96.7361 61.4105 89.1977 61.4105 81.6592 61.4105C81.6592 61.0695 81.6592 60.7464 81.6592 60.3516C89.1797 60.3516 96.7182 60.3516 104.293 60.3516Z" fill="#212121"/>
<path d="M88.3896 73.0746C88.3896 72.7156 88.3896 72.3746 88.3896 72.0156C95.0127 72.0156 101.636 72.0156 108.331 72.0156C108.331 72.3387 108.331 72.6797 108.331 73.0746C101.69 73.0746 95.0666 73.0746 88.3896 73.0746Z" fill="#212121"/>
<path d="M108.331 51.9844C108.331 52.3613 108.331 52.6844 108.331 53.0613C102.569 53.0613 96.8435 53.0613 91.0819 53.0613C91.0819 52.7023 91.0819 52.3613 91.0819 51.9844C96.8435 51.9844 102.569 51.9844 108.331 51.9844Z" fill="#212121"/>
<path d="M108.349 48.5039C108.349 48.8808 108.349 49.186 108.349 49.5449C105.297 49.5449 102.246 49.5449 99.1768 49.5449C99.1768 49.2219 99.1768 48.8808 99.1768 48.5039C102.228 48.5039 105.261 48.5039 108.349 48.5039Z" fill="#212121"/>
<path d="M86.7745 53.0613C84.6207 53.0613 82.5207 53.0613 80.3848 53.0613C80.3848 52.6844 80.3848 52.3433 80.3848 51.9844C82.5207 51.9844 84.6207 51.9844 86.7745 51.9844C86.7745 52.3254 86.7745 52.6664 86.7745 53.0613Z" fill="#212121"/>
<path d="M97.5614 48.5195C97.5614 48.8785 97.5614 49.2016 97.5614 49.5785C96.0896 49.5785 94.6537 49.5785 93.2178 49.5785C93.2178 49.2195 93.2178 48.8965 93.2178 48.5195C94.6537 48.5195 96.0717 48.5195 97.5614 48.5195Z" fill="#212121"/>
<path d="M76.2559 80.059C76.2559 79.7 76.2559 79.3769 76.2559 79C77.5302 79 78.7866 79 80.0969 79C80.0969 79.359 80.0969 79.7 80.0969 80.059C78.8405 80.059 77.5841 80.059 76.2559 80.059Z" fill="#212121"/>
<path d="M80.0071 60.332C80.0071 60.709 80.0071 61.032 80.0071 61.391C78.7507 61.391 77.5123 61.391 76.2559 61.391C76.2559 61.05 76.2559 60.709 76.2559 60.332C77.4943 60.332 78.7328 60.332 80.0071 60.332Z" fill="#212121"/>
<path d="M68.1797 56.5824C68.1797 56.2055 68.1797 55.8824 68.1797 55.5234C69.0233 55.5234 69.8489 55.5234 70.6746 55.5234C70.6746 55.9004 70.6746 56.2234 70.6746 56.5824C69.8669 56.5824 69.0412 56.5824 68.1797 56.5824Z" fill="#212121"/>
<path d="M74.6229 76.559C73.7973 76.559 73.0075 76.559 72.2178 76.559C72.2178 76.1821 72.2178 75.859 72.2178 75.5C73.0075 75.5 73.7973 75.5 74.6229 75.5C74.6229 75.8051 74.6229 76.1462 74.6229 76.559Z" fill="#212121"/>
<path d="M84.3691 71.9805C85.1768 71.9805 85.9486 71.9805 86.7743 71.9805C86.7743 72.3394 86.7743 72.6805 86.7743 73.0574C85.9845 73.0574 85.1768 73.0574 84.3691 73.0574C84.3691 72.7343 84.3691 72.3933 84.3691 71.9805Z" fill="#212121"/>
<path d="M67.8918 67.2578C67.8918 67.6168 67.8918 67.9578 67.8918 68.3527C67.479 68.3527 67.1021 68.3527 66.6893 68.3527C66.2764 68.3527 65.8995 68.3527 65.4688 68.3527C65.4688 67.9758 65.4688 67.6347 65.4688 67.2578C66.2764 67.2578 67.0662 67.2578 67.8918 67.2578Z" fill="#212121"/>
<path d="M61.4131 76.5199C61.4131 76.143 61.4131 75.8199 61.4131 75.4609C61.7721 75.4609 62.1131 75.4609 62.49 75.4609C62.49 75.802 62.49 76.143 62.49 76.5199C62.131 76.5199 61.79 76.5199 61.4131 76.5199Z" fill="#212121"/>
<path d="M68.1613 76.5394C68.1613 76.1625 68.1613 75.8394 68.1613 75.4805C68.5203 75.4805 68.8434 75.4805 69.2203 75.4805C69.2203 75.8035 69.2203 76.1446 69.2203 76.5394C68.8972 76.5394 68.5562 76.5394 68.1613 76.5394Z" fill="#212121"/>
<path d="M88.3896 49.5785C88.3896 49.2195 88.3896 48.8785 88.3896 48.5195C88.7486 48.5195 89.0896 48.5195 89.4665 48.5195C89.4665 48.8606 89.4665 49.2016 89.4665 49.5785C89.1076 49.5785 88.7845 49.5785 88.3896 49.5785Z" fill="#212121"/>
<path d="M58.7559 80.059C58.7559 79.7 58.7559 79.3769 58.7559 79C59.0969 79 59.4559 79 59.8328 79C59.8328 79.3769 59.8328 79.7 59.8328 80.059C59.4559 80.059 59.1148 80.059 58.7559 80.059Z" fill="#212121"/>
<path d="M67.9642 80.0769C67.6053 80.0769 67.2822 80.0769 66.9053 80.0769C66.9053 79.7179 66.9053 79.3769 66.9053 79C67.2642 79 67.6053 79 67.9642 79C67.9642 79.359 67.9642 79.6821 67.9642 80.0769Z" fill="#212121"/>
<path d="M70.8721 80.059C70.8721 79.6821 70.8721 79.359 70.8721 79C71.231 79 71.5721 79 71.949 79C71.949 79.3769 71.949 79.7 71.949 80.059C71.59 80.059 71.249 80.059 70.8721 80.059Z" fill="#212121"/>
<path d="M68.1973 51.9844C68.5563 51.9844 68.8793 51.9844 69.2383 51.9844C69.2383 52.3433 69.2383 52.6844 69.2383 53.0613C68.8793 53.0613 68.5563 53.0613 68.1973 53.0613C68.1973 52.7023 68.1973 52.3613 68.1973 51.9844Z" fill="#212121"/>
<path d="M74.6229 61.409C74.246 61.409 73.9409 61.409 73.5819 61.409C73.5819 61.05 73.5819 60.7269 73.5819 60.332C73.905 60.332 74.246 60.332 74.6229 60.332C74.6229 60.691 74.6229 61.032 74.6229 61.409Z" fill="#212121"/>
<path d="M70.8721 61.391C70.8721 61.032 70.8721 60.709 70.8721 60.332C71.2131 60.332 71.5541 60.332 71.931 60.332C71.931 60.691 71.931 61.032 71.931 61.391C71.59 61.391 71.249 61.391 70.8721 61.391Z" fill="#212121"/>
<path d="M61.4306 64.8535C61.4306 64.4946 61.4306 64.1715 61.4306 63.8125C61.7895 63.8125 62.1306 63.8125 62.4895 63.8125C62.4895 64.1535 62.4895 64.4766 62.4895 64.8535C62.1485 64.8535 61.7895 64.8535 61.4306 64.8535Z" fill="#212121"/>
<path d="M66.5463 64.8715C66.1694 64.8715 65.8463 64.8715 65.4873 64.8715C65.4873 64.5125 65.4873 64.1715 65.4873 63.8125C65.8283 63.8125 66.1514 63.8125 66.5463 63.8125C66.5463 64.1715 66.5463 64.5125 66.5463 64.8715Z" fill="#212121"/>
<path d="M73.2943 63.8125C73.2943 64.1715 73.2943 64.5125 73.2943 64.8715C72.9533 64.8715 72.6302 64.8715 72.2354 64.8715C72.2354 64.5305 72.2354 64.2074 72.2354 63.8125C72.5584 63.8125 72.8815 63.8125 73.2943 63.8125Z" fill="#212121"/>
<path d="M67.9105 60.332C67.9105 60.709 67.9105 61.05 67.9105 61.391C67.5516 61.391 67.2105 61.391 66.8516 61.391C66.8516 61.05 66.8516 60.709 66.8516 60.332C67.1926 60.332 67.5336 60.332 67.9105 60.332Z" fill="#212121"/>
<path d="M54.7178 67.2617C55.0947 67.2617 55.4178 67.2617 55.7767 67.2617C55.7767 67.6207 55.7767 67.9438 55.7767 68.3207C55.4357 68.3207 55.1126 68.3207 54.7178 68.3207C54.7178 67.9976 54.7178 67.6566 54.7178 67.2617Z" fill="#212121"/>
<path d="M61.1793 68.3363C60.8024 68.3363 60.4614 68.3363 60.1024 68.3363C60.1024 67.9773 60.1024 67.6363 60.1024 67.2773C60.4614 67.2773 60.8024 67.2773 61.1793 67.2773C61.1793 67.6184 61.1793 67.9414 61.1793 68.3363Z" fill="#212121"/>
<path d="M60.084 73.0746C60.084 72.6977 60.084 72.3746 60.084 72.0156C60.443 72.0156 60.784 72.0156 61.1609 72.0156C61.1609 72.3567 61.1609 72.6797 61.1609 73.0746C60.8199 73.0746 60.4789 73.0746 60.084 73.0746Z" fill="#212121"/>
<path d="M70.8721 73.0746C70.8721 72.6977 70.8721 72.3746 70.8721 72.0156C71.2131 72.0156 71.5362 72.0156 71.931 72.0156C71.931 72.3387 71.931 72.6797 71.931 73.0746C71.59 73.0746 71.249 73.0746 70.8721 73.0746Z" fill="#212121"/>
<path d="M76.2559 73.0746C76.2559 72.6977 76.2559 72.3567 76.2559 72.0156C76.6148 72.0156 76.9559 72.0156 77.3148 72.0156C77.3148 72.3746 77.3148 72.7156 77.3148 73.0746C76.9738 73.0746 76.6507 73.0746 76.2559 73.0746Z" fill="#212121"/>
<path d="M81.6592 71.9805C82.0182 71.9805 82.3412 71.9805 82.7182 71.9805C82.7182 72.3215 82.7182 72.6625 82.7182 73.0574C82.3771 73.0574 82.0361 73.0574 81.6592 73.0574C81.6592 72.7343 81.6592 72.3933 81.6592 71.9805Z" fill="#212121"/>
<path d="M66.5642 56.5808C66.1873 56.5808 65.8463 56.5808 65.4873 56.5808C65.4873 56.2219 65.4873 55.8808 65.4873 55.5039C65.8463 55.5039 66.1873 55.5039 66.5642 55.5039C66.5642 55.8808 66.5642 56.2039 66.5642 56.5808Z" fill="#212121"/>
<path d="M60.1024 55.5039C60.4614 55.5039 60.7844 55.5039 61.1614 55.5039C61.1614 55.8629 61.1614 56.2219 61.1614 56.5808C60.8024 56.5808 60.4793 56.5808 60.1024 56.5808C60.1024 56.2578 60.1024 55.9167 60.1024 55.5039Z" fill="#212121"/>
<path d="M76.2744 51.9688C76.6513 51.9688 76.9565 51.9688 77.3334 51.9688C77.3334 52.3277 77.3334 52.6687 77.3334 53.0457C76.9924 53.0457 76.6513 53.0457 76.2744 53.0457C76.2744 52.6867 76.2744 52.3457 76.2744 51.9688Z" fill="#212121"/>
<path d="M115.708 48.2344V56.7959H114.577V48.2344H115.708Z" fill="#212121"/>
<path d="M118.364 50.585V51.5722H118.4C118.831 50.8183 119.495 50.4414 120.41 50.4414C120.823 50.4414 121.164 50.4953 121.433 50.6209C121.703 50.7286 121.936 50.8901 122.08 51.0876C122.259 51.285 122.367 51.5363 122.439 51.8055C122.51 52.0747 122.546 52.3799 122.546 52.7209V56.7953H121.523V52.5953C121.523 52.2183 121.415 51.9132 121.182 51.6799C120.949 51.4465 120.662 51.3388 120.267 51.3388C119.962 51.3388 119.692 51.3747 119.459 51.4824C119.226 51.5901 119.046 51.7158 118.885 51.8953C118.723 52.0747 118.615 52.2722 118.544 52.5055C118.472 52.7388 118.436 53.0081 118.436 53.2773V56.7773H117.413V50.585H118.364Z" fill="#212121"/>
<path d="M124.072 49.4533V48.2148H125.095V49.4713L124.072 49.4533ZM125.095 50.5841V56.7764H124.072V50.5841H125.095Z" fill="#212121"/>
<path d="M129.277 50.5854V51.4829H128.039V55.3418C128.039 55.4495 128.057 55.5572 128.074 55.629C128.092 55.7008 128.128 55.7546 128.182 55.8085C128.236 55.8444 128.308 55.8803 128.415 55.8803C128.523 55.8982 128.649 55.8982 128.792 55.8982H129.259V56.7957H128.505C128.236 56.7957 128.021 56.7777 127.823 56.7418C127.644 56.7059 127.482 56.6341 127.374 56.5444C127.267 56.4367 127.177 56.3111 127.123 56.1316C127.069 55.9521 127.033 55.7187 127.033 55.4316V51.4829H125.974V50.5854H127.033V48.7188H128.057V50.5854H129.277Z" fill="#212121"/>
<path d="M130.426 49.4533V48.2148H131.449V49.4713L130.426 49.4533ZM131.449 50.5841V56.7764H130.426V50.5841H131.449Z" fill="#212121"/>
<path d="M138.467 56.7617C138.287 56.8694 138.036 56.9232 137.749 56.9232C137.48 56.9232 137.282 56.8514 137.121 56.6899C136.959 56.5463 136.887 56.313 136.887 55.9719C136.6 56.313 136.277 56.5463 135.9 56.6899C135.523 56.8335 135.128 56.9232 134.698 56.9232C134.41 56.9232 134.159 56.8873 133.908 56.8155C133.656 56.7437 133.441 56.636 133.262 56.5104C133.082 56.3668 132.939 56.2053 132.813 55.9719C132.705 55.7565 132.651 55.4873 132.651 55.1822C132.651 54.8232 132.705 54.536 132.831 54.3207C132.939 54.0873 133.118 53.9078 133.298 53.7822C133.495 53.6386 133.728 53.5489 133.962 53.4771C134.213 53.4053 134.482 53.3514 134.733 53.2976C135.021 53.2437 135.272 53.1899 135.523 53.1719C135.774 53.136 135.99 53.1001 136.187 53.0642C136.367 53.0104 136.528 52.9386 136.636 52.8309C136.744 52.7232 136.815 52.5976 136.815 52.3822C136.815 52.1489 136.78 51.9873 136.69 51.8437C136.6 51.7001 136.51 51.6104 136.367 51.5386C136.241 51.4668 136.08 51.4309 135.918 51.395C135.739 51.3591 135.595 51.3591 135.433 51.3591C135.003 51.3591 134.644 51.4489 134.356 51.5924C134.069 51.7719 133.908 52.0591 133.89 52.5078H132.867C132.885 52.1309 132.974 51.7899 133.1 51.5386C133.244 51.2694 133.441 51.054 133.674 50.8924C133.908 50.7309 134.195 50.6053 134.5 50.5335C134.805 50.4617 135.146 50.4258 135.487 50.4258C135.774 50.4258 136.044 50.4437 136.331 50.4796C136.6 50.5155 136.851 50.6053 137.085 50.713C137.318 50.8386 137.48 51.0181 137.623 51.2335C137.767 51.4668 137.821 51.754 137.821 52.095V55.2719C137.821 55.5053 137.839 55.6848 137.857 55.7924C137.892 55.9001 137.982 55.9719 138.144 55.9719C138.233 55.9719 138.323 55.954 138.449 55.936L138.467 56.7617ZM136.815 53.5848C136.69 53.6924 136.51 53.7642 136.313 53.8001C136.098 53.836 135.882 53.8899 135.667 53.9078C135.433 53.9437 135.218 53.9617 134.985 54.0155C134.751 54.0514 134.536 54.1232 134.356 54.195C134.177 54.2848 134.033 54.3924 133.908 54.536C133.782 54.6796 133.728 54.8771 133.728 55.1283C133.728 55.3078 133.764 55.4335 133.836 55.5591C133.908 55.6668 133.998 55.7745 134.105 55.8463C134.213 55.9181 134.339 55.9719 134.482 56.0078C134.626 56.0437 134.787 56.0437 134.931 56.0437C135.272 56.0437 135.559 56.0078 135.792 55.9001C136.026 55.8104 136.241 55.6848 136.367 55.5591C136.528 55.4155 136.636 55.2719 136.708 55.1104C136.78 54.9489 136.815 54.8053 136.815 54.6617V53.6027V53.5848Z" fill="#212121"/>
<path d="M142.021 50.5854V51.4829H140.782V55.3418C140.782 55.4495 140.8 55.5572 140.818 55.629C140.836 55.7008 140.872 55.7546 140.926 55.8085C140.98 55.8444 141.051 55.8803 141.159 55.8803C141.267 55.8982 141.392 55.8982 141.536 55.8982H142.003V56.7957H141.231C140.962 56.7957 140.746 56.7777 140.549 56.7418C140.369 56.7059 140.208 56.6341 140.1 56.5444C139.992 56.4367 139.903 56.3111 139.849 56.1316C139.795 55.9521 139.759 55.7187 139.759 55.4316V51.4829H138.7V50.5854H139.759V48.7188H140.782V50.5854H142.021Z" fill="#212121"/>
<path d="M143.169 49.4533V48.2148H144.192V49.4713L143.169 49.4533ZM144.192 50.5841V56.7764H143.169V50.5841H144.192Z" fill="#212121"/>
<path d="M147.405 56.7782L145.107 50.5859H146.238L147.979 55.7552H148.015L149.702 50.5859H150.761L148.5 56.7782C148.518 56.7782 147.405 56.7782 147.405 56.7782Z" fill="#212121"/>
<path d="M156.057 56.3824C155.59 56.7414 154.998 56.9029 154.315 56.9029C153.813 56.9029 153.4 56.8132 153.023 56.6696C152.646 56.526 152.359 56.2927 152.108 56.0055C151.874 55.7183 151.659 55.3773 151.551 54.9645C151.426 54.5696 151.354 54.1209 151.336 53.6542C151.336 53.1876 151.408 52.7388 151.551 52.3619C151.695 51.967 151.892 51.644 152.162 51.3388C152.413 51.0517 152.736 50.8183 153.077 50.6747C153.436 50.5132 153.813 50.4414 154.244 50.4414C154.8 50.4414 155.249 50.5491 155.626 50.7824C156.003 51.0158 156.272 51.3029 156.505 51.644C156.721 52.0029 156.882 52.3799 156.954 52.7927C157.044 53.2055 157.062 53.6004 157.062 53.9953H152.413C152.395 54.2645 152.449 54.5158 152.521 54.767C152.592 55.0183 152.7 55.2158 152.862 55.4132C153.023 55.5927 153.239 55.7542 153.472 55.8619C153.705 55.9696 154.01 56.0414 154.351 56.0414C154.782 56.0414 155.141 55.9337 155.41 55.7363C155.68 55.5388 155.859 55.2337 155.949 54.8209H156.954C156.81 55.5209 156.505 56.0235 156.057 56.3824ZM155.805 52.3978C155.715 52.1824 155.59 52.0029 155.428 51.8414C155.267 51.6799 155.087 51.5542 154.872 51.4645C154.657 51.3747 154.423 51.3209 154.172 51.3209C153.903 51.3209 153.669 51.3568 153.454 51.4645C153.239 51.5542 153.059 51.6799 152.915 51.8414C152.754 52.0029 152.646 52.1824 152.557 52.3978C152.467 52.6132 152.413 52.8465 152.395 53.0799H155.949C155.967 52.8465 155.895 52.6132 155.805 52.3978Z" fill="#212121"/>
<path d="M160.724 51.483V50.5856H161.765V49.6702C161.765 49.1676 161.908 48.7907 162.213 48.5215C162.518 48.2522 162.931 48.1445 163.488 48.1445C163.595 48.1445 163.685 48.1625 163.811 48.1804C163.936 48.1984 164.044 48.2163 164.134 48.2522V49.1317C164.044 49.0958 163.954 49.0779 163.847 49.0599C163.739 49.042 163.649 49.042 163.559 49.042C163.326 49.042 163.111 49.0779 162.985 49.1856C162.841 49.2932 162.788 49.4727 162.788 49.742V50.6035H163.99V51.5009H162.788V56.7958H161.765V51.483H160.724Z" fill="#212121"/>
<path d="M164.709 52.4158C164.834 52.0209 165.014 51.6799 165.283 51.3747C165.534 51.0696 165.857 50.8542 166.234 50.6927C166.611 50.5132 167.042 50.4414 167.527 50.4414C168.029 50.4414 168.442 50.5312 168.837 50.6927C169.214 50.8722 169.519 51.0876 169.77 51.3747C170.021 51.6799 170.219 52.0209 170.344 52.4158C170.47 52.8106 170.524 53.2414 170.524 53.6901C170.524 54.1388 170.452 54.5696 170.344 54.9645C170.219 55.3594 170.039 55.7004 169.77 55.9876C169.519 56.2927 169.196 56.5081 168.837 56.6696C168.46 56.8491 168.029 56.9029 167.527 56.9029C167.042 56.9029 166.611 56.8132 166.234 56.6696C165.857 56.4901 165.534 56.2747 165.283 55.9876C165.032 55.6824 164.834 55.3414 164.709 54.9645C164.583 54.5696 164.529 54.1568 164.529 53.6901C164.511 53.2235 164.583 52.8106 164.709 52.4158ZM165.75 54.6953C165.857 55.0004 165.983 55.2337 166.162 55.4132C166.342 55.6106 166.539 55.7542 166.773 55.8619C167.006 55.9696 167.257 56.0235 167.527 56.0235C167.796 56.0235 168.047 55.9696 168.28 55.8619C168.514 55.7542 168.729 55.6106 168.891 55.4132C169.07 55.2158 169.196 54.9645 169.303 54.6953C169.411 54.3901 169.465 54.067 169.465 53.7081C169.465 53.3491 169.411 52.9901 169.303 52.7209C169.196 52.4158 169.07 52.1824 168.891 51.985C168.711 51.7876 168.514 51.626 168.28 51.5363C168.047 51.4286 167.796 51.3747 167.527 51.3747C167.257 51.3747 167.006 51.4286 166.773 51.5363C166.539 51.644 166.324 51.7876 166.162 51.985C166.001 52.1824 165.857 52.4337 165.75 52.7209C165.642 53.026 165.588 53.3491 165.588 53.7081C165.588 54.067 165.642 54.3901 165.75 54.6953Z" fill="#212121"/>
<path d="M172.588 50.5867V51.8969H172.624C172.857 51.3944 173.18 51.0175 173.539 50.7841C173.898 50.5508 174.347 50.4251 174.903 50.4431V51.52C174.49 51.52 174.149 51.5739 173.862 51.6995C173.575 51.8072 173.341 51.9687 173.162 52.2021C172.983 52.4175 172.857 52.6867 172.785 52.9918C172.695 53.2969 172.677 53.6559 172.677 54.0508V56.8149H171.654V50.5867H172.588Z" fill="#212121"/>
<path d="M116.479 60.4375V68.999H114.595V60.4375H116.479Z" fill="#212121"/>
<path d="M119.764 62.8061V63.6676H119.8C120.016 63.3086 120.303 63.0394 120.644 62.8779C120.985 62.6984 121.344 62.6445 121.703 62.6445C122.152 62.6445 122.529 62.6984 122.834 62.824C123.139 62.9497 123.354 63.1291 123.516 63.3445C123.695 63.5599 123.803 63.8291 123.875 64.1522C123.946 64.4574 123.982 64.8163 123.982 65.2112V69.0163H122.277V65.5163C122.277 64.9958 122.188 64.6189 122.044 64.3676C121.882 64.1163 121.595 63.9907 121.182 63.9907C120.716 63.9907 120.393 64.1343 120.177 64.4035C119.962 64.6727 119.872 65.1215 119.872 65.7676V69.0163H118.167V62.824L119.764 62.8061Z" fill="#212121"/>
<path d="M129.815 68.2109C129.618 68.5519 129.367 68.7852 129.026 68.9288C128.685 69.0724 128.344 69.1622 127.931 69.1622C127.464 69.1622 127.069 69.0724 126.71 68.8929C126.351 68.7134 126.064 68.4622 125.849 68.175C125.615 67.8699 125.454 67.5109 125.328 67.116C125.22 66.7211 125.149 66.3083 125.149 65.8596C125.149 65.4468 125.202 65.0519 125.328 64.657C125.436 64.2801 125.615 63.9391 125.849 63.634C126.082 63.3288 126.369 63.0955 126.71 62.916C127.051 62.7365 127.446 62.6468 127.913 62.6468C128.29 62.6468 128.631 62.7186 128.972 62.8801C129.295 63.0416 129.564 63.257 129.761 63.5622H129.797V60.457H131.503V69.0186H129.887V68.2288H129.815V68.2109ZM129.744 65.1416C129.708 64.9083 129.618 64.6929 129.51 64.5134C129.403 64.334 129.241 64.1904 129.061 64.0647C128.882 63.957 128.649 63.8852 128.361 63.8852C128.074 63.8852 127.841 63.9391 127.644 64.0647C127.464 64.1724 127.303 64.316 127.195 64.5134C127.087 64.6929 126.997 64.9083 126.944 65.1416C126.89 65.375 126.872 65.6263 126.872 65.8775C126.872 66.1109 126.908 66.3622 126.961 66.5955C127.015 66.8288 127.105 67.0442 127.231 67.2416C127.356 67.4211 127.518 67.5827 127.697 67.6904C127.877 67.7981 128.11 67.8699 128.379 67.8699C128.667 67.8699 128.9 67.816 129.079 67.6904C129.259 67.5827 129.42 67.4391 129.528 67.2416C129.636 67.0622 129.708 66.8468 129.761 66.5955C129.797 66.3622 129.833 66.1109 129.833 65.8596C129.815 65.6263 129.797 65.375 129.744 65.1416Z" fill="#212121"/>
<path d="M137.103 68.9993V68.1378H137.067C136.851 68.4968 136.564 68.766 136.223 68.9275C135.882 69.0891 135.523 69.1609 135.164 69.1609C134.715 69.1609 134.338 69.107 134.033 68.9814C133.728 68.8737 133.513 68.6942 133.351 68.4609C133.172 68.2455 133.064 67.9762 132.992 67.6532C132.92 67.348 132.885 66.9891 132.885 66.5942V62.7891H134.59V66.2891C134.59 66.8096 134.679 67.1865 134.823 67.4378C134.985 67.6891 135.272 67.8147 135.685 67.8147C136.151 67.8147 136.474 67.6711 136.69 67.4019C136.905 67.1327 136.995 66.6839 136.995 66.0378V62.7891H138.7V68.9814L137.103 68.9993Z" fill="#212121"/>
<path d="M141.626 67.4548C141.698 67.5804 141.806 67.6881 141.931 67.7779C142.039 67.8676 142.182 67.9215 142.344 67.9574C142.506 67.9932 142.649 68.0112 142.829 68.0112C142.936 68.0112 143.062 67.9933 143.206 67.9753C143.349 67.9394 143.457 67.9035 143.564 67.8497C143.672 67.7958 143.762 67.7061 143.834 67.6163C143.906 67.5086 143.941 67.383 143.941 67.2394C143.941 66.9881 143.762 66.7907 143.421 66.665C143.08 66.5394 142.613 66.4138 142.003 66.2881C141.77 66.2343 141.518 66.1625 141.285 66.0907C141.052 66.0189 140.836 65.9112 140.657 65.7856C140.477 65.6599 140.334 65.4984 140.208 65.3189C140.1 65.1394 140.029 64.9061 140.029 64.6368C140.029 64.242 140.1 63.9189 140.262 63.6497C140.423 63.3984 140.621 63.2009 140.872 63.0394C141.123 62.8958 141.411 62.7881 141.734 62.7343C142.039 62.6804 142.38 62.6445 142.721 62.6445C143.062 62.6445 143.385 62.6804 143.708 62.7522C144.013 62.824 144.3 62.9317 144.552 63.0753C144.785 63.2368 145 63.4343 145.162 63.6856C145.341 63.9368 145.413 64.2599 145.467 64.6368H143.852C143.816 64.3138 143.708 64.0804 143.475 63.9727C143.241 63.865 142.99 63.7933 142.685 63.7933C142.577 63.7933 142.488 63.7932 142.38 63.8112C142.272 63.8291 142.164 63.8471 142.075 63.883C141.985 63.9189 141.895 63.9907 141.841 64.0625C141.788 64.1343 141.734 64.242 141.734 64.3676C141.734 64.5291 141.788 64.6368 141.913 64.7445C142.021 64.8522 142.164 64.924 142.362 64.9779C142.541 65.0317 142.739 65.0856 142.972 65.1394C143.206 65.1753 143.439 65.2471 143.69 65.3009C143.923 65.3548 144.175 65.4266 144.408 65.4984C144.641 65.5881 144.857 65.6779 145.036 65.8035C145.216 65.9291 145.359 66.1086 145.485 66.3061C145.593 66.5035 145.664 66.7548 145.664 67.024C145.664 67.4368 145.575 67.7779 145.431 68.0471C145.252 68.3163 145.054 68.5497 144.785 68.7112C144.516 68.8907 144.211 68.9984 143.87 69.0702C143.529 69.142 143.188 69.1779 142.829 69.1779C142.47 69.1779 142.111 69.142 141.77 69.0702C141.429 68.9984 141.123 68.8907 140.854 68.7112C140.585 68.5317 140.37 68.3343 140.208 68.0471C140.029 67.7779 139.939 67.4189 139.921 67.0061H141.536C141.518 67.1676 141.536 67.3112 141.626 67.4548Z" fill="#212121"/>
<path d="M150.205 62.8081V63.9388H148.949V67.0081C148.949 67.2953 148.985 67.4927 149.093 67.5824C149.2 67.6722 149.38 67.726 149.667 67.726C149.775 67.726 149.846 67.726 149.936 67.7081C150.026 67.6901 150.116 67.6901 150.188 67.6722V69.0004C150.044 69.0363 149.882 69.0363 149.703 69.0363C149.523 69.0542 149.362 69.0542 149.182 69.0542C148.913 69.0542 148.662 69.0363 148.429 69.0004C148.195 68.9645 147.98 68.8927 147.8 68.785C147.621 68.6773 147.477 68.5337 147.37 68.3363C147.262 68.1568 147.208 67.8876 147.208 67.5824V63.9209H146.167V62.7901H147.208V60.9414H148.913V62.8081H150.205Z" fill="#212121"/>
<path d="M152.807 62.8068V63.9555H152.843C152.933 63.776 153.023 63.5786 153.166 63.4171C153.31 63.2376 153.472 63.1119 153.633 62.9863C153.813 62.8786 154.01 62.7889 154.207 62.7171C154.405 62.6632 154.62 62.6094 154.836 62.6094C154.943 62.6094 155.069 62.6273 155.213 62.6632V64.2427C155.123 64.2248 155.033 64.2068 154.925 64.2068C154.818 64.1889 154.71 64.1889 154.602 64.1889C154.297 64.1889 154.028 64.2427 153.813 64.3504C153.597 64.4581 153.436 64.5837 153.292 64.7812C153.166 64.9607 153.059 65.1581 153.005 65.4094C152.951 65.6607 152.915 65.9119 152.915 66.1991V68.9812H151.21V62.7889H152.825V62.8068H152.807Z" fill="#212121"/>
<path d="M156.056 61.8375V60.4375H157.762V61.8375H156.056ZM157.762 62.8067V68.999H156.056V62.8067H157.762Z" fill="#212121"/>
<path d="M159.197 64.711C159.233 64.3161 159.323 63.993 159.503 63.7238C159.682 63.4545 159.897 63.2571 160.167 63.0776C160.436 62.9161 160.741 62.8084 161.082 62.7366C161.423 62.6648 161.764 62.6289 162.105 62.6289C162.41 62.6289 162.733 62.6648 163.056 62.7007C163.362 62.7366 163.667 62.8263 163.936 62.952C164.205 63.0776 164.421 63.2571 164.582 63.4904C164.762 63.7238 164.833 64.011 164.833 64.4058V67.6366C164.833 67.9238 164.851 68.193 164.869 68.4263C164.905 68.6776 164.959 68.8751 165.049 69.0007H163.326C163.29 68.893 163.272 68.8033 163.254 68.6956C163.236 68.5879 163.218 68.4981 163.218 68.3904C162.949 68.6776 162.626 68.8571 162.267 68.9648C161.89 69.0725 161.531 69.1443 161.136 69.1443C160.831 69.1443 160.562 69.1084 160.31 69.0366C160.059 68.9648 159.826 68.8571 159.646 68.6956C159.467 68.534 159.305 68.3545 159.197 68.1212C159.09 67.8879 159.036 67.6007 159.036 67.2956C159.036 66.9366 159.09 66.6494 159.215 66.434C159.341 66.2007 159.503 66.0212 159.7 65.8956C159.897 65.752 160.131 65.6622 160.364 65.5904C160.615 65.5186 160.885 65.4648 161.136 65.4289C161.387 65.393 161.656 65.3571 161.89 65.3212C162.123 65.2853 162.356 65.2674 162.536 65.2135C162.715 65.1597 162.877 65.1058 162.985 64.9981C163.092 64.9084 163.164 64.7648 163.146 64.6033C163.146 64.4238 163.11 64.2802 163.056 64.1545C163.003 64.0289 162.913 63.9751 162.823 63.9033C162.715 63.8494 162.608 63.7956 162.482 63.7956C162.356 63.7956 162.213 63.7597 162.051 63.7597C161.71 63.7597 161.459 63.8315 161.262 63.9751C161.082 64.1186 160.956 64.352 160.921 64.693H159.197V64.711ZM163.146 65.9494C163.074 66.0212 162.985 66.0571 162.877 66.111C162.769 66.1648 162.644 66.1828 162.536 66.2007C162.41 66.2366 162.285 66.2366 162.159 66.2545C162.015 66.2725 161.89 66.2904 161.746 66.3084C161.621 66.3443 161.495 66.3622 161.369 66.4161C161.244 66.452 161.136 66.5238 161.046 66.5776C160.956 66.6494 160.867 66.7392 160.813 66.8289C160.759 66.9366 160.723 67.0622 160.723 67.2238C160.723 67.3853 160.759 67.511 160.813 67.6007C160.867 67.6904 160.939 67.7802 161.046 67.834C161.154 67.8879 161.262 67.9417 161.387 67.9597C161.513 67.9956 161.639 67.9956 161.782 67.9956C162.123 67.9956 162.374 67.9417 162.572 67.8161C162.751 67.7084 162.877 67.5828 162.985 67.4212C163.074 67.2597 163.128 67.1161 163.146 66.9545C163.164 66.793 163.182 66.6674 163.182 66.5776L163.146 65.9494Z" fill="#212121"/>
<path d="M168.082 60.4375V68.999H166.377V60.4375H168.082Z" fill="#212121"/>
<path d="M116.479 71.5664V80.1279H114.595V71.5664H116.479Z" fill="#212121"/>
<path d="M119.692 73.935V74.7965H119.728C119.944 74.4375 120.231 74.1683 120.572 74.0068C120.913 73.8273 121.272 73.7734 121.631 73.7734C122.079 73.7734 122.456 73.8273 122.762 73.9529C123.067 74.0786 123.282 74.2581 123.444 74.4734C123.623 74.6888 123.731 74.9581 123.803 75.2811C123.874 75.5863 123.91 75.9452 123.91 76.3401V80.1452H122.205V76.6452C122.205 76.1247 122.115 75.7478 121.972 75.4965C121.81 75.2452 121.523 75.1196 121.11 75.1196C120.644 75.1196 120.32 75.2632 120.105 75.5324C119.89 75.8016 119.8 76.2504 119.8 76.8965V80.1452H118.095V73.9529L119.692 73.935Z" fill="#212121"/>
<path d="M126.89 73.935V74.7965H126.926C127.141 74.4375 127.429 74.1683 127.77 74.0068C128.111 73.8273 128.47 73.7734 128.829 73.7734C129.277 73.7734 129.654 73.8273 129.959 73.9529C130.265 74.0786 130.48 74.2581 130.641 74.4734C130.821 74.6888 130.929 74.9581 131 75.2811C131.072 75.5863 131.108 75.9452 131.108 76.3401V80.1452H129.385V76.6452C129.385 76.1247 129.295 75.7478 129.152 75.4965C128.99 75.2452 128.703 75.1196 128.29 75.1196C127.824 75.1196 127.5 75.2632 127.285 75.5324C127.07 75.8016 126.98 76.2504 126.98 76.8965V80.1452H125.257V73.9529L126.89 73.935Z" fill="#212121"/>
<path d="M132.508 75.6744C132.669 75.2795 132.885 74.9206 133.154 74.6334C133.441 74.3462 133.764 74.1308 134.159 73.9872C134.554 73.8257 134.985 73.7539 135.487 73.7539C135.972 73.7539 136.403 73.8257 136.815 73.9872C137.21 74.1488 137.551 74.3642 137.821 74.6334C138.108 74.9206 138.323 75.2616 138.467 75.6744C138.628 76.0693 138.7 76.536 138.7 77.0206C138.7 77.5052 138.628 77.9539 138.467 78.3488C138.305 78.7436 138.09 79.0847 137.821 79.3719C137.551 79.659 137.21 79.8744 136.815 80.018C136.421 80.1795 135.972 80.2513 135.487 80.2513C135.003 80.2513 134.572 80.1795 134.159 80.018C133.764 79.8565 133.441 79.6411 133.154 79.3719C132.867 79.1026 132.651 78.7436 132.508 78.3488C132.346 77.9539 132.274 77.4872 132.274 77.0206C132.292 76.536 132.364 76.0872 132.508 75.6744ZM134.069 77.7565C134.105 77.9898 134.195 78.2052 134.303 78.4026C134.41 78.5821 134.572 78.7436 134.751 78.8513C134.931 78.959 135.182 79.0308 135.469 79.0308C135.756 79.0308 135.99 78.977 136.187 78.8513C136.385 78.7436 136.546 78.6001 136.654 78.4026C136.762 78.2231 136.851 78.0078 136.887 77.7565C136.923 77.5231 136.959 77.2719 136.959 77.0385C136.959 76.8052 136.923 76.536 136.887 76.3206C136.851 76.0872 136.762 75.8719 136.654 75.6744C136.546 75.4949 136.385 75.3513 136.187 75.2257C135.99 75.118 135.738 75.0462 135.469 75.0462C135.2 75.0462 134.949 75.1001 134.751 75.2257C134.572 75.3334 134.41 75.4949 134.303 75.6744C134.195 75.8539 134.105 76.0693 134.069 76.3206C134.033 76.5539 133.997 76.8052 133.997 77.0385C133.997 77.2719 133.997 77.5231 134.069 77.7565Z" fill="#212121"/>
<path d="M141.446 80.1259L139.328 73.9336H141.123L142.433 78.1695H142.469L143.779 73.9336H145.467L143.367 80.1259H141.446Z" fill="#212121"/>
<path d="M146.166 75.836C146.202 75.4411 146.292 75.118 146.472 74.8488C146.651 74.5795 146.866 74.3821 147.136 74.2026C147.405 74.0411 147.71 73.9334 148.051 73.8616C148.392 73.7898 148.733 73.7539 149.074 73.7539C149.379 73.7539 149.702 73.7898 150.025 73.8257C150.331 73.8616 150.636 73.9513 150.905 74.077C151.174 74.2026 151.39 74.3821 151.551 74.6154C151.731 74.8488 151.802 75.136 151.802 75.5308V78.7616C151.802 79.0488 151.82 79.318 151.838 79.5513C151.874 79.8026 151.928 80.0001 152.018 80.1257H150.295C150.259 80.018 150.241 79.9283 150.223 79.8206C150.205 79.7129 150.187 79.6231 150.187 79.5154C149.918 79.8026 149.595 79.9821 149.236 80.0898C148.859 80.1975 148.5 80.2693 148.105 80.2693C147.8 80.2693 147.531 80.2334 147.279 80.1616C147.028 80.0898 146.795 79.9821 146.615 79.8206C146.436 79.659 146.274 79.4795 146.166 79.2462C146.059 79.0129 146.005 78.7257 146.005 78.4206C146.005 78.0616 146.059 77.7744 146.184 77.559C146.31 77.3257 146.472 77.1462 146.669 77.0206C146.866 76.877 147.1 76.7872 147.333 76.7154C147.584 76.6436 147.854 76.5898 148.105 76.5539C148.356 76.518 148.625 76.4821 148.859 76.4462C149.092 76.4103 149.325 76.3924 149.505 76.3385C149.684 76.3026 149.846 76.2308 149.954 76.1231C150.061 76.0334 150.133 75.8898 150.115 75.7283C150.115 75.5488 150.079 75.4052 150.025 75.2795C149.972 75.1539 149.882 75.1001 149.792 75.0283C149.684 74.9744 149.577 74.9206 149.451 74.9206C149.325 74.9206 149.182 74.8847 149.02 74.8847C148.679 74.8847 148.428 74.9565 148.231 75.1001C148.051 75.2436 147.925 75.477 147.89 75.818L146.166 75.836ZM150.079 77.0924C150.007 77.1642 149.918 77.2001 149.81 77.2539C149.702 77.3078 149.577 77.3257 149.469 77.3436C149.343 77.3795 149.218 77.3795 149.092 77.3975C148.948 77.4154 148.823 77.4334 148.679 77.4513C148.554 77.4872 148.428 77.5052 148.302 77.559C148.177 77.5949 148.069 77.6667 147.979 77.7206C147.89 77.7924 147.8 77.8821 147.746 77.9719C147.692 78.0616 147.656 78.2052 147.656 78.3667C147.656 78.5283 147.692 78.6539 147.746 78.7437C147.8 78.8513 147.872 78.9231 147.979 78.977C148.087 79.0308 148.195 79.0847 148.32 79.1026C148.446 79.1385 148.572 79.1385 148.715 79.1385C149.056 79.1385 149.307 79.0847 149.505 78.959C149.684 78.8513 149.81 78.7257 149.918 78.5642C150.007 78.4026 150.061 78.259 150.079 78.0975C150.097 77.936 150.115 77.8103 150.115 77.7206L150.079 77.0924Z" fill="#212121"/>
<path d="M156.613 73.9354V75.0662H155.356V78.1354C155.356 78.4226 155.392 78.62 155.5 78.7098C155.608 78.7995 155.787 78.8533 156.074 78.8533C156.182 78.8533 156.254 78.8533 156.344 78.8354C156.433 78.8174 156.523 78.8174 156.595 78.7995V80.1277C156.451 80.1636 156.29 80.1636 156.11 80.1636C155.931 80.1816 155.769 80.1816 155.59 80.1816C155.321 80.1816 155.069 80.1636 154.836 80.1277C154.603 80.0918 154.387 80.02 154.208 79.9123C154.028 79.8046 153.885 79.661 153.777 79.4636C153.669 79.2662 153.615 79.0149 153.615 78.7098V75.0482H152.574V73.9174H153.615V72.0508H155.321V73.9174L156.613 73.9354Z" fill="#212121"/>
<path d="M157.564 75.6744C157.726 75.2795 157.941 74.9206 158.21 74.6334C158.497 74.3462 158.821 74.1308 159.215 73.9872C159.61 73.8437 160.041 73.7539 160.544 73.7539C161.028 73.7539 161.459 73.8257 161.872 73.9872C162.285 74.1488 162.608 74.3642 162.877 74.6334C163.164 74.9206 163.38 75.2616 163.523 75.6744C163.685 76.0693 163.756 76.536 163.756 77.0206C163.756 77.5052 163.685 77.9539 163.523 78.3488C163.362 78.7436 163.146 79.0847 162.877 79.3719C162.59 79.659 162.267 79.8744 161.872 80.018C161.477 80.1616 161.028 80.2513 160.544 80.2513C160.059 80.2513 159.628 80.1795 159.215 80.018C158.803 79.8565 158.497 79.6411 158.21 79.3719C157.923 79.1026 157.708 78.7436 157.564 78.3488C157.403 77.9539 157.331 77.4872 157.331 77.0206C157.331 76.536 157.403 76.0872 157.564 75.6744ZM159.108 77.7565C159.144 77.9898 159.233 78.2052 159.341 78.4026C159.449 78.5821 159.61 78.7436 159.79 78.8513C159.969 78.959 160.221 79.0308 160.508 79.0308C160.795 79.0308 161.028 78.977 161.226 78.8513C161.423 78.7436 161.585 78.6001 161.692 78.4026C161.8 78.2231 161.89 78.0078 161.926 77.7565C161.962 77.5052 161.997 77.2719 161.997 77.0385C161.997 76.8052 161.962 76.536 161.926 76.3206C161.89 76.0872 161.8 75.8719 161.692 75.6744C161.585 75.4949 161.423 75.3513 161.226 75.2257C161.028 75.118 160.777 75.0462 160.508 75.0462C160.239 75.0462 159.987 75.1001 159.79 75.2257C159.61 75.3334 159.449 75.4949 159.341 75.6744C159.233 75.8539 159.144 76.0693 159.108 76.3206C159.072 76.5539 159.036 76.8052 159.036 77.0385C159.036 77.2719 159.054 77.5231 159.108 77.7565Z" fill="#212121"/>
<path d="M166.574 73.9357V75.0844H166.61C166.7 74.9049 166.789 74.7075 166.933 74.546C167.077 74.3665 167.238 74.2408 167.4 74.1152C167.579 74.0075 167.777 73.9178 167.974 73.846C168.171 73.7921 168.387 73.7383 168.602 73.7383C168.71 73.7383 168.836 73.7562 168.979 73.7921V75.3716C168.889 75.3537 168.8 75.3357 168.692 75.3357C168.584 75.3178 168.477 75.3178 168.369 75.3178C168.064 75.3178 167.795 75.3716 167.579 75.4793C167.364 75.587 167.202 75.7126 167.059 75.9101C166.933 76.0896 166.825 76.287 166.771 76.5383C166.718 76.7716 166.682 77.0408 166.682 77.328V80.1101H164.977V73.9178H166.592V73.9357H166.574Z" fill="#212121"/>
<path d="M171.151 78.5837C171.223 78.7093 171.331 78.817 171.456 78.9068C171.564 78.9965 171.708 79.0504 171.869 79.0863C172.031 79.1222 172.174 79.1401 172.354 79.1401C172.462 79.1401 172.587 79.1222 172.731 79.1042C172.856 79.0683 172.982 79.0324 173.09 78.9786C173.198 78.9247 173.287 78.835 173.359 78.7452C173.431 78.6375 173.467 78.5119 173.467 78.3683C173.467 78.117 173.287 77.9196 172.946 77.794C172.605 77.6683 172.139 77.5427 171.528 77.417C171.295 77.3632 171.044 77.2914 170.81 77.2196C170.577 77.1478 170.362 77.0401 170.182 76.9145C170.003 76.7888 169.859 76.6273 169.733 76.4478C169.626 76.2683 169.554 76.035 169.554 75.7657C169.554 75.3709 169.626 75.0478 169.787 74.7786C169.949 74.5273 170.146 74.3298 170.398 74.1683C170.649 74.0247 170.936 73.917 171.259 73.8632C171.564 73.8093 171.905 73.7734 172.246 73.7734C172.587 73.7734 172.91 73.8093 173.233 73.8811C173.539 73.9529 173.826 74.0606 174.077 74.2042C174.31 74.3657 174.526 74.5632 174.687 74.8145C174.867 75.0657 174.939 75.3888 174.992 75.7657H173.377C173.341 75.4427 173.233 75.2093 173 75.1016C172.767 74.994 172.515 74.9222 172.21 74.9222C172.103 74.9222 172.013 74.9222 171.905 74.9401C171.798 74.9581 171.69 74.976 171.6 75.0119C171.51 75.0478 171.421 75.1196 171.367 75.1914C171.295 75.2632 171.259 75.3709 171.259 75.4965C171.259 75.6581 171.313 75.7657 171.439 75.8734C171.546 75.9811 171.69 76.0529 171.887 76.1068C172.067 76.1606 172.264 76.2145 172.498 76.2683C172.731 76.3222 172.964 76.376 173.215 76.4298C173.449 76.4837 173.7 76.5555 173.933 76.6273C174.167 76.717 174.382 76.8068 174.562 76.9324C174.741 77.0581 174.885 77.2375 175.01 77.435C175.118 77.6324 175.19 77.8837 175.19 78.1529C175.19 78.5657 175.1 78.9068 174.956 79.176C174.777 79.4452 174.58 79.6786 174.31 79.8401C174.041 80.0196 173.736 80.1273 173.395 80.1991C173.054 80.2709 172.713 80.3068 172.354 80.3068C171.995 80.3068 171.636 80.2709 171.295 80.1991C170.954 80.1273 170.649 80.0196 170.38 79.8401C170.11 79.6606 169.895 79.4632 169.733 79.176C169.554 78.9068 169.464 78.5478 169.446 78.135H171.08C171.026 78.2965 171.08 78.4581 171.151 78.5837Z" fill="#212121"/>
</svg>
