<svg width="230" height="130" viewBox="0 0 230 130" fill="none" xmlns="http://www.w3.org/2000/svg">
<g clip-path="url(#clip0_1019_46675)">
<path d="M94.0863 48.1787V40.63H97.7935L97.7359 41.3791H95.0467V44.1642H97.5246V44.9134H95.0467V48.1595H94.0863V48.1787ZM102.077 44.7021C102.077 44.9326 102.077 45.1246 102.058 45.2783C102.038 45.4512 102.019 45.5856 102.019 45.7009H99.3493C99.3877 46.3155 99.503 46.7765 99.7527 47.0647C99.9832 47.3528 100.329 47.5064 100.771 47.5064C100.924 47.5064 101.059 47.4872 101.193 47.4488C101.309 47.4104 101.424 47.372 101.52 47.3144C101.616 47.2567 101.693 47.2183 101.75 47.1607C101.808 47.1031 101.866 47.0647 101.885 47.0455L102.211 47.6601C102.173 47.6985 102.115 47.7561 102.038 47.8138C101.962 47.8906 101.866 47.9482 101.75 48.0251C101.635 48.1019 101.481 48.1595 101.289 48.1979C101.116 48.2556 100.886 48.2748 100.636 48.2748C100.31 48.2748 100.002 48.2171 99.7527 48.1019C99.4838 47.9866 99.2533 47.8138 99.0804 47.6025C98.8883 47.372 98.7539 47.0839 98.6578 46.7189C98.5618 46.3732 98.5042 45.9314 98.5042 45.4512C98.5042 44.9902 98.5618 44.5868 98.6578 44.2411C98.7731 43.8953 98.9075 43.6264 99.0804 43.3959C99.2533 43.1846 99.4646 43.0118 99.7143 42.9157C99.964 42.8005 100.214 42.7621 100.483 42.7621C100.982 42.7621 101.385 42.9157 101.654 43.2423C101.923 43.6072 102.077 44.0682 102.077 44.7021ZM100.406 43.5304C100.098 43.5304 99.8487 43.6648 99.6567 43.9145C99.4646 44.1835 99.3493 44.5484 99.3301 45.0478H101.251C101.251 45.0094 101.27 44.9518 101.27 44.8941C101.27 44.8173 101.27 44.7597 101.27 44.6637C101.27 44.2987 101.193 44.0106 101.059 43.8185C100.905 43.6264 100.694 43.5304 100.406 43.5304ZM103.018 45.6433C103.018 45.1054 103.095 44.6637 103.229 44.3179C103.364 43.953 103.556 43.6648 103.767 43.4535C103.978 43.2423 104.228 43.0886 104.516 42.9926C104.785 42.8965 105.073 42.8581 105.342 42.8581C105.515 42.8581 105.65 42.8773 105.784 42.8965C105.899 42.9157 106.015 42.9541 106.091 42.9926V40.4763L106.975 40.3803V48.2171H106.168V47.6601H106.149C106.13 47.6985 106.091 47.7561 106.034 47.833C105.976 47.9098 105.899 47.9866 105.784 48.0635C105.688 48.1403 105.554 48.1979 105.4 48.2556C105.246 48.3132 105.073 48.3324 104.862 48.3324C104.612 48.3324 104.382 48.2748 104.151 48.1787C103.921 48.0827 103.729 47.929 103.575 47.7177C103.402 47.5064 103.268 47.2183 103.172 46.8918C103.056 46.5268 103.018 46.1235 103.018 45.6433ZM105.093 47.5257C105.227 47.5257 105.361 47.5064 105.457 47.468C105.573 47.4296 105.669 47.3912 105.746 47.3336C105.822 47.2759 105.899 47.2183 105.957 47.1607C106.015 47.1031 106.053 47.0454 106.091 47.007V43.7609C106.015 43.7033 105.918 43.6648 105.803 43.6264C105.688 43.588 105.573 43.5688 105.4 43.5688C105.189 43.5688 104.996 43.6072 104.824 43.6648C104.651 43.7417 104.497 43.8569 104.363 44.0106C104.228 44.1642 104.132 44.3755 104.055 44.6252C103.978 44.8749 103.94 45.2015 103.94 45.5664C103.94 45.9314 103.978 46.2387 104.036 46.4884C104.094 46.7381 104.19 46.9302 104.286 47.0839C104.401 47.2375 104.516 47.3336 104.651 47.4104C104.785 47.5064 104.939 47.5257 105.093 47.5257ZM111.681 44.7021C111.681 44.9326 111.681 45.1246 111.662 45.2783C111.642 45.4512 111.623 45.5856 111.623 45.7009H108.953C108.992 46.3155 109.107 46.7765 109.357 47.0647C109.587 47.3528 109.933 47.5064 110.375 47.5064C110.528 47.5064 110.663 47.4872 110.797 47.4488C110.913 47.4104 111.028 47.372 111.124 47.3144C111.22 47.2567 111.297 47.2183 111.354 47.1607C111.412 47.1031 111.47 47.0647 111.489 47.0455L111.815 47.6601C111.777 47.6985 111.719 47.7561 111.642 47.8138C111.566 47.8906 111.47 47.9482 111.354 48.0251C111.239 48.1019 111.085 48.1595 110.893 48.1979C110.72 48.2556 110.49 48.2748 110.24 48.2748C109.914 48.2748 109.606 48.2171 109.357 48.1019C109.088 47.9866 108.857 47.8138 108.684 47.6025C108.492 47.372 108.358 47.0839 108.262 46.7189C108.166 46.3732 108.108 45.9314 108.108 45.4512C108.108 44.9902 108.166 44.5868 108.262 44.2411C108.377 43.8953 108.512 43.6264 108.684 43.3959C108.857 43.1846 109.069 43.0118 109.318 42.9157C109.568 42.8005 109.818 42.7621 110.087 42.7621C110.586 42.7621 110.989 42.9157 111.258 43.2423C111.546 43.6072 111.681 44.0682 111.681 44.7021ZM110.029 43.5304C109.722 43.5304 109.472 43.6648 109.28 43.9145C109.088 44.1835 108.973 44.5484 108.953 45.0478H110.874C110.874 45.0094 110.893 44.9518 110.893 44.8941C110.893 44.8173 110.893 44.7597 110.893 44.6637C110.893 44.2987 110.817 44.0106 110.682 43.8185C110.509 43.6264 110.298 43.5304 110.029 43.5304ZM115.177 43.7225C115.158 43.7033 115.1 43.684 115.042 43.6648C114.965 43.6456 114.869 43.6264 114.754 43.6264C114.485 43.6264 114.255 43.7033 114.101 43.8569C113.947 44.0106 113.832 44.1642 113.775 44.3371V48.1787H112.891V42.9349H113.698V43.6456H113.717C113.755 43.5496 113.794 43.4343 113.851 43.3383C113.909 43.2423 113.986 43.1462 114.063 43.0694C114.159 42.9926 114.255 42.9349 114.37 42.8965C114.485 42.8581 114.639 42.8389 114.793 42.8389C114.908 42.8389 115.023 42.8581 115.1 42.8773C115.177 42.8965 115.234 42.9157 115.273 42.9349L115.177 43.7225ZM115.695 46.8534C115.695 46.546 115.753 46.2963 115.868 46.085C115.983 45.8738 116.137 45.7201 116.329 45.5856C116.521 45.4512 116.752 45.3744 117.021 45.3167C117.29 45.2591 117.578 45.2399 117.866 45.2399H118.135V44.7405C118.135 44.2987 118.058 43.9914 117.904 43.8185C117.751 43.6456 117.52 43.5688 117.251 43.5688C116.982 43.5688 116.771 43.6264 116.598 43.7417C116.425 43.8569 116.291 43.953 116.176 44.049L115.811 43.4535C115.868 43.3959 115.945 43.3383 116.041 43.2615C116.137 43.1846 116.252 43.127 116.368 43.0502C116.502 42.9926 116.656 42.9349 116.809 42.8773C116.982 42.8389 117.174 42.8197 117.386 42.8197C117.923 42.8197 118.327 42.9733 118.615 43.2615C118.884 43.5688 119.038 44.049 119.038 44.7021V47.1031C119.038 47.3336 119.038 47.5449 119.057 47.7561C119.076 47.9674 119.095 48.1211 119.095 48.1787H118.25L118.212 47.6025H118.192C118.154 47.6601 118.116 47.7369 118.058 47.833C118 47.9098 117.923 47.9866 117.847 48.0635C117.751 48.1403 117.655 48.1979 117.52 48.2363C117.405 48.294 117.251 48.3132 117.078 48.3132C116.886 48.3132 116.694 48.2748 116.521 48.1979C116.348 48.1211 116.195 48.0251 116.08 47.8906C115.945 47.7561 115.849 47.6025 115.791 47.4296C115.715 47.2567 115.695 47.0647 115.695 46.8534ZM117.27 47.5641C117.386 47.5641 117.501 47.5449 117.597 47.5064C117.693 47.468 117.77 47.4296 117.847 47.372C117.923 47.3144 117.981 47.2567 118.02 47.1991C118.058 47.1415 118.116 47.0839 118.154 47.0455V45.893L117.866 45.9122C117.443 45.9314 117.117 46.0082 116.905 46.1235C116.694 46.2579 116.579 46.4692 116.579 46.7573C116.579 47.0262 116.637 47.2375 116.771 47.372C116.886 47.5064 117.059 47.5641 117.27 47.5641ZM121.227 46.9686C121.227 47.1799 121.266 47.3336 121.323 47.4296C121.381 47.5257 121.496 47.5641 121.65 47.5641C121.727 47.5641 121.804 47.5641 121.861 47.5449C121.919 47.5256 121.957 47.5064 121.996 47.5064L122.072 48.1595C122.034 48.1787 121.957 48.2171 121.823 48.2556C121.707 48.294 121.554 48.3132 121.362 48.3132C121.054 48.3132 120.824 48.2171 120.632 48.0443C120.459 47.8714 120.363 47.5449 120.363 47.0647V40.4763L121.246 40.3803V46.9686H121.227ZM131.638 40.6492V48.1979H130.716V44.606C130.716 44.3755 130.716 44.1642 130.716 43.9337C130.716 43.7225 130.716 43.5112 130.716 43.3191C130.716 43.127 130.716 42.9541 130.735 42.8197C130.735 42.666 130.754 42.57 130.754 42.4739H130.716C130.678 42.6468 130.601 42.9157 130.486 43.2807C130.37 43.6648 130.236 44.0682 130.101 44.4908L128.853 48.1787H128.104L126.855 44.4908C126.702 44.0682 126.586 43.6648 126.471 43.2807C126.356 42.8965 126.279 42.6276 126.241 42.4739H126.202C126.202 42.57 126.221 42.6852 126.221 42.8197C126.221 42.9733 126.241 43.127 126.241 43.3191C126.241 43.5112 126.241 43.7032 126.241 43.9337C126.241 44.145 126.241 44.3755 126.241 44.606V48.1979H125.319V40.6492H126.375L128.161 45.8545C128.238 46.1043 128.315 46.3348 128.373 46.5652C128.43 46.7957 128.469 46.9878 128.488 47.1607H128.507C128.507 46.9878 128.546 46.7957 128.603 46.5652C128.661 46.3348 128.738 46.1043 128.814 45.8738L130.601 40.6492H131.638ZM134.077 48.1787H133.194V42.9349H134.077V48.1787ZM133.636 41.6672C133.463 41.6672 133.309 41.6096 133.194 41.4943C133.079 41.3791 133.021 41.2254 133.021 41.0333C133.021 40.8605 133.079 40.7068 133.194 40.5915C133.309 40.4763 133.444 40.4187 133.636 40.4187C133.809 40.4187 133.962 40.4763 134.058 40.5915C134.173 40.7068 134.231 40.8605 134.231 41.0333C134.231 41.2254 134.173 41.3791 134.058 41.4943C133.943 41.6096 133.809 41.6672 133.636 41.6672ZM138.284 48.1787V44.8173C138.284 44.3755 138.207 44.049 138.054 43.8569C137.9 43.6648 137.669 43.5688 137.362 43.5688C137.093 43.5688 136.882 43.6264 136.709 43.7609C136.536 43.8953 136.402 44.0106 136.286 44.145V48.1979H135.403V42.9541H136.21V43.5496H136.229C136.248 43.5112 136.306 43.4343 136.363 43.3575C136.44 43.2807 136.536 43.1846 136.651 43.1078C136.767 43.031 136.901 42.9733 137.074 42.8965C137.228 42.8389 137.42 42.8005 137.612 42.8005C137.842 42.8005 138.054 42.8389 138.246 42.8965C138.438 42.9733 138.591 43.0694 138.726 43.223C138.86 43.3767 138.956 43.5688 139.033 43.8185C139.11 44.0682 139.148 44.3563 139.148 44.7213V48.1595H138.284V48.1787ZM141.396 48.1787H140.512V42.9349H141.396V48.1787ZM140.954 41.6672C140.781 41.6672 140.627 41.6096 140.512 41.4943C140.397 41.3791 140.339 41.2254 140.339 41.0333C140.339 40.8605 140.397 40.7068 140.512 40.5915C140.627 40.4763 140.762 40.4187 140.954 40.4187C141.127 40.4187 141.28 40.4763 141.377 40.5915C141.492 40.7068 141.549 40.8605 141.549 41.0333C141.549 41.2254 141.492 41.3791 141.377 41.4943C141.261 41.6096 141.127 41.6672 140.954 41.6672ZM145.007 43.9914C144.949 43.9337 144.834 43.8377 144.68 43.7225C144.527 43.6072 144.335 43.5496 144.085 43.5496C143.854 43.5496 143.681 43.6072 143.547 43.7225C143.432 43.8377 143.355 43.9722 143.355 44.1066C143.355 44.2987 143.413 44.4716 143.528 44.5868C143.643 44.7213 143.816 44.8557 144.046 44.9902L144.373 45.1823C144.738 45.3936 145.007 45.6241 145.218 45.8738C145.429 46.1235 145.525 46.4308 145.525 46.815C145.525 47.2375 145.391 47.5833 145.103 47.8714C144.815 48.1595 144.392 48.294 143.854 48.294C143.643 48.294 143.451 48.2748 143.297 48.2363C143.144 48.1979 142.99 48.1403 142.875 48.0827C142.759 48.0251 142.663 47.9674 142.567 47.8906C142.491 47.8138 142.414 47.7561 142.375 47.6985L142.798 47.007C142.836 47.0454 142.894 47.1031 142.952 47.1607C143.009 47.2183 143.086 47.2759 143.182 47.3336C143.278 47.3912 143.374 47.4296 143.47 47.468C143.585 47.5064 143.701 47.5257 143.854 47.5257C144.123 47.5257 144.315 47.468 144.45 47.3528C144.584 47.2375 144.661 47.1031 144.661 46.9302C144.661 46.815 144.642 46.6997 144.603 46.6037C144.565 46.5076 144.527 46.4308 144.45 46.354C144.392 46.2771 144.296 46.2195 144.2 46.1427C144.104 46.085 143.989 46.0082 143.874 45.9314L143.547 45.7201C143.22 45.5088 142.971 45.2783 142.779 45.0478C142.587 44.8173 142.491 44.51 142.491 44.145C142.491 43.953 142.529 43.7609 142.606 43.6072C142.683 43.4343 142.798 43.2999 142.932 43.1846C143.067 43.0694 143.24 42.9733 143.413 42.8965C143.605 42.8197 143.797 42.8005 144.008 42.8005C144.219 42.8005 144.392 42.8197 144.527 42.8581C144.68 42.8965 144.796 42.9541 144.911 43.0118C145.026 43.0694 145.103 43.127 145.18 43.2038C145.257 43.2615 145.314 43.3191 145.353 43.3575L145.007 43.9914ZM148.81 43.6648H147.658V46.5652C147.658 46.9302 147.696 47.1991 147.792 47.3336C147.888 47.468 148.042 47.5449 148.272 47.5449C148.407 47.5449 148.522 47.5256 148.618 47.4872C148.714 47.4488 148.791 47.4104 148.829 47.3912L148.944 48.1019C148.906 48.1403 148.829 48.1787 148.676 48.2363C148.541 48.294 148.349 48.3324 148.119 48.3324C147.658 48.3324 147.331 48.1979 147.1 47.9482C146.87 47.6985 146.755 47.2759 146.755 46.6997V43.6648H146.121V43.0694L146.755 42.9349L146.851 41.4751H147.638V42.9349H148.887L148.81 43.6648ZM152.133 43.7225C152.114 43.7033 152.056 43.684 151.999 43.6648C151.922 43.6456 151.826 43.6264 151.71 43.6264C151.442 43.6264 151.211 43.7033 151.057 43.8569C150.904 44.0106 150.788 44.1642 150.731 44.3371V48.1787H149.847V42.9349H150.654V43.6456H150.673C150.712 43.5496 150.75 43.4343 150.808 43.3383C150.865 43.2423 150.942 43.1462 151.019 43.0694C151.096 42.9926 151.211 42.9349 151.326 42.8965C151.442 42.8581 151.595 42.8389 151.749 42.8389C151.864 42.8389 151.979 42.8581 152.056 42.8773C152.133 42.8965 152.191 42.9157 152.229 42.9349L152.133 43.7225ZM156.493 42.9349L154.861 48.486C154.668 49.1199 154.438 49.6193 154.169 49.9459C153.9 50.2724 153.497 50.4453 152.978 50.4453C152.863 50.4453 152.786 50.4261 152.709 50.4069C152.632 50.3876 152.594 50.3684 152.556 50.3492V49.5809C152.594 49.6001 152.632 49.6193 152.69 49.6385C152.748 49.6577 152.824 49.6577 152.921 49.6577C153.228 49.6577 153.478 49.5617 153.631 49.3696C153.785 49.1775 153.939 48.8702 154.054 48.4668L154.131 48.1979L152.44 42.9541H153.401L154.227 45.8545C154.304 46.1619 154.38 46.4308 154.438 46.6997C154.496 46.9494 154.553 47.1991 154.553 47.3912H154.572C154.592 47.1799 154.63 46.9494 154.668 46.6997C154.726 46.45 154.784 46.1619 154.88 45.8738L155.629 42.9541H156.493V42.9349ZM96.1032 54.6902H95.0275V59.2233H94.144V54.6902H93.5293V54.0948L94.1632 53.9795V52.9231C94.1632 52.635 94.2016 52.3853 94.2784 52.1932C94.3552 51.9819 94.4705 51.8282 94.6049 51.6938C94.7394 51.5593 94.8931 51.4633 95.0659 51.4057C95.2388 51.348 95.4309 51.3096 95.623 51.3096C95.8151 51.3096 95.9687 51.3288 96.1032 51.3865C96.2376 51.4441 96.3145 51.4825 96.3721 51.5017L96.18 52.2316C96.1416 52.1932 96.0648 52.174 95.9879 52.1356C95.9111 52.0972 95.8151 52.078 95.6998 52.078C95.4885 52.078 95.3349 52.1356 95.2196 52.27C95.1044 52.4045 95.0467 52.635 95.0467 52.9999V53.9411H96.2184L96.1032 54.6902ZM96.641 56.5918C96.641 56.1116 96.6986 55.6891 96.8139 55.3433C96.9291 54.9976 97.0828 54.7095 97.2749 54.479C97.4669 54.2485 97.6974 54.0948 97.9471 53.9795C98.1968 53.8643 98.4658 53.8259 98.7539 53.8259C99.042 53.8259 99.3109 53.8835 99.5606 53.9795C99.8103 54.0948 100.022 54.2485 100.214 54.479C100.387 54.7095 100.54 54.9784 100.636 55.3433C100.752 55.6891 100.79 56.1116 100.79 56.5918C100.79 57.072 100.732 57.4946 100.617 57.8404C100.502 58.1861 100.348 58.4742 100.156 58.7047C99.964 58.9352 99.7335 59.0889 99.4838 59.1849C99.2341 59.281 98.9652 59.3386 98.677 59.3386C98.3889 59.3386 98.12 59.281 97.8703 59.1849C97.6206 59.0889 97.4093 58.916 97.2172 58.7047C97.0444 58.4742 96.8907 58.2053 96.7947 57.8596C96.6986 57.5138 96.641 57.0913 96.641 56.5918ZM99.8679 56.5918C99.8679 55.9004 99.7719 55.3817 99.5606 55.0744C99.3493 54.7479 99.0804 54.5942 98.7155 54.5942C98.3505 54.5942 98.0624 54.7479 97.8703 55.0744C97.6782 55.4009 97.563 55.9004 97.563 56.5918C97.563 57.2833 97.659 57.8019 97.8703 58.1093C98.0816 58.4166 98.3505 58.5703 98.7155 58.5703C99.0804 58.5703 99.3685 58.4166 99.5606 58.1093C99.7719 57.8019 99.8679 57.2833 99.8679 56.5918ZM104.209 54.7479C104.19 54.7287 104.132 54.7095 104.075 54.6902C103.998 54.671 103.902 54.6518 103.786 54.6518C103.517 54.6518 103.287 54.7287 103.133 54.8823C102.98 55.036 102.864 55.1897 102.807 55.3625V59.2041H101.923V53.9603H102.73V54.671H102.749C102.788 54.575 102.826 54.4597 102.884 54.3637C102.941 54.2677 103.018 54.1716 103.095 54.0948C103.191 54.018 103.287 53.9603 103.402 53.9219C103.517 53.8835 103.671 53.8643 103.825 53.8643C103.94 53.8643 104.055 53.8835 104.132 53.9027C104.209 53.9219 104.267 53.9411 104.305 53.9603L104.209 54.7479ZM110.989 52.4237H108.3V55.036H110.778V55.7851H108.3V58.4358H111.258L111.201 59.2233H107.34V51.6746H111.047L110.989 52.4237ZM115.177 54.9784C115.158 54.9592 115.119 54.9207 115.081 54.8823C115.042 54.8439 114.965 54.7863 114.908 54.7479C114.831 54.7095 114.754 54.671 114.639 54.6326C114.543 54.5942 114.428 54.575 114.293 54.575C114.101 54.575 113.928 54.6134 113.755 54.671C113.582 54.7479 113.448 54.8439 113.333 54.9976C113.218 55.1512 113.121 55.3433 113.045 55.593C112.968 55.8427 112.949 56.1308 112.949 56.4766C112.949 56.8608 112.987 57.1873 113.045 57.4562C113.102 57.7251 113.198 57.9364 113.294 58.0901C113.41 58.2437 113.544 58.359 113.698 58.4358C113.851 58.5126 114.024 58.5319 114.216 58.5319C114.485 58.5319 114.697 58.4934 114.831 58.3974C114.965 58.3014 115.081 58.2245 115.138 58.1669L115.503 58.7816C115.465 58.82 115.407 58.8776 115.35 58.9352C115.273 58.9928 115.196 59.0505 115.081 59.1081C114.965 59.1657 114.831 59.2233 114.677 59.2618C114.524 59.3002 114.332 59.3194 114.14 59.3194C113.851 59.3194 113.582 59.281 113.314 59.1849C113.064 59.0889 112.833 58.9352 112.641 58.7239C112.449 58.5126 112.296 58.2245 112.2 57.8788C112.084 57.533 112.027 57.0912 112.027 56.5726C112.027 56.0732 112.084 55.6506 112.219 55.2857C112.353 54.94 112.526 54.6518 112.737 54.4405C112.949 54.2293 113.179 54.0756 113.448 53.9795C113.698 53.8835 113.967 53.8259 114.236 53.8259C114.428 53.8259 114.601 53.8451 114.754 53.8835C114.908 53.9219 115.023 53.9603 115.138 54.018C115.254 54.0756 115.33 54.1332 115.407 54.1908C115.484 54.2485 115.542 54.3061 115.58 54.3445L115.177 54.9784ZM116.156 56.5918C116.156 56.1116 116.214 55.6891 116.329 55.3433C116.444 54.9976 116.598 54.7095 116.79 54.479C116.982 54.2485 117.213 54.0948 117.463 53.9795C117.712 53.8643 117.981 53.8259 118.269 53.8259C118.557 53.8259 118.826 53.8835 119.076 53.9795C119.326 54.0948 119.537 54.2485 119.729 54.479C119.902 54.7095 120.056 54.9784 120.152 55.3433C120.267 55.6891 120.305 56.1116 120.305 56.5918C120.305 57.072 120.248 57.4946 120.132 57.8404C120.017 58.1861 119.864 58.4742 119.671 58.7047C119.479 58.9352 119.249 59.0889 118.999 59.1849C118.749 59.281 118.481 59.3386 118.192 59.3386C117.904 59.3386 117.635 59.281 117.386 59.1849C117.136 59.0889 116.925 58.916 116.733 58.7047C116.56 58.4742 116.406 58.2053 116.31 57.8596C116.214 57.5138 116.156 57.0913 116.156 56.5918ZM119.383 56.5918C119.383 55.9004 119.287 55.3817 119.076 55.0744C118.865 54.7479 118.596 54.5942 118.231 54.5942C117.866 54.5942 117.578 54.7479 117.386 55.0744C117.194 55.4009 117.078 55.9004 117.078 56.5918C117.078 57.2833 117.174 57.8019 117.386 58.1093C117.597 58.4166 117.866 58.5703 118.231 58.5703C118.596 58.5703 118.884 58.4166 119.076 58.1093C119.287 57.8019 119.383 57.2833 119.383 56.5918ZM124.281 59.2233V55.8427C124.281 55.4009 124.205 55.0744 124.051 54.8823C123.897 54.6902 123.667 54.5942 123.359 54.5942C123.09 54.5942 122.879 54.6518 122.706 54.7863C122.533 54.9207 122.399 55.036 122.284 55.1704V59.2233H121.4V53.9795H122.207V54.575H122.226C122.245 54.5366 122.303 54.4597 122.361 54.3829C122.437 54.3061 122.533 54.21 122.649 54.1332C122.764 54.0564 122.898 53.9988 123.071 53.9219C123.225 53.8643 123.417 53.8259 123.609 53.8259C123.84 53.8259 124.051 53.8643 124.243 53.9219C124.435 53.9988 124.589 54.0948 124.723 54.2485C124.858 54.4021 124.954 54.5942 125.03 54.8439C125.107 55.0936 125.146 55.3817 125.146 55.7467V59.2233H124.281ZM126.26 56.5918C126.26 56.1116 126.317 55.6891 126.433 55.3433C126.548 54.9976 126.702 54.7095 126.894 54.479C127.086 54.2485 127.316 54.0948 127.566 53.9795C127.816 53.8643 128.085 53.8259 128.373 53.8259C128.661 53.8259 128.93 53.8835 129.179 53.9795C129.429 54.0948 129.64 54.2485 129.832 54.479C130.005 54.7095 130.159 54.9784 130.255 55.3433C130.37 55.6891 130.409 56.1116 130.409 56.5918C130.409 57.072 130.351 57.4946 130.236 57.8404C130.121 58.1861 129.967 58.4742 129.775 58.7047C129.583 58.9352 129.352 59.0889 129.103 59.1849C128.853 59.281 128.584 59.3386 128.296 59.3386C128.008 59.3386 127.739 59.281 127.489 59.1849C127.239 59.0889 127.028 58.916 126.836 58.7047C126.663 58.4742 126.509 58.2053 126.413 57.8596C126.298 57.5138 126.26 57.0913 126.26 56.5918ZM129.487 56.5918C129.487 55.9004 129.391 55.3817 129.179 55.0744C128.968 54.7479 128.699 54.5942 128.334 54.5942C127.969 54.5942 127.681 54.7479 127.489 55.0744C127.297 55.4009 127.182 55.9004 127.182 56.5918C127.182 57.2833 127.278 57.8019 127.489 58.1093C127.7 58.4166 127.969 58.5703 128.334 58.5703C128.699 58.5703 128.987 58.4166 129.179 58.1093C129.371 57.8019 129.487 57.2833 129.487 56.5918ZM134.27 59.2233V55.8427C134.27 55.4201 134.212 55.0936 134.077 54.9207C133.962 54.7287 133.751 54.6326 133.482 54.6326C133.328 54.6326 133.213 54.6518 133.098 54.6902C132.983 54.7287 132.887 54.7671 132.791 54.8247C132.694 54.8823 132.618 54.94 132.56 54.9976C132.502 55.0552 132.445 55.1128 132.387 55.1704V59.2233H131.504V53.9795H132.31V54.575H132.33C132.368 54.5174 132.426 54.4405 132.502 54.3637C132.579 54.2869 132.675 54.1908 132.771 54.114C132.887 54.0372 133.002 53.9795 133.155 53.9219C133.309 53.8643 133.463 53.8451 133.655 53.8451C134.25 53.8451 134.673 54.0756 134.923 54.5366C134.98 54.4598 135.038 54.3829 135.134 54.3061C135.23 54.2293 135.326 54.1524 135.441 54.0756C135.556 53.9988 135.691 53.9411 135.825 53.9027C135.979 53.8643 136.133 53.8451 136.306 53.8451C137.362 53.8451 137.9 54.4597 137.9 55.7083V59.2233H137.016V55.8427C137.016 55.4201 136.939 55.0936 136.786 54.9207C136.632 54.7287 136.402 54.6326 136.114 54.6326C135.864 54.6326 135.653 54.6902 135.499 54.8055C135.326 54.9207 135.211 55.036 135.115 55.1512C135.134 55.2281 135.134 55.3241 135.153 55.4009C135.153 55.497 135.172 55.593 135.172 55.6891V59.2233H134.27ZM140.128 59.2233H139.244V53.9795H140.128V59.2233ZM139.686 52.6926C139.513 52.6926 139.36 52.635 139.244 52.5197C139.129 52.4045 139.072 52.2508 139.072 52.0587C139.072 51.8859 139.129 51.7322 139.244 51.617C139.36 51.5017 139.494 51.4441 139.686 51.4441C139.859 51.4441 140.013 51.5017 140.109 51.617C140.224 51.7322 140.282 51.8859 140.282 52.0587C140.282 52.2508 140.224 52.4045 140.109 52.5197C139.994 52.635 139.859 52.6926 139.686 52.6926ZM144.392 54.9784C144.373 54.9592 144.335 54.9207 144.296 54.8823C144.258 54.8439 144.181 54.7863 144.123 54.7479C144.046 54.7095 143.97 54.671 143.854 54.6326C143.758 54.5942 143.643 54.575 143.509 54.575C143.317 54.575 143.144 54.6134 142.971 54.671C142.798 54.7479 142.663 54.8439 142.548 54.9976C142.433 55.1512 142.337 55.3433 142.26 55.593C142.183 55.8427 142.164 56.1308 142.164 56.4766C142.164 56.8608 142.202 57.1873 142.26 57.4562C142.318 57.7251 142.414 57.9364 142.51 58.0901C142.625 58.2437 142.759 58.359 142.913 58.4358C143.067 58.5126 143.24 58.5319 143.432 58.5319C143.701 58.5319 143.912 58.4934 144.046 58.3974C144.181 58.3014 144.296 58.2245 144.354 58.1669L144.719 58.7816C144.68 58.82 144.623 58.8776 144.565 58.9352C144.488 58.9928 144.411 59.0505 144.296 59.1081C144.181 59.1657 144.046 59.2233 143.893 59.2618C143.739 59.3002 143.547 59.3194 143.355 59.3194C143.067 59.3194 142.798 59.281 142.529 59.1849C142.279 59.0889 142.049 58.9352 141.857 58.7239C141.665 58.5126 141.511 58.2245 141.415 57.8788C141.3 57.533 141.242 57.0912 141.242 56.5726C141.242 56.0732 141.3 55.6506 141.434 55.2857C141.569 54.94 141.741 54.6518 141.953 54.4405C142.164 54.2293 142.395 54.0756 142.663 53.9795C142.913 53.8835 143.182 53.8259 143.451 53.8259C143.643 53.8259 143.816 53.8451 143.97 53.8835C144.123 53.9219 144.238 53.9603 144.354 54.018C144.469 54.0756 144.546 54.1332 144.623 54.1908C144.699 54.2485 144.757 54.3061 144.796 54.3445L144.392 54.9784ZM152.844 59.2233H151.787L151.115 56.8031H148.829L148.138 59.2233H147.177L149.636 51.6746H150.385L152.844 59.2233ZM150.923 56.0732L150.327 53.9988C150.251 53.7298 150.174 53.4609 150.116 53.2112C150.059 52.9615 150.02 52.7502 150.02 52.5774H150.001C150.001 52.7502 149.962 52.9423 149.905 53.192C149.847 53.4417 149.77 53.6914 149.694 53.9795L149.079 56.0732H150.923ZM155.802 54.6902H154.726V59.2233H153.843V54.6902H153.209V54.0948L153.843 53.9795V52.9231C153.843 52.635 153.881 52.3853 153.958 52.1932C154.035 51.9819 154.15 51.8282 154.284 51.6938C154.419 51.5593 154.572 51.4633 154.745 51.4057C154.918 51.348 155.11 51.3096 155.302 51.3096C155.494 51.3096 155.648 51.3288 155.783 51.3865C155.917 51.4441 155.994 51.4825 156.051 51.5017L155.859 52.2316C155.821 52.1932 155.744 52.174 155.667 52.1356C155.59 52.0972 155.494 52.078 155.379 52.078C155.168 52.078 155.014 52.1356 154.899 52.27C154.784 52.4045 154.726 52.635 154.726 52.9999V53.9411H155.898L155.802 54.6902ZM158.894 54.6902H157.819V59.2233H156.935V54.6902H156.301V54.0948L156.935 53.9795V52.9231C156.935 52.635 156.973 52.3853 157.05 52.1932C157.127 51.9819 157.242 51.8282 157.377 51.6938C157.511 51.5593 157.665 51.4633 157.838 51.4057C158.011 51.348 158.203 51.3096 158.395 51.3096C158.587 51.3096 158.741 51.3288 158.875 51.3865C159.009 51.4441 159.086 51.4825 159.144 51.5017L158.952 52.2316C158.913 52.1932 158.837 52.174 158.76 52.1356C158.683 52.0972 158.587 52.078 158.472 52.078C158.26 52.078 158.107 52.1356 157.991 52.27C157.876 52.4045 157.819 52.635 157.819 52.9999V53.9411H158.99L158.894 54.6902ZM159.394 57.8788C159.394 57.5715 159.451 57.3217 159.567 57.1105C159.682 56.8992 159.835 56.7455 160.028 56.611C160.22 56.4766 160.45 56.3998 160.719 56.3421C160.988 56.2845 161.276 56.2653 161.564 56.2653H161.833V55.7659C161.833 55.3241 161.756 55.0168 161.603 54.8439C161.449 54.671 161.218 54.5942 160.949 54.5942C160.681 54.5942 160.469 54.6518 160.296 54.7671C160.124 54.8823 159.989 54.9784 159.874 55.0744L159.509 54.479C159.567 54.4213 159.643 54.3637 159.739 54.2869C159.835 54.21 159.951 54.1524 160.066 54.0756C160.2 54.018 160.354 53.9603 160.508 53.9027C160.681 53.8643 160.873 53.8451 161.084 53.8451C161.622 53.8451 162.025 53.9988 162.313 54.2869C162.582 54.5942 162.736 55.0744 162.736 55.7275V58.1285C162.736 58.359 162.736 58.5703 162.755 58.7816C162.774 58.9928 162.793 59.1465 162.793 59.2041H161.948L161.91 58.6279C161.871 58.6855 161.833 58.7624 161.775 58.8584C161.718 58.9352 161.641 59.0121 161.564 59.0889C161.468 59.1657 161.372 59.2233 161.238 59.2618C161.122 59.3194 160.969 59.3386 160.796 59.3386C160.604 59.3386 160.412 59.3002 160.239 59.2233C160.066 59.1465 159.912 59.0505 159.797 58.916C159.663 58.7816 159.567 58.6279 159.509 58.455C159.432 58.2821 159.394 58.0901 159.394 57.8788ZM160.988 58.5895C161.103 58.5895 161.218 58.5703 161.314 58.5319C161.41 58.4934 161.487 58.455 161.564 58.3974C161.641 58.3398 161.699 58.2821 161.737 58.2245C161.775 58.1669 161.833 58.1093 161.871 58.0709V56.9184L161.583 56.9376C161.161 56.9568 160.834 57.0336 160.623 57.1489C160.412 57.2833 160.296 57.4946 160.296 57.7827C160.296 58.0517 160.354 58.2629 160.488 58.3974C160.604 58.5319 160.757 58.5895 160.988 58.5895ZM164.964 59.2233H164.08V53.9795H164.964V59.2233ZM164.522 52.6926C164.349 52.6926 164.196 52.635 164.08 52.5197C163.965 52.4045 163.908 52.2508 163.908 52.0587C163.908 51.8859 163.965 51.7322 164.08 51.617C164.196 51.5017 164.33 51.4441 164.522 51.4441C164.695 51.4441 164.849 51.5017 164.945 51.617C165.06 51.7322 165.118 51.8859 165.118 52.0587C165.118 52.2508 165.06 52.4045 164.945 52.5197C164.83 52.635 164.695 52.6926 164.522 52.6926ZM168.613 54.7479C168.594 54.7287 168.537 54.7095 168.479 54.6902C168.402 54.671 168.306 54.6518 168.191 54.6518C167.922 54.6518 167.691 54.7287 167.538 54.8823C167.384 55.036 167.269 55.1897 167.211 55.3625V59.2041H166.328V53.9603H167.134V54.671H167.154C167.192 54.575 167.231 54.4597 167.288 54.3637C167.346 54.2677 167.423 54.1716 167.499 54.0948C167.595 54.018 167.692 53.9603 167.807 53.9219C167.922 53.8835 168.076 53.8643 168.229 53.8643C168.345 53.8643 168.46 53.8835 168.537 53.9027C168.613 53.9219 168.671 53.9411 168.71 53.9603L168.613 54.7479ZM171.706 55.036C171.648 54.9784 171.533 54.8823 171.379 54.7671C171.226 54.6518 171.034 54.5942 170.784 54.5942C170.553 54.5942 170.381 54.6518 170.246 54.7671C170.131 54.8823 170.054 55.0168 170.054 55.1512C170.054 55.3433 170.112 55.5162 170.227 55.6314C170.342 55.7659 170.515 55.9004 170.746 56.0348L171.072 56.2269C171.437 56.4382 171.706 56.6687 171.917 56.9184C172.129 57.1681 172.225 57.4754 172.225 57.8596C172.225 58.2821 172.09 58.6279 171.802 58.916C171.514 59.2041 171.091 59.3386 170.553 59.3386C170.342 59.3386 170.15 59.3194 169.996 59.281C169.843 59.2425 169.689 59.1849 169.574 59.1273C169.459 59.0697 169.363 59.0121 169.267 58.9352C169.19 58.8584 169.113 58.8008 169.074 58.7431L169.497 58.0517C169.535 58.0901 169.593 58.1477 169.651 58.2053C169.708 58.2629 169.785 58.3206 169.881 58.3782C169.977 58.4358 170.073 58.4742 170.169 58.5126C170.285 58.5511 170.4 58.5703 170.553 58.5703C170.822 58.5703 171.014 58.5126 171.149 58.3974C171.283 58.2821 171.36 58.1477 171.36 57.9748C171.36 57.8596 171.341 57.7443 171.303 57.6483C171.264 57.5522 171.226 57.4754 171.149 57.3986C171.091 57.3217 170.995 57.2641 170.899 57.1873C170.803 57.1297 170.688 57.0528 170.573 56.976L170.246 56.7647C169.92 56.5534 169.67 56.3229 169.478 56.0924C169.286 55.8619 169.19 55.5546 169.19 55.1897C169.19 54.9976 169.228 54.8055 169.305 54.6518C169.382 54.479 169.497 54.3445 169.632 54.2293C169.766 54.114 169.939 54.018 170.112 53.9411C170.304 53.8643 170.496 53.8451 170.707 53.8451C170.918 53.8451 171.091 53.8643 171.226 53.9027C171.379 53.9411 171.495 53.9988 171.61 54.0564C171.725 54.114 171.802 54.1716 171.879 54.2485C171.956 54.3061 172.013 54.3637 172.052 54.4021L171.706 55.036ZM93.6061 68.9042C93.6061 68.5969 93.6638 68.3472 93.779 68.1359C93.8943 67.9246 94.0479 67.7709 94.24 67.6365C94.4321 67.502 94.6626 67.4252 94.9315 67.3675C95.2004 67.3099 95.4885 67.2907 95.7766 67.2907H96.0456V66.7913C96.0456 66.3495 95.9687 66.0422 95.8151 65.8693C95.6614 65.6964 95.4309 65.6196 95.162 65.6196C94.8931 65.6196 94.6818 65.6772 94.5089 65.7925C94.336 65.9077 94.2016 66.0038 94.0863 66.0998L93.7214 65.5044C93.779 65.4467 93.8558 65.3891 93.9519 65.3123C94.0479 65.2355 94.1632 65.1778 94.2784 65.101C94.3937 65.0242 94.5665 64.9858 94.7202 64.9281C94.8931 64.8897 95.0851 64.8705 95.2964 64.8705C95.8343 64.8705 96.2376 65.0242 96.5258 65.3123C96.7947 65.6196 96.9483 66.0998 96.9483 66.7529V69.1539C96.9483 69.3844 96.9483 69.5957 96.9675 69.807C96.9867 70.0183 97.006 70.1719 97.006 70.2295H96.1608L96.1224 69.6533H96.1032C96.0648 69.7109 96.0263 69.7878 95.9687 69.8838C95.9111 69.9606 95.8343 70.0375 95.7574 70.1143C95.6614 70.1911 95.5653 70.2488 95.4309 70.2872C95.3156 70.3448 95.162 70.364 94.9891 70.364C94.797 70.364 94.6049 70.3256 94.4321 70.2488C94.2592 70.1719 94.1055 70.0759 93.9903 69.9414C93.8558 69.807 93.7598 69.6533 93.7022 69.4804C93.6253 69.3076 93.6061 69.1155 93.6061 68.9042ZM95.1812 69.6149C95.2964 69.6149 95.4117 69.5957 95.5077 69.5573C95.6038 69.5188 95.6806 69.4804 95.7574 69.4228C95.8343 69.3652 95.8919 69.3076 95.9303 69.2499C95.9687 69.1923 96.0263 69.1347 96.0648 69.0963V67.9438L95.7766 67.963C95.3541 67.9822 95.0275 68.059 94.8162 68.1743C94.6049 68.3087 94.4897 68.52 94.4897 68.8081C94.4897 69.0771 94.5473 69.2884 94.6818 69.4228C94.797 69.5573 94.9699 69.6149 95.1812 69.6149ZM101.136 70.2488V66.8681C101.136 66.4264 101.059 66.0998 100.905 65.9077C100.752 65.7157 100.521 65.6196 100.214 65.6196C99.9448 65.6196 99.7335 65.6772 99.5606 65.8117C99.3877 65.9462 99.2533 66.0614 99.138 66.1959V70.2488H98.2545V65.005H99.0612V65.6004H99.0804C99.0996 65.562 99.1573 65.4852 99.2149 65.4083C99.2917 65.3315 99.3877 65.2355 99.503 65.1586C99.6182 65.0818 99.7527 65.0242 99.9256 64.9473C100.079 64.8897 100.271 64.8513 100.463 64.8513C100.694 64.8513 100.905 64.8897 101.097 64.9473C101.289 65.0242 101.443 65.1202 101.577 65.2739C101.712 65.4275 101.808 65.6196 101.885 65.8693C101.962 66.119 102 66.4071 102 66.7721V70.2103H101.136V70.2488ZM103.095 67.6941C103.095 67.1563 103.172 66.7145 103.306 66.3687C103.441 66.0038 103.633 65.7157 103.844 65.5044C104.055 65.2931 104.305 65.1394 104.593 65.0434C104.862 64.9473 105.15 64.9089 105.419 64.9089C105.592 64.9089 105.726 64.9281 105.861 64.9473C105.976 64.9665 106.091 65.005 106.168 65.0434V62.5271L107.052 62.4311V70.268H106.245V69.7109H106.226C106.207 69.7493 106.168 69.807 106.111 69.8838C106.053 69.9606 105.976 70.0375 105.861 70.1143C105.765 70.1911 105.63 70.2488 105.477 70.3064C105.323 70.364 105.15 70.3832 104.939 70.3832C104.689 70.3832 104.459 70.3256 104.228 70.2295C103.998 70.1335 103.806 69.9798 103.652 69.7686C103.479 69.5573 103.345 69.2691 103.249 68.9426C103.153 68.5969 103.095 68.1743 103.095 67.6941ZM105.169 69.5957C105.304 69.5957 105.438 69.5765 105.534 69.5381C105.65 69.4996 105.746 69.4612 105.822 69.4036C105.899 69.346 105.976 69.2884 106.034 69.2307C106.091 69.1731 106.13 69.1155 106.168 69.0771V65.8309C106.091 65.7733 105.995 65.7349 105.88 65.6964C105.765 65.658 105.65 65.6388 105.477 65.6388C105.265 65.6388 105.073 65.6772 104.9 65.7349C104.728 65.8117 104.574 65.9269 104.439 66.0806C104.305 66.2343 104.209 66.4456 104.132 66.6953C104.055 66.945 104.017 67.2715 104.017 67.6365C104.017 68.0014 104.055 68.3087 104.113 68.5584C104.171 68.8082 104.267 69.0002 104.363 69.1539C104.478 69.3076 104.593 69.4036 104.728 69.4804C104.881 69.5573 105.016 69.5957 105.169 69.5957ZM114.543 63.4491H111.854V66.0614H114.332V66.8105H111.854V69.4612H114.812L114.754 70.2488H110.893V62.7H114.601L114.543 63.4491ZM118.769 70.2488V66.8681C118.769 66.4264 118.692 66.0998 118.538 65.9077C118.384 65.7157 118.154 65.6196 117.847 65.6196C117.578 65.6196 117.366 65.6772 117.194 65.8117C117.021 65.9462 116.886 66.0614 116.771 66.1959V70.2488H115.887V65.005H116.694V65.6004H116.713C116.733 65.562 116.79 65.4852 116.848 65.4083C116.925 65.3315 117.021 65.2355 117.136 65.1586C117.251 65.0818 117.386 65.0242 117.559 64.9473C117.712 64.8897 117.904 64.8513 118.096 64.8513C118.327 64.8513 118.538 64.8897 118.73 64.9473C118.922 65.0242 119.076 65.1202 119.21 65.2739C119.345 65.4275 119.441 65.6196 119.518 65.8693C119.595 66.119 119.633 66.4071 119.633 66.7721V70.2103H118.769V70.2488ZM124.358 66.7721C124.358 67.0026 124.358 67.1947 124.339 67.3483C124.32 67.5212 124.301 67.6557 124.301 67.7709H121.631C121.669 68.3856 121.784 68.8466 122.034 69.1347C122.265 69.4228 122.61 69.5765 123.052 69.5765C123.206 69.5765 123.34 69.5573 123.475 69.5188C123.59 69.4804 123.705 69.442 123.801 69.3844C123.897 69.3268 123.974 69.2884 124.032 69.2307C124.089 69.1731 124.147 69.1347 124.166 69.1155L124.493 69.7301C124.454 69.7686 124.397 69.8262 124.32 69.8838C124.243 69.9606 124.147 70.0183 124.032 70.0951C123.916 70.1719 123.763 70.2295 123.571 70.268C123.398 70.3256 123.167 70.3448 122.918 70.3448C122.591 70.3448 122.284 70.2872 122.034 70.1719C121.765 70.0567 121.535 69.8838 121.362 69.6725C121.17 69.442 121.035 69.1539 120.939 68.7889C120.843 68.4432 120.785 68.0014 120.785 67.5212C120.785 67.0602 120.843 66.6568 120.939 66.3111C121.054 65.9654 121.189 65.6964 121.362 65.466C121.535 65.2355 121.746 65.0818 121.996 64.9858C122.245 64.8705 122.495 64.8321 122.764 64.8321C123.263 64.8321 123.667 64.9858 123.936 65.3123C124.205 65.658 124.358 66.1382 124.358 66.7721ZM122.687 65.5812C122.38 65.5812 122.13 65.7157 121.938 65.9654C121.746 66.2343 121.631 66.5992 121.611 67.0986H123.532C123.532 67.0602 123.551 67.0026 123.551 66.945C123.551 66.8681 123.551 66.8105 123.551 66.7145C123.551 66.3495 123.475 66.0614 123.34 65.8693C123.167 65.6772 122.956 65.5812 122.687 65.5812ZM127.835 65.7733C127.816 65.7541 127.758 65.7349 127.7 65.7157C127.624 65.6964 127.528 65.6772 127.412 65.6772C127.143 65.6772 126.913 65.7541 126.759 65.9077C126.606 66.0614 126.49 66.2151 126.433 66.3879V70.2295H125.549V64.9858H126.356V65.6964H126.375C126.413 65.6004 126.452 65.4852 126.509 65.3891C126.567 65.2931 126.644 65.197 126.721 65.1202C126.817 65.0434 126.913 64.9858 127.028 64.9473C127.143 64.9089 127.297 64.8897 127.451 64.8897C127.566 64.8897 127.681 64.9089 127.758 64.9281C127.835 64.9473 127.892 64.9665 127.931 64.9858L127.835 65.7733ZM132.387 65.6772H131.734C131.907 65.9462 131.984 66.2727 131.984 66.6184C131.984 66.8873 131.945 67.1371 131.849 67.3675C131.753 67.598 131.638 67.7709 131.465 67.9246C131.292 68.0782 131.1 68.1935 130.889 68.2703C130.658 68.3472 130.428 68.3856 130.178 68.3856C130.121 68.3856 130.082 68.3856 130.044 68.3856C130.005 68.3856 129.948 68.3856 129.909 68.3664C129.813 68.4048 129.736 68.4624 129.64 68.5392C129.544 68.6161 129.506 68.7313 129.506 68.8658C129.506 68.981 129.544 69.0579 129.64 69.1347C129.717 69.2115 129.852 69.2307 130.044 69.2307H130.716C130.966 69.2307 131.196 69.2499 131.408 69.3076C131.619 69.3652 131.811 69.442 131.965 69.5573C132.118 69.6725 132.253 69.807 132.33 69.9798C132.426 70.1527 132.464 70.364 132.464 70.6137C132.464 70.9018 132.406 71.1515 132.291 71.382C132.176 71.6125 132.003 71.8238 131.792 71.9775C131.58 72.1503 131.311 72.2848 130.985 72.3616C130.678 72.4577 130.313 72.4961 129.929 72.4961C129.371 72.4961 128.949 72.3808 128.642 72.1311C128.353 71.8814 128.2 71.5357 128.2 71.0747C128.2 70.8826 128.238 70.7097 128.296 70.5753C128.373 70.4408 128.449 70.3064 128.546 70.2103C128.642 70.0951 128.738 70.0183 128.834 69.9606C128.93 69.903 129.007 69.8454 129.064 69.807V69.7878C128.834 69.6149 128.718 69.3844 128.718 69.0579C128.718 68.9234 128.738 68.8082 128.795 68.6929C128.853 68.5969 128.91 68.5008 128.987 68.4432C129.064 68.3856 129.122 68.3279 129.199 68.2895C129.275 68.2511 129.314 68.2127 129.352 68.2127V68.1935C129.083 68.0782 128.872 67.867 128.699 67.6173C128.526 67.3483 128.449 67.0026 128.449 66.5992C128.449 66.3111 128.488 66.0422 128.584 65.8309C128.68 65.6004 128.814 65.4275 128.968 65.2739C129.122 65.1202 129.314 65.0242 129.525 64.9473C129.736 64.8705 129.967 64.8321 130.217 64.8321C130.466 64.8321 130.697 64.8705 130.908 64.9665H132.502L132.387 65.6772ZM129.948 70.0759C129.794 70.0759 129.66 70.0567 129.544 70.0375C129.487 70.0759 129.41 70.1143 129.352 70.1719C129.295 70.2295 129.237 70.2872 129.179 70.364C129.122 70.4408 129.083 70.5177 129.045 70.6137C129.007 70.7097 128.987 70.825 128.987 70.9595C128.987 71.5165 129.295 71.8046 129.909 71.8046C130.447 71.8046 130.831 71.7086 131.081 71.4973C131.331 71.286 131.465 71.0555 131.465 70.7866C131.465 70.5369 131.388 70.3448 131.215 70.2488C131.062 70.1335 130.831 70.0951 130.562 70.0951H129.948V70.0759ZM131.119 66.6184C131.119 66.2343 131.023 65.9654 130.85 65.8117C130.678 65.658 130.466 65.562 130.217 65.562C129.967 65.562 129.736 65.6388 129.564 65.8117C129.391 65.9654 129.295 66.2343 129.295 66.6184C129.295 67.0026 129.391 67.2715 129.564 67.4252C129.736 67.5788 129.948 67.6749 130.197 67.6749C130.447 67.6749 130.678 67.598 130.85 67.4252C131.023 67.2715 131.119 67.0026 131.119 66.6184ZM136.901 64.9858L135.268 70.5369C135.076 71.1707 134.846 71.6701 134.577 71.9967C134.308 72.3232 133.905 72.4961 133.386 72.4961C133.271 72.4961 133.194 72.4769 133.117 72.4577C133.04 72.4385 133.002 72.4193 132.963 72.4001V71.6317C133.002 71.6509 133.04 71.6701 133.098 71.6894C133.155 71.7086 133.232 71.7086 133.328 71.7086C133.636 71.7086 133.885 71.6125 134.039 71.4204C134.212 71.2284 134.346 70.921 134.462 70.5177L134.538 70.2488L132.848 65.005H133.809L134.634 67.9054C134.711 68.2127 134.788 68.4816 134.846 68.7505C134.903 69.0002 134.961 69.2499 134.961 69.442H134.98C134.999 69.2307 135.038 69.0002 135.076 68.7505C135.134 68.5008 135.192 68.2127 135.288 67.9246L136.037 65.005H136.901V64.9858Z" fill="#212121"/>
<path d="M69.9415 47.5829C69.9607 47.3717 69.9799 47.1604 69.9799 46.9491C69.9799 46.8338 69.9799 46.6994 69.9607 46.5457C71.7855 46.5265 73.399 45.2011 73.399 43.6837C73.399 42.9154 72.8996 42.3199 72.6114 41.9742C72.6691 41.955 72.7459 41.955 72.8035 41.9358C73.0724 42.1663 73.8408 42.9922 73.8408 44.0487C73.8408 45.8542 72.0352 47.5445 69.9415 47.5829ZM68.0976 41.2443C68.0591 41.033 67.9823 40.8601 67.8671 40.7065C67.8671 40.5144 67.9439 40.3415 68.2512 40.4952C68.0976 40.6681 68.2128 40.9562 68.2128 40.9562C68.2128 40.9562 68.5393 40.8025 68.4817 40.5912C68.9811 40.6873 68.6162 41.3403 68.0976 41.2443ZM67.675 42.1663C67.6174 41.8974 67.4637 41.6092 67.2908 41.398C67.1372 41.2059 66.8682 40.9754 66.5033 40.9754C66.3304 40.9754 66.0615 41.0522 65.8886 41.129C65.831 41.0138 65.6966 40.7257 65.6966 40.5912C65.6966 40.4568 65.9271 40.3223 66.3496 40.3223C67.2908 40.3223 67.8671 40.7449 67.8671 41.4748C67.8671 41.7437 67.771 41.9742 67.675 42.1663ZM70.1144 54.4018C70.2297 54.4018 70.2873 54.421 70.3449 54.4402C70.6138 55.1893 71.6703 56.5915 71.7087 56.6491V56.6683H71.7279C71.9776 56.6299 72.6499 56.5339 73.1877 56.5339H73.2069C73.2645 56.5339 73.3414 56.5339 73.3798 56.5723C73.4182 56.6107 73.4374 56.6683 73.4374 56.7644C73.4374 56.8988 73.3798 57.1293 73.3029 57.2446C73.1109 57.0333 72.8035 56.9373 72.3041 56.9373C72.1505 56.9373 71.9776 56.9757 71.8815 57.0141H71.8431L71.8047 57.0333L72.0928 57.3214C72.5346 57.7632 72.9188 58.1474 72.9188 58.4163C72.9188 58.5699 72.7651 58.7812 72.6307 58.8581C72.5922 58.3971 72.1312 57.7632 71.6703 57.4175L71.6318 57.379V57.5519C71.6318 57.6672 71.6126 57.84 71.6126 58.0129C71.6126 58.9157 71.5166 59.0501 71.2093 59.0501C71.1708 59.0501 71.094 59.0309 71.0364 59.0117C71.2093 58.8004 71.2861 58.5123 71.2861 58.0129V57.7824V57.5903C71.2861 57.379 71.3053 57.2254 71.3245 57.1101V57.0333H71.2669C71.1132 57.0141 70.8443 56.9757 70.6522 56.9757C70.2104 56.9757 69.9031 57.0141 69.6918 57.2254C69.5574 57.1101 69.4037 56.918 69.4037 56.7836C69.4037 56.5915 69.519 56.5915 69.6726 56.5915C69.7495 56.5915 69.8263 56.6107 69.9223 56.6107C70.1144 56.6299 70.4025 56.6875 70.9788 56.6875H71.0172L70.998 56.6491C70.8443 56.2266 70.4409 55.5927 69.7879 54.8052C69.8455 54.5362 69.9031 54.4018 70.1144 54.4018ZM64.448 56.5915L64.4288 56.6299H64.4672C65.0627 56.6299 65.3508 56.5915 65.5237 56.5531C65.6197 56.5339 65.6966 56.5339 65.7734 56.5339C65.9271 56.5339 66.0423 56.5531 66.0423 56.726C66.0423 56.8604 65.8886 57.0525 65.7542 57.1677C65.5429 56.9565 65.2356 56.918 64.7938 56.918C64.5825 56.918 64.3136 56.9565 64.1791 56.9757H64.1599H64.1407V57.0525C64.1599 57.1678 64.1791 57.3214 64.1791 57.5327V57.7248V57.9553C64.1791 58.4547 64.256 58.7428 64.4288 58.9541C64.3904 58.9733 64.3136 58.9925 64.256 58.9925C63.9486 58.9925 63.8526 58.8581 63.8526 57.9553C63.8526 57.7824 63.8526 57.6095 63.8334 57.4943V57.3214L63.795 57.3598C63.334 57.7056 62.8538 58.3394 62.8346 58.8004C62.7001 58.7044 62.5464 58.5123 62.5464 58.3586C62.5464 58.1089 62.9306 57.7248 63.3724 57.2638L63.6221 57.0141L63.6605 56.9757L63.5837 56.9565C63.4876 56.9373 63.3148 56.8796 63.1611 56.8796C62.6617 56.8796 62.3544 56.9757 62.1623 57.187C62.0854 57.0909 62.0278 56.8604 62.0278 56.7068C62.0278 56.6107 62.047 56.5531 62.0854 56.5147C62.1239 56.4763 62.2007 56.4763 62.2583 56.4763H62.2775C62.8346 56.4763 63.4876 56.5723 63.7373 56.6107H63.7565V56.5915C63.795 56.5339 64.8514 55.1317 65.1203 54.3826C65.1779 54.3634 65.2356 54.3442 65.3508 54.3442C65.5621 54.3442 65.6197 54.4786 65.6773 54.6899C65.0051 55.5543 64.5825 56.1689 64.448 56.5915ZM61.6052 44.0295C61.6052 42.9922 62.3736 42.1471 62.6425 41.9166C62.7001 41.9358 62.7769 41.955 62.8346 41.955C62.5272 42.3199 62.0278 42.8962 62.0278 43.6645C62.0278 45.2011 63.6605 46.5265 65.5237 46.5265C65.5045 46.661 65.5045 46.7954 65.5045 46.9299C65.5045 47.1604 65.5237 47.3717 65.5429 47.5637C63.4492 47.5637 61.6052 45.8734 61.6052 44.0295ZM75.6655 47.2564C76.6067 48.7354 77.3366 48.7162 78.4507 48.7162C77.5287 48.0055 76.914 47.1027 76.6259 46.6417L74.9164 43.895C74.7435 43.0498 74.3018 42.2431 73.6487 41.6669C73.8792 41.59 74.052 41.494 74.1673 41.4172C73.0532 41.4172 71.9392 40.8409 71.3245 40.8409C70.9403 40.8409 70.6714 41.0714 70.6714 41.3787C70.6906 41.7245 71.0556 42.0702 71.7087 42.0702C71.8623 42.0702 72.0544 42.051 72.2657 42.0126C72.6307 42.512 72.9188 42.9538 72.9188 43.6069C72.9188 44.817 71.4782 45.7582 70.0184 45.7582C69.9415 45.7582 69.8647 45.7582 69.7687 45.7582C69.6342 45.4508 69.1924 44.9514 69.1924 44.3944C69.1924 43.434 69.8071 42.6657 69.8071 41.7053C69.8071 41.1098 69.519 40.7449 69.4037 40.5912C69.5766 40.4183 69.7687 40.2263 69.8263 40.0918C69.7302 40.1302 69.5958 40.1494 69.4229 40.1494C68.7314 40.1494 68.1552 39.9766 67.5982 39.9766C67.2908 39.9766 67.1948 40.0726 67.1948 40.1686C67.1948 40.2071 67.1948 40.2455 67.214 40.2455C67.0987 40.2071 66.9835 40.1686 66.849 40.1494C66.6762 40.111 66.5033 40.111 66.3304 40.111C65.6581 40.111 65.4276 40.3991 65.4276 40.6296C65.4276 40.8409 65.5813 41.2059 65.7734 41.494C66.0423 41.3595 66.3496 41.2635 66.5033 41.2635C66.8682 41.2635 67.1756 41.6092 67.3484 42.0126C67.1179 42.051 67.0603 42.051 66.8106 42.051C66.1575 42.051 65.7158 41.8205 65.6197 41.8205C65.6197 41.8205 65.6005 41.8205 65.6005 41.8397C65.6005 41.9358 65.7926 42.1663 66.1575 42.3007C66.6377 42.4736 67.3677 42.5504 67.4829 42.5696C67.4829 42.5889 67.3677 42.8194 67.2332 42.8578C67.214 42.8578 67.1756 42.877 67.1564 42.8578C66.657 42.7617 66.5033 42.7233 65.8694 42.4736C65.8502 42.4736 65.831 42.4736 65.831 42.4928C65.831 42.7425 66.4841 43.2996 67.0795 43.5108C66.5801 44.1447 65.9847 44.7786 65.6966 45.7582C65.6197 45.7582 65.5429 45.7582 65.4469 45.7582C63.987 45.7582 62.5464 44.817 62.5464 43.6069C62.5464 42.973 62.8346 42.512 63.1995 42.0126C63.4108 42.051 63.6029 42.0702 63.7565 42.0702C64.4096 42.0702 64.7746 41.7245 64.7938 41.3787C64.7938 41.0714 64.5441 40.8409 64.1407 40.8409C63.526 40.8409 62.412 41.4172 61.2979 41.4172C61.4132 41.494 61.586 41.59 61.8165 41.6669C61.1635 42.2623 60.7217 43.0498 60.5488 43.895L58.8393 46.6417C58.5512 47.1027 57.9365 48.0055 57.0145 48.7162C58.1286 48.7162 58.8585 48.7354 59.7997 47.2564L60.6833 45.8542C60.7409 46.0463 60.8369 46.2192 60.9138 46.392L59.1466 49.1964C58.8585 49.6574 58.2438 50.5602 57.3219 51.2709C58.4359 51.2709 59.1658 51.2901 60.107 49.8111L61.6245 47.3909C61.7397 47.5061 61.8549 47.6214 61.9894 47.7366L59.8573 51.1364C59.5692 51.5974 58.9545 52.5002 58.0326 53.2109C59.1466 53.2109 59.8765 53.2301 60.8177 51.7511L62.8922 48.4281C63.0266 48.5049 63.1611 48.601 63.3148 48.6778L60.7793 52.7307C60.4912 53.1917 59.8765 54.0945 58.9545 54.8052C60.0686 54.8052 60.7985 54.8244 61.7397 53.3454L64.352 49.1772C64.5057 49.2348 64.6593 49.2925 64.813 49.3501L61.8934 54.0368C61.6052 54.4978 60.9906 55.4006 60.0686 56.1113C61.1827 56.1113 61.9126 56.1305 62.8538 54.6515L66.0039 49.619C66.0423 49.619 66.0615 49.6382 66.0999 49.6382C66.1768 49.9071 66.2536 50.1568 66.2536 50.4257C66.2536 52.0008 65.2164 53.403 63.9678 54.4786C64.0447 54.517 64.1791 54.517 64.3136 54.517C64.5633 54.517 64.7362 54.4978 64.8514 54.4786C64.5633 55.1317 63.9486 55.9769 63.6221 56.4186C63.2187 56.3418 62.6233 56.2842 62.2391 56.2842C61.8357 56.2842 61.7781 56.5147 61.7781 56.726C61.7781 57.0909 61.951 57.379 62.1431 57.5519C62.2199 57.3598 62.3736 57.1101 63.1227 57.1101C63.1419 57.1101 63.1611 57.1101 63.1995 57.1101C62.9882 57.3598 62.2967 57.9169 62.2967 58.3586C62.2967 58.6468 62.6233 59.1078 63.0458 59.1078C63.0266 59.0117 63.0266 58.9157 63.0266 58.8581C63.0266 58.4931 63.3532 58.0705 63.6221 57.7824C63.6221 57.8784 63.6221 57.8592 63.6221 57.9553C63.6221 58.8196 63.6989 59.2038 64.2367 59.2038C64.5057 59.2038 64.6785 59.0501 64.7554 59.0117C64.4096 58.6852 64.3904 58.4355 64.3904 57.9553C64.3904 57.8208 64.3904 57.7056 64.3904 57.5327C64.3904 57.4175 64.3904 57.283 64.3712 57.1677C64.5633 57.1485 64.6401 57.1485 64.7938 57.1485C64.7938 57.1485 65.5621 57.0909 65.7542 57.4943C65.9655 57.3022 66.2728 57.0333 66.2728 56.726C66.2728 56.5339 66.1768 56.3034 65.7734 56.3034C65.6197 56.3034 65.1587 56.3994 64.7554 56.3994C64.8706 56.1689 65.3316 55.4774 65.7542 54.9588C65.8118 55.1509 65.9078 55.3622 66.1191 55.5351C66.1575 55.2085 66.3304 54.1905 66.849 53.5951C66.9067 53.9984 66.9835 54.421 66.9835 55.2854C66.9835 57.4175 66.4649 58.9733 65.3892 59.2806C65.5237 59.5303 65.831 59.7416 66.1383 59.7416C66.5417 59.7416 66.753 59.2998 66.9643 58.8773C67.0795 59.1846 67.3869 59.9529 67.7134 59.9529C68.0399 59.9529 68.3473 59.1846 68.4625 58.8773C68.6738 59.2998 68.9043 59.7416 69.2885 59.7416C69.5958 59.7416 69.9031 59.5111 70.0376 59.2806C68.9427 58.9733 68.4433 57.4175 68.4433 55.2854C68.4433 54.4018 68.5201 53.9984 68.5778 53.5951C69.0772 54.1905 69.2692 55.2085 69.3077 55.5351C69.519 55.3622 69.615 55.1509 69.6918 54.9588C70.0952 55.4582 70.5754 56.1497 70.6906 56.3994C70.2873 56.3994 69.8263 56.3034 69.6726 56.3034C69.2692 56.3034 69.1732 56.5339 69.1732 56.726C69.1732 57.0333 69.4805 57.3022 69.6918 57.4943C69.8839 57.0909 70.6522 57.1485 70.6522 57.1485C70.8059 57.1485 70.8827 57.1485 71.0748 57.1677C71.0556 57.2638 71.0556 57.4175 71.0556 57.5327C71.0556 57.7056 71.0556 57.8208 71.0556 57.9553C71.0556 58.4355 71.0364 58.6852 70.6906 59.0117C70.7483 59.0501 70.9403 59.2038 71.2093 59.2038C71.7471 59.2038 71.8239 58.8196 71.8239 57.9553C71.8239 57.8592 71.8239 57.8592 71.8239 57.7824C72.0928 58.0705 72.4194 58.4931 72.4194 58.8581C72.4194 58.9157 72.4194 59.0117 72.4002 59.1078C72.8227 59.1078 73.1493 58.666 73.1493 58.3586C73.1493 57.9169 72.4578 57.3598 72.2465 57.1101C72.2849 57.1101 72.3041 57.1101 72.3233 57.1101C73.0724 57.1101 73.2261 57.3598 73.3029 57.5519C73.495 57.379 73.6679 57.0909 73.6679 56.726C73.6679 56.5147 73.6295 56.2842 73.2069 56.2842C72.8227 56.2842 72.2273 56.3418 71.8239 56.4186C71.5166 55.9769 70.9019 55.1317 70.5946 54.4786C70.7099 54.4978 70.8827 54.517 71.1324 54.517C71.2669 54.517 71.4013 54.4978 71.4782 54.4786C70.2297 53.403 69.1924 52.0008 69.1924 50.4257C69.1924 50.176 69.25 49.9263 69.3461 49.6382C69.3845 49.6382 69.4037 49.619 69.4421 49.619L72.5922 54.6515C73.5334 56.1305 74.2633 56.1113 75.3774 56.1113C74.4554 55.4006 73.8408 54.4978 73.5526 54.0368L70.6138 49.3117C70.7675 49.254 70.9403 49.1964 71.094 49.1388L73.7063 53.3069C74.6475 54.786 75.3774 54.7667 76.4915 54.7667C75.5695 54.056 74.974 53.1725 74.6667 52.6923L72.1312 48.6394C72.2657 48.5626 72.4194 48.4857 72.5538 48.3897L74.6283 51.7127C75.5695 53.1917 76.2994 53.1725 77.4135 53.1725C76.4915 52.4618 75.896 51.5782 75.5887 51.098L73.4566 47.6982C73.5911 47.5829 73.7063 47.4677 73.8216 47.3524L75.339 49.7727C76.2802 51.2517 77.0101 51.2325 78.1242 51.2325C77.2022 50.5218 76.5875 49.619 76.2994 49.158L74.5515 46.3536C74.6475 46.1808 74.7243 46.0079 74.782 45.8158L75.6655 47.2564Z" fill="#212121"/>
<path d="M87.2478 59.2219H84.0401V40.8398H87.2478V59.2219Z" fill="#212121"/>
<path d="M87.2478 77.6047H84.0401V59.2227H87.2478V77.6047Z" fill="#A9A9A9"/>
<path d="M87.2478 95.968H84.0401V77.5859H87.2478V95.968Z" fill="#D9D9D9"/>
</g>
<defs>
<clipPath id="clip0_1019_46675">
<rect width="125.236" height="56" fill="white" transform="translate(53 40)"/>
</clipPath>
</defs>
</svg>
