<svg width="230" height="130" viewBox="0 0 230 130" fill="none" xmlns="http://www.w3.org/2000/svg">
<g clip-path="url(#clip0_1019_46475)">
<path d="M105.018 48.8565C108.478 48.8565 111.934 48.8523 115.394 48.8608C116.414 48.8608 117.425 48.9504 118.385 49.3344C119.848 49.9147 120.685 51.0069 120.757 52.5728C120.826 54.0363 120.753 55.5083 120.762 56.976C120.762 57.3173 120.604 57.3941 120.305 57.3941C117.818 57.3899 115.334 57.3899 112.847 57.3899C112.689 57.3899 112.493 57.424 112.42 57.2533C111.972 56.1653 110.974 56.1824 110.074 56.1696C107.07 56.1269 104.062 56.1525 101.058 56.1568C98.6987 56.1611 98.2805 56.6048 98.4128 58.9472C98.5408 61.1915 98.6133 61.3152 100.849 61.5755C103.46 61.8784 106.084 61.6864 108.704 61.6949C111.324 61.7035 113.948 61.6395 116.567 61.6949C119.396 61.7547 120.8 63.2608 120.796 66.1024C120.791 69.2427 120.783 72.3872 120.762 75.5275C120.74 78.7829 118.948 80.7328 115.701 80.8053C111.682 80.8949 107.654 80.8437 103.631 80.848C100.354 80.848 97.0773 80.8779 93.8005 80.8181C91.3941 80.7755 89.6576 79.1072 89.4784 76.7264C89.3888 75.5104 89.4485 74.2859 89.4229 73.0656C89.4144 72.7243 89.5637 72.6517 89.8667 72.6517C92.5547 72.6603 95.2469 72.656 97.9349 72.656C98.0885 72.656 98.2379 72.6475 98.3445 72.8181C98.848 73.6032 99.68 73.7269 100.486 73.7355C103.878 73.7696 107.266 73.7568 110.658 73.7483C111.712 73.744 112.386 73.0528 112.386 72.0203C112.386 71.3419 112.386 70.6635 112.386 69.9851C112.378 68.7648 111.938 68.2827 110.726 68.2656C109.143 68.2443 107.56 68.2613 105.982 68.2656C102.005 68.2699 98.0288 68.2955 94.048 68.2784C92.4907 68.2699 91.1339 67.7451 90.144 66.4651C89.6747 65.8592 89.4101 65.2107 89.4144 64.4128C89.44 60.5685 89.4784 56.7285 89.4059 52.8843C89.3632 50.5504 90.8864 49.5435 92.4224 49.1168C93.0965 48.9291 93.7877 48.8565 94.496 48.8608C98.0075 48.8651 101.515 48.8565 105.018 48.8565Z" fill="#212121"/>
<path d="M85.6898 64.9429C85.6898 70.0501 85.6813 75.1573 85.6983 80.2645C85.6983 80.7978 85.6002 81.0197 85.0071 81.0112C82.1826 80.9813 79.3581 80.9813 76.5336 81.0027C75.9746 81.0069 75.9917 80.704 75.9917 80.3115C76.0002 76.5611 75.9789 72.8107 76.013 69.056C76.0173 68.3904 75.8253 68.2282 75.1768 68.2325C71.6738 68.2624 68.1709 68.2624 64.668 68.2325C64.0621 68.2282 63.917 68.4032 63.9213 68.9962C63.9512 72.704 63.9213 76.4074 63.9512 80.1152C63.9554 80.7338 63.7677 80.8619 63.1917 80.8533C60.5933 80.8235 57.9949 80.8277 55.3965 80.849C54.8931 80.8533 54.748 80.7168 54.748 80.2048C54.7651 69.9691 54.7651 59.729 54.748 49.4933C54.748 48.977 54.9101 48.8405 55.4051 48.8405C58.0248 48.8576 60.6488 48.8618 63.2685 48.8405C63.7933 48.8362 63.9512 48.9941 63.9512 49.5317C63.9298 53.5978 63.9469 57.6683 63.9256 61.7344C63.9213 62.2763 64.0408 62.4768 64.6253 62.4725C68.1965 62.4469 71.7677 62.4469 75.3346 62.4725C75.9064 62.4768 76.0045 62.2592 76.0002 61.76C75.9832 57.7152 76.0045 53.6704 75.9746 49.6256C75.9704 48.9941 76.1581 48.8277 76.7767 48.8362C79.5117 48.8661 82.2466 48.8661 84.9815 48.8362C85.5405 48.832 85.7026 48.9771 85.7026 49.5488C85.6813 54.6816 85.6941 59.8144 85.6898 64.9429Z" fill="#212121"/>
<path d="M138.592 80.8399C140.209 78.9199 141.698 77.1535 143.187 75.3829C149.647 67.7242 156.106 60.0655 162.57 52.4026C163.458 51.353 164.358 50.3162 165.228 49.2538C165.467 48.9679 165.715 48.8399 166.09 48.8442C168.667 48.857 171.244 48.8655 173.817 48.8399C174.329 48.8357 174.461 48.9935 174.461 49.4927C174.449 59.7285 174.444 69.9685 174.457 80.2042C174.457 80.7162 174.316 80.8527 173.809 80.8485C170.984 80.8229 168.16 80.8229 165.335 80.8485C164.819 80.8527 164.674 80.6991 164.695 80.1957C164.733 79.2015 164.687 78.2074 164.716 77.2133C164.729 76.761 164.623 76.5733 164.123 76.5775C160.394 76.5989 156.665 76.5946 152.936 76.5818C152.531 76.5818 152.271 76.7311 152.015 77.0255C151.003 78.1775 149.967 79.3082 148.938 80.4474C148.776 80.6266 148.64 80.8357 148.341 80.8357C145.162 80.8357 141.975 80.8399 138.592 80.8399ZM156.721 71.1759C156.968 71.3551 157.173 71.2911 157.365 71.2911C159.69 71.2954 162.016 71.2783 164.341 71.3082C164.883 71.3167 165.019 71.1503 165.015 70.6255C164.994 67.2847 165.007 63.9439 164.998 60.6031C164.998 60.4453 165.096 60.2447 164.84 60.0954C162.135 63.7861 159.43 67.4767 156.721 71.1759Z" fill="#212121"/>
<path d="M133.822 70.3389C135.302 68.5 136.779 66.6611 138.259 64.8179C142.419 59.6339 146.575 54.4541 150.731 49.2659C150.923 49.0269 151.11 48.8477 151.452 48.852C154.618 48.8648 157.779 48.8605 160.945 48.8648C161.009 48.8648 161.073 48.8989 161.192 48.9331C160.898 49.5176 160.433 49.9357 160.036 50.4008C152.113 59.7491 144.177 69.0888 136.245 78.4328C135.563 79.2392 135.046 80.3656 134.129 80.7411C133.237 81.108 132.081 80.8392 131.044 80.8392C129.099 80.8435 127.157 80.8264 125.212 80.8477C124.755 80.852 124.589 80.7411 124.589 80.2504C124.602 69.9891 124.602 59.7277 124.593 49.4664C124.593 48.9971 124.721 48.8435 125.203 48.8477C127.802 48.8691 130.4 48.8691 133.003 48.8477C133.545 48.8435 133.673 49.0269 133.673 49.5475C133.655 56.2163 133.66 62.8808 133.66 69.5496C133.66 69.7928 133.66 70.0317 133.66 70.2749C133.707 70.2963 133.766 70.3176 133.822 70.3389Z" fill="#212121"/>
</g>
<defs>
<clipPath id="clip0_1019_46475">
<rect width="119.466" height="32" fill="white" transform="translate(54.7998 49)"/>
</clipPath>
</defs>
</svg>
