<svg width="230" height="130" viewBox="0 0 230 130" fill="none" xmlns="http://www.w3.org/2000/svg">
<path d="M186.131 71.2084C183.471 71.2084 180.836 71.2084 178.176 71.2084C178.099 71.2084 178.022 71.2084 177.92 71.2084V59.1523C177.971 59.1523 178.048 59.1523 178.099 59.1523C180.708 59.1523 183.317 59.1523 185.926 59.1523C186.003 59.1523 186.08 59.1523 186.131 59.1523V61.8114H180.785V63.7992H186.131C186.131 64.5479 186.131 65.3223 186.131 66.071C186.131 66.1743 186.156 66.2775 186.182 66.3808V66.5099H180.785V68.4977C180.862 68.4977 180.913 68.4977 180.964 68.4977C182.678 68.4977 184.366 68.4977 186.08 68.4977C186.105 68.4977 186.156 68.4977 186.182 68.4719V68.5235C186.182 68.6268 186.131 68.7301 186.131 68.8333C186.131 69.6078 186.131 70.3823 186.131 71.1567V71.2084Z" fill="#212121"/>
<path d="M186.131 71.2074C186.131 70.433 186.131 69.6585 186.131 68.884C186.131 68.7807 186.156 68.6775 186.182 68.5742V71.2333C186.182 71.2333 186.131 71.2333 186.105 71.2333L186.131 71.2074Z" fill="#212121"/>
<path d="M186.131 61.8348V59.1758C186.131 59.1758 186.182 59.1758 186.208 59.1758V61.8348C186.208 61.8348 186.156 61.8348 186.131 61.8348Z" fill="#212121"/>
<path d="M186.131 63.8242C186.131 63.8242 186.182 63.8242 186.208 63.8242V66.4316C186.208 66.3284 186.156 66.2251 186.156 66.1218C186.156 65.3732 186.156 64.5987 186.156 63.85L186.131 63.8242Z" fill="#212121"/>
<path d="M186.131 61.8359C186.131 61.8359 186.182 61.8359 186.208 61.8359V61.8876C186.208 61.8876 186.156 61.8618 186.131 61.8359Z" fill="#212121"/>
<path d="M186.208 59.1766C186.208 59.1766 186.156 59.1766 186.131 59.1766C186.131 59.1766 186.182 59.1508 186.208 59.125V59.1766Z" fill="#212121"/>
<path d="M47.0084 73.0144C46.2411 72.4722 45.4993 71.9301 44.7575 71.388C44.6808 71.3363 44.6552 71.2073 44.6552 71.1298C44.6552 69.8648 44.604 68.574 44.6552 67.309C44.6808 66.1731 44.7831 65.0372 44.8854 63.9013C44.9621 62.9978 45.1156 62.0942 45.2691 61.1907C45.4481 60.1322 46.0876 59.4352 47.0084 58.9189C48.978 57.8088 51.0499 56.9827 53.1729 56.2082C54.0426 55.8726 54.9378 55.5886 55.8075 55.2788C55.961 55.2272 56.1144 55.1497 56.1912 55.0207C57.1887 53.6524 58.1607 52.2842 59.1327 50.9159C59.1839 50.8385 59.235 50.7869 59.2862 50.6836C62.3812 52.9038 65.4506 55.0981 68.5457 57.3441C68.0085 58.1186 67.4714 58.8672 66.9342 59.6417C66.4226 60.3646 65.9111 61.0616 65.4251 61.7844C65.3739 61.8619 65.3483 62.0168 65.3483 62.12C65.3483 62.8687 65.3483 63.6174 65.3483 64.366C65.3483 64.9082 65.3483 65.4503 65.3483 65.9924C65.3228 66.8185 65.3228 67.6447 65.2204 68.4708C65.067 69.7616 64.8879 71.0524 64.6577 72.3432C64.5298 73.0402 64.1206 73.5823 63.5067 73.9437C62.5603 74.4601 61.6394 75.028 60.6419 75.4411C58.5188 76.3188 56.3702 77.0933 54.2216 77.8936C54.0937 77.9452 53.8891 77.9452 53.7868 77.8936C53.0961 77.4289 52.4311 76.9384 51.7661 76.4737C51.7149 76.4221 51.6637 76.3704 51.6126 76.3446C51.6126 76.293 51.6382 76.293 51.6637 76.2672C51.9963 75.6218 52.5334 75.4153 53.2496 75.3378C55.1936 75.0796 56.6004 73.9696 57.3166 72.1108C58.1863 69.8132 57.3934 67.1542 55.2192 65.8117C54.2728 65.218 53.2496 64.9598 52.1753 65.0372C50.1802 65.1921 48.7222 66.2248 47.8269 68.0577C47.4433 68.858 47.2898 69.7099 47.3409 70.5877C47.3665 71.0007 47.4688 71.4138 47.5967 71.801C47.6479 72.0075 47.6223 72.1624 47.52 72.3432C47.3665 72.5755 47.2131 72.8078 47.0596 73.066L47.0084 73.0144ZM57.9817 61.5521C57.4445 62.3008 56.9074 63.0236 56.3958 63.7723C56.3702 63.8239 56.3958 63.953 56.447 63.9788C56.6516 64.1337 56.8818 64.2886 57.112 64.4435C57.6747 63.6432 58.2119 62.8687 58.7746 62.0942C58.4932 61.8877 58.263 61.7328 57.9817 61.5263V61.5521ZM58.9537 67.3349C59.0816 67.6447 59.1839 67.9286 59.3118 68.2384C60.207 67.877 61.0767 67.5156 61.9719 67.1542C61.8441 66.8444 61.7162 66.5604 61.5883 66.2506C60.7186 66.612 59.8489 66.9734 58.9281 67.3349H58.9537ZM52.9938 63.0752C53.045 62.0942 53.0961 61.139 53.1473 60.1839H52.2009C52.2009 60.442 52.1497 60.6744 52.1497 60.9067C52.0986 61.5263 52.073 62.1717 52.0218 62.7913C52.0218 62.9978 52.0986 63.0752 52.2776 63.0752C52.5078 63.0752 52.738 63.0752 53.0194 63.0752H52.9938ZM48.2618 64.4435C48.4152 64.3402 48.5176 64.2628 48.6455 64.1853C49.0803 63.9272 49.0803 63.9272 48.8501 63.5141C48.5431 62.9462 48.2106 62.3782 47.9037 61.8103C47.6223 61.9652 47.3409 62.12 47.0596 62.2749C47.4688 62.9978 47.8525 63.6948 48.2618 64.4177V64.4435ZM59.1839 72.3173C60.0024 72.4722 60.7953 72.6013 61.5883 72.7562C61.665 72.3948 61.7162 72.1108 61.7673 71.801C61.3581 71.7236 60.9744 71.6461 60.5651 71.5687C60.1814 71.4912 59.7722 71.4396 59.3885 71.3622C59.3118 71.6719 59.2606 71.9559 59.1839 72.3173Z" fill="#212121"/>
<path d="M85.5043 63.6936C84.4812 65.0618 83.458 66.4559 82.4093 67.8757C81.3861 66.4817 80.363 65.0876 79.2887 63.6419V71.2318H76.5006V59.1758C77.3703 59.1758 78.24 59.1758 79.1096 59.1758C79.1864 59.1758 79.2631 59.2274 79.2887 59.279C80.2607 60.6215 81.2071 61.9639 82.1791 63.2805C82.2558 63.3838 82.3326 63.487 82.4349 63.6419C82.8953 63.0224 83.3557 62.4286 83.7905 61.8348C84.4044 61.0087 84.9927 60.1826 85.6066 59.3565C85.6834 59.2532 85.8112 59.1758 85.9136 59.1758C86.7321 59.1758 87.525 59.1758 88.3435 59.1758V71.2318H85.5555V63.7452C85.5299 63.7452 85.5043 63.7452 85.4787 63.7194L85.5043 63.6936Z" fill="#212121"/>
<path d="M125.74 67.62V71.2084H122.9V59.1523H123.156C124.844 59.1523 126.532 59.1523 128.221 59.1523C129.474 59.1523 130.6 59.5396 131.495 60.469C132.185 61.1918 132.467 62.0695 132.518 63.0247C132.569 64.1348 132.313 65.1675 131.571 66.0194C131.29 66.3292 130.958 66.5873 130.625 66.8713C131.341 68.2912 132.083 69.7111 132.825 71.1826C131.776 71.1826 130.779 71.1826 129.781 71.1826C129.704 71.1826 129.602 71.0793 129.551 70.976C129.116 70.0467 128.656 69.1431 128.272 68.2137C128.067 67.7232 127.837 67.4909 127.274 67.5683C126.788 67.62 126.277 67.5683 125.74 67.5683V67.62ZM125.74 64.9867C126.533 64.9867 127.325 64.9867 128.093 64.9867C128.656 64.9867 129.167 64.7286 129.372 64.1864C129.5 63.8508 129.525 63.4378 129.525 63.0505C129.525 62.56 129.065 61.9921 128.579 61.9405C127.632 61.8372 126.686 61.8114 125.714 61.7598V64.9867H125.74Z" fill="#212121"/>
<path d="M112.72 59.1758H120.956V61.8348H115.585V63.7968H120.956V66.5075H115.585V68.547H120.956V71.206H112.694V59.1758H112.72Z" fill="#212121"/>
<path d="M106.198 65.5547C105.686 66.2001 105.2 66.8197 104.74 67.4651C104.663 67.5425 104.663 67.6974 104.663 67.8007C104.663 68.9108 104.663 70.0467 104.663 71.1826H101.798V59.1523H104.663V64.0316C104.893 63.7476 105.072 63.5152 105.251 63.3087C106.3 61.9663 107.323 60.6239 108.372 59.2814C108.423 59.204 108.551 59.1523 108.627 59.1523C109.676 59.1523 110.725 59.1523 111.825 59.1523C111.569 59.488 111.313 59.7977 111.083 60.1075C110.213 61.1918 109.344 62.3019 108.474 63.3862C108.346 63.5411 108.346 63.6443 108.423 63.825C109.139 65.3223 109.804 66.8455 110.52 68.3428C110.904 69.1947 111.313 70.0208 111.697 70.847C111.748 70.9502 111.799 71.0793 111.85 71.2084C110.878 71.2084 109.906 71.2084 108.96 71.2084C108.883 71.2084 108.755 71.1051 108.704 71.0277C107.911 69.2722 107.118 67.5167 106.325 65.7354C106.325 65.6838 106.274 65.6321 106.223 65.5547H106.198Z" fill="#212121"/>
<path d="M140.652 62.8929C140.371 62.6089 140.14 62.2991 139.833 62.0667C139.066 61.473 138.196 61.3439 137.276 61.6537C136.79 61.8344 136.508 62.4024 136.687 62.7896C136.815 63.0994 137.097 63.2801 137.403 63.3575C138.196 63.5641 139.015 63.7706 139.808 63.9771C140.498 64.1578 141.189 64.3902 141.752 64.829C142.519 65.4228 142.903 66.1715 142.928 67.1525C142.98 68.3142 142.647 69.321 141.803 70.1213C141.01 70.87 140.038 71.283 138.964 71.3347C138.734 71.3347 138.503 71.3863 138.273 71.3863C136.329 71.3863 134.641 70.7409 133.311 69.2694C133.03 68.9596 133.029 68.9596 133.362 68.7014C134.027 68.1593 134.667 67.6172 135.332 67.1008C135.383 67.0492 135.459 67.0234 135.536 66.9976C135.971 67.6688 136.508 68.1851 137.25 68.4691C137.889 68.7273 138.554 68.7789 139.194 68.5982C139.706 68.4433 140.038 68.056 139.987 67.5914C139.961 67.075 139.782 66.8685 139.168 66.6878C138.375 66.4296 137.582 66.2747 136.79 66.0424C135.894 65.7842 135.05 65.4486 134.436 64.7258C134.001 64.2095 133.771 63.6415 133.746 62.9703C133.669 61.6279 134.232 60.5952 135.28 59.8208C135.894 59.3561 136.636 59.0979 137.403 59.0463C138.478 58.9688 139.552 59.0205 140.55 59.4077C141.496 59.7691 142.263 60.3887 142.928 61.1632C142.161 61.757 141.394 62.3507 140.652 62.9445V62.8929Z" fill="#212121"/>
<path d="M176.564 61.9648C175.72 62.507 174.902 63.0233 174.058 63.5654C173.776 63.0233 173.393 62.5844 172.881 62.2488C172.472 61.9907 172.037 61.9132 171.577 61.8616C171.091 61.7841 170.656 61.8616 170.195 61.9907C169.505 62.1972 168.993 62.636 168.584 63.2556C168.2 63.8494 167.97 64.4948 167.996 65.166C168.047 66.6891 168.84 68.1348 170.605 68.4446C172.063 68.7028 173.265 68.2639 174.058 66.6375C174.058 66.6375 174.083 66.5859 174.134 66.5343C175.004 66.9989 175.874 67.4636 176.743 67.9541C175.925 69.8387 173.725 71.62 170.656 71.3876C167.893 71.1811 165.796 69.3482 165.233 66.6633C164.491 63.0233 166.384 60.3901 168.84 59.4091C171.756 58.2732 175.106 59.4091 176.564 61.9648Z" fill="#212121"/>
<path d="M144.489 71.206V59.1758C144.591 59.1758 144.693 59.1758 144.796 59.1758C146.33 59.1758 147.84 59.1758 149.374 59.1758C151.037 59.2016 152.393 59.847 153.288 61.2927C153.646 61.8865 153.851 62.5577 153.876 63.2805C153.876 63.8743 153.876 64.4422 153.697 65.0102C153.39 66.0686 152.802 66.8689 151.881 67.4627C151.088 67.979 150.218 68.2114 149.272 68.2114C148.658 68.2114 148.019 68.2114 147.379 68.2114V71.206H144.489ZM147.379 65.5265C147.942 65.5265 148.505 65.5265 149.042 65.5265C149.246 65.5265 149.477 65.5265 149.681 65.449C150.781 65.1134 151.139 64.2357 150.96 63.2031C150.832 62.4802 150.372 61.9897 149.681 61.8606C148.939 61.7316 148.172 61.7832 147.405 61.7316V65.5007L147.379 65.5265Z" fill="#212121"/>
<path d="M165.156 71.2318C164.21 71.2318 163.34 71.2318 162.445 71.2318C162.343 71.2318 162.189 71.1544 162.164 71.0769C161.959 70.5606 161.805 70.0185 161.626 69.4505H161.217C159.913 69.4505 158.608 69.4505 157.329 69.4505C157.15 69.4505 157.048 69.4763 156.971 69.6829C156.843 70.1475 156.664 70.5864 156.511 71.0511C156.485 71.1286 156.357 71.2318 156.306 71.2318C155.411 71.2318 154.516 71.2318 153.544 71.2318C155.027 67.2045 156.485 63.2031 157.969 59.1758C158.838 59.1758 159.734 59.1758 160.603 59.1758C160.68 59.1758 160.782 59.279 160.808 59.3565C161.115 60.2084 161.422 61.0603 161.729 61.9123C162.138 63.0482 162.573 64.1841 163.008 65.3458C163.494 66.6882 163.98 68.0565 164.491 69.3989C164.721 69.9927 164.926 70.6122 165.156 71.2318ZM160.731 66.8947C160.271 65.5781 159.81 64.2873 159.35 62.8933C158.864 64.2615 158.429 65.5523 157.943 66.8947H160.731Z" fill="#212121"/>
<path d="M100.903 71.2323C99.9307 71.2323 99.0099 71.2323 98.089 71.2323C98.0379 71.2323 97.9356 71.129 97.91 71.0516C97.7309 70.5869 97.5775 70.1222 97.424 69.6575C97.3728 69.5026 97.2961 69.451 97.1171 69.451C95.7614 69.451 94.4057 69.451 93.05 69.451C92.8454 69.451 92.7687 69.5284 92.6919 69.7091C92.5129 70.2254 92.3338 70.7418 92.1548 71.2581H89.2644C89.4179 70.845 89.5713 70.432 89.6992 70.0189C90.1341 68.8056 90.5689 67.5922 91.0038 66.4047C91.4642 65.1397 91.9502 63.9005 92.4106 62.6356C92.7943 61.6029 93.1524 60.5445 93.536 59.5118C93.6128 59.3311 93.6895 59.1762 93.9709 59.202C94.7894 59.2279 95.6079 59.202 96.452 59.202C97.9356 63.2035 99.3936 67.2308 100.877 71.2581L100.903 71.2323ZM95.1219 62.997C95.1219 62.997 95.0708 62.997 95.0452 62.997C94.5848 64.2878 94.1499 65.5786 93.6895 66.8952H96.4776C96.0172 65.5786 95.5823 64.2878 95.1219 62.997Z" fill="#212121"/>
<path d="M46.1643 74.5134C46.3434 74.2811 46.4968 74.0487 46.6503 73.8164C48.0827 74.849 49.4895 75.8559 50.9219 76.8885C50.7941 77.0692 50.6917 77.2757 50.5383 77.4306C50.4871 77.4823 50.3081 77.5339 50.2313 77.4823C49.0547 76.6562 47.8781 75.8042 46.727 74.9523C46.548 74.8232 46.3434 74.6941 46.1387 74.5393L46.1643 74.5134Z" fill="#212121"/>
<path d="M45.8318 76.1384C46.0108 75.8803 46.1643 75.6737 46.3434 75.4414C47.3665 76.1643 48.3385 76.8613 49.3361 77.5841C49.4384 77.6616 49.5151 77.7132 49.3872 77.8681C49.2338 78.023 49.157 78.2037 49.0035 78.4102C47.9548 77.6616 46.9061 76.8871 45.8318 76.1384Z" fill="#212121"/>
<path d="M48.0572 78.4081C47.9037 78.6404 47.7502 78.8469 47.5712 79.1051C46.9317 78.6404 46.2922 78.2015 45.6528 77.7369C45.8062 77.5303 45.9086 77.3238 46.062 77.1431C46.0876 77.0915 46.2667 77.1173 46.3434 77.1431C46.9061 77.5561 47.4689 77.9692 48.0572 78.3823V78.4081Z" fill="#212121"/>
</svg>
