<svg width="230" height="130" viewBox="0 0 230 130" fill="none" xmlns="http://www.w3.org/2000/svg">
<path d="M174.671 81.446H170.926V75.0391H172.224V80.37C172.274 80.37 172.324 80.37 172.374 80.37C173.173 80.37 173.972 80.37 174.77 80.37V81.3482C174.77 81.3482 174.77 81.3482 174.721 81.3482L174.671 81.446Z" fill="#212121"/>
<path d="M160.195 81.4922C160.195 81.4922 160.195 81.4922 160.195 81.5411H158.598C158.598 81.5411 158.598 81.5411 158.598 81.4922C158.598 81.4922 158.647 81.4922 158.697 81.4922C159.147 81.4922 159.596 81.4922 160.045 81.4922C160.095 81.4922 160.145 81.4922 160.195 81.4922Z" fill="#212121"/>
<path d="M174.723 61.4394C174.723 61.4394 174.723 61.4394 174.673 61.4394C174.673 60.6569 174.673 59.8255 174.673 59.043H174.723V61.4394Z" fill="#212121"/>
<path d="M57.9533 54.4456C57.504 54.4456 57.0547 54.5434 56.6054 54.5923C56.1561 54.5923 55.7068 54.6902 55.2575 54.6902C55.0079 54.6902 54.7583 54.7391 54.4587 54.788C54.4587 54.6902 54.4587 54.6412 54.4587 54.5923C54.4587 52.9295 54.4587 51.3155 54.4587 49.6527C54.4587 49.6527 54.4587 49.5548 54.4587 49.5059C54.4587 49.5059 54.4587 49.5059 54.5087 49.5059C54.7084 49.457 54.908 49.457 55.0578 49.457C61.2482 49.457 67.4385 49.457 73.6289 49.457C73.7287 49.457 73.8286 49.457 73.9783 49.457V50.533C69.8847 52.2448 65.6413 53.4186 61.1982 54.1033C61.1982 54.1033 61.1982 54.1033 61.1483 54.1033C60.8987 54.1033 60.6491 54.1522 60.3995 54.2011C60.3995 54.2011 60.3496 54.2011 60.2996 54.2011C59.9502 54.2011 59.6007 54.2989 59.2513 54.2989C59.2513 54.2989 59.2013 54.2989 59.1514 54.2989C58.802 54.2989 58.4026 54.3478 58.0531 54.3967C58.0531 54.3967 58.0032 54.3967 57.9533 54.3967V54.4456Z" fill="#212121"/>
<path d="M132.137 60.3641C132.437 60.1196 132.687 59.8262 132.986 59.5816C133.336 59.2882 133.785 59.1414 134.234 59.0436C134.534 58.9947 134.883 58.9458 135.183 58.9458C135.582 58.9458 135.981 58.9947 136.381 59.1414C137.379 59.4838 137.878 60.1685 138.178 61.0488C138.278 61.3912 138.328 61.7336 138.378 62.1248C138.527 64.2278 138.378 66.3309 138.428 68.4339C138.428 68.4339 138.428 68.4339 138.378 68.4828C137.579 68.4828 136.78 68.4828 136.031 68.4828C136.031 68.4828 136.031 68.4828 135.932 68.4828C135.932 68.385 135.932 68.2383 135.932 68.0916C135.932 66.282 135.932 64.4724 135.932 62.6628C135.932 62.2226 135.832 61.8314 135.632 61.489C135.432 61.0978 135.083 60.8532 134.584 60.8532C134.484 60.8532 134.384 60.8043 134.284 60.8043C133.885 60.8043 133.485 60.8532 133.186 61.0978C132.637 61.5379 132.337 62.1248 132.187 62.8095C132.088 63.3475 132.088 63.9344 132.088 64.4724C132.088 65.744 132.088 67.0645 132.088 68.3361V68.4339C132.088 68.4339 132.087 68.4339 132.038 68.4828H129.591V54.9354C129.791 54.8865 131.289 54.8376 132.038 54.9354C132.038 54.9354 132.038 54.9354 132.088 54.9843C132.088 55.6201 132.088 56.207 132.088 56.8428C132.088 58.0166 132.088 59.1904 132.088 60.3641C132.088 60.3641 132.088 60.413 132.088 60.462C132.088 60.462 132.137 60.462 132.187 60.462L132.137 60.3641Z" fill="#212121"/>
<path d="M73.977 59.3848C73.977 59.5316 73.977 59.7272 73.977 59.8739C73.977 62.6617 73.977 65.4494 73.977 68.2371C73.977 68.335 73.977 68.4328 73.977 68.5306H61.5463C61.5963 68.4817 61.6462 68.4328 61.6961 68.4328C63.044 67.5035 64.3919 66.5743 65.7398 65.5961C66.4387 65.107 67.1376 64.618 67.7866 64.08C68.8849 63.2486 70.0331 62.4171 71.1314 61.5368C72.0799 60.8032 72.9785 60.0696 73.927 59.3359C73.927 59.3359 73.977 59.3359 74.0269 59.3359L73.977 59.3848Z" fill="#212121"/>
<path d="M144.869 68.7276C144.669 68.7276 144.42 68.7276 144.22 68.7276C143.771 68.7276 143.371 68.5809 142.922 68.3852C142.622 68.2874 142.323 68.0918 142.023 67.9451C141.474 67.6027 141.025 67.1626 140.725 66.5757C140.376 65.9888 140.126 65.4019 140.026 64.7172C139.976 64.4237 139.976 64.0814 140.026 63.7879C140.026 63.3967 140.076 63.0543 140.126 62.663C140.176 62.3696 140.276 62.1251 140.376 61.8316C140.625 61.1469 141.025 60.56 141.574 60.1198C142.073 59.6797 142.622 59.3862 143.221 59.1906C143.87 58.995 144.519 58.8971 145.168 58.9461C146.117 58.9461 147.015 59.2395 147.814 59.7286C148.463 60.1198 148.962 60.6089 149.312 61.2447C149.611 61.7827 149.811 62.3207 149.861 62.9076C149.961 63.4945 150.011 64.0814 149.911 64.6683C149.711 65.6464 149.362 66.5757 148.613 67.3093C148.313 67.6027 147.964 67.8473 147.565 68.0918C147.065 68.3363 146.566 68.532 146.017 68.6298C145.618 68.7276 145.168 68.7276 144.719 68.7276H144.869ZM144.619 66.8691C145.967 66.8691 146.716 66.4778 147.115 65.5486C147.365 64.9617 147.465 64.3748 147.465 63.739C147.465 63.201 147.365 62.663 147.165 62.1251C146.916 61.5382 146.516 61.1469 145.917 60.9513C145.518 60.8046 145.118 60.8046 144.719 60.8046C144.22 60.8046 143.721 61.0491 143.371 61.4404C142.972 61.8805 142.672 62.4185 142.622 63.0543C142.622 63.4456 142.622 63.8368 142.622 64.2281C142.622 64.7172 142.772 65.1573 142.972 65.5975C143.371 66.38 144.02 66.8202 144.569 66.7713L144.619 66.8691Z" fill="#212121"/>
<path d="M124.45 68.579C124.45 68.4812 124.45 68.3344 124.45 68.2366C124.45 66.5249 124.45 64.8131 124.45 63.1013C124.45 62.6122 124.4 62.1232 124.2 61.683C124.051 61.2917 123.751 61.0472 123.302 60.9494C122.903 60.8516 122.553 60.8516 122.154 60.9494C121.555 61.0961 121.255 61.5363 121.005 62.0253C120.856 62.3677 120.756 62.71 120.656 63.1013C120.556 63.4926 120.656 63.9327 120.656 64.324C120.656 65.6445 120.656 66.965 120.656 68.2855C120.656 68.3833 120.656 68.4812 120.656 68.579H118.16V59.1887H120.506V60.4603C120.606 60.3625 120.656 60.3625 120.706 60.3136C121.355 59.531 122.154 59.0909 123.152 58.9931C123.651 58.9442 124.101 58.9442 124.6 59.042C125.548 59.2865 126.247 59.7756 126.597 60.6559C126.896 61.3895 126.996 62.1232 126.996 62.9057C126.996 64.6664 126.996 66.4759 126.996 68.2366C126.996 68.3344 126.996 68.4323 126.996 68.5301H124.5L124.45 68.579Z" fill="#212121"/>
<path d="M106.677 59.1895H109.173C109.173 59.2873 109.173 59.4341 109.173 59.5319C109.173 61.1948 109.173 62.9065 109.173 64.5694C109.173 64.9117 109.173 65.2541 109.223 65.5964C109.323 66.1833 109.672 66.6235 110.221 66.8191C110.321 66.8191 110.471 66.8191 110.621 66.8191C110.92 66.8191 111.17 66.8191 111.469 66.7213C112.019 66.4768 112.368 66.1344 112.618 65.5964C112.917 64.9606 112.967 64.2759 112.967 63.6401C112.967 62.2707 112.967 60.8524 112.967 59.483C112.967 59.3852 112.967 59.2873 112.967 59.1895H115.463V68.5798H113.117V67.3082C113.017 67.406 112.917 67.4549 112.867 67.5038C112.618 67.7484 112.318 67.9929 112.019 68.1886C111.519 68.482 111.02 68.6776 110.471 68.7265C109.872 68.7754 109.223 68.8244 108.624 68.5798C108.025 68.3353 107.576 67.9929 107.226 67.4549C106.927 67.0148 106.777 66.4768 106.727 65.9877C106.677 65.6454 106.677 65.303 106.677 64.9606C106.677 63.1022 106.677 61.2437 106.677 59.3852C106.677 59.3363 106.677 59.2384 106.677 59.1406V59.1895Z" fill="#212121"/>
<path d="M166.584 66.0857C166.584 66.7215 166.584 67.3084 166.584 67.8464C166.584 67.9931 166.484 68.042 166.384 68.1398C165.785 68.4333 165.186 68.6289 164.537 68.7267C163.688 68.8245 162.84 68.8245 161.991 68.7267C161.292 68.6289 160.643 68.3354 160.094 67.9442C159.395 67.4551 158.996 66.8193 158.646 66.0368C158.496 65.6944 158.397 65.3032 158.347 64.9608C158.297 64.5206 158.347 64.0316 158.347 63.5425C158.347 63.1512 158.397 62.8089 158.496 62.4176C158.596 61.9774 158.796 61.5373 158.996 61.146C159.445 60.3146 160.094 59.7277 160.943 59.3364C161.292 59.1897 161.592 59.0919 161.991 59.0919C162.241 59.0919 162.49 59.043 162.74 59.043C163.489 59.043 164.188 59.1408 164.886 59.4342C165.635 59.7277 166.184 60.2168 166.534 60.9015C166.833 61.3905 166.983 61.9774 167.133 62.5154C167.283 63.2001 167.383 63.9337 167.333 64.6674H160.693C160.593 65.0097 160.693 65.3521 160.843 65.5966C161.042 66.0368 161.342 66.3791 161.741 66.6237C162.141 66.8682 162.59 67.0149 163.089 67.0149C163.738 67.0149 164.337 67.0149 164.936 66.7704C165.386 66.6237 165.835 66.3791 166.334 66.1835C166.384 66.1835 166.484 66.1346 166.584 66.0857ZM164.886 62.9556C164.886 62.8089 164.837 62.6621 164.837 62.5154C164.787 62.0263 164.587 61.5862 164.238 61.1949C163.938 60.9015 163.539 60.8036 163.189 60.7547C162.64 60.7058 162.091 60.7547 161.592 61.0971C161.242 61.3416 160.993 61.684 160.843 62.1242C160.743 62.3687 160.643 62.6621 160.643 62.9556H164.886Z" fill="#212121"/>
<path d="M97.1415 61.6819C97.1415 60.9972 97.0916 60.3614 97.0417 59.6767C97.2913 59.5789 97.5409 59.481 97.7905 59.3832C98.2398 59.2365 98.6891 59.0898 99.1384 59.0409C99.7375 58.992 100.337 58.8452 100.936 58.9431C101.385 59.0409 101.884 59.0409 102.284 59.1876C103.332 59.481 103.981 60.1658 104.28 61.1928C104.43 61.7797 104.53 62.4155 104.53 63.0513C104.53 64.3718 104.53 65.6923 104.58 67.0128C104.58 67.5019 104.63 68.0399 104.68 68.529H102.433C102.433 68.0888 102.383 67.6486 102.333 67.1596C102.234 67.2574 102.184 67.3063 102.134 67.3552C101.784 67.8932 101.235 68.2844 100.636 68.4801C100.536 68.4801 100.386 68.5779 100.287 68.5779C99.8872 68.7246 99.4879 68.6757 99.0386 68.6757C98.3397 68.6757 97.6907 68.4312 97.1415 68.0888C96.5924 67.6975 96.193 67.1596 96.0432 66.4748C95.8435 65.5456 96.0432 64.7142 96.6423 63.9806C96.8919 63.6382 97.2913 63.3937 97.6907 63.2469C98.2897 63.0024 98.9387 62.9046 99.5877 62.8068C100.287 62.709 100.986 62.8068 101.684 62.7579C101.884 62.7579 102.034 62.7579 102.184 62.7579C102.184 62.709 102.234 62.709 102.234 62.66C102.234 62.2688 102.234 61.8775 101.984 61.4863C101.834 61.2417 101.635 60.9972 101.285 60.8994C100.287 60.557 99.3381 60.6548 98.3396 61.0461C97.9403 61.1928 97.5409 61.3884 97.1914 61.6819C97.1914 61.6819 97.1914 61.6819 97.1415 61.6819ZM102.284 64.274C102.184 64.274 102.084 64.274 101.984 64.274C101.335 64.274 100.736 64.274 100.087 64.3718C99.8373 64.3718 99.6376 64.4696 99.4379 64.5674C98.7889 64.812 98.4395 65.3011 98.4395 65.9858C98.4395 66.4259 98.6392 66.7194 98.9886 66.8661C99.5877 67.1596 100.237 67.1596 100.886 66.8661C101.535 66.5727 101.984 66.0836 102.134 65.35C102.234 65.0076 102.284 64.6653 102.284 64.274Z" fill="#212121"/>
<path d="M80.6182 55.8164C80.7181 55.8164 80.8179 55.8164 80.8678 55.8164C83.0644 55.8164 85.2111 55.8164 87.4076 55.8164C87.5075 55.8164 87.6073 55.8164 87.7571 55.8164V57.8216H83.1143V60.9517H87.5075C87.5075 61.2941 87.5075 61.6364 87.5075 61.9299C87.5075 62.2722 87.5075 62.5657 87.5075 62.908C87.5075 62.908 87.5075 62.908 87.5075 62.9569C87.2579 62.9569 87.0082 62.9569 86.7586 62.9569C85.6604 62.9569 84.5621 62.9569 83.4638 62.9569C83.3639 62.9569 83.2641 62.9569 83.1642 62.9569C83.1642 63.0547 83.1642 63.1526 83.1642 63.2993C83.1642 64.9132 83.1642 66.5272 83.1642 68.1901C83.1642 68.2879 83.1642 68.3857 83.1642 68.5324C83.1642 68.5324 83.1642 68.5324 83.1143 68.5813C82.2656 68.5813 81.4669 68.5813 80.6182 68.5813C80.6182 68.5324 80.6182 68.4835 80.6182 68.3857C80.6182 64.2774 80.6182 60.1692 80.6182 56.012C80.6182 56.012 80.6182 55.9142 80.6182 55.8653C80.6182 55.8653 80.6182 55.8653 80.6681 55.8164H80.6182Z" fill="#212121"/>
<path d="M73.9284 56.9874C72.1312 58.1612 70.334 59.3839 68.5368 60.5577C67.5883 61.1446 66.6398 61.7314 65.6912 62.2694C64.6429 62.9052 63.5945 63.541 62.4962 64.1768C60.05 65.5952 57.6038 66.9646 55.0578 68.2362C54.8581 68.334 54.7084 68.4318 54.4587 68.5296V65.693C54.5586 65.693 54.6085 65.5952 54.7084 65.5463C57.6038 64.1768 60.4993 62.7585 63.3449 61.2424C64.5929 60.6066 65.841 59.873 67.0891 59.1882C68.4869 58.4057 69.8847 57.5743 71.2825 56.7429C72.1312 56.2538 72.93 55.7158 73.7786 55.1778C73.7786 55.1778 73.8785 55.1778 73.9284 55.1289C73.9284 55.1289 73.9284 55.1289 73.9783 55.1289C73.9783 55.7158 73.9783 56.3027 73.9783 56.8896C73.9783 56.8896 73.9783 56.8896 73.9783 56.9385L73.9284 56.9874Z" fill="#212121"/>
<path d="M155.101 60.9486V68.5293H152.605C152.605 65.9861 152.605 63.4918 152.605 60.9486H150.758V59.139H152.555C152.555 58.9923 152.555 58.8944 152.555 58.7966C152.555 58.4054 152.555 58.0141 152.555 57.6228C152.555 57.2805 152.555 56.9381 152.705 56.5958C153.054 55.6665 153.703 54.9818 154.752 54.7373C155.251 54.6395 155.8 54.6395 156.299 54.6884C156.649 54.6884 156.998 54.7862 157.348 54.8351C157.348 55.0796 157.348 55.3242 157.348 55.5198C157.298 55.7154 157.348 55.96 157.298 56.1556C157.198 56.3512 157.398 56.5958 157.148 56.7914C156.848 56.6936 156.599 56.5958 156.299 56.5469C155.7 56.4491 155.251 56.7914 155.101 57.3294C155.101 57.525 155.051 57.7207 155.051 57.9163C155.051 58.3075 155.051 58.6499 155.051 59.0412C155.051 59.0412 155.051 59.0901 155.051 59.139H157.198V60.9486C156.499 60.9486 155.75 60.9486 155.001 60.9486H155.101Z" fill="#212121"/>
<path d="M73.9783 52.832C73.9783 53.1255 73.9783 53.37 73.9783 53.6635C73.9783 53.6635 73.9783 53.6635 73.9783 53.7124C73.3293 54.0547 72.6803 54.446 71.9814 54.7883C70.6335 55.522 69.2357 56.2556 67.8379 56.9892C66.6897 57.5761 65.4915 58.163 64.3433 58.7499C63.295 59.2389 62.2965 59.6791 61.2482 60.1682C59.7505 60.8529 58.2029 61.4887 56.7052 62.1734C56.0063 62.4669 55.3074 62.7603 54.5586 63.0537C54.4587 62.7603 54.4587 60.1682 54.4587 59.3368C54.5586 59.3368 54.7084 59.2389 54.8082 59.2389C56.4556 58.8477 58.1031 58.4564 59.7006 58.0163C61.7973 57.4783 63.894 56.7936 65.9408 56.0599C67.3886 55.5709 68.7864 55.0329 70.1842 54.446C71.3324 53.9569 72.4807 53.4189 73.6289 52.8809C73.6788 52.8809 73.7786 52.832 73.8286 52.832C73.8286 52.832 73.8286 52.832 73.8785 52.832H73.9783Z" fill="#212121"/>
<path d="M91.9 61.244C92.0498 60.4615 92.549 59.8746 93.1481 59.3855C93.5475 59.092 93.9968 58.9453 94.496 58.9453C94.7456 58.9453 94.9952 58.9453 95.2448 58.9942V61.4396C94.8954 61.3907 94.5459 61.3418 94.1964 61.2929C93.6473 61.244 93.1481 61.3907 92.7986 61.8309C92.4991 62.1732 92.3493 62.5645 92.2495 63.0047C92.1496 63.3959 92.0997 63.7872 92.0997 64.1784C92.0997 65.5479 92.0997 66.8684 92.0997 68.2378C92.0997 68.3356 92.0997 68.4334 92.0997 68.5312H89.6036V59.1409H91.8002C91.8002 59.8257 91.8002 60.5593 91.8002 61.244H91.9Z" fill="#212121"/>
<path d="M174.671 59.0452C174.671 59.8277 174.671 60.6591 174.671 61.4416C174.671 61.4416 174.572 61.4416 174.522 61.4416C174.172 61.2949 173.823 61.2949 173.423 61.2949C172.724 61.2949 172.275 61.6862 171.976 62.2731C171.726 62.7621 171.576 63.349 171.576 63.9359C171.576 65.3543 171.576 66.7726 171.576 68.1909C171.576 68.3376 171.576 68.4354 171.576 68.5822H169.08V59.1919C169.779 59.1919 170.528 59.1919 171.277 59.1919C171.277 59.9255 171.277 60.6102 171.277 61.2949C171.277 61.2949 171.277 61.2949 171.277 61.246C171.377 60.5613 171.776 60.0722 172.275 59.5831C172.774 59.0941 173.423 58.8984 174.122 58.8984C174.272 58.8984 174.472 58.9473 174.621 58.9963L174.671 59.0452Z" fill="#212121"/>
<path d="M168.032 76.354C167.782 77.0876 167.533 77.7723 167.333 78.5059C167.033 79.3373 166.784 80.1688 166.484 81.0002C166.284 81.4893 166.484 81.4404 165.835 81.4404C165.586 81.4404 165.336 81.4404 165.086 81.4404C164.487 79.7286 163.938 77.9679 163.339 76.2561V81.3915H162.091V75.0335H164.138C164.637 76.6474 165.186 78.2125 165.685 79.8264C165.685 79.8264 165.735 79.8264 165.785 79.8264C165.785 79.7775 165.785 79.6797 165.785 79.6308C165.885 79.2884 165.985 78.995 166.085 78.6526C166.235 78.1146 166.434 77.6256 166.584 77.0876C166.784 76.5007 166.983 75.9138 167.133 75.3269C167.133 75.2291 167.133 75.0824 167.233 75.0335C167.333 74.9845 167.483 75.0335 167.582 75.0335C168.082 75.0335 168.531 75.0335 169.03 75.0335C169.13 75.0335 169.23 75.0335 169.33 75.0335V81.3915H168.082C168.082 79.6797 168.082 78.0168 168.082 76.3051V76.1583C168.082 76.1583 168.082 76.2561 168.032 76.3051V76.354Z" fill="#212121"/>
<path d="M73.9783 51.0703V51.9996C67.788 54.8362 61.2482 56.7925 54.4587 57.9663V55.8144C54.6085 55.8144 54.7583 55.8144 54.958 55.7655C55.2575 55.7655 55.557 55.7655 55.8566 55.6676C56.3558 55.6187 56.9049 55.5698 57.4042 55.5209C57.9034 55.472 58.4026 55.3742 58.9517 55.3253C59.2013 55.3253 59.451 55.2764 59.7006 55.2275C59.9502 55.2275 60.1998 55.1297 60.4494 55.0807C61.1483 54.934 61.8472 54.7873 62.4962 54.6406C63.7443 54.396 64.9923 54.0537 66.2404 53.7113C67.4884 53.369 68.6866 52.9777 69.9346 52.5865C71.2825 52.1463 72.5805 51.6083 73.8785 51.0703C73.8785 51.0703 73.8785 51.0703 73.9284 51.0703H73.9783Z" fill="#212121"/>
<path d="M73.9791 57.5273C73.9791 57.7719 73.9791 58.0653 73.9791 58.3099C73.9791 58.4566 73.9791 58.5544 73.8293 58.6522C73.4299 58.9457 73.0305 59.288 72.5812 59.5815C71.6826 60.2173 70.834 60.8531 69.9354 61.4889C67.9884 62.9072 65.9915 64.2766 63.8948 65.4993C62.2973 66.4775 60.6498 67.4556 59.0523 68.4338C58.9525 68.4827 58.8526 68.5316 58.7528 68.5316C58.004 68.5316 57.2551 68.5316 56.4564 68.5316C56.4564 68.5316 56.4064 68.5316 56.3565 68.5316C56.4564 68.4827 56.5562 68.4338 56.6061 68.3849C58.8526 67.1133 61.1491 65.8417 63.3456 64.4722C65.3924 63.2006 67.4393 61.8801 69.4361 60.5596C70.834 59.6304 72.1819 58.6522 73.5797 57.6741C73.6795 57.6252 73.7294 57.5763 73.8293 57.5273H73.9291H73.9791Z" fill="#212121"/>
<path d="M160.193 81.4932C160.143 81.4932 160.093 81.4932 160.043 81.4932C159.594 81.4932 159.144 81.4932 158.695 81.4932C158.695 81.4932 158.645 81.4932 158.595 81.4932C158.346 81.3954 158.096 81.4443 157.846 81.3464C156.998 81.0041 156.299 80.4661 155.999 79.5369C155.899 79.2434 155.899 78.95 155.849 78.6565C155.8 78.0696 155.849 77.4827 156.049 76.8958C156.399 75.9666 157.048 75.3308 158.046 75.0863C158.445 74.9884 158.845 74.9395 159.194 74.8906C159.644 74.8906 160.442 74.9884 160.842 75.1841C160.842 75.5264 160.742 75.8199 160.692 76.2111C160.592 76.2111 160.442 76.1133 160.342 76.1133C159.594 75.8199 158.845 75.8688 158.146 76.2111C157.647 76.4557 157.347 76.8958 157.197 77.4338C157.048 77.9718 157.048 78.5587 157.197 79.0967C157.297 79.488 157.547 79.7814 157.846 80.0748C158.395 80.515 158.995 80.6128 159.693 80.515C160.043 80.4661 160.342 80.4172 160.692 80.3683C160.692 80.3683 160.692 80.3683 160.742 80.3683C160.742 80.6617 160.742 81.0041 160.792 81.3464C160.542 81.3464 160.293 81.4443 160.093 81.4932H160.193Z" fill="#212121"/>
<path d="M168.031 76.3538C168.031 76.3538 168.031 76.2559 168.081 76.207V76.3538H167.981H168.031Z" fill="#212121"/>
<path d="M132.137 60.3634C132.137 60.3634 132.087 60.3634 132.037 60.3634C132.037 60.3634 132.037 60.3145 132.037 60.2656C132.037 60.2656 132.087 60.2656 132.137 60.3145V60.3634Z" fill="#212121"/>
<path d="M160.843 80.3653C160.843 80.3653 160.843 80.3653 160.793 80.3653C160.793 80.3653 160.793 80.3653 160.793 80.3164C160.793 80.3164 160.793 80.3653 160.793 80.4142L160.843 80.3653Z" fill="#212121"/>
<path d="M73.9773 57.5252H73.8775C73.8775 57.4763 73.9773 57.4274 73.9773 57.5252Z" fill="#212121"/>
<path d="M73.9773 59.3882C73.9773 59.3882 73.9274 59.3882 73.8775 59.3882C73.9274 59.3393 73.9274 59.3393 73.9773 59.3882Z" fill="#212121"/>
<path d="M171.376 61.2422C171.376 61.2422 171.376 61.2422 171.376 61.2911C171.376 61.2911 171.376 61.2911 171.426 61.2911L171.376 61.2422Z" fill="#212121"/>
<path d="M83.1135 68.5802C83.1135 68.5802 83.1135 68.5802 83.1634 68.5312C83.1634 68.5312 83.1634 68.5312 83.1135 68.5802Z" fill="#212121"/>
<path d="M138.328 68.5802C138.328 68.5802 138.328 68.5802 138.378 68.5312C138.378 68.5312 138.378 68.5312 138.328 68.5802Z" fill="#212121"/>
<path d="M80.6189 55.8164C80.6189 55.8164 80.6189 55.8164 80.569 55.8653C80.569 55.8653 80.569 55.8653 80.6189 55.8164Z" fill="#212121"/>
<path d="M132.038 54.9356C132.038 54.9356 132.038 54.9356 131.988 54.8867C131.988 54.8867 131.988 54.8867 132.038 54.9356Z" fill="#212121"/>
<path d="M131.988 68.5802C131.988 68.5802 131.988 68.5802 132.038 68.5312C132.038 68.5312 132.038 68.5312 131.988 68.5802Z" fill="#212121"/>
</svg>
