<svg width="230" height="130" viewBox="0 0 230 130" fill="none" xmlns="http://www.w3.org/2000/svg">
<g clip-path="url(#clip0_1019_46775)">
<path d="M147.762 64.4368L156.233 45H144.939L140.462 57.0419L136.812 45H126.758L132.405 64.5774L126.345 64.5065L130.615 77.6058L117.944 57.3942L123.521 57.3239L119.39 45H107.82L100.244 73.451C100.244 73.451 100.176 64.9013 100.176 45H88.9502V59.3665H82.8909L82.8218 45H71.5967V85H82.7528V70.1406H89.0199V85H108.095L109.61 78.0284L118.632 78.0987L120.147 85H135.16L139.98 73.0284V72.9574L144.87 85H157.403L147.762 64.4368ZM117.403 69.5161H111.597L114.421 57.9032L117.403 69.4471V69.5161Z" fill="#212121"/>
</g>
<defs>
<clipPath id="clip0_1019_46775">
<rect width="85.8064" height="40" fill="white" transform="translate(71.5967 45)"/>
</clipPath>
</defs>
</svg>
