<svg width="230" height="130" viewBox="0 0 230 130" fill="none" xmlns="http://www.w3.org/2000/svg">
<g clip-path="url(#clip0_1380_46517)">
<path d="M136.472 56.6494H130.805V55.3741C130.805 54.0776 130.506 52.9724 129.886 52.0373C129.266 51.1021 128.239 50.6345 126.807 50.6345C126.037 50.6345 125.395 50.7833 124.882 51.0808C124.39 51.3784 123.984 51.761 123.706 52.2073C123.428 52.6749 123.235 53.2062 123.128 53.8013C123.022 54.4177 122.957 55.0341 122.957 55.7142C122.957 56.4793 122.979 57.1382 123.043 57.6696C123.107 58.2009 123.235 58.6685 123.449 59.0511C123.663 59.4336 124.005 59.7737 124.411 60.0713C124.839 60.3688 125.417 60.6664 126.165 60.9639L130.506 62.6855C131.768 63.1743 132.794 63.7269 133.564 64.3646C134.334 65.0022 134.954 65.7673 135.36 66.6387C135.788 67.5102 136.066 68.4878 136.216 69.6143C136.365 70.7408 136.429 72.016 136.429 73.4613C136.429 75.1191 136.258 76.6494 135.938 78.0734C135.595 79.4974 135.061 80.7089 134.291 81.7078C133.521 82.728 132.516 83.5144 131.254 84.1095C129.993 84.7046 128.453 85.0022 126.635 85.0022C125.267 85.0022 123.984 84.7684 122.808 84.2796C121.632 83.812 120.605 83.1531 119.75 82.3242C118.894 81.4953 118.231 80.5176 117.718 79.3699C117.226 78.2222 116.97 76.9894 116.97 75.6717V73.5675H122.637V75.3316C122.637 76.3731 122.936 77.287 123.556 78.1159C124.176 78.9448 125.203 79.3486 126.635 79.3486C127.598 79.3486 128.346 79.2211 128.881 78.9448C129.415 78.6685 129.822 78.2859 130.1 77.7758C130.378 77.287 130.549 76.6706 130.634 75.9267C130.698 75.1828 130.741 74.3752 130.741 73.5038C130.741 72.4836 130.698 71.6334 130.634 70.9746C130.57 70.3157 130.399 69.7843 130.164 69.3805C129.929 68.9767 129.586 68.6366 129.159 68.3816C128.731 68.1265 128.175 67.8502 127.469 67.5527L123.406 65.8949C120.969 64.8959 119.322 63.5782 118.488 61.9416C117.654 60.3051 117.248 58.2434 117.248 55.778C117.248 54.3114 117.44 52.9087 117.868 51.5909C118.274 50.2732 118.873 49.1255 119.664 48.169C120.455 47.2126 121.46 46.4475 122.701 45.8736C123.92 45.2997 125.352 45.0234 126.978 45.0234C128.389 45.0234 129.672 45.2785 130.848 45.7886C132.024 46.2987 133.008 46.9788 133.842 47.829C134.676 48.6791 135.317 49.6143 135.767 50.677C136.216 51.7184 136.429 52.8024 136.429 53.9076V56.6494H136.472Z" fill="#212121"/>
<path d="M152.895 84.6597H147.891L139.851 45.3398H145.838L150.329 72.7787H150.436L155.012 45.3398H161.021L152.895 84.6597Z" fill="#212121"/>
<path d="M111.025 50.4181C110.726 49.7593 110.362 49.1642 109.956 48.6328L106.192 56.8794V75.3916C106.192 76.7518 105.807 77.7508 105.059 78.4096C104.289 79.0473 103.391 79.3661 102.364 79.3661C101.317 79.3661 100.418 79.0473 99.6699 78.4096C98.9001 77.772 98.5366 76.7518 98.5366 75.3916V73.6275L94.9012 81.5765C95.2006 81.9591 95.5428 82.2991 95.9063 82.6179C96.8044 83.4043 97.8309 83.9994 98.9642 84.4033C100.098 84.8071 101.231 85.0196 102.386 85.0196C103.54 85.0196 104.674 84.8071 105.807 84.4033C106.941 83.9994 107.946 83.4043 108.865 82.6179C109.763 81.8315 110.512 80.8326 111.068 79.6424C111.624 78.4522 111.902 77.0281 111.902 75.4128V54.6264C111.859 53.0324 111.581 51.6296 111.025 50.4181Z" fill="#212121"/>
<path d="M87.4382 56.6706H81.7713V55.3954C81.7713 54.0989 81.472 52.9937 80.8518 52.0585C80.2317 51.1233 79.2052 50.6557 77.7725 50.6557C77.0027 50.6557 76.3611 50.8045 75.8479 51.1021C75.3561 51.3996 74.9498 51.7822 74.6718 52.2285C74.3938 52.6961 74.2013 53.2275 74.0944 53.8226C73.9875 54.439 73.9233 55.0553 73.9233 55.7354C73.9233 56.5006 73.9447 57.1595 74.0089 57.6908C74.073 58.2222 74.2013 58.6898 74.4152 59.0723C74.629 59.4549 74.9712 59.795 75.3775 60.0925C75.8051 60.3901 76.3825 60.6876 77.131 60.9852L81.472 62.7068C82.7336 63.1743 83.7601 63.7482 84.5299 64.3858C85.2997 65.0234 85.8985 65.7886 86.3262 66.6387C86.7539 67.5102 87.0319 68.5091 87.1815 69.6143C87.3312 70.7408 87.3954 72.016 87.3954 73.4613C87.3954 75.1191 87.2243 76.6494 86.9036 78.0734C86.5614 79.4974 86.0268 80.7089 85.257 81.7078C84.4871 82.728 83.4821 83.5144 82.2204 84.1095C80.9587 84.7046 79.4191 85.0022 77.6014 85.0022C76.2328 85.0022 74.9498 84.7684 73.7736 84.2796C72.5975 83.812 71.5711 83.1531 70.7157 82.3242C69.8603 81.4953 69.1974 80.5176 68.6842 79.3699C68.2565 78.2222 67.9999 76.9894 67.9999 75.6504V73.5463H73.6667V75.3104C73.6667 76.3306 73.9661 77.2657 74.5862 78.0946C75.2064 78.9235 76.2328 79.3274 77.6656 79.3274C78.6279 79.3274 79.3763 79.1786 79.9109 78.9235C80.4455 78.6472 80.8518 78.2647 81.1298 77.7546C81.4078 77.2657 81.5789 76.6494 81.6644 75.9055C81.7286 75.1616 81.7713 74.3539 81.7713 73.4825C81.7713 72.4623 81.7286 71.6122 81.6644 70.932C81.5789 70.2732 81.4292 69.7418 81.194 69.338C80.9587 68.9342 80.6166 68.5941 80.1889 68.3391C79.7612 68.084 79.2052 67.8077 78.4995 67.5102L74.4365 65.8523C71.9987 64.8959 70.3522 63.5782 69.5182 61.9416C68.6842 60.3051 68.2779 58.2434 68.2779 55.778C68.2779 54.3114 68.4917 52.9087 68.898 51.5909C69.3043 50.2732 69.9031 49.1255 70.6943 48.169C71.4855 47.2126 72.4906 46.4475 73.7309 45.8736C74.9498 45.2997 76.3825 45.0234 78.0077 45.0234C79.4191 45.0234 80.7021 45.2785 81.8783 45.7886C83.0544 46.2987 84.0381 46.9788 84.872 47.829C85.706 48.6791 86.3476 49.6143 86.7966 50.677C87.2457 51.7184 87.4595 52.8024 87.4595 53.9076V56.6706H87.4382Z" fill="#212121"/>
<path d="M98.5152 54.6281C98.5152 53.2678 98.9001 52.2689 99.6485 51.61C100.418 50.9724 101.317 50.6536 102.343 50.6536C102.493 50.6536 102.642 50.6536 102.792 50.6748L105.208 45.4251C104.268 45.1488 103.327 45 102.364 45C101.21 45 100.076 45.2125 98.9429 45.6164C97.8095 46.0202 96.7831 46.6153 95.8849 47.4017C94.9868 48.1881 94.2383 49.187 93.6823 50.4198C93.1264 51.6312 92.8484 53.034 92.8484 54.6281V75.3932C92.8484 77.0085 93.1264 78.4325 93.6823 79.6227C94.0245 80.3454 94.4094 80.983 94.8799 81.5781L98.5152 73.6291V54.6281Z" fill="#212121"/>
</g>
<defs>
<clipPath id="clip0_1380_46517">
<rect width="93" height="40" fill="white" transform="translate(68 45)"/>
</clipPath>
</defs>
</svg>
