<svg width="230" height="130" viewBox="0 0 230 130" fill="none" xmlns="http://www.w3.org/2000/svg">
<g clip-path="url(#clip0_1380_46527)">
<path d="M112.392 59.7083H120.392V75.7083H125.725V59.7083H132.392L135.059 54.375H112.392V59.7083ZM160.392 59.7083H152.392V75.7083H147.059V59.7083H137.725L140.392 54.375H160.392V59.7083Z" fill="#212121"/>
<path d="M91.7373 54.375H85.7253V75.709H91.0586V70.3757H101.725V65.0423H91.0586V59.709H107.059V54.3757H91.7306H91.7373V54.375ZM171.737 54.375H165.725V75.709H171.059V70.3757H181.725V65.0423H171.059V59.709H187.059V54.3757H171.731H171.737V54.375Z" fill="#212121"/>
<mask id="mask0_1380_46527" style="mask-type:luminance" maskUnits="userSpaceOnUse" x="43" y="49" width="33" height="33">
<path d="M43.0436 65.043C43.0436 56.207 50.2076 49.043 59.0436 49.043C67.8796 49.043 75.0436 56.207 75.0436 65.043C75.0436 73.879 67.8803 81.043 59.0436 81.043C50.207 81.043 43.0436 73.8796 43.0436 65.043Z" fill="white"/>
</mask>
<g mask="url(#mask0_1380_46527)">
<path opacity="0.8" fill-rule="evenodd" clip-rule="evenodd" d="M64.941 41.0703H53.147V52.865H53.2136L42.5976 70.557H35.455V82.3516H47.2496V78.4196H70.8383V82.3516H82.6336V70.557H75.4896L64.875 52.865H64.9416L64.941 41.0703ZM47.2496 74.4883H70.8383V70.557H70.905L60.2896 52.865H57.7983L47.183 70.557H47.2496V74.4883ZM57.0783 48.9336V45.0016H61.0096V48.9336H57.0783ZM74.7703 74.4883V78.4196H78.7016V74.4883H74.7703ZM39.3863 78.4196V74.4883H43.3176V78.4196H39.3863Z" fill="#212121"/>
<path opacity="0.6" fill-rule="evenodd" clip-rule="evenodd" d="M64.257 82.537L74.471 76.6396L68.5736 66.425L68.5163 66.4583L68.863 45.829L75.0496 42.2576L69.1523 32.043L58.9376 37.9403L60.9043 41.345L40.4743 53.1403L38.5083 49.7356L28.2943 55.633L34.1923 65.847L40.3783 62.275L58.417 72.289L58.3596 72.3223L64.257 82.537ZM62.8696 44.7503L42.4403 56.5436L44.4056 59.949L44.3483 59.9823L62.387 69.9956L64.545 68.7503L64.8916 48.121L64.8343 48.1543L62.869 44.7496L62.8696 44.7503ZM67.135 71.7956L69.101 75.2003L65.6956 77.1663L63.7303 73.761L67.135 71.7956ZM39.0363 58.5103L37.0696 55.1056L33.6656 57.0716L35.631 60.4763L39.0363 58.5103ZM67.7136 37.4136L69.679 40.8183L66.2743 42.7843L64.3083 39.3796L67.7136 37.4136Z" fill="#212121"/>
<path opacity="0.4" fill-rule="evenodd" clip-rule="evenodd" d="M38.2292 66.9197L44.1272 77.133L54.3419 71.2364L54.3085 71.179L74.9378 71.5257L78.5092 77.7124L88.7238 71.8144L82.8265 61.6004L79.4219 63.5657L67.6259 43.137L71.0305 41.1717L65.1339 30.957L54.9192 36.8544L58.4912 43.041L48.4772 61.0797L48.4439 61.0217L38.2292 66.9197ZM76.0159 65.5317L64.2219 45.103L60.8165 47.069L60.7832 47.011L50.7699 65.0497L52.0152 67.2077L72.6445 67.555L72.6112 67.4977L76.0159 65.5317ZM48.9705 69.797L45.5659 71.763L43.5999 68.3584L47.0045 66.3924L48.9705 69.797ZM62.2559 41.6984L65.6605 39.7324L63.6945 36.3277L60.2898 38.2937L62.2559 41.6984ZM83.3525 70.3757L79.9478 72.341L77.9818 68.9364L81.3865 66.971L83.3525 70.3757Z" fill="#212121"/>
<path opacity="0.2" fill-rule="evenodd" clip-rule="evenodd" d="M44.1167 46.285L38.2201 56.499L48.4341 62.3964L48.4674 62.339L58.4814 80.3777L54.9101 86.5644L65.1241 92.461L71.0214 82.247L67.6167 80.281L79.4114 59.853L82.8161 61.819L88.7134 51.6044L78.4987 45.707L74.9274 51.8937L54.2981 52.2404L54.3314 52.183L44.1167 46.285ZM64.2121 78.3157L76.0067 57.8864L72.6014 55.921L72.6347 55.863L52.0061 56.2097L50.7594 58.3684L60.7747 76.4064L60.8081 76.349L64.2127 78.315L64.2121 78.3157ZM46.9954 57.0257L43.5901 55.0604L45.5561 51.6557L48.9607 53.621L46.9954 57.0257ZM77.9721 54.4817L81.3767 56.4477L83.3434 53.043L79.9381 51.077L77.9721 54.4817ZM63.6854 87.0904L60.2807 85.125L62.2461 81.7204L65.6507 83.6857L63.6854 87.0904Z" fill="#212121"/>
<path d="M43.0436 56.3628V58.0961C52.4816 57.2895 63.7676 55.0208 75.0436 49.6715V48.8828C63.5836 54.1195 52.9643 55.5728 45.1836 56.2048C44.4556 56.2648 43.7436 56.3175 43.0436 56.3628ZM43.0436 64.4061C52.665 62.1615 64.0683 58.5601 75.0436 52.8061V51.5148C63.8536 57.1335 52.4036 60.2628 43.0436 62.0021V64.4061ZM43.0436 75.7548C51.5483 71.4761 63.3936 65.0095 75.0436 56.9548V54.4281C63.3656 61.7681 51.5196 67.4061 43.0436 71.0548V75.7548ZM50.391 80.8828H54.483C60.543 76.4675 67.7583 70.8468 75.0436 64.3561V63.0761C73.402 64.4148 71.7502 65.7408 70.0883 67.0541C63.1316 72.5608 56.1463 77.2721 50.391 80.8828ZM43.0436 80.8828H46.0263C54.237 75.9861 64.747 69.1861 75.043 61.0281V60.2415C61.807 70.0295 50.6563 76.7248 43.0436 80.8661V80.8828Z" fill="#212121"/>
<path fill-rule="evenodd" clip-rule="evenodd" d="M44.9636 65.043C44.9636 72.8196 51.2676 79.123 59.0436 79.123C66.8196 79.123 73.1236 72.8196 73.1236 65.043C73.1236 57.2663 66.8203 50.963 59.0436 50.963C51.267 50.963 44.9636 57.267 44.9636 65.043ZM59.0436 49.043C50.2076 49.043 43.0436 56.207 43.0436 65.043C43.0436 73.879 50.2076 81.043 59.0436 81.043C67.8796 81.043 75.0436 73.8796 75.0436 65.043C75.0436 56.2063 67.8803 49.043 59.0436 49.043Z" fill="#212121"/>
</g>
</g>
<defs>
<clipPath id="clip0_1380_46527">
<rect width="144" height="32" fill="white" transform="translate(43 49)"/>
</clipPath>
</defs>
</svg>
