<svg width="230" height="130" viewBox="0 0 230 130" fill="none" xmlns="http://www.w3.org/2000/svg">
<path d="M182.315 80.5693C182.166 80.5693 182.041 80.5693 181.892 80.5693C134.154 80.5693 86.4167 80.5693 38.6792 80.5693H38.3799C38.3799 80.4435 38.3799 80.3681 38.3799 80.2675C38.3799 69.7316 38.3799 59.1958 38.3799 48.6348C38.3799 48.5845 38.3799 48.5342 38.3799 48.4839C38.3799 48.4839 38.4049 48.4587 38.4298 48.4336C38.5795 48.4336 38.7042 48.4336 38.8289 48.4336C86.5414 48.4336 134.279 48.4336 182.016 48.4336C182.116 48.4336 182.241 48.4336 182.34 48.4336C182.34 48.5342 182.34 48.6348 182.34 48.7353C182.34 59.2209 182.34 69.7065 182.34 80.2172C182.34 80.343 182.34 80.4687 182.34 80.5693H182.315ZM132.009 69.3796C132.009 69.3796 131.959 69.4048 131.934 69.4299C131.835 69.4299 131.76 69.4802 131.66 69.4802C131.086 69.4802 130.538 69.4802 129.964 69.4802C129.465 69.4802 128.941 69.4802 128.443 69.4802C127.32 69.3545 126.672 68.7258 126.497 67.6194C126.447 67.3428 126.372 67.0662 126.323 66.7645C126.323 66.6388 126.397 66.5131 126.422 66.3873C126.472 66.3873 126.497 66.3873 126.547 66.3873C128.567 66.3873 130.612 66.3873 132.633 66.3873C132.633 66.3873 132.658 66.3622 132.683 66.337C132.683 66.0101 132.782 65.6833 132.757 65.3564C132.707 64.7277 132.633 64.074 132.508 63.4453C132.184 61.7103 130.987 60.9811 129.54 60.8554C129.141 60.8302 128.717 60.8554 128.318 60.8554C127.345 60.9057 126.547 61.2828 125.948 62.0372C125.549 62.5652 125.225 63.1436 125.15 63.8225C125.075 64.4763 124.951 65.1301 124.876 65.7838C124.851 66.1359 124.976 66.4879 124.976 66.8399C124.976 67.4937 125.075 68.1475 125.35 68.7258C125.549 69.1533 125.799 69.5808 126.123 69.9077C126.796 70.6117 127.694 70.7626 128.617 70.7626C129.39 70.7626 130.188 70.7123 130.962 70.6369C131.46 70.6117 131.934 70.5112 132.408 70.4609C132.433 70.4357 132.483 70.4106 132.483 70.3854C132.483 70.0837 132.483 69.7568 132.483 69.455C132.483 69.4048 132.408 69.3545 132.358 69.3293C132.283 69.3293 132.209 69.3293 132.134 69.3293C132.109 69.3293 132.059 69.3293 132.034 69.3545L132.009 69.3796ZM108.914 69.3796H108.839C108.789 69.4299 108.764 69.4802 108.714 69.4802C107.841 69.4802 106.968 69.5305 106.12 69.4802C105.297 69.4299 104.649 69.0024 104.399 68.1726C104.25 67.6446 104.15 67.0914 104.125 66.5633C104.125 65.7084 104.125 64.8283 104.25 63.9734C104.349 63.2442 104.674 62.5904 105.422 62.3389C105.821 62.1881 106.245 62.1126 106.669 62.1126C107.243 62.1126 107.816 62.1881 108.415 62.2132C108.589 62.2132 108.764 62.2635 108.939 62.2635C109.013 62.2635 109.113 62.1881 109.138 62.1378C109.188 61.9115 109.163 61.66 109.213 61.4337C109.263 61.1823 109.088 61.132 108.914 61.0817C108.465 61.0062 107.991 60.9057 107.542 60.9057C106.744 60.9057 105.946 60.8051 105.172 61.0062C104.549 61.1823 103.975 61.4337 103.576 61.9618C102.903 62.8418 102.703 63.8979 102.653 64.9792C102.653 65.0546 102.579 65.1049 102.579 65.1804C102.579 65.5324 102.579 65.8844 102.579 66.2365C102.579 66.337 102.653 66.4628 102.678 66.5633C102.653 67.368 102.753 68.1475 103.052 68.9019C103.327 69.6059 103.776 70.134 104.424 70.4609C105.048 70.7626 105.746 70.8632 106.419 70.838C107.193 70.838 107.941 70.7123 108.714 70.662C108.814 70.662 108.914 70.6369 109.013 70.6117C109.163 70.6117 109.213 70.5614 109.213 70.4106V69.6311C109.213 69.5808 109.213 69.5053 109.213 69.455C109.138 69.2539 109.038 69.3042 108.939 69.4048L108.914 69.3796ZM114.401 69.5053C114.276 69.5053 114.151 69.455 114.051 69.4299C113.278 69.3545 112.53 68.5498 112.43 67.7452C112.405 67.3931 112.331 67.0662 112.256 66.7394C112.206 66.4879 112.256 66.4125 112.555 66.3873C113.652 66.3873 114.75 66.3873 115.847 66.3873C116.77 66.3873 117.668 66.3873 118.591 66.3873C118.591 66.3873 118.616 66.3622 118.641 66.337C118.641 65.6078 118.641 64.8535 118.591 64.1243C118.541 63.6465 118.416 63.1687 118.267 62.7413C117.843 61.5594 116.87 61.0062 115.723 60.8805C115.024 60.8051 114.276 60.7799 113.553 60.9811C112.206 61.3583 111.483 62.3389 111.133 63.6213C110.984 64.1243 110.984 64.6523 110.909 65.1804C110.884 65.2306 110.809 65.2558 110.809 65.3061C110.809 65.7084 110.809 66.1359 110.809 66.5382C110.809 66.5885 110.859 66.6136 110.909 66.6639C110.959 67.2423 110.959 67.8206 111.158 68.3989C111.408 69.1533 111.782 69.7819 112.43 70.2094C113.079 70.662 113.827 70.7626 114.575 70.7626C115.224 70.7626 115.847 70.7123 116.496 70.662C117.119 70.6117 117.743 70.5363 118.366 70.486C118.366 70.1843 118.366 69.9077 118.366 69.6311C118.366 69.3042 118.316 69.279 118.017 69.3545C117.768 69.4048 117.493 69.455 117.244 69.455C116.795 69.455 116.321 69.455 115.872 69.455C115.398 69.455 114.899 69.455 114.426 69.455L114.401 69.5053ZM150.316 62.1881C150.391 62.2384 150.466 62.2886 150.54 62.3138C150.915 62.3138 151.264 62.3138 151.638 62.3138C151.638 64.0991 151.638 65.8593 151.638 67.6446C151.638 67.7703 151.688 67.8709 151.688 67.9966C151.738 68.3235 151.763 68.6253 151.812 68.9521C151.937 69.6814 152.236 70.3351 152.96 70.6117C153.259 70.7375 153.608 70.8129 153.932 70.8129C154.706 70.8129 155.504 70.7123 156.302 70.662C156.252 70.2094 156.202 69.8322 156.177 69.4802C155.529 69.5053 154.955 69.5305 154.356 69.5808C153.558 69.6311 153.184 68.9773 153.134 68.2481C153.134 68.1978 153.134 68.1224 153.134 68.0721C153.134 66.2113 153.134 64.3757 153.134 62.515L153.359 62.2886C154.207 62.2886 155.055 62.2886 155.928 62.2886C156.127 62.2886 156.202 62.2384 156.177 62.0372C156.177 61.7103 156.177 61.4086 156.177 61.0817C156.177 61.0817 156.152 61.0565 156.127 61.0314C156.027 61.0314 155.928 61.0314 155.828 61.0314C154.98 61.0314 154.107 61.0314 153.259 61.0314C153.234 60.9559 153.184 60.8805 153.159 60.8051C153.159 59.925 153.159 59.0449 153.159 58.1648C153.109 58.1145 153.084 58.0391 153.035 58.0391C152.635 58.0391 152.261 58.0391 151.862 58.0391C151.812 58.0391 151.763 58.1145 151.738 58.1648V58.2151C151.738 58.2654 151.738 58.2905 151.738 58.3408V58.5169C151.738 58.6174 151.688 58.718 151.688 58.8437C151.688 59.4724 151.688 60.101 151.688 60.7296C151.688 60.8302 151.638 60.9308 151.638 61.0565H150.341V62.2132C150.341 62.2132 150.366 62.2635 150.391 62.2635L150.316 62.1881ZM79.4581 70.6117C79.8322 70.6117 80.2312 70.6117 80.6054 70.6117C80.6802 70.6117 80.755 70.5363 80.8548 70.486C80.8548 70.4106 80.8548 70.3351 80.8548 70.2346C80.8548 69.4802 80.8548 68.7258 80.8548 67.9715C80.8548 66.8399 80.8548 65.7336 80.8548 64.602C80.8548 64.602 80.8548 64.5769 80.8548 64.5517C80.8548 64.4763 80.8049 64.3757 80.7799 64.3003C80.7301 63.8477 80.6802 63.4202 80.6054 62.9676C80.331 61.4337 79.5578 60.9811 78.4105 60.8302C77.3381 60.7045 76.2407 60.8051 75.2181 61.2577C74.8439 61.4086 74.4698 61.5594 74.1207 61.7103C73.7964 61.3583 73.4971 61.0817 73.0482 60.9559C72.3498 60.7548 71.6265 60.7548 70.9531 60.8554C70.3296 60.9559 69.731 61.2577 69.1324 61.484C68.9329 61.5594 68.883 61.5594 68.9079 61.3331C68.9578 61.0062 68.9079 60.9559 68.5588 60.9559C68.2844 60.9559 68.0101 60.9559 67.7108 60.9559C67.5362 60.9559 67.4614 61.0062 67.4614 61.1823C67.4614 64.25 67.4614 67.3177 67.4614 70.3854C67.4614 70.5363 67.5112 70.6117 67.6609 70.6117C68.0101 70.6117 68.3592 70.6117 68.7084 70.6117C68.7832 70.6117 68.8581 70.5112 68.9329 70.4357C68.9329 70.31 68.9828 70.2094 68.9828 70.0837C68.9828 67.6446 68.9828 65.2055 68.9828 62.7664C69.9555 62.1881 71.0279 61.9618 72.1503 62.1126C72.5992 62.1881 73.0232 62.4144 73.1479 62.8921C73.2727 63.3447 73.3475 63.8477 73.4223 64.3003C73.4223 64.3757 73.4472 64.426 73.4722 64.5014C73.4722 64.5517 73.4722 64.5769 73.4722 64.6272C73.4722 66.5382 73.4722 68.4241 73.4722 70.3351C73.4722 70.5363 73.5221 70.6117 73.7216 70.6117C74.0458 70.6117 74.3701 70.6117 74.6694 70.6117C74.8439 70.6117 74.9188 70.5363 74.8938 70.3603C74.8938 70.134 74.8938 69.9077 74.8938 69.6562C74.8938 67.9715 74.8938 66.3119 74.8938 64.6272C74.8938 64.5769 74.8938 64.5014 74.8689 64.4511C74.844 64.3757 74.7691 64.3254 74.7691 64.25C74.7442 63.9482 74.7192 63.6465 74.7192 63.3699C74.7192 63.1687 74.6195 62.8921 74.7192 62.7664C74.8439 62.6155 75.0934 62.5401 75.3178 62.4647C76.2407 62.1378 77.1884 61.8863 78.1861 62.1881C78.4604 62.2635 78.7597 62.4647 78.9094 62.7161C79.2585 63.1939 79.3084 63.7722 79.3334 64.3506C79.3084 64.4511 79.2336 64.5517 79.2336 64.6523C79.2336 64.8283 79.2835 65.0043 79.2835 65.1804C79.2835 66.4628 79.2835 67.7703 79.2835 69.0527C79.2835 69.5053 79.2336 69.958 79.2336 70.4357C79.2336 70.5112 79.3084 70.5614 79.3583 70.6369C79.3583 70.6369 79.4082 70.6369 79.4331 70.6369L79.4581 70.6117ZM167.974 61.0314C167.974 61.132 167.924 61.2325 167.924 61.3331C167.924 64.3003 167.924 67.2674 167.924 70.2346C167.924 70.3351 167.949 70.4357 167.974 70.5363H167.999H168.024C168.473 70.5363 168.947 70.5614 169.396 70.5866C169.396 70.5866 169.421 70.5614 169.446 70.5363C169.446 68.2984 169.446 66.0353 169.446 63.7974C169.446 63.5711 169.496 63.4705 169.72 63.3699C170.668 62.8921 171.666 62.515 172.688 62.2384C172.788 62.2384 172.913 62.0875 172.913 62.012C172.938 61.6852 172.913 61.3331 172.913 60.9811C172.913 60.8051 172.838 60.7548 172.663 60.8051C171.591 61.1068 170.568 61.5091 169.62 62.1126C169.571 62.1378 169.496 62.1378 169.396 62.1881V60.9308C168.922 60.9559 168.473 60.9811 168.024 61.0062C168.024 61.0062 167.999 61.0062 167.974 61.0062V61.0314ZM134.927 61.0314C134.927 61.132 134.877 61.2325 134.877 61.3331C134.877 64.3003 134.877 67.2674 134.877 70.2346C134.877 70.3351 134.902 70.4357 134.927 70.5363H134.952H134.977C135.451 70.5614 135.9 70.5866 136.399 70.6117C136.399 70.486 136.399 70.4106 136.399 70.3351C136.399 68.1475 136.399 65.9599 136.399 63.7722C136.399 63.5459 136.474 63.4202 136.698 63.3196C137.646 62.8418 138.619 62.4647 139.641 62.2132C139.741 62.2132 139.866 62.0623 139.891 61.9869C139.915 61.6349 139.891 61.308 139.891 60.9559C139.891 60.8051 139.841 60.7296 139.641 60.7799C138.569 61.1068 137.521 61.5091 136.548 62.1126C136.499 62.1378 136.424 62.1126 136.349 62.1378V60.9057C135.875 60.9308 135.426 60.9559 134.977 60.9811C134.977 60.9811 134.952 60.9811 134.927 60.9811V61.0314ZM63.371 58.7683C63.3959 58.7683 63.4209 58.7683 63.4708 58.7683C63.8698 58.7683 64.2689 58.7683 64.6679 58.7683C64.7178 58.7432 64.7677 58.718 64.7677 58.6677C64.7677 58.1397 64.7677 57.6116 64.7677 57.0836H63.3461C63.3211 57.1339 63.2712 57.1842 63.2712 57.2093C63.2712 57.6619 63.2712 58.1397 63.2712 58.5923C63.2712 58.6426 63.3211 58.6929 63.3461 58.718L63.371 58.7683ZM63.3211 70.486C63.3959 70.5363 63.4708 70.5866 63.5705 70.6117C63.8948 70.6117 64.219 70.6117 64.5682 70.6117C64.7428 70.6117 64.7927 70.5363 64.7927 70.3603C64.7927 67.2674 64.7927 64.1997 64.7927 61.1068C64.7927 61.0565 64.7927 61.0062 64.7677 60.9559H63.3959C63.371 61.0565 63.3211 61.1571 63.3211 61.2325C63.3211 64.1997 63.3211 67.1668 63.3211 70.134C63.3211 70.2346 63.3211 70.3603 63.3461 70.4609L63.3211 70.486ZM59.0562 56.7315C59.0312 56.8321 58.9814 56.9327 58.9814 57.0081C58.9814 61.3834 58.9814 65.7587 58.9814 70.134C58.9814 70.2346 58.9814 70.3603 59.0063 70.4609C59.0811 70.5112 59.1559 70.5614 59.2557 70.5866C59.5799 70.5866 59.9042 70.5866 60.2534 70.5866C60.4279 70.5866 60.4778 70.5363 60.4778 70.3351C60.4778 65.8341 60.4778 61.3583 60.4778 56.8573C60.4778 56.807 60.4778 56.7567 60.4529 56.7064H59.0811L59.0562 56.7315ZM121.06 56.7315C121.035 56.8321 120.985 56.9327 120.985 57.0081C120.985 61.3583 120.985 65.7335 120.985 70.0837C120.985 70.1843 121.01 70.2848 121.035 70.4106C121.11 70.4609 121.185 70.5866 121.284 70.5866C121.609 70.5866 121.933 70.5866 122.232 70.5866C122.457 70.5866 122.482 70.5112 122.482 70.31C122.482 65.9599 122.482 61.5846 122.482 57.2344C122.482 57.1339 122.482 57.0081 122.482 56.9076C122.482 56.9076 122.482 56.8573 122.482 56.8321C122.407 56.807 122.332 56.7315 122.232 56.7315C121.833 56.7315 121.434 56.7315 121.06 56.7315ZM95.9192 64.6272C95.9192 64.6272 95.9192 64.5769 95.9192 64.5517C95.9941 64.1997 96.044 63.8477 96.1437 63.5208C96.2435 63.0933 96.468 62.7413 96.8421 62.4898C97.316 62.1629 97.8647 62.0875 98.4134 62.0372C98.6877 62.0372 98.9621 62.0372 99.2364 62.0372C99.7851 62.0875 100.334 62.1378 100.907 62.1881V61.0314C100.384 60.9559 99.835 60.8051 99.3112 60.8051C98.5131 60.8051 97.6901 60.8302 96.867 60.9308C96.2934 61.0062 95.7696 61.3331 95.3955 61.7606C94.747 62.4898 94.4976 63.4202 94.4228 64.3254C94.323 65.6078 94.348 66.9154 94.6472 68.1978C94.8468 69.103 95.2957 69.8071 96.0938 70.2848C96.7174 70.662 97.4407 70.7123 98.139 70.7123C98.9371 70.7123 99.7602 70.5866 100.558 70.5363C100.683 70.486 100.907 70.7123 100.957 70.4357V69.3042C100.633 69.3042 100.334 69.3042 100.059 69.3545C99.3362 69.4299 98.6378 69.5305 97.9145 69.4048C97.3658 69.3042 96.867 69.1785 96.5178 68.7258C96.0689 68.1726 95.9691 67.4937 95.9192 66.7896C95.9192 66.7896 95.9192 66.7394 95.9192 66.7142V64.5517V64.6272ZM49.8279 65.4318C49.8279 64.4511 49.8279 63.4705 49.8279 62.4898C49.8279 62.3892 49.8529 62.3138 49.8279 62.2132C49.7781 61.4337 49.9776 60.6793 50.2769 59.9753C50.7009 58.9695 51.4741 58.4917 52.5216 58.4163H54.0929C54.9409 58.4917 55.7639 58.5671 56.6618 58.6677C56.6618 58.3408 56.7117 58.0139 56.7117 57.6871C56.7117 57.6116 56.587 57.4859 56.4872 57.4608C56.3376 57.4105 56.163 57.4105 55.9884 57.3853C55.1654 57.2847 54.3423 57.159 53.5192 57.1087C53.0454 57.0836 52.5715 57.1087 52.0976 57.159C51.3494 57.2596 50.651 57.4356 50.0275 57.8882C49.2792 58.4414 48.8552 59.1958 48.6557 60.0507C48.5061 60.6291 48.4562 61.2325 48.3564 61.836C48.1319 62.1629 48.2567 62.515 48.2567 62.867V63.043C48.2068 63.5962 48.1818 64.1243 48.1818 64.6774C48.1818 64.7529 48.2068 64.8535 48.2317 64.9289C48.2317 64.9792 48.2317 65.0043 48.2317 65.0546C48.2317 65.3815 48.107 65.7335 48.3315 66.0353C48.3564 66.9405 48.5559 67.7955 48.9301 68.6253C49.3291 69.5053 50.0025 70.1591 50.9004 70.4609C51.7484 70.7375 52.6214 70.8632 53.5442 70.7626C54.5169 70.6369 55.4896 70.5866 56.4623 70.5112C56.6618 70.5112 56.7367 70.4357 56.7117 70.2346C56.6868 69.8825 56.6618 69.5556 56.6369 69.1785C56.0632 69.279 55.5395 69.4551 55.0157 69.4802C54.1677 69.5305 53.2948 69.5556 52.4468 69.4802C51.4741 69.4048 50.7009 68.927 50.2769 67.9966C49.9776 67.3428 49.8279 66.6639 49.8279 65.9599C49.8279 65.809 49.8279 65.633 49.8279 65.4821V65.4318ZM157.474 66.4376C157.524 66.7394 157.599 67.0662 157.599 67.368C157.599 68.1475 157.898 68.8516 158.322 69.4802C158.497 69.7316 158.746 69.958 158.995 70.134C159.544 70.5112 160.143 70.662 160.816 70.7375C161.789 70.838 162.737 70.7878 163.659 70.4609C164.333 70.2094 164.807 69.7065 165.156 69.0779C165.655 68.1726 165.58 67.1417 165.705 66.1359C165.755 65.5827 165.605 65.0043 165.63 64.4511C165.63 63.7974 165.455 63.1939 165.206 62.6155C164.682 61.4337 163.684 60.9057 162.462 60.8302C161.689 60.7799 160.916 60.7045 160.168 60.9308C159.694 61.0565 159.22 61.2325 158.846 61.5594C158.098 62.2384 157.773 63.1184 157.649 64.0991C157.624 64.3757 157.574 64.6523 157.524 64.9038C157.524 65.4067 157.524 65.9096 157.524 66.4125L157.474 66.4376ZM148.346 63.3699V63.2945C148.321 61.9366 147.348 60.8554 146.001 60.8302C144.954 60.8302 143.906 60.8805 142.859 60.9559C142.435 60.9811 142.011 61.132 141.587 61.2074C141.587 61.5343 141.587 61.836 141.587 62.1378C141.587 62.1881 141.661 62.2384 141.736 62.2635C141.836 62.2635 141.936 62.2635 142.035 62.2635C142.933 62.1881 143.831 62.0875 144.704 62.0372C145.153 62.0372 145.602 62.0875 146.051 62.1378C146.325 62.1629 146.824 62.7161 146.849 62.9676C146.874 63.4705 146.874 63.9734 146.924 64.5014C146.924 64.7026 146.824 64.7529 146.675 64.778C145.901 64.8535 145.128 64.8786 144.38 64.9792C143.781 65.0546 143.158 65.1804 142.559 65.3312C141.861 65.5324 141.437 66.0353 141.237 66.7142C140.963 67.6949 140.963 68.6504 141.462 69.5808C141.761 70.134 142.235 70.486 142.809 70.6369C143.307 70.7878 143.806 70.7626 144.33 70.7123C145.278 70.6369 146.151 70.3603 147.049 70.0585C147.123 70.0334 147.273 70.0585 147.348 70.1088C147.822 70.3854 148.246 70.7375 148.844 70.6872C148.919 70.6872 148.994 70.7375 149.069 70.7626C149.243 70.7878 149.493 70.8883 149.518 70.6117C149.568 70.2848 149.518 69.9328 149.518 69.6059C148.745 69.5305 148.445 69.1785 148.445 68.4241C148.445 67.0662 148.445 65.7335 148.445 64.3757C148.445 64.0237 148.445 63.6465 148.445 63.2945L148.346 63.3699ZM90.6567 67.2423C90.7315 67.5189 90.8312 67.7955 90.9061 68.0469C91.1056 68.8264 91.3051 69.6059 91.5296 70.3603C91.5296 70.4609 91.6543 70.5866 91.7291 70.5866C92.1781 70.5866 92.627 70.5866 93.1009 70.5866C92.9014 69.958 92.7268 69.3796 92.5771 68.8013C92.2778 67.6949 91.9536 66.5885 91.6543 65.4821C91.38 64.4511 91.1056 63.395 90.8312 62.3641C90.6317 61.6349 90.4072 60.9057 90.2077 60.1764C89.9583 59.2712 89.7338 58.366 89.5094 57.4608C89.5094 57.3602 89.3847 57.3099 89.3098 57.2344H89.235C88.3122 57.2344 87.3894 57.2344 86.4915 57.2344C86.292 57.2344 86.1672 57.2847 86.1174 57.511C85.9677 58.19 85.7682 58.8437 85.5936 59.4975C85.2943 60.5536 84.995 61.5846 84.7207 62.6407C84.4712 63.5962 84.2218 64.5517 83.9724 65.4821C83.723 66.3873 83.4736 67.3177 83.2242 68.2229C83.0247 68.9773 82.8002 69.7316 82.5757 70.5614C82.9748 70.5614 83.3738 70.5614 83.7729 70.5614C83.9974 70.5614 84.0971 70.486 84.147 70.2848C84.3964 69.279 84.6957 68.2732 84.9451 67.2674C84.9451 67.2171 84.995 67.192 85.0449 67.1668C85.1197 67.1668 85.2195 67.1417 85.2943 67.1165C86.4665 67.1165 87.6388 67.1165 88.811 67.1165C89.3847 67.1165 89.9832 67.1165 90.5569 67.1165C90.5818 67.1417 90.6317 67.1668 90.6567 67.2171V67.2423Z" fill="#212121"/>
<path d="M182.315 80.5693C182.315 80.4435 182.315 80.3178 182.315 80.2172C182.315 69.7316 182.315 59.2461 182.315 48.7353C182.315 48.6348 182.315 48.5342 182.315 48.4336C185.159 48.4336 188.002 48.4336 190.845 48.4336C190.895 48.4336 190.92 48.4336 190.995 48.4336V48.7605C190.995 59.2461 190.995 69.7316 190.995 80.1921C190.995 80.4938 190.92 80.5693 190.621 80.5693C187.977 80.5693 185.308 80.5693 182.665 80.5693C182.54 80.5693 182.415 80.5693 182.315 80.5693Z" fill="#97999C"/>
<path d="M38.4308 48.4336C38.4308 48.4336 38.4054 48.4587 38.3799 48.4839C38.3799 48.4839 38.4054 48.4587 38.4308 48.4336Z" fill="#212121"/>
<path d="M74.9687 64.6789C74.9687 66.3637 74.9687 68.0233 74.9687 69.708C74.9687 69.9343 74.9687 70.1606 74.9687 70.4121C74.9687 70.5881 74.9188 70.6635 74.7442 70.6635C74.42 70.6635 74.0957 70.6635 73.7964 70.6635C73.5969 70.6635 73.547 70.5881 73.547 70.3869C73.547 68.4759 73.547 66.59 73.547 64.6789C73.547 64.6286 73.547 64.6035 73.547 64.5532C73.547 64.4778 73.5221 64.4275 73.4971 64.352C73.3974 63.8743 73.3475 63.3965 73.2228 62.9439C73.0731 62.4661 72.6741 62.2147 72.2251 62.1644C71.1028 62.0135 70.0553 62.2147 69.0576 62.8182C69.0576 62.8936 68.9828 62.9691 68.9828 63.0445C68.9828 65.4081 68.9828 67.7718 68.9828 70.1606C68.9828 70.2612 68.9828 70.3869 69.0077 70.4875C68.9329 70.5378 68.8581 70.6635 68.7833 70.6635C68.4341 70.6635 68.0849 70.6635 67.7357 70.6635C67.5861 70.6635 67.5362 70.5881 67.5362 70.4372C67.5362 67.3695 67.5362 64.3018 67.5362 61.234C67.5362 61.0329 67.611 60.9826 67.7856 61.0077C68.06 61.0077 68.3343 61.0077 68.6336 61.0077C68.9578 61.0077 69.0327 61.058 68.9828 61.3849C68.9578 61.6364 68.9828 61.6364 69.2073 61.5358C69.8058 61.3095 70.4044 60.9826 71.028 60.9071C71.7014 60.8066 72.4247 60.8066 73.123 61.0077C73.572 61.1334 73.8713 61.41 74.1955 61.7621C74.5696 61.6112 74.9437 61.4603 75.2929 61.3095C76.3155 60.8568 77.388 60.7563 78.4854 60.882C79.6327 61.0329 80.4058 61.4855 80.6802 63.0193C80.755 63.4468 80.8049 63.8994 80.8548 64.352C80.8548 64.4275 80.9047 64.5281 80.9296 64.6035V64.6538C80.9296 65.7853 80.9296 66.8917 80.9296 68.0233C80.9296 68.7776 80.9296 69.532 80.9296 70.2863C80.9296 70.3618 80.9296 70.4372 80.9296 70.5378C80.8548 70.5881 80.78 70.6635 80.6802 70.6635C80.3061 70.6635 79.907 70.6635 79.5329 70.6635C79.5329 70.6635 79.5329 70.6384 79.508 70.6132C79.508 70.5126 79.508 70.4121 79.508 70.3115C79.508 68.4507 79.508 66.59 79.508 64.7292C79.508 64.6035 79.483 64.5029 79.4581 64.3772C79.4581 63.7988 79.3833 63.2205 79.0341 62.7427C78.8595 62.5164 78.5851 62.3153 78.3108 62.2147C77.3381 61.9129 76.3654 62.1644 75.4425 62.4913C75.2181 62.5667 74.9687 62.6422 74.844 62.793C74.7442 62.9188 74.844 63.1954 74.844 63.3965C74.844 63.6983 74.8689 64 74.8938 64.2766C74.8938 64.352 74.9687 64.4023 74.9936 64.4778C74.9936 64.5281 74.9936 64.6035 75.0185 64.6538L74.9687 64.6789Z" fill="#EFEFEF"/>
<path d="M89.3094 57.2852C89.3842 57.3606 89.484 57.436 89.5089 57.5115C89.7583 58.4167 89.9828 59.3219 90.2073 60.2272C90.4068 60.9564 90.6313 61.6856 90.8308 62.4148C91.1051 63.4458 91.3795 64.5019 91.6538 65.5328C91.9531 66.6392 92.2524 67.7456 92.5767 68.852C92.7513 69.4303 92.9258 70.0087 93.1004 70.6373C92.6266 70.6373 92.1776 70.6373 91.7287 70.6373C91.6538 70.6373 91.5541 70.5116 91.5291 70.411C91.3047 69.6315 91.1051 68.852 90.9056 68.0976C90.8308 67.821 90.756 67.5444 90.6562 67.293C90.6313 67.2678 90.5814 67.2427 90.5564 67.1924C89.9828 67.1924 89.3842 67.1924 88.8106 67.1924C87.6383 67.1924 86.4661 67.1924 85.2938 67.1924C85.219 67.1924 85.1193 67.2175 85.0444 67.2427C85.0195 67.2678 84.9696 67.293 84.9447 67.3433C84.6703 68.3491 84.396 69.3549 84.1466 70.3607C84.0967 70.587 83.9969 70.6624 83.7724 70.6373C83.3734 70.6373 82.9743 70.6373 82.5753 70.6373C82.7997 69.8075 83.0242 69.0531 83.2237 68.2988C83.4731 67.3936 83.7226 66.4883 83.972 65.558C84.2214 64.6024 84.4708 63.6469 84.7202 62.7165C84.9946 61.6604 85.2938 60.6295 85.5931 59.5734C85.7677 58.9196 85.9673 58.2407 86.1169 57.5869C86.1668 57.3606 86.2666 57.3103 86.491 57.3103C87.4138 57.3103 88.3367 57.3103 89.2346 57.3103C89.2346 57.3103 89.2844 57.3103 89.3094 57.3103V57.2852ZM90.307 65.734C90.1823 65.2814 90.0327 64.8539 89.908 64.4013C89.6087 63.3452 89.3343 62.2891 89.06 61.2078C88.9103 60.6798 88.7607 60.1517 88.6609 59.6237C88.4364 58.5676 88.4364 58.5173 87.5635 58.5424C87.5136 58.5424 87.4637 58.5424 87.4138 58.5424C87.364 58.5424 87.3141 58.6179 87.2891 58.6681C87.1146 59.3722 86.94 60.0763 86.7404 60.7803C86.491 61.7359 86.2167 62.7165 85.9673 63.6721C85.7927 64.351 85.5931 65.055 85.3936 65.734C85.2689 65.9351 85.4435 65.91 85.5433 65.91C87.0896 65.91 88.611 65.91 90.1574 65.91C90.307 65.91 90.3818 65.8597 90.307 65.7088V65.734Z" fill="#EFEFEF"/>
<path d="M148.371 63.395C148.371 63.747 148.371 64.1242 148.371 64.4762C148.371 65.834 148.371 67.1667 148.371 68.5246C148.371 69.2789 148.67 69.6058 149.443 69.7064C149.443 70.0333 149.468 70.3853 149.443 70.7122C149.418 70.9888 149.169 70.8882 148.994 70.8631C148.919 70.8631 148.844 70.7877 148.77 70.7877C148.171 70.838 147.747 70.4859 147.273 70.2093C147.198 70.159 147.049 70.1339 146.974 70.159C146.076 70.4608 145.203 70.7122 144.255 70.8128C143.731 70.8631 143.233 70.8631 142.734 70.7374C142.16 70.5614 141.686 70.2345 141.387 69.6813C140.888 68.7509 140.888 67.7954 141.163 66.8147C141.362 66.1358 141.811 65.6329 142.484 65.4317C143.083 65.2557 143.682 65.1551 144.305 65.0797C145.078 64.9791 145.827 64.9288 146.6 64.8785C146.774 64.8785 146.874 64.8031 146.849 64.6019C146.824 64.099 146.824 63.5961 146.774 63.0681C146.774 62.7915 146.275 62.2634 145.976 62.2383C145.527 62.188 145.078 62.1125 144.629 62.1377C143.731 62.188 142.834 62.2886 141.961 62.364C141.861 62.364 141.761 62.364 141.661 62.364C141.611 62.364 141.512 62.2886 141.512 62.2383C141.512 61.9365 141.512 61.6348 141.512 61.3079C141.936 61.2325 142.36 61.0816 142.784 61.0564C143.831 60.981 144.879 60.9056 145.926 60.9307C147.273 60.9559 148.246 62.0371 148.246 63.395C148.246 63.395 148.246 63.4452 148.271 63.4704L148.371 63.395ZM146.899 65.9095C146.525 65.9095 146.151 65.9095 145.777 65.9346C145.153 65.9849 144.555 66.1106 143.931 66.1358C143.332 66.1609 142.684 66.6387 142.584 67.2422C142.534 67.5691 142.484 67.896 142.534 68.2228C142.584 68.8766 142.983 69.6561 143.981 69.6058C144.43 69.6058 144.879 69.5555 145.303 69.455C145.827 69.3292 146.35 69.1532 146.874 69.0024C146.874 68.9521 146.949 68.9018 146.949 68.8515C146.949 67.9211 146.949 66.9907 146.949 66.0604C146.949 66.0101 146.924 65.9598 146.899 65.9095Z" fill="#EFEFEF"/>
<path d="M132.109 69.3557C132.184 69.3557 132.259 69.3557 132.333 69.3557C132.333 69.7329 132.358 70.11 132.383 70.4872C131.909 70.5627 131.411 70.6381 130.937 70.6632C130.163 70.7135 129.365 70.789 128.592 70.789C127.669 70.789 126.771 70.613 126.098 69.934C125.774 69.6071 125.524 69.1797 125.325 68.7522C125.051 68.1487 124.976 67.5201 124.951 66.8663C124.951 66.5143 124.826 66.1622 124.851 65.8102C124.901 65.1564 125.026 64.5026 125.125 63.8489C125.2 63.1699 125.524 62.5916 125.923 62.0636C126.522 61.2841 127.345 60.932 128.293 60.8817C128.692 60.8817 129.116 60.8314 129.515 60.8817C130.962 61.0075 132.159 61.7367 132.483 63.4717C132.608 64.1003 132.658 64.7541 132.732 65.3827C132.757 65.7096 132.683 66.0365 132.658 66.3634C132.658 66.3634 132.633 66.3885 132.608 66.4137C130.587 66.4137 128.542 66.4137 126.522 66.4137C126.472 66.4137 126.447 66.4137 126.397 66.4137C126.347 66.5394 126.273 66.6651 126.298 66.7909C126.323 67.0675 126.422 67.3441 126.472 67.6458C126.647 68.7773 127.32 69.406 128.418 69.5066C128.916 69.5066 129.44 69.5066 129.939 69.5066C130.513 69.5066 131.061 69.5066 131.635 69.5066C131.735 69.5066 131.81 69.4814 131.909 69.4563C131.909 69.4563 131.959 69.4311 131.984 69.406C132.009 69.406 132.059 69.406 132.084 69.3808L132.109 69.3557ZM126.347 65.2067C126.397 65.2067 126.472 65.257 126.522 65.257C128.043 65.257 129.565 65.257 131.061 65.257C131.111 65.257 131.186 65.257 131.236 65.257C131.386 65.081 131.386 64.7038 131.236 64.5278C131.161 64.1003 131.086 63.6729 130.987 63.2705C130.787 62.5413 130.014 61.9881 129.266 62.0636C128.991 62.0887 128.717 62.0636 128.467 62.0636C127.769 62.0636 127.22 62.3653 126.846 62.9688C126.422 63.6226 126.323 64.3769 126.273 65.1564C126.273 65.1564 126.298 65.2067 126.323 65.2067H126.347Z" fill="#EFEFEF"/>
<path d="M118.591 66.3887C117.668 66.3887 116.77 66.3887 115.847 66.3887C114.75 66.3887 113.652 66.3887 112.555 66.3887C112.281 66.3887 112.206 66.4641 112.256 66.7407C112.306 67.0676 112.38 67.4196 112.43 67.7465C112.505 68.5512 113.278 69.3558 114.051 69.4312C114.176 69.4312 114.301 69.4815 114.401 69.5067C114.875 69.5067 115.373 69.5067 115.847 69.5067C116.296 69.5067 116.77 69.5067 117.219 69.5067C117.493 69.5067 117.743 69.4564 117.992 69.4061C118.292 69.3558 118.341 69.3809 118.341 69.6827C118.341 69.9593 118.341 70.2107 118.341 70.5376C117.718 70.5879 117.094 70.6634 116.471 70.7136C115.822 70.7639 115.199 70.8394 114.55 70.8142C113.802 70.8142 113.054 70.6885 112.405 70.261C111.757 69.8084 111.383 69.1798 111.133 68.4506C110.934 67.8722 110.959 67.2939 110.884 66.7155C110.884 66.2126 110.884 65.7097 110.884 65.2068C110.959 64.6788 110.959 64.1507 111.108 63.6478C111.483 62.3654 112.181 61.3847 113.528 61.0076C114.251 60.8064 114.974 60.8315 115.698 60.907C116.87 61.0327 117.818 61.5859 118.242 62.7677C118.416 63.2204 118.516 63.673 118.566 64.1507C118.616 64.8799 118.591 65.6343 118.616 66.3635C118.616 66.3635 118.591 66.3887 118.566 66.4138L118.591 66.3887ZM112.555 65.2571C114.076 65.2571 115.598 65.2571 117.094 65.2571C117.144 65.2571 117.194 65.232 117.219 65.2068C117.219 64.7542 117.219 64.2765 117.144 63.8238C116.995 63.0192 116.645 62.3403 115.797 62.114C115.398 62.0134 114.974 61.9631 114.575 61.9882C113.652 62.0637 112.929 62.466 112.63 63.3964C112.455 63.8993 112.405 64.4525 112.306 65.0057C112.306 65.0057 112.306 65.056 112.306 65.0811C112.306 65.1314 112.356 65.1817 112.356 65.2068C112.43 65.2068 112.48 65.2068 112.555 65.232V65.2571Z" fill="#EFEFEF"/>
<path d="M157.499 64.9808C157.549 64.7042 157.574 64.4276 157.624 64.1762C157.748 63.1955 158.073 62.3154 158.821 61.6365C159.195 61.2845 159.669 61.1336 160.143 61.0079C160.916 60.7816 161.689 60.8821 162.437 60.9073C163.659 60.9827 164.657 61.5108 165.181 62.6926C165.43 63.2709 165.605 63.8744 165.605 64.5282C165.605 65.0814 165.755 65.6597 165.68 66.2129C165.58 67.1936 165.63 68.2246 165.131 69.1549C164.782 69.7836 164.308 70.2865 163.635 70.5379C162.712 70.8648 161.764 70.9151 160.791 70.8145C160.143 70.7391 159.519 70.6134 158.971 70.211C158.721 70.035 158.472 69.8087 158.297 69.5573C157.873 68.9286 157.599 68.2246 157.574 67.4451C157.574 67.1433 157.499 66.8164 157.449 66.5147C157.449 66.0118 157.449 65.5089 157.449 65.006L157.499 64.9808ZM164.158 64.6539C164.133 64.4276 164.133 64.2013 164.083 63.975C163.859 62.8686 163.51 62.3657 162.537 62.1897C161.939 62.064 161.265 62.1143 160.667 62.1897C160.093 62.2651 159.644 62.6172 159.37 63.1704C159.145 63.6481 159.02 64.151 159.045 64.6791L158.995 65.0563C158.995 65.6095 158.995 66.1375 158.995 66.6907C158.995 66.7913 159.02 66.8919 159.045 66.9924C159.045 67.2439 159.045 67.4954 159.12 67.7468C159.27 68.4257 159.519 69.0544 160.218 69.3561C161.091 69.7333 161.988 69.683 162.861 69.4064C163.41 69.2304 163.784 68.8029 163.959 68.2497C164.083 67.8474 164.108 67.4199 164.183 66.9924C164.183 66.6404 164.233 66.2884 164.233 65.9112C164.233 65.4837 164.208 65.0814 164.183 64.6539H164.158Z" fill="#EFEFEF"/>
<path d="M48.3816 61.8849C48.4814 61.2814 48.5313 60.6779 48.6809 60.0995C48.9054 59.2195 49.3294 58.4651 50.0527 57.9371C50.6762 57.4844 51.3995 57.2833 52.1228 57.2078C52.5967 57.1575 53.0705 57.1073 53.5444 57.1575C54.3675 57.2078 55.1905 57.3336 56.0136 57.4341C56.1882 57.4341 56.3628 57.4341 56.5124 57.5096C56.6122 57.5347 56.7369 57.6605 56.7369 57.7359C56.7369 58.0628 56.712 58.3897 56.687 58.7166C55.7891 58.6411 54.9661 58.5405 54.1181 58.4651C53.8188 58.4651 53.5195 58.4148 53.2202 58.4148C52.9957 58.4148 52.7713 58.44 52.5468 58.4651C51.4993 58.5657 50.7261 59.0183 50.3021 60.0241C50.0028 60.7533 49.8033 61.4825 49.8531 62.262C49.8531 62.3626 49.8531 62.4381 49.8531 62.5386C49.8531 63.5193 49.8531 64.5 49.8531 65.4806C49.8531 65.6315 49.8531 65.8075 49.8531 65.9584C49.8531 66.6625 50.0277 67.3414 50.3021 67.9952C50.7261 68.9507 51.4993 69.4033 52.472 69.4787C53.32 69.5542 54.1929 69.529 55.0409 69.4787C55.5647 69.4536 56.0884 69.2776 56.6621 69.177C56.6621 69.5542 56.712 69.9062 56.7369 70.2331C56.7369 70.4343 56.6621 70.4846 56.4875 70.5097C55.5148 70.5851 54.5421 70.6354 53.5694 70.7611C52.6465 70.8869 51.7736 70.7611 50.9256 70.4594C50.0527 70.1577 49.3543 69.5039 48.9553 68.6238C48.5811 67.794 48.3816 66.9391 48.3567 66.0338C48.3567 65.8075 48.3567 65.5812 48.3567 65.3549C48.3567 65.2543 48.3068 65.1537 48.2569 65.0783C48.2569 65.028 48.2569 65.0029 48.2569 64.9526C48.2569 64.324 48.2569 63.6953 48.2569 63.0918C48.2569 63.0415 48.2569 62.9661 48.2818 62.9158C48.3068 62.8404 48.3816 62.7398 48.3816 62.6644C48.3816 62.4129 48.3816 62.1363 48.3816 61.8849Z" fill="#EFEFEF"/>
<path d="M153.259 60.9794C154.107 60.9794 154.98 60.9794 155.828 60.9794C155.928 60.9794 156.028 60.9794 156.127 60.9794C156.127 60.9794 156.152 61.0045 156.177 61.0296C156.177 61.3565 156.177 61.6583 156.177 61.9852C156.177 62.1863 156.127 62.2366 155.928 62.2366C155.08 62.2366 154.232 62.2366 153.359 62.2366C153.134 62.1863 153.06 62.2366 153.134 62.4629C153.134 64.3237 153.134 66.1593 153.134 68.02C153.134 68.0703 153.134 68.1458 153.134 68.196C153.184 68.9253 153.533 69.579 154.356 69.5287C154.955 69.4785 155.529 69.4785 156.177 69.4282C156.227 69.7802 156.252 70.1574 156.302 70.61C155.504 70.6603 154.706 70.7357 153.932 70.7609C153.608 70.7609 153.259 70.6854 152.96 70.5597C152.236 70.258 151.937 69.6293 151.812 68.9001C151.763 68.5732 151.738 68.2715 151.688 67.9446C151.688 66.0587 151.688 64.1477 151.688 62.2618C151.588 62.2366 151.513 62.1612 151.413 62.1612C151.039 62.1612 150.665 62.1612 150.291 62.1612C150.291 62.1612 150.266 62.1109 150.241 62.1109V60.9542C150.69 60.9542 151.114 60.9542 151.538 60.9542C151.588 60.9039 151.663 60.8536 151.663 60.8033C151.663 59.9987 151.663 59.2192 151.663 58.4145C151.663 58.3642 151.663 58.2888 151.663 58.2385C151.663 58.1882 151.663 58.1631 151.663 58.1128V58.0625C152.137 58.0625 152.611 58.0625 153.109 58.0625C153.109 58.9426 153.109 59.8227 153.109 60.7028C153.084 60.8033 153.035 60.9291 153.209 60.9291L153.259 60.9794Z" fill="#EFEFEF"/>
<path d="M109.188 69.4283C109.188 69.4786 109.188 69.554 109.188 69.6043C109.188 69.8558 109.188 70.1324 109.188 70.3838C109.188 70.5347 109.138 70.585 108.988 70.585C108.889 70.585 108.789 70.6101 108.689 70.6353C107.916 70.6856 107.168 70.7861 106.395 70.8113C105.721 70.8113 105.023 70.7359 104.399 70.4341C103.751 70.1324 103.277 69.5792 103.027 68.8751C102.753 68.1207 102.628 67.3412 102.653 66.5366C102.653 66.3103 102.653 66.084 102.653 65.8577C102.653 65.5559 102.628 65.2793 102.603 64.9776C102.653 63.8963 102.828 62.8402 103.526 61.9602C103.925 61.4321 104.499 61.1555 105.123 61.0046C105.896 60.8035 106.719 60.9041 107.492 60.9041C107.941 60.9041 108.415 61.0046 108.864 61.0801C109.038 61.1052 109.213 61.1555 109.163 61.4321C109.113 61.6584 109.138 61.9099 109.088 62.1362C109.088 62.1865 108.963 62.2619 108.889 62.2619C108.714 62.2619 108.539 62.2368 108.365 62.2116C107.791 62.1613 107.218 62.0859 106.619 62.111C106.195 62.111 105.771 62.2116 105.372 62.3373C104.624 62.5888 104.275 63.2426 104.2 63.9718C104.1 64.8267 104.05 65.7068 104.075 66.5617C104.075 67.0898 104.175 67.643 104.349 68.171C104.599 69.0008 105.247 69.4283 106.07 69.4786C106.943 69.5289 107.791 69.4786 108.664 69.4786C108.714 69.4786 108.739 69.4283 108.789 69.4283C108.814 69.4283 108.839 69.4283 108.864 69.4032C108.963 69.4032 109.063 69.4283 109.138 69.4534L109.188 69.4283Z" fill="#EFEFEF"/>
<path d="M100.558 70.6101C99.7599 70.6856 98.9368 70.7861 98.1387 70.7861C97.4404 70.7861 96.7171 70.7359 96.0935 70.3587C95.2954 69.8809 94.8465 69.1769 94.6469 68.2716C94.3726 66.9892 94.3227 65.6817 94.4225 64.3992C94.4973 63.4689 94.7467 62.5636 95.3952 61.8344C95.7942 61.3818 96.2931 61.0801 96.8667 61.0046C97.6648 60.9041 98.4879 60.8789 99.3109 60.8789C99.8596 60.8789 100.383 61.0298 100.907 61.1052V62.2619C100.334 62.2116 99.7848 62.1362 99.2361 62.111C98.9618 62.111 98.6874 62.0607 98.4131 62.111C97.8644 62.1613 97.3156 62.2368 96.8418 62.5636C96.4676 62.8151 96.2432 63.1671 96.1434 63.5946C96.0686 63.9466 95.9938 64.2735 95.9189 64.6256C95.9189 64.6256 95.9189 64.6758 95.9189 64.701C95.9189 65.4302 95.9189 66.1343 95.9189 66.8635C95.9189 66.8635 95.9189 66.9138 95.9189 66.9389C95.9688 67.643 96.0686 68.3219 96.5175 68.8751C96.8667 69.3026 97.3905 69.4534 97.9142 69.554C98.6375 69.6798 99.3359 69.554 100.059 69.5037C100.334 69.4786 100.633 69.4786 100.957 69.4534V70.585C100.832 70.6101 100.683 70.6604 100.558 70.6856V70.6101Z" fill="#EFEFEF"/>
<path d="M122.482 56.9316C122.482 57.0322 122.482 57.1579 122.482 57.2585C122.482 61.6087 122.482 65.9839 122.482 70.3341C122.482 70.5352 122.432 70.6358 122.232 70.6107C121.908 70.6107 121.584 70.6107 121.284 70.6107C121.21 70.6107 121.135 70.5101 121.035 70.4346C121.035 70.3341 121.06 70.2586 121.06 70.1581C121.06 65.7828 121.06 61.4326 121.06 57.0574C121.06 56.9568 121.06 56.831 121.06 56.7305C121.459 56.7305 121.858 56.7305 122.232 56.7305C122.307 56.7305 122.382 56.8059 122.482 56.8311C122.482 56.8311 122.482 56.8813 122.482 56.9065V56.9316Z" fill="#EFEFEF"/>
<path d="M59.0562 56.7812H60.4279C60.4279 56.8315 60.4529 56.8818 60.4529 56.9321C60.4529 61.4331 60.4529 65.909 60.4529 70.41C60.4529 70.586 60.403 70.6614 60.2284 70.6614C59.9042 70.6614 59.5799 70.6614 59.2308 70.6614C59.1559 70.6614 59.0811 70.586 58.9814 70.5357C58.9814 70.4351 59.0063 70.3094 59.0063 70.2088C59.0063 65.9341 59.0063 61.6343 59.0063 57.3596C59.0063 57.1584 59.0063 56.9824 59.0063 56.7812H59.0562Z" fill="#EFEFEF"/>
<path d="M134.978 61.0321C135.427 61.007 135.875 60.9819 136.349 60.9567V62.1888C136.449 62.1888 136.524 62.1888 136.549 62.1637C137.497 61.5351 138.544 61.1579 139.642 60.831C139.841 60.7807 139.891 60.831 139.891 61.007C139.891 61.359 139.891 61.6859 139.891 62.038C139.891 62.1134 139.741 62.2391 139.642 62.2643C138.619 62.5157 137.621 62.8929 136.699 63.3707C136.499 63.4712 136.399 63.597 136.399 63.8233C136.399 66.0109 136.399 68.1986 136.399 70.3862C136.399 70.4616 136.399 70.5119 136.399 70.6628C135.925 70.6376 135.451 70.6125 134.978 70.5874C134.978 70.5119 134.978 70.4365 134.978 70.3359C134.978 67.4693 134.978 64.6028 134.978 61.7362C134.978 61.5099 134.978 61.2836 134.978 61.0573V61.0321Z" fill="#EFEFEF"/>
<path d="M169.396 70.6359C168.947 70.6359 168.473 70.6108 168.024 70.5856C168.024 70.4851 168.024 70.4096 168.024 70.309C168.024 67.4928 168.024 64.6765 168.024 61.8602C168.024 61.5836 168.024 61.307 168.024 61.0556C168.473 61.0304 168.922 61.0053 169.396 60.9801V62.2374C169.496 62.2123 169.571 62.2123 169.621 62.162C170.568 61.5585 171.591 61.1562 172.664 60.8544C172.838 60.8041 172.913 60.8544 172.913 61.0304C172.913 61.3825 172.913 61.7094 172.913 62.0614C172.913 62.1368 172.763 62.2626 172.688 62.2877C171.641 62.5392 170.668 62.9163 169.72 63.4192C169.521 63.5198 169.446 63.6455 169.446 63.8467C169.446 66.0846 169.446 68.3477 169.446 70.5856C169.446 70.5856 169.421 70.6108 169.396 70.6359Z" fill="#EFEFEF"/>
<path d="M63.371 61.0078H64.7428C64.7428 61.0581 64.7677 61.1084 64.7677 61.1587C64.7677 64.2516 64.7677 67.3193 64.7677 70.4121C64.7677 70.5882 64.7178 70.6636 64.5432 70.6636C64.219 70.6636 63.8948 70.6636 63.5456 70.6636C63.4708 70.6636 63.3959 70.5882 63.2962 70.5379C63.2962 70.4373 63.3211 70.3116 63.3211 70.211C63.3211 67.3444 63.3211 64.4779 63.3211 61.6113C63.3211 61.4101 63.3211 61.209 63.3211 61.0078H63.371Z" fill="#EFEFEF"/>
<path d="M63.371 57.1328H64.7927C64.7927 57.6609 64.7927 58.1889 64.7927 58.717C64.7927 58.7421 64.7178 58.7673 64.6929 58.8175C64.2938 58.8175 63.8948 58.8175 63.4957 58.8175C63.4708 58.8175 63.4458 58.8175 63.3959 58.8175C63.3959 58.2644 63.3959 57.7112 63.3959 57.158L63.371 57.1328Z" fill="#EFEFEF"/>
<path d="M59.0558 56.7812C59.0558 56.9824 59.0558 57.1584 59.0558 57.3596C59.0558 61.6343 59.0558 65.9341 59.0558 70.2088C59.0558 70.3094 59.0558 70.4351 59.0309 70.5357C59.0309 70.4351 59.0059 70.3094 59.0059 70.2088C59.0059 65.8336 59.0059 61.4583 59.0059 57.083C59.0059 56.9824 59.0558 56.8818 59.0807 56.8064L59.0558 56.7812Z" fill="#212121"/>
<path d="M121.06 56.7812C121.06 56.8818 121.06 57.0076 121.06 57.1081C121.06 61.4834 121.06 65.8336 121.06 70.2088C121.06 70.3094 121.06 70.3848 121.035 70.4854C121.035 70.3848 120.985 70.2843 120.985 70.1585C120.985 65.8084 120.985 61.4331 120.985 57.083C120.985 56.9824 121.035 56.8818 121.06 56.8064V56.7812Z" fill="#212121"/>
<path d="M63.371 61.0078C63.371 61.209 63.371 61.4101 63.371 61.6113C63.371 64.4779 63.371 67.3444 63.371 70.211C63.371 70.3116 63.371 70.4373 63.3461 70.5379C63.3461 70.4373 63.3211 70.3116 63.3211 70.211C63.3211 67.2438 63.3211 64.2767 63.3211 61.3096C63.3211 61.209 63.371 61.1084 63.396 61.033L63.371 61.0078Z" fill="#212121"/>
<path d="M134.928 70.5869C134.928 70.4864 134.877 70.3858 134.877 70.2852C134.877 67.3181 134.877 64.3509 134.877 61.3838C134.877 61.2832 134.902 61.1826 134.928 61.082C134.928 64.2503 134.928 67.4438 134.928 70.6121V70.5869Z" fill="#212121"/>
<path d="M134.927 70.5847C134.927 67.4164 134.927 64.223 134.927 61.0547C134.927 61.0547 134.952 61.0547 134.978 61.0547C134.978 61.281 134.978 61.5073 134.978 61.7336C134.978 64.6002 134.978 67.4667 134.978 70.3333C134.978 70.4087 134.978 70.4842 134.978 70.5847H134.952H134.927Z" fill="#212121"/>
<path d="M167.976 70.5869C167.976 70.4864 167.925 70.3858 167.925 70.2852C167.925 67.3181 167.925 64.3509 167.925 61.3838C167.925 61.2832 167.95 61.1826 167.976 61.082C167.976 64.2503 167.976 67.4438 167.976 70.6121V70.5869Z" fill="#212121"/>
<path d="M167.975 70.5847C167.975 67.4164 167.975 64.223 167.975 61.0547C167.975 61.0547 168 61.0547 168.026 61.0547C168.026 61.3313 168.026 61.6079 168.026 61.8593C168.026 64.6756 168.026 67.4919 168.026 70.3082C168.026 70.4087 168.026 70.4842 168.026 70.5847H168H167.975Z" fill="#212121"/>
<path d="M68.9828 70.4623C68.9828 70.3617 68.9578 70.236 68.9578 70.1354C68.9578 67.7717 68.9578 65.4081 68.9578 63.0193C68.9578 62.9438 69.0077 62.8684 69.0326 62.793C69.0326 65.2321 69.0326 67.6712 69.0326 70.1102C69.0326 70.236 69.0077 70.3366 68.9828 70.4623Z" fill="#212121"/>
<path d="M79.3836 70.6379C79.3337 70.5624 79.2589 70.5122 79.2589 70.4367C79.2589 69.9841 79.3087 69.5315 79.3087 69.0537C79.3087 67.7713 79.3087 66.4638 79.3087 65.1814C79.3087 65.0053 79.2589 64.8293 79.2589 64.6533C79.2589 64.5527 79.3337 64.4521 79.3586 64.3516C79.3586 66.4386 79.3586 68.5257 79.3586 70.6379H79.3836Z" fill="#212121"/>
<path d="M79.3832 70.6379C79.3832 68.5508 79.3832 66.4638 79.3832 64.3516C79.3832 64.4773 79.4331 64.5779 79.4331 64.7036C79.4331 66.5643 79.4331 68.4251 79.4331 70.2859C79.4331 70.3864 79.4331 70.487 79.4331 70.5876C79.4331 70.5876 79.4331 70.6127 79.4331 70.6379C79.4331 70.6379 79.3832 70.6379 79.3583 70.6379H79.3832Z" fill="#212121"/>
<path d="M151.688 62.2891C151.688 64.175 151.688 66.086 151.688 67.9719C151.688 67.8462 151.638 67.7456 151.638 67.6199C151.638 65.8345 151.638 64.0744 151.638 62.2891C151.638 62.2891 151.688 62.2891 151.713 62.2891H151.688Z" fill="#212121"/>
<path d="M102.603 64.9783C102.603 65.28 102.653 65.5566 102.653 65.8584C102.653 66.0847 102.653 66.311 102.653 66.5373C102.603 66.4367 102.554 66.311 102.554 66.2104C102.554 65.8584 102.554 65.5063 102.554 65.1543C102.554 65.0789 102.603 65.0286 102.628 64.9531L102.603 64.9783Z" fill="#EFEFEF"/>
<path d="M153.134 58.0906C152.66 58.0906 152.187 58.0906 151.688 58.0906C151.738 58.0403 151.787 57.9648 151.812 57.9648C152.211 57.9648 152.586 57.9648 152.985 57.9648C153.035 57.9648 153.084 58.0403 153.109 58.0906H153.134Z" fill="#212121"/>
<path d="M110.908 65.1797C110.908 65.6826 110.908 66.1855 110.908 66.6884C110.883 66.6381 110.809 66.613 110.809 66.5627C110.809 66.1604 110.809 65.7329 110.809 65.3306C110.809 65.2803 110.859 65.2551 110.908 65.2048V65.1797Z" fill="#212121"/>
<path d="M151.688 62.2898C151.688 62.2898 151.638 62.2898 151.613 62.2898C151.239 62.2898 150.89 62.2898 150.515 62.2898C150.441 62.2898 150.366 62.2144 150.291 62.1641C150.665 62.1641 151.039 62.1641 151.413 62.1641C151.513 62.1641 151.588 62.2395 151.688 62.2646V62.2898Z" fill="#EFEFEF"/>
<path d="M151.687 58.4414C151.687 59.2461 151.687 60.0256 151.687 60.8302C151.687 60.8805 151.612 60.9308 151.563 60.9811C151.563 60.8805 151.612 60.7799 151.612 60.6542C151.612 60.0256 151.612 59.3969 151.612 58.7683C151.612 58.6677 151.637 58.5671 151.662 58.4414H151.687Z" fill="#212121"/>
<path d="M132.408 70.5104C132.408 70.1333 132.383 69.7561 132.358 69.3789C132.408 69.4292 132.483 69.4543 132.483 69.5046C132.483 69.8064 132.483 70.1333 132.483 70.435C132.483 70.4602 132.433 70.4853 132.408 70.5104Z" fill="#212121"/>
<path d="M48.3813 61.8867C48.3813 62.1382 48.3813 62.4148 48.3813 62.6662C48.3813 62.7417 48.3315 62.8422 48.2816 62.9177C48.2816 62.5656 48.1569 62.2136 48.3813 61.8867Z" fill="#EFEFEF"/>
<path d="M48.2327 63.0916C48.2327 63.7202 48.2327 64.3488 48.2327 64.9523C48.2327 64.8769 48.1818 64.7763 48.1818 64.7008C48.1818 64.1477 48.2073 63.6196 48.2327 63.0664V63.0916Z" fill="#212121"/>
<path d="M48.2816 65.0798C48.3065 65.1804 48.3564 65.2559 48.3813 65.3564C48.3813 65.5827 48.3813 65.809 48.3813 66.0354C48.1569 65.7336 48.2816 65.3816 48.2816 65.0547V65.0798Z" fill="#EFEFEF"/>
<path d="M63.371 57.1328C63.371 57.686 63.371 58.2392 63.371 58.7924C63.3461 58.7421 63.2962 58.6918 63.2962 58.6667C63.2962 58.2141 63.2962 57.7363 63.2962 57.2837C63.2962 57.2334 63.3461 57.1831 63.371 57.158V57.1328Z" fill="#212121"/>
<path d="M52.5715 58.4409C52.7959 58.4409 53.0204 58.3906 53.2449 58.3906C53.5442 58.3906 53.8435 58.4158 54.1428 58.4409C53.619 58.4409 53.0952 58.4409 52.5715 58.4409Z" fill="#212121"/>
<path d="M100.559 70.6123C100.683 70.5872 100.833 70.5369 100.958 70.5117C100.883 70.7883 100.683 70.5872 100.559 70.6123Z" fill="#212121"/>
<path d="M153.134 62.489C153.084 62.2627 153.134 62.1872 153.358 62.2627C153.284 62.3381 153.209 62.4135 153.134 62.489Z" fill="#212121"/>
<path d="M109.188 69.4313C109.088 69.4313 108.988 69.4061 108.913 69.381C109.038 69.2804 109.138 69.2301 109.188 69.4313Z" fill="#212121"/>
<path d="M114.376 69.5051C114.251 69.5051 114.126 69.4548 114.027 69.4297C114.151 69.4297 114.276 69.48 114.376 69.5051Z" fill="#212121"/>
<path d="M153.259 60.9802C153.059 60.9802 153.109 60.8545 153.159 60.7539C153.184 60.8293 153.234 60.9048 153.259 60.9802Z" fill="#212121"/>
<path d="M108.714 70.6362C108.814 70.6362 108.914 70.6111 109.013 70.5859C108.914 70.5859 108.814 70.6111 108.714 70.6362Z" fill="#212121"/>
<path d="M90.5821 67.1914C90.607 67.2166 90.6569 67.2417 90.6819 67.292C90.6569 67.2668 90.607 67.2417 90.5821 67.1914Z" fill="#212121"/>
<path d="M85.0449 67.2417C85.1197 67.2417 85.2195 67.2166 85.2943 67.1914C85.2195 67.1914 85.1197 67.2166 85.0449 67.2417Z" fill="#212121"/>
<path d="M74.9689 64.676C74.9689 64.6257 74.9689 64.5503 74.9434 64.5C74.9434 64.5503 74.9434 64.6257 74.9689 64.676Z" fill="#212121"/>
<path d="M73.4717 64.3516C73.4717 64.427 73.4972 64.4773 73.5226 64.5527C73.5226 64.4773 73.4972 64.427 73.4717 64.3516Z" fill="#212121"/>
<path d="M132.109 69.3555C132.084 69.3555 132.034 69.3555 132.009 69.3806C132.034 69.3806 132.084 69.3806 132.109 69.3555Z" fill="#212121"/>
<path d="M108.914 69.3789C108.889 69.3789 108.864 69.3789 108.839 69.4041C108.864 69.4041 108.889 69.4041 108.914 69.3789Z" fill="#212121"/>
<path d="M132.009 69.3789C132.009 69.3789 131.96 69.4041 131.935 69.4292C131.935 69.4292 131.985 69.4041 132.009 69.3789Z" fill="#212121"/>
<path d="M132.657 66.4136C132.657 66.4136 132.683 66.3884 132.708 66.3633C132.708 66.3633 132.683 66.3884 132.657 66.4136Z" fill="#212121"/>
<path d="M118.591 66.3862C118.591 66.3862 118.616 66.3611 118.642 66.3359C118.642 66.3359 118.616 66.3611 118.591 66.3862Z" fill="#212121"/>
<path d="M148.371 63.3957C148.371 63.3957 148.371 63.3455 148.346 63.3203C148.346 63.3203 148.346 63.3706 148.371 63.3957Z" fill="#EFEFEF"/>
<path d="M150.266 62.1367C150.266 62.1367 150.291 62.187 150.317 62.187C150.317 62.187 150.291 62.1367 150.266 62.1367Z" fill="#EFEFEF"/>
<path d="M156.154 61.0581C156.154 61.0581 156.128 61.033 156.103 61.0078C156.103 61.0078 156.128 61.033 156.154 61.0581Z" fill="#EFEFEF"/>
<path d="M79.4581 70.6362C79.4581 70.6362 79.4581 70.6111 79.4581 70.5859C79.4581 70.5859 79.4835 70.5859 79.4835 70.6362H79.4581Z" fill="#EFEFEF"/>
<path d="M169.396 70.6362C169.396 70.6362 169.421 70.6111 169.446 70.5859C169.446 70.5859 169.421 70.6111 169.396 70.6362Z" fill="#212121"/>
<path d="M85.3936 65.758C85.5931 65.079 85.7677 64.375 85.9673 63.696C86.2167 62.7405 86.491 61.7599 86.7404 60.8043C86.915 60.1003 87.0896 59.3962 87.2891 58.6921C87.2891 58.6418 87.364 58.5916 87.4139 58.5664C87.4637 58.5664 87.5136 58.5664 87.5635 58.5664C88.4364 58.5664 88.4614 58.5664 88.6609 59.6477C88.7607 60.1757 88.9353 60.7038 89.06 61.2318C89.3343 62.2879 89.6336 63.3692 89.908 64.4253C90.0327 64.8779 90.1574 65.3053 90.307 65.758C90.307 65.758 90.2821 65.758 90.2571 65.758C90.0327 65.758 89.8082 65.8082 89.5837 65.8082C88.4364 65.8082 87.2642 65.8082 86.1169 65.8082C85.8924 65.8082 85.668 65.758 85.4435 65.758C85.4435 65.758 85.4186 65.758 85.3936 65.758Z" fill="#212121"/>
<path d="M90.3071 65.7578C90.3819 65.9087 90.3071 65.959 90.1574 65.959C88.6111 65.959 87.0897 65.959 85.5433 65.959C85.4186 65.959 85.2689 65.959 85.3937 65.783C85.3937 65.783 85.4186 65.783 85.4435 65.783C85.4934 65.8332 85.5682 65.9087 85.6181 65.9087C87.1146 65.9087 88.6111 65.9087 90.1075 65.9087C90.1574 65.9087 90.2073 65.8332 90.2572 65.783C90.2572 65.783 90.2821 65.783 90.3071 65.783V65.7578Z" fill="#212121"/>
<path d="M146.85 69.0265C146.326 69.1773 145.827 69.3534 145.278 69.4791C144.854 69.5797 144.405 69.6048 143.956 69.63C142.959 69.6802 142.585 68.9007 142.51 68.247C142.485 67.9201 142.51 67.5932 142.56 67.2663C142.659 66.6628 143.308 66.2102 143.907 66.1599C144.53 66.1348 145.129 66.009 145.752 65.9587C146.126 65.9336 146.5 65.9587 146.875 65.9336C146.85 66.009 146.775 66.0845 146.775 66.1599C146.75 67.0651 146.725 67.9955 146.725 68.9007C146.725 68.9259 146.8 68.9762 146.825 69.0013L146.85 69.0265Z" fill="#212121"/>
<path d="M146.849 69.0287C146.824 69.0035 146.749 68.9532 146.749 68.9281C146.749 68.0229 146.774 67.0925 146.799 66.1872C146.799 66.1118 146.849 66.0364 146.899 65.9609C146.899 66.9919 146.899 68.0229 146.899 69.0538L146.849 69.0287Z" fill="#212121"/>
<path d="M146.899 69.003C146.899 67.9721 146.899 66.9411 146.899 65.9102C146.899 65.9604 146.949 66.0107 146.949 66.061C146.949 66.9914 146.949 67.9218 146.949 68.8522C146.949 68.9024 146.899 68.9527 146.874 69.003H146.899Z" fill="#212121"/>
<path d="M126.323 65.1542C126.372 64.3998 126.472 63.6455 126.896 62.9666C127.27 62.3882 127.819 62.0865 128.517 62.0613C128.792 62.0613 129.066 62.0613 129.315 62.0613C130.064 61.9859 130.837 62.5642 131.036 63.2683C131.161 63.6706 131.211 64.0981 131.286 64.5256C131.286 64.7519 131.286 64.9782 131.286 65.2045C131.236 65.2045 131.161 65.2548 131.111 65.2548C129.59 65.2548 128.068 65.2548 126.572 65.2548C126.522 65.2548 126.447 65.2045 126.397 65.2045C126.397 65.2045 126.372 65.1542 126.347 65.1542H126.323Z" fill="#212121"/>
<path d="M131.261 65.2063C131.261 64.98 131.261 64.7537 131.261 64.5273C131.411 64.7034 131.411 65.1057 131.261 65.2566C131.261 65.2566 131.261 65.2063 131.261 65.1811V65.2063Z" fill="#212121"/>
<path d="M131.261 65.207C131.261 65.207 131.261 65.2573 131.261 65.2825C131.211 65.2825 131.136 65.2825 131.086 65.2825C131.136 65.2825 131.211 65.2322 131.261 65.2322V65.207Z" fill="#212121"/>
<path d="M126.323 65.1562C126.323 65.1562 126.348 65.2065 126.373 65.2065C126.373 65.2065 126.348 65.1562 126.323 65.1562Z" fill="#212121"/>
<path d="M117.094 65.2564C115.573 65.2564 114.051 65.2564 112.555 65.2564C112.48 65.2564 112.43 65.2564 112.355 65.2313C112.355 65.181 112.306 65.1307 112.306 65.1055C112.306 65.1055 112.306 65.0552 112.306 65.0301C112.405 64.5021 112.455 63.9489 112.63 63.4208C112.929 62.4904 113.677 62.0881 114.575 62.0127C114.974 61.9875 115.398 62.0127 115.797 62.1384C116.645 62.3647 117.019 63.0436 117.144 63.8483C117.219 64.3009 117.194 64.7535 117.219 65.2313C117.169 65.2313 117.119 65.2564 117.094 65.2816V65.2564Z" fill="#212121"/>
<path d="M112.33 65.2305C112.405 65.2305 112.455 65.2305 112.53 65.2556C112.455 65.2556 112.405 65.2556 112.33 65.2305Z" fill="#212121"/>
<path d="M117.095 65.2573C117.145 65.2573 117.195 65.2322 117.219 65.207C117.17 65.207 117.12 65.2322 117.095 65.2573Z" fill="#212121"/>
<path d="M158.995 66.665C158.995 66.1118 158.995 65.5838 158.995 65.0306C158.995 64.9048 159.02 64.7791 159.045 64.6534C159.045 64.1253 159.145 63.6476 159.37 63.1447C159.644 62.5663 160.068 62.2143 160.667 62.164C161.29 62.0886 161.939 62.0634 162.537 62.164C163.51 62.34 163.834 62.8681 164.083 63.9493C164.133 64.1756 164.133 64.4019 164.158 64.6282C164.158 64.6534 164.158 64.6785 164.158 64.7037C164.158 64.8043 164.108 64.9048 164.108 64.9803C164.108 65.4832 164.108 65.9861 164.108 66.489C164.108 66.6147 164.133 66.7404 164.158 66.8662C164.158 66.8913 164.158 66.9165 164.158 66.9416C164.083 67.3691 164.059 67.7965 163.934 68.1989C163.784 68.7521 163.41 69.1795 162.836 69.3555C161.963 69.6321 161.066 69.6824 160.193 69.3053C159.494 69.0035 159.245 68.3749 159.095 67.696C159.045 67.4445 159.045 67.1931 159.02 66.9416C159.02 66.841 158.995 66.7404 158.971 66.6399L158.995 66.665Z" fill="#212121"/>
<path d="M164.134 64.7278C164.134 64.7026 164.134 64.6775 164.134 64.6523C164.134 65.0798 164.185 65.4821 164.185 65.9096C164.185 66.2616 164.159 66.6137 164.134 66.9909C164.134 66.9657 164.134 66.9406 164.134 66.9154C164.134 66.1862 164.134 65.4821 164.134 64.7529V64.7278Z" fill="#212121"/>
<path d="M159.046 64.6523C159.046 64.7781 159.021 64.9038 158.995 65.0295C158.995 64.9038 159.021 64.7781 159.046 64.6523Z" fill="#212121"/>
<path d="M158.995 66.6641C158.995 66.7646 159.021 66.8652 159.046 66.9658C159.046 66.8652 159.021 66.7646 158.995 66.6641Z" fill="#212121"/>
<path d="M90.258 65.7578C90.2082 65.8081 90.1583 65.8835 90.1084 65.8835C88.6119 65.8835 87.1155 65.8835 85.619 65.8835C85.5691 65.8835 85.4943 65.8081 85.4444 65.7578C85.6689 65.7578 85.8933 65.8081 86.1178 65.8081C87.2651 65.8081 88.4373 65.8081 89.5846 65.8081C89.8091 65.8081 90.0336 65.783 90.258 65.7578Z" fill="#212121"/>
<path d="M164.134 64.7266C164.134 65.4558 164.134 66.1598 164.134 66.8891C164.134 66.7633 164.083 66.6376 164.083 66.5119C164.083 66.009 164.083 65.5061 164.083 65.0032C164.083 64.9026 164.109 64.802 164.134 64.7266Z" fill="#212121"/>
</svg>
