<svg width="230" height="130" viewBox="0 0 230 130" fill="none" xmlns="http://www.w3.org/2000/svg">
<path d="M119.522 54.4138C119.542 54.254 119.582 54.1141 119.602 53.9543C119.663 53.6547 119.723 53.335 119.784 53.0354C119.864 52.6558 119.945 52.2762 120.025 51.8967C120.126 51.3773 120.227 50.8379 120.327 50.3185C120.408 49.879 120.509 49.4595 120.589 49.02C120.589 48.9401 120.63 48.9201 120.71 48.9201C121.214 48.9201 121.697 48.8801 122.181 48.9001C122.463 48.9001 122.765 48.9401 123.047 49.02C123.652 49.1798 123.853 49.6792 123.732 50.2586C123.631 50.778 123.289 51.1176 122.846 51.3773C122.745 51.4372 122.644 51.4572 122.523 51.5171C122.604 51.5571 122.644 51.577 122.705 51.597C123.087 51.6969 123.269 51.9766 123.329 52.3362C123.45 52.9954 123.168 53.5148 122.664 53.9343C122.302 54.214 121.899 54.3738 121.435 54.4138C121.012 54.4537 120.589 54.4537 120.166 54.4737C119.965 54.4737 119.743 54.4537 119.522 54.4338V54.4138ZM120.408 53.8544C120.65 53.8544 120.871 53.8544 121.093 53.8544C121.435 53.8544 121.758 53.7945 122.04 53.6147C122.463 53.355 122.624 52.9754 122.584 52.5359C122.584 52.4361 122.544 52.3162 122.483 52.2363C122.362 52.0565 122.161 51.9566 121.959 51.9366C121.597 51.8967 121.214 51.8967 120.851 51.8767C120.771 51.8767 120.751 51.8967 120.73 51.9766C120.65 52.3961 120.569 52.7956 120.489 53.2152C120.448 53.4149 120.428 53.6147 120.388 53.8744L120.408 53.8544ZM121.254 51.2974C121.456 51.2774 121.637 51.2774 121.838 51.2175C122.402 51.0976 122.846 50.8379 122.946 50.2186C123.007 49.899 122.846 49.5793 122.564 49.5194C122.402 49.4795 122.241 49.4595 122.08 49.4595C121.818 49.4595 121.577 49.4595 121.315 49.4595C121.214 49.4595 121.174 49.4994 121.174 49.5993C121.174 49.7591 121.133 49.899 121.093 50.0588C121.012 50.4384 120.952 50.7979 120.871 51.1775C120.871 51.2374 120.871 51.2774 120.952 51.2774C121.053 51.2774 121.153 51.2774 121.254 51.2774V51.2974Z" fill="#212121"/>
<path d="M147.927 50.3385C148.149 50.3385 148.35 50.3385 148.572 50.3385C148.592 50.3385 148.652 50.3984 148.652 50.4184C148.713 50.8778 148.793 51.3573 148.854 51.8167C148.914 52.2163 148.934 52.6358 148.995 53.0353C148.995 53.1952 149.035 53.355 149.075 53.5348C149.096 53.4948 149.116 53.4748 149.136 53.4549C149.277 53.1352 149.418 52.7956 149.579 52.476C149.921 51.7368 150.264 51.0177 150.627 50.2785C150.667 50.1986 150.707 50.1786 150.768 50.1986C150.929 50.2585 151.09 50.2985 151.231 50.3584C151.332 50.3984 151.291 50.4783 151.271 50.5382C151.09 50.8978 150.909 51.2374 150.727 51.597C150.284 52.496 149.821 53.375 149.378 54.2739C149.317 54.3738 149.257 54.4337 149.136 54.4138C148.934 54.4138 148.753 54.4138 148.552 54.4138C148.471 54.4138 148.431 54.3938 148.431 54.2939C148.39 54.0142 148.35 53.7345 148.31 53.4748C148.27 53.1552 148.209 52.8356 148.189 52.5159C148.149 52.1364 148.108 51.7368 148.088 51.3573C148.088 51.3573 148.088 51.3573 148.068 51.3173C147.544 52.3362 147.041 53.375 146.517 54.3938H145.711C145.711 54.234 145.671 54.0741 145.651 53.9143C145.59 53.4748 145.55 53.0353 145.489 52.5759C145.449 52.1564 145.409 51.7368 145.369 51.3173C145.328 51.0177 145.308 50.718 145.268 50.4184C145.268 50.3185 145.268 50.2985 145.389 50.2985C145.59 50.2985 145.812 50.2985 146.033 50.2985C146.114 51.3373 146.215 52.3961 146.295 53.4549C146.336 53.4149 146.356 53.375 146.376 53.355C146.819 52.436 147.262 51.5371 147.726 50.6181C147.786 50.5182 147.846 50.4184 147.907 50.3185C147.907 50.3185 147.927 50.3185 147.947 50.3185L147.927 50.3385Z" fill="#212121"/>
<path d="M108.764 54.395C108.925 53.8356 109.086 53.2963 109.227 52.7569C109.227 52.7569 109.227 52.7569 109.207 52.7569C109.126 52.9367 109.046 53.1165 108.945 53.2763C108.643 53.7957 108.24 54.2352 107.636 54.415C107.092 54.5748 106.608 54.3351 106.467 53.7757C106.387 53.496 106.367 53.2164 106.427 52.9367C106.467 52.677 106.487 52.4173 106.568 52.1576C106.749 51.5183 107.092 50.959 107.696 50.5994C108.039 50.3996 108.401 50.2797 108.804 50.2797C109.026 50.2797 109.267 50.2797 109.489 50.2797C109.59 50.2797 109.61 50.2598 109.63 50.1799C109.691 49.8602 109.751 49.5406 109.811 49.221C109.852 48.9812 109.892 48.7415 109.952 48.5218C109.952 48.4818 110.013 48.4219 110.053 48.4219C110.255 48.4219 110.476 48.4219 110.698 48.4219C110.658 48.6416 110.617 48.8414 110.577 49.0412C110.496 49.4807 110.416 49.9401 110.335 50.3796C110.255 50.7592 110.174 51.1188 110.114 51.4784C110.033 51.9178 109.952 52.3374 109.872 52.7769C109.791 53.1764 109.711 53.5959 109.63 53.9955C109.63 54.0953 109.59 54.1952 109.57 54.2751C109.57 54.3151 109.509 54.355 109.489 54.355C109.288 54.355 109.086 54.355 108.844 54.355L108.764 54.395ZM107.152 53.0765C107.152 53.1964 107.192 53.3362 107.213 53.4761C107.273 53.8157 107.475 53.9355 107.797 53.8356C108.079 53.7358 108.28 53.536 108.462 53.2963C108.965 52.617 109.308 51.8779 109.449 51.0389C109.449 50.939 109.449 50.899 109.348 50.879C109.147 50.879 108.925 50.879 108.724 50.879C108.26 50.899 107.918 51.1188 107.656 51.4983C107.334 51.9578 107.213 52.4772 107.172 53.0565L107.152 53.0765Z" fill="#212121"/>
<path d="M136.263 52.8168C136.222 52.8767 136.162 52.9367 136.142 53.0166C135.92 53.4761 135.618 53.8956 135.175 54.1952C134.853 54.415 134.49 54.5149 134.107 54.435C133.845 54.375 133.664 54.1952 133.563 53.9155C133.422 53.536 133.442 53.1564 133.483 52.7569C133.543 52.2575 133.684 51.778 133.966 51.3385C134.248 50.879 134.651 50.5594 135.175 50.3996C135.558 50.2797 135.92 50.2398 136.323 50.2797C136.424 50.2797 136.525 50.2797 136.625 50.2797C136.746 49.6604 136.867 49.0412 136.988 48.4219H137.693C137.693 48.5417 137.673 48.6416 137.653 48.7615C137.592 49.1011 137.532 49.4407 137.471 49.7803C137.391 50.1599 137.31 50.5394 137.23 50.919C137.149 51.2986 137.089 51.6981 137.008 52.0777C136.928 52.4772 136.847 52.8568 136.766 53.2563C136.706 53.5959 136.645 53.9355 136.585 54.2751C136.585 54.355 136.545 54.395 136.464 54.395C136.283 54.395 136.122 54.395 135.94 54.395C135.86 54.395 135.84 54.375 135.86 54.2951C135.94 54.0154 136.021 53.7358 136.102 53.4361C136.162 53.2363 136.222 53.0366 136.263 52.8368V52.8168ZM134.208 53.1964C134.228 53.2963 134.268 53.4761 134.329 53.6558C134.369 53.7557 134.429 53.8356 134.57 53.8756C134.752 53.9155 134.893 53.8556 135.034 53.7757C135.276 53.6359 135.457 53.4161 135.618 53.1764C136.061 52.5371 136.343 51.8379 136.504 51.0788C136.525 50.959 136.504 50.899 136.384 50.899C136.202 50.899 136.001 50.899 135.82 50.899C135.336 50.899 134.994 51.1387 134.712 51.5183C134.369 51.9978 134.268 52.5571 134.228 53.2164L134.208 53.1964Z" fill="#212121"/>
<path d="M155.3 54.4145C155.683 52.4168 156.066 50.4191 156.449 48.4414H157.174C156.912 49.6001 156.811 50.7987 156.348 51.9174C156.348 51.9174 156.368 51.9174 156.388 51.9174C156.388 51.8974 156.428 51.8774 156.428 51.8575C156.65 51.4779 156.852 51.0983 157.174 50.7987C157.395 50.5789 157.637 50.3992 157.939 50.3192C158.181 50.2593 158.403 50.2593 158.644 50.3192C158.927 50.3792 159.128 50.6589 159.168 50.9585C159.229 51.398 159.128 51.8175 159.027 52.257C158.947 52.5766 158.906 52.8763 158.846 53.1959C158.806 53.3557 158.786 53.5156 158.745 53.6754C158.685 53.9351 158.644 54.1748 158.584 54.4345H157.879C157.939 54.0949 158 53.7753 158.06 53.4556C158.101 53.2359 158.161 53.0361 158.181 52.8164C158.262 52.4168 158.342 51.9973 158.383 51.5978C158.383 51.4579 158.383 51.2981 158.342 51.1783C158.282 50.9385 158.04 50.8586 157.778 50.9585C157.476 51.0784 157.254 51.2981 157.073 51.5578C156.751 51.9973 156.529 52.4967 156.328 52.9962C156.146 53.4756 156.126 53.9551 156.005 54.4545H155.3V54.4145Z" fill="#212121"/>
<path d="M130.239 50.3389C130.199 50.5387 130.159 50.7185 130.118 50.9183C130.038 51.2179 129.937 51.5176 129.856 51.8172C129.856 51.8172 129.877 51.8172 129.897 51.8172C129.917 51.7773 129.957 51.7373 129.977 51.6774C130.199 51.2579 130.461 50.8783 130.844 50.5786C131.206 50.299 131.609 50.1392 132.052 50.259C132.375 50.3389 132.596 50.5387 132.636 50.8783C132.657 51.098 132.657 51.3178 132.636 51.5375C132.576 51.9171 132.495 52.2767 132.415 52.6563C132.294 53.1757 132.173 53.6951 132.072 54.2344C132.052 54.3943 131.992 54.4142 131.851 54.3943C131.69 54.3943 131.508 54.3943 131.307 54.3943C131.327 54.2544 131.347 54.1146 131.387 53.9947C131.508 53.4354 131.609 52.896 131.73 52.3366C131.77 52.0769 131.831 51.8172 131.851 51.5575C131.851 51.4177 131.851 51.2579 131.831 51.118C131.831 50.9982 131.669 50.9183 131.549 50.8983C131.246 50.8583 131.025 50.9982 130.844 51.1979C130.441 51.6175 130.159 52.0969 129.937 52.6363C129.816 52.9359 129.715 53.2356 129.655 53.5552C129.594 53.8149 129.554 54.0746 129.514 54.3543C129.514 54.3943 129.453 54.4342 129.433 54.4342C129.212 54.4342 129.01 54.4342 128.768 54.4342C128.768 54.3743 128.789 54.3143 128.809 54.2744C128.91 53.755 129.01 53.2556 129.111 52.7362C129.192 52.2967 129.272 51.8372 129.353 51.3777C129.413 51.0581 129.474 50.7385 129.534 50.4188C129.534 50.3389 129.594 50.299 129.675 50.299C129.856 50.299 130.038 50.299 130.219 50.299C130.219 50.299 130.219 50.299 130.239 50.299V50.3389Z" fill="#212121"/>
<path d="M127.459 54.4156H126.734C126.855 53.9162 126.976 53.4367 127.117 52.9373C126.935 53.217 126.794 53.4767 126.613 53.6964C126.371 54.0161 126.069 54.2957 125.666 54.4156C125.344 54.5155 125.021 54.5155 124.719 54.3557C124.457 54.2158 124.377 53.9561 124.357 53.6764C124.316 53.3368 124.417 53.0172 124.457 52.6976C124.538 52.298 124.618 51.8985 124.699 51.499C124.78 51.1394 124.84 50.7798 124.901 50.4202C124.901 50.3802 124.941 50.3403 124.961 50.3403C125.183 50.3403 125.404 50.3403 125.626 50.3403C125.585 50.5401 125.545 50.7199 125.505 50.8996C125.424 51.2992 125.364 51.6787 125.283 52.0783C125.223 52.4179 125.142 52.7575 125.102 53.0771C125.082 53.237 125.062 53.4167 125.102 53.5766C125.142 53.7763 125.324 53.9361 125.666 53.8363C125.807 53.7963 125.948 53.7164 126.049 53.6165C126.593 53.1371 126.915 52.5178 127.137 51.8386C127.278 51.3991 127.358 50.9396 127.459 50.5001C127.499 50.3203 127.499 50.3203 127.681 50.3203C127.862 50.3203 128.023 50.3203 128.204 50.3203C127.943 51.6787 127.701 53.0372 127.439 54.4156H127.459Z" fill="#212121"/>
<path d="M111.665 52.6366C111.665 52.8963 111.665 53.156 111.665 53.4157C111.685 53.6954 111.886 53.8552 112.168 53.8952C112.652 53.9551 113.115 53.8752 113.559 53.6954C113.579 53.6954 113.619 53.6754 113.659 53.6554C113.659 53.8352 113.659 54.015 113.659 54.1749C113.659 54.2148 113.599 54.2548 113.559 54.2747C113.236 54.3347 112.914 54.4146 112.592 54.4545C112.43 54.4745 112.249 54.4945 112.088 54.4745C111.866 54.4745 111.625 54.4146 111.423 54.3147C111.121 54.1549 110.96 53.8752 110.919 53.5556C110.778 52.6566 110.98 51.8375 111.524 51.0984C111.866 50.6389 112.309 50.3592 112.894 50.2993C113.256 50.2594 113.599 50.2993 113.941 50.4791C114.284 50.6589 114.344 51.0984 114.324 51.3581C114.264 51.8176 113.961 52.0573 113.579 52.2371C113.176 52.4369 112.733 52.5168 112.289 52.5567C112.088 52.5767 111.886 52.5967 111.665 52.6166V52.6366ZM111.766 52.0972C111.806 52.0972 111.846 52.1172 111.866 52.1172C112.068 52.0972 112.269 52.0773 112.491 52.0373C112.753 51.9974 113.015 51.9374 113.256 51.8176C113.518 51.6777 113.639 51.4979 113.599 51.1983C113.579 51.0185 113.417 50.8587 113.236 50.8387C112.672 50.7987 112.269 51.0385 112.007 51.5379C111.907 51.7177 111.846 51.8975 111.766 52.0972Z" fill="#212121"/>
<path d="M152.158 52.6363C152.158 52.896 152.158 53.1357 152.158 53.3954C152.158 53.6951 152.379 53.8749 152.661 53.9148C153.145 53.9747 153.608 53.8948 154.071 53.715C154.092 53.715 154.112 53.715 154.132 53.6951C154.132 53.6951 154.132 53.6951 154.152 53.6951C154.152 53.8549 154.152 54.0347 154.152 54.2145C154.152 54.2544 154.092 54.2944 154.051 54.3143C153.729 54.3743 153.407 54.4542 153.084 54.4941C152.903 54.5141 152.722 54.5341 152.54 54.5141C152.299 54.5141 152.057 54.4542 151.835 54.3143C151.513 54.1146 151.412 53.7949 151.392 53.4553C151.311 52.5963 151.513 51.7972 152.057 51.0981C152.359 50.7185 152.742 50.4588 153.225 50.3789C153.628 50.299 154.031 50.3189 154.434 50.5387C154.736 50.6985 154.837 51.138 154.797 51.4377C154.736 51.8971 154.414 52.1169 154.051 52.2967C153.648 52.4964 153.205 52.5763 152.762 52.6163C152.56 52.6363 152.359 52.6563 152.137 52.6762L152.158 52.6363ZM154.092 51.3378C154.132 51.0181 153.971 50.8983 153.749 50.8583C153.205 50.7984 152.802 51.0181 152.54 51.4776C152.44 51.6574 152.359 51.8572 152.278 52.037C152.238 52.1169 152.299 52.1169 152.359 52.1169C152.581 52.0969 152.782 52.0769 153.004 52.037C153.266 51.977 153.527 51.9171 153.769 51.8172C153.971 51.7373 154.132 51.5775 154.112 51.3378H154.092Z" fill="#212121"/>
<path d="M140.695 53.6766C140.695 53.8564 140.695 54.0162 140.695 54.156C140.695 54.196 140.654 54.2359 140.634 54.2559C140.312 54.3558 139.99 54.4557 139.647 54.4757C139.365 54.4757 139.103 54.4757 138.821 54.4357C138.438 54.3758 138.136 54.0761 138.035 53.6965C137.915 53.2171 137.975 52.7576 138.056 52.2982C138.156 51.7388 138.418 51.2594 138.821 50.8598C139.143 50.5402 139.526 50.3604 139.99 50.3005C140.251 50.2805 140.493 50.3005 140.755 50.3604C141.118 50.4603 141.38 50.7799 141.38 51.1395C141.38 51.6789 141.077 52.0784 140.534 52.2782C140.151 52.418 139.768 52.5179 139.365 52.5579C139.184 52.5579 139.002 52.5978 138.841 52.5978C138.761 52.5978 138.72 52.6378 138.72 52.7177C138.72 52.9574 138.72 53.1771 138.72 53.4169C138.741 53.6366 138.942 53.8564 139.204 53.8963C139.708 53.9563 140.211 53.8763 140.695 53.6766ZM138.821 52.0984C139.264 52.0984 139.667 52.0584 140.05 51.9386C140.433 51.8187 140.675 51.6389 140.634 51.2394C140.614 51.0396 140.493 50.8798 140.292 50.8598C140.09 50.8598 139.869 50.8598 139.687 50.9397C139.325 51.0995 139.123 51.3992 138.962 51.7388C138.922 51.8387 138.882 51.9586 138.841 52.0984H138.821Z" fill="#212121"/>
<path d="M142.327 54.4751C142.105 54.4751 141.944 54.4351 141.783 54.4351C141.702 54.4351 141.682 54.3952 141.702 54.3353C141.742 54.1754 141.762 53.9956 141.803 53.8358C141.803 53.7759 141.863 53.7559 141.924 53.7759C142.286 53.9157 142.649 53.8958 143.011 53.7559C143.314 53.6361 143.455 53.3164 143.354 53.0368C143.314 52.9369 143.233 52.857 143.173 52.797C143.011 52.6572 142.83 52.5173 142.669 52.3775C142.568 52.2776 142.447 52.1777 142.367 52.0579C142.004 51.5185 142.186 50.7394 142.891 50.4397C143.314 50.2599 143.757 50.24 144.2 50.2999C144.261 50.2999 144.321 50.2999 144.381 50.2999C144.442 50.2999 144.482 50.3199 144.462 50.4198C144.422 50.5396 144.402 50.6795 144.361 50.7993C144.361 50.8792 144.301 50.8992 144.22 50.8792C143.978 50.7793 143.717 50.7993 143.475 50.8193C143.233 50.8393 142.951 51.0191 142.911 51.3587C142.891 51.4985 142.951 51.6583 143.052 51.7582C143.213 51.918 143.394 52.0579 143.555 52.1977C143.696 52.3176 143.837 52.4574 143.958 52.5973C144.16 52.857 144.18 53.1366 144.099 53.4363C143.958 54.0156 143.515 54.2553 142.971 54.3752C142.729 54.4351 142.488 54.4351 142.327 54.4751Z" fill="#212121"/>
<path d="M161.243 51.5185C161.405 51.2588 161.566 50.9991 161.747 50.7593C161.848 50.6195 162.009 50.4996 162.15 50.3998C162.331 50.2599 162.573 50.2399 162.835 50.2799C162.795 50.4397 162.774 50.5995 162.734 50.7593C162.734 50.8393 162.734 50.9192 162.674 50.9591C162.633 50.9991 162.533 50.9591 162.452 50.9591C162.311 51.019 162.15 51.059 162.049 51.1589C161.767 51.3986 161.566 51.6983 161.425 52.0379C161.284 52.3975 161.102 52.7371 161.002 53.0967C160.881 53.4962 160.84 53.8957 160.76 54.2953C160.76 54.3352 160.699 54.3952 160.679 54.3952C160.458 54.3952 160.256 54.3952 160.014 54.3952C160.276 53.0367 160.538 51.6983 160.8 50.3398H161.485C161.485 50.4397 161.485 50.5396 161.445 50.6195C161.384 50.8592 161.304 51.099 161.223 51.3387C161.223 51.3986 161.203 51.4585 161.183 51.4985C161.143 51.5784 161.122 51.6583 161.082 51.7382C161.082 51.7382 161.122 51.7382 161.143 51.7582C161.183 51.6783 161.203 51.5784 161.243 51.4985V51.5185Z" fill="#212121"/>
<path d="M116.016 51.6198C116.117 51.46 116.218 51.2802 116.318 51.1204C116.459 50.8807 116.621 50.6609 116.842 50.4811C117.084 50.3013 117.346 50.2414 117.648 50.2814C117.628 50.4412 117.588 50.581 117.567 50.7408C117.567 50.7808 117.567 50.8207 117.547 50.8807C117.547 50.9806 117.467 51.0205 117.386 51.0005C117.124 50.9806 116.963 51.1204 116.802 51.2802C116.439 51.6598 116.218 52.1192 116.016 52.5987C115.835 53.0582 115.714 53.5376 115.633 54.037C115.613 54.1569 115.593 54.2967 115.573 54.4366H114.848C114.949 53.9771 115.029 53.5376 115.11 53.0981C115.21 52.5388 115.311 51.9594 115.432 51.4001C115.492 51.1004 115.553 50.8008 115.613 50.5011C115.613 50.4212 115.674 50.3812 115.774 50.3812C115.956 50.3812 116.117 50.3812 116.318 50.3812C116.278 50.8207 116.117 51.2203 115.976 51.6598C115.956 51.7397 115.916 51.8196 115.895 51.8995H115.956C115.976 51.8396 116.016 51.7397 116.036 51.6598L116.016 51.6198Z" fill="#212121"/>
<path d="M145.389 70.8351C145.389 70.7552 145.389 70.6753 145.389 70.5754C145.389 70.1159 145.429 69.6365 145.449 69.177C145.469 68.6376 145.51 68.1182 145.55 67.5789C145.55 67.3791 145.57 67.1593 145.59 66.9596C145.59 66.4601 145.63 65.9807 145.651 65.4813C145.671 64.9819 145.691 64.4824 145.731 63.983C145.731 63.7033 145.751 63.4037 145.792 63.124C145.832 62.7045 145.872 62.285 145.912 61.8854C145.912 61.8255 145.912 61.7656 145.892 61.6856C145.872 61.7056 145.852 61.7456 145.832 61.7656C145.57 62.3449 145.328 62.9242 145.046 63.5036C144.684 64.2627 144.281 65.0018 143.898 65.741C143.314 66.8597 142.729 67.9784 142.165 69.0771C141.883 69.6165 141.621 70.1359 141.339 70.6753C141.299 70.7552 141.239 70.7952 141.138 70.7952C140.735 70.7952 140.332 70.7952 139.949 70.7952C139.708 70.7952 139.687 70.7952 139.667 70.5554C139.627 70.1958 139.587 69.8363 139.546 69.4767C139.486 68.9772 139.385 68.4978 139.325 67.9984C139.264 67.6188 139.224 67.2193 139.164 66.8397C139.103 66.4202 139.043 65.9807 138.982 65.5612C138.922 65.1017 138.841 64.6223 138.781 64.1628C138.72 63.6034 138.66 63.0441 138.6 62.4847C138.579 62.225 138.559 61.9453 138.519 61.6657C138.499 61.7656 138.459 61.8455 138.438 61.9453C138.177 62.8443 137.915 63.7233 137.633 64.6223C137.431 65.2815 137.23 65.9607 137.028 66.62C136.726 67.6188 136.404 68.6376 136.081 69.6365C135.981 69.9761 135.88 70.3357 135.759 70.6753C135.759 70.7152 135.678 70.7752 135.638 70.7752C135.155 70.7752 134.691 70.7752 134.208 70.7752C134.208 70.7752 134.208 70.7752 134.168 70.7752C134.208 70.6154 134.268 70.4755 134.329 70.3157C135.477 66.8996 136.625 63.4836 137.774 60.0675C137.915 59.608 137.834 59.7079 138.277 59.7079C138.7 59.7079 139.123 59.7079 139.567 59.7079C139.647 59.7079 139.687 59.7279 139.708 59.8278C139.788 60.4271 139.849 61.0064 139.929 61.6057C139.99 62.0652 140.07 62.5047 140.131 62.9642C140.191 63.4436 140.252 63.9031 140.312 64.3825C140.372 64.862 140.453 65.3614 140.534 65.8409C140.574 66.1405 140.614 66.4601 140.654 66.7598C140.695 67.0994 140.755 67.419 140.775 67.7587C140.795 68.0184 140.795 68.298 140.816 68.5577C140.816 68.6776 140.816 68.7775 140.836 68.8973C140.836 68.8973 140.856 68.8973 140.876 68.8973C140.936 68.7775 140.977 68.6576 141.037 68.5378C141.319 67.9584 141.581 67.3991 141.863 66.8197C142.165 66.2004 142.488 65.6011 142.81 64.9819C143.414 63.8432 144.019 62.7045 144.603 61.5458C144.885 60.9865 145.187 60.4271 145.469 59.8677C145.53 59.7279 145.61 59.668 145.771 59.668C146.295 59.668 146.819 59.668 147.343 59.668C147.383 59.668 147.423 59.668 147.464 59.668C147.464 59.7479 147.464 59.8478 147.464 59.9277C147.464 60.3072 147.423 60.6868 147.403 61.0664C147.403 61.4859 147.363 61.9054 147.343 62.3249C147.343 62.7244 147.302 63.144 147.302 63.5435C147.302 63.9231 147.262 64.3026 147.262 64.7022C147.262 65.1417 147.222 65.5812 147.202 66.0207C147.202 66.4202 147.161 66.8197 147.161 67.2193C147.161 67.6388 147.121 68.0783 147.101 68.4978C147.101 68.8973 147.061 69.3169 147.061 69.7164C147.061 70.056 147.02 70.3756 147.02 70.7152C147.02 70.7952 147 70.8351 146.9 70.7952C146.9 70.7952 146.859 70.7952 146.839 70.7952C146.396 70.7952 145.953 70.7952 145.51 70.7952C145.51 70.7952 145.489 70.7952 145.469 70.7952L145.389 70.8351Z" fill="#212121"/>
<path d="M174.58 70.7748C174.64 70.4352 174.721 70.0956 174.781 69.756C174.862 69.3165 174.942 68.877 175.023 68.4575C175.164 67.7583 175.285 67.0591 175.426 66.3399C175.486 66.0203 175.547 65.6807 175.607 65.361C175.748 64.6619 175.869 63.9627 176.01 63.2834C176.111 62.7441 176.212 62.2047 176.332 61.6453C176.393 61.3656 176.433 61.1059 176.494 60.8263C176.614 60.227 176.715 59.6476 176.836 59.0483C176.876 58.8086 176.876 58.8086 177.118 58.8086C177.501 58.8086 177.904 58.8086 178.307 58.8086C178.307 58.8885 178.307 58.9684 178.287 59.0283C178.166 59.6077 178.045 60.187 177.924 60.7863C177.823 61.2658 177.763 61.7452 177.662 62.2247C177.501 63.0237 177.32 63.8428 177.058 64.6219C176.937 64.9815 176.836 65.3411 176.715 65.6807C176.715 65.7007 176.715 65.7206 176.715 65.7806C176.776 65.6807 176.816 65.6207 176.856 65.5408C177.179 64.8616 177.581 64.2224 178.105 63.683C178.589 63.1836 179.133 62.764 179.818 62.5842C180.321 62.4444 180.865 62.4244 181.369 62.6442C181.893 62.8639 182.175 63.2834 182.255 63.8428C182.296 64.1225 182.316 64.4221 182.275 64.7018C182.235 65.0614 182.175 65.421 182.094 65.7606C181.953 66.5397 181.792 67.3388 181.651 68.1179C181.51 68.837 181.369 69.5362 181.248 70.2554C181.228 70.3953 181.208 70.5151 181.167 70.655C181.167 70.7149 181.127 70.7748 181.046 70.7748C180.603 70.7748 180.16 70.7748 179.697 70.7748C179.717 70.615 179.737 70.4552 179.777 70.2954C179.838 69.9757 179.898 69.6561 179.959 69.3365C180.019 69.0368 180.079 68.7571 180.14 68.4575C180.241 67.9181 180.341 67.3587 180.462 66.8194C180.543 66.3999 180.623 65.9604 180.704 65.5408C180.764 65.1613 180.845 64.7817 180.764 64.4022C180.664 63.8828 180.301 63.663 179.757 63.7429C179.455 63.7829 179.233 63.9427 178.992 64.1025C178.428 64.502 178.045 65.0814 177.662 65.6607C177.259 66.3 176.957 66.9792 176.695 67.6784C176.453 68.3376 176.292 68.9969 176.191 69.6961C176.151 69.9957 176.091 70.2954 176.03 70.595C176.03 70.655 176.03 70.6949 176.03 70.7548C176.03 70.7548 176.03 70.7548 176.03 70.7748C176.03 70.7748 176.03 70.7748 176.01 70.7748H175.97C175.97 70.7748 175.97 70.7748 175.95 70.7748C175.527 70.7748 175.124 70.7748 174.701 70.7748C174.68 70.7748 174.66 70.7748 174.62 70.7748C174.62 70.7748 174.6 70.7548 174.58 70.7349V70.7748Z" fill="#212121"/>
<path d="M154.897 67.9797C154.636 68.3793 154.414 68.7988 154.132 69.1983C153.729 69.7777 153.225 70.2571 152.601 70.5967C152.258 70.7765 151.916 70.8964 151.533 70.9363C151.029 70.9763 150.566 70.8764 150.143 70.5967C149.821 70.377 149.68 70.0374 149.579 69.6778C149.458 69.2583 149.478 68.8587 149.579 68.4392C149.639 68.0796 149.72 67.72 149.78 67.3604C149.942 66.5614 150.083 65.7423 150.244 64.9432C150.324 64.5037 150.405 64.0842 150.486 63.6447C150.546 63.3251 150.606 63.0055 150.667 62.7058C150.667 62.6259 150.707 62.5859 150.788 62.5859C151.211 62.5859 151.634 62.5859 152.037 62.5859C152.037 62.5859 152.037 62.5859 152.057 62.5859C152.158 62.5859 152.138 62.6259 152.138 62.6858C152.037 63.1453 151.936 63.6048 151.855 64.0842C151.755 64.5836 151.654 65.103 151.573 65.6025C151.493 66.002 151.412 66.3816 151.332 66.7811C151.231 67.2805 151.15 67.78 151.07 68.2794C151.009 68.599 151.029 68.8987 151.15 69.2183C151.271 69.5379 151.634 69.7177 151.996 69.6578C152.641 69.5579 153.084 69.1584 153.467 68.6989C154.112 67.9398 154.595 67.0808 154.958 66.1618C155.099 65.8222 155.24 65.4826 155.321 65.123C155.441 64.6036 155.542 64.0642 155.643 63.5448C155.703 63.2652 155.744 62.9855 155.804 62.7258C155.804 62.6858 155.864 62.6259 155.905 62.6259C156.348 62.6259 156.791 62.6259 157.254 62.6259C157.254 62.7258 157.254 62.8057 157.214 62.8656C157.073 63.6647 156.912 64.4438 156.751 65.2429C156.63 65.8821 156.509 66.5214 156.388 67.1607C156.167 68.3193 155.945 69.478 155.723 70.6367C155.723 70.7366 155.663 70.7765 155.562 70.7765C155.159 70.7765 154.777 70.7765 154.374 70.7765C154.333 70.7765 154.293 70.7765 154.253 70.7765C154.293 70.5568 154.333 70.337 154.394 70.1372C154.595 69.4181 154.797 68.7189 155.018 67.9997C155.059 67.8599 155.119 67.74 155.159 67.6002C155.159 67.6002 155.119 67.6002 155.099 67.5802C155.038 67.72 154.978 67.8599 154.897 67.9997V67.9797Z" fill="#212121"/>
<path d="M158.604 70.8167C158.544 70.8167 158.504 70.8167 158.423 70.8167C158.443 70.6769 158.483 70.537 158.504 70.3972C158.604 69.9177 158.705 69.4583 158.786 68.9788C158.886 68.4195 159.007 67.8601 159.108 67.2808C159.249 66.5816 159.37 65.8824 159.511 65.1832C159.591 64.7037 159.692 64.2443 159.773 63.7648C159.833 63.4252 159.894 63.1056 159.954 62.766C159.954 62.6861 159.994 62.6661 160.075 62.6661C160.377 62.6661 160.679 62.6661 160.961 62.6661C161.062 62.6661 161.183 62.6661 161.284 62.6661C161.364 62.6661 161.405 62.706 161.384 62.7859C161.243 63.3453 161.102 63.9047 160.941 64.464C160.82 64.8636 160.679 65.2631 160.558 65.6826V65.7226C160.558 65.7226 160.579 65.7226 160.599 65.7226C160.619 65.6826 160.659 65.6427 160.679 65.6027C160.921 65.0633 161.243 64.5439 161.606 64.0645C161.888 63.6849 162.23 63.3653 162.593 63.0856C162.915 62.8459 163.278 62.6461 163.681 62.5662C164.023 62.4863 164.366 62.4863 164.708 62.5262C165.031 62.5462 165.313 62.6861 165.555 62.8858C165.857 63.1056 165.978 63.4452 166.058 63.8048C166.098 64.0245 166.119 64.2642 166.098 64.484C166.058 64.9035 165.998 65.323 165.917 65.7425C165.796 66.4218 165.675 67.081 165.534 67.7602C165.413 68.4394 165.272 69.1187 165.152 69.7979C165.091 70.1175 165.031 70.4172 164.97 70.7368C164.97 70.7767 164.91 70.8167 164.87 70.8167C164.446 70.8167 164.023 70.8167 163.6 70.8167C163.5 70.8167 163.5 70.7568 163.52 70.6769C163.621 70.1774 163.721 69.678 163.822 69.1986C163.923 68.7591 164.003 68.2996 164.104 67.8601C164.185 67.4406 164.245 67.0211 164.326 66.6016C164.386 66.3019 164.447 66.0022 164.507 65.7026C164.608 65.2831 164.608 64.8835 164.588 64.464C164.588 64.1044 164.265 63.8048 163.903 63.7848C163.5 63.7448 163.177 63.9047 162.875 64.1244C162.432 64.444 162.069 64.8436 161.767 65.303C161.082 66.3219 160.579 67.4206 160.276 68.5993C160.135 69.1386 160.055 69.698 159.954 70.2573C159.934 70.3972 159.894 70.537 159.873 70.6769C159.873 70.7967 159.793 70.8167 159.692 70.8167C159.33 70.8167 158.967 70.8167 158.604 70.8167C158.604 70.8167 158.604 70.8167 158.584 70.8167H158.604Z" fill="#212121"/>
<path d="M194.302 65.1606C194.504 64.841 194.705 64.5013 194.927 64.1817C195.31 63.6623 195.773 63.2228 196.357 62.8832C196.962 62.5236 197.606 62.4437 198.271 62.5436C198.936 62.6435 199.379 63.1829 199.48 63.8621C199.54 64.2616 199.54 64.6612 199.48 65.0607C199.359 65.7799 199.218 66.519 199.077 67.2382C198.916 68.0772 198.755 68.9362 198.593 69.7753C198.533 70.0749 198.493 70.3946 198.432 70.6942C198.432 70.7941 198.352 70.7941 198.271 70.8141C197.908 70.8141 197.566 70.8141 197.203 70.8141C197.143 70.8141 197.062 70.8141 197.002 70.8141C197.002 70.8141 197.002 70.8141 196.982 70.8141C196.982 70.7142 196.982 70.6343 197.002 70.5344C197.062 70.2148 197.123 69.8951 197.183 69.5755C197.284 69.116 197.385 68.6366 197.465 68.1771C197.647 67.2382 197.828 66.3193 197.989 65.3803C198.05 65.0607 198.09 64.761 198.029 64.4214C197.969 64.0818 197.747 63.8022 197.465 63.7622C197.244 63.7222 197.022 63.7222 196.8 63.8221C196.216 64.0619 195.793 64.4814 195.41 64.9608C194.907 65.6201 194.504 66.3592 194.182 67.1183C193.94 67.6777 193.738 68.237 193.617 68.8364C193.557 69.176 193.476 69.5156 193.416 69.8552C193.376 70.1149 193.315 70.3746 193.295 70.6343C193.295 70.7541 193.215 70.7741 193.114 70.7741C192.691 70.7741 192.268 70.7741 191.865 70.7741C191.865 70.7741 191.865 70.7741 191.845 70.7741C191.845 70.7541 191.825 70.7342 191.845 70.7142C191.925 70.3346 192.006 69.9551 192.086 69.5955C192.187 69.116 192.268 68.6166 192.368 68.1372C192.429 67.8175 192.489 67.4979 192.55 67.1583C192.671 66.519 192.791 65.8997 192.912 65.2605C193.074 64.4614 193.215 63.6423 193.356 62.8433C193.356 62.7833 193.396 62.7034 193.416 62.6435C193.416 62.6435 193.416 62.6435 193.436 62.6435C193.879 62.6435 194.302 62.6435 194.746 62.6435H194.786C194.786 62.7234 194.786 62.7833 194.766 62.8632C194.564 63.6024 194.363 64.3415 194.161 65.0607C194.101 65.2405 194.041 65.4003 193.98 65.5801C193.98 65.6001 193.98 65.64 193.98 65.68C194 65.66 194.041 65.64 194.061 65.6201C194.141 65.4602 194.222 65.3004 194.302 65.1406V65.1606Z" fill="#212121"/>
<path d="M189.508 69.2789C189.508 69.3988 189.508 69.4987 189.508 69.6185C189.508 69.8582 189.508 70.1179 189.508 70.3577C189.508 70.3976 189.467 70.4576 189.447 70.4775C189.226 70.5574 189.004 70.6374 188.782 70.6773C188.44 70.7572 188.077 70.8171 187.735 70.8771C187.292 70.957 186.848 70.977 186.405 70.937C186.083 70.917 185.781 70.8571 185.479 70.7572C185.015 70.6374 184.632 70.3776 184.371 69.9581C184.29 69.8183 184.209 69.6785 184.149 69.5186C184.068 69.2589 184.008 68.9992 183.968 68.7196C183.947 68.5198 183.947 68.32 183.947 68.1202C183.947 67.481 184.048 66.8617 184.209 66.2424C184.411 65.5033 184.693 64.824 185.156 64.2247C185.761 63.3857 186.566 62.8064 187.594 62.5666C187.735 62.5267 187.876 62.5067 188.017 62.5067C188.42 62.4668 188.823 62.4668 189.226 62.5467C189.669 62.6266 190.072 62.7864 190.394 63.126C190.797 63.5655 190.898 64.0649 190.817 64.6443C190.777 64.904 190.696 65.1437 190.575 65.3834C190.434 65.6231 190.253 65.8429 190.031 66.0227C189.347 66.5421 188.561 66.7818 187.715 66.9416C187.332 67.0215 186.929 67.0814 186.546 67.1414C186.526 67.1414 186.506 67.1414 186.466 67.1414C186.204 67.1414 185.922 67.1614 185.66 67.1614C185.559 67.1614 185.539 67.2213 185.519 67.2812C185.479 67.5609 185.438 67.8206 185.438 68.1003C185.438 68.3 185.479 68.5198 185.499 68.7196C185.579 69.199 185.861 69.4987 186.325 69.6185C186.707 69.7184 187.09 69.7384 187.493 69.7184C187.916 69.6984 188.319 69.6385 188.722 69.5386C188.964 69.4787 189.206 69.3788 189.427 69.2989C189.447 69.2989 189.488 69.2989 189.528 69.2589L189.508 69.2789ZM188.218 63.6454C187.775 63.6054 187.372 63.7852 187.01 64.005C186.687 64.2048 186.446 64.5044 186.244 64.8041C186.002 65.1836 185.841 65.6031 185.68 66.0227C185.66 66.1026 185.68 66.1425 185.781 66.1225C185.902 66.1225 186.043 66.0826 186.184 66.0826C186.707 66.0426 187.231 66.0027 187.755 65.8828C188.178 65.7829 188.581 65.6631 188.923 65.3634C189.206 65.1237 189.407 64.824 189.367 64.4245C189.347 64.1448 189.226 63.9451 188.984 63.8052C188.742 63.6654 188.5 63.6054 188.239 63.6254L188.218 63.6454Z" fill="#212121"/>
<path d="M174.157 62.7469C174.096 63.0266 174.036 63.2863 173.975 63.526C173.935 63.6658 173.915 63.7857 173.895 63.9255C173.875 64.0254 173.834 64.0454 173.713 64.0054C173.331 63.8656 172.948 63.7657 172.545 63.7657C172.122 63.7657 171.719 63.7857 171.336 63.9455C171.215 63.9854 171.095 64.0654 170.974 64.1453C170.349 64.5848 169.906 65.1841 169.624 65.9032C169.443 66.3827 169.322 66.8821 169.261 67.4015C169.201 67.861 169.221 68.3005 169.362 68.74C169.503 69.1595 169.785 69.3992 170.168 69.5391C170.591 69.6989 171.034 69.6789 171.477 69.6389C171.941 69.599 172.364 69.4591 172.807 69.2993C172.767 69.6389 172.746 69.9785 172.706 70.3182C172.706 70.3182 172.706 70.3381 172.706 70.3581C172.746 70.5579 172.626 70.6178 172.485 70.6378C172.021 70.7377 171.558 70.8575 171.095 70.9374C170.45 71.0373 169.825 70.9374 169.221 70.7377C168.496 70.478 168.032 69.9586 167.831 69.2194C167.73 68.8399 167.67 68.4603 167.69 68.0608C167.71 67.6412 167.771 67.2217 167.831 66.8022C167.932 66.1629 168.153 65.5836 168.435 65.0243C168.798 64.3251 169.302 63.7257 169.966 63.2663C170.49 62.9067 171.074 62.667 171.699 62.5871C172.102 62.5271 172.525 62.5271 172.948 62.5471C173.351 62.5671 173.754 62.667 174.177 62.7469H174.157Z" fill="#212121"/>
<path d="M153.669 60.0066C153.669 60.506 153.266 60.9255 152.762 60.9255C152.339 60.9255 151.896 60.486 151.916 60.0865C151.936 59.5271 152.359 59.1875 152.822 59.1875C153.286 59.1875 153.689 59.5671 153.689 60.0066H153.669Z" fill="#212121"/>
<path d="M156.831 59.9666C156.831 60.526 156.469 60.8855 155.945 60.9055C155.482 60.9055 155.099 60.5659 155.079 60.0265C155.079 59.587 155.522 59.1875 156.005 59.1875C156.449 59.1875 156.872 59.607 156.831 59.9866V59.9666Z" fill="#212121"/>
<path d="M174.58 70.7773C174.58 70.7773 174.6 70.7973 174.62 70.8173C174.62 70.8173 174.6 70.8173 174.58 70.8173C174.58 70.8173 174.58 70.7973 174.58 70.7773Z" fill="#212121"/>
<path d="M33.4191 59.8095C33.3385 60.209 33.2781 60.6086 33.1975 61.0081C33.1169 61.4676 32.9961 61.947 32.9155 62.4065C32.7543 63.2855 32.573 64.1445 32.4118 65.0235C32.2708 65.7427 32.1298 66.4618 32.0089 67.181C31.9485 67.4807 31.9283 67.7803 31.9283 68.08C31.9283 68.4395 32.0492 68.7792 32.291 69.0588C32.5529 69.3585 32.8953 69.5383 33.2982 69.5982C33.6407 69.6581 33.9832 69.6981 34.3257 69.6981C34.9502 69.6781 35.5546 69.5982 36.0985 69.2586C36.6424 68.939 36.9849 68.4595 37.2468 67.9002C37.5288 67.2609 37.6497 66.5817 37.7706 65.9025C37.8512 65.403 37.972 64.9236 38.0728 64.4441C38.1936 63.8049 38.3145 63.1456 38.4555 62.5064C38.5966 61.7473 38.7577 60.9881 38.8987 60.229C38.9189 60.1091 38.9189 59.9893 38.9592 59.8894C38.9592 59.8494 39.0398 59.7895 39.08 59.7695C39.5233 59.7695 39.9665 59.7695 40.4097 59.7695C40.3895 59.8894 40.3694 60.0093 40.3492 60.1291C40.2082 60.8683 40.047 61.6074 39.906 62.3466C39.765 63.0458 39.6441 63.725 39.5031 64.4242C39.3822 65.1034 39.2614 65.7826 39.1203 66.4618C39.0398 66.9013 38.939 67.3408 38.798 67.7603C38.6368 68.2398 38.4152 68.6793 38.1131 69.0988C37.69 69.6981 37.1461 70.1176 36.5014 70.4372C36.0179 70.677 35.4941 70.7968 34.9703 70.8767C34.4063 70.9566 33.8422 70.9566 33.2781 70.9167C32.6536 70.8568 32.0694 70.6969 31.5254 70.3773C31.0419 70.0777 30.7599 69.6382 30.5987 69.0788C30.4577 68.6193 30.4577 68.1399 30.498 67.6604C30.5181 67.3009 30.6189 66.9413 30.6793 66.5817C30.8203 65.8026 30.9815 65.0435 31.1225 64.2843C31.2635 63.5452 31.4046 62.826 31.5456 62.0869C31.6463 61.5275 31.7672 60.9881 31.8679 60.4487C31.9082 60.269 31.9283 60.1091 31.9485 59.9293C31.9485 59.8295 32.0089 59.7895 32.1096 59.7895C32.5327 59.7895 32.9759 59.7895 33.399 59.7895C33.399 59.7895 33.399 59.7895 33.4191 59.8095Z" fill="#212121"/>
<path d="M100.323 62.8058C100.182 63.545 100.041 64.2442 99.8998 64.9434C99.7789 65.5626 99.658 66.162 99.5371 66.7812C99.4364 67.3406 99.3155 67.9 99.2148 68.4593C99.0738 69.1985 98.9328 69.9376 98.7716 70.6568C98.7716 70.7567 98.7313 70.8166 98.6104 70.7966C98.2075 70.7966 97.8248 70.7966 97.4218 70.7966C97.3816 70.7966 97.3413 70.7966 97.2607 70.7966C97.4219 70.2373 97.5629 69.6779 97.724 69.1385C97.8852 68.5991 98.0464 68.0598 98.1874 67.5204C98.1672 67.5603 98.127 67.6203 98.1068 67.6602C97.7442 68.3594 97.3413 69.0586 96.8175 69.6579C96.3944 70.1374 95.9109 70.5569 95.2864 70.7766C94.6619 70.9964 94.0374 71.0363 93.4129 70.6967C93.0905 70.5169 92.8891 70.2373 92.7682 69.8977C92.6272 69.4981 92.5466 69.0986 92.5466 68.6591C92.5466 68.0598 92.5667 67.4804 92.6876 66.9011C92.8286 66.2219 93.0502 65.5626 93.4129 64.9633C93.8964 64.1443 94.541 63.485 95.3871 63.0455C95.8303 62.8258 96.3138 62.686 96.8175 62.6061C97.3816 62.5261 97.9255 62.5062 98.4896 62.5661C99.0134 62.626 99.5371 62.686 100.081 62.7459C100.142 62.7459 100.222 62.7459 100.303 62.7659L100.323 62.8058ZM94.118 68.2396C94.118 68.5192 94.118 68.8988 94.2791 69.2384C94.4 69.5381 94.7022 69.7578 95.0044 69.7179C95.2058 69.6979 95.4274 69.618 95.6289 69.5381C96.0721 69.3183 96.4146 68.9587 96.7167 68.5792C97.2002 67.9599 97.6032 67.2807 97.9053 66.5615C98.268 65.7225 98.55 64.8834 98.691 63.9845C98.691 63.9046 98.691 63.8646 98.5903 63.8446C98.3284 63.8246 98.0867 63.7647 97.8248 63.7447C97.2405 63.7048 96.6765 63.7847 96.1728 64.0244C95.4879 64.344 95.0447 64.9034 94.7022 65.5626C94.2993 66.3817 94.0978 67.2607 94.118 68.2595V68.2396Z" fill="#212121"/>
<path d="M44.0358 62.7451C43.9754 63.0847 43.9149 63.4243 43.8142 63.7639C43.6127 64.4431 43.3911 65.1223 43.1897 65.8015C43.1897 65.8015 43.1897 65.8015 43.1897 65.8615C43.23 65.7816 43.2703 65.7216 43.3106 65.6617C43.5926 65.0424 43.9552 64.4831 44.3984 63.9637C44.8215 63.4842 45.305 63.0447 45.9094 62.805C46.5339 62.5453 47.1584 62.4854 47.7829 62.7051C48.3268 62.8849 48.629 63.3044 48.7096 63.8438C48.7499 64.1634 48.77 64.503 48.7499 64.8227C48.7297 65.1823 48.6492 65.5418 48.5887 65.9014C48.4679 66.5207 48.3671 67.14 48.2462 67.7593C48.0851 68.6383 47.9038 69.5372 47.7426 70.4162C47.7225 70.5361 47.7023 70.636 47.6822 70.7558C47.6822 70.7758 47.6419 70.8357 47.6016 70.8357C47.1382 70.8357 46.695 70.8357 46.2115 70.8357C46.2518 70.656 46.272 70.4961 46.2921 70.3363C46.3727 69.9368 46.4331 69.5572 46.5137 69.1577C46.5943 68.7581 46.6749 68.3586 46.7555 67.9391C46.8763 67.3198 46.9771 66.6805 47.1181 66.0612C47.2188 65.6018 47.3195 65.1223 47.2793 64.6429C47.2793 64.4231 47.2188 64.2034 47.0778 64.0236C46.9771 63.9237 46.8159 63.8438 46.6547 63.8238C46.0907 63.7239 45.6475 64.0036 45.2445 64.3632C44.8013 64.7627 44.479 65.2222 44.1768 65.7216C43.6329 66.6006 43.23 67.5395 42.9479 68.5184C42.8271 68.9379 42.7666 69.3575 42.686 69.777C42.6256 70.0966 42.5652 70.4362 42.5047 70.7558C42.5047 70.7758 42.4644 70.8158 42.4443 70.8158C41.9809 70.8158 41.5176 70.8158 41.0542 70.8158C41.0945 70.576 41.155 70.3563 41.1953 70.1366C41.3363 69.3575 41.4974 68.5783 41.6385 67.7992C41.7795 67.0401 41.9407 66.281 42.0817 65.5219C42.1824 64.9825 42.2831 64.4231 42.3839 63.8838C42.4443 63.5841 42.4846 63.2645 42.545 62.9648V62.9249C42.545 62.8649 42.545 62.765 42.5652 62.7451C42.6256 62.7051 42.7263 62.7051 42.7868 62.7051C43.1897 62.7051 43.5725 62.7051 43.9754 62.7051C43.9754 62.7051 43.9754 62.7051 43.9754 62.7251L44.0358 62.7451Z" fill="#212121"/>
<path d="M68.0293 69.298C68.0293 69.5377 68.0293 69.7575 68.0293 69.9772C68.0293 70.0771 68.0293 70.177 68.0293 70.2569C68.0293 70.3967 67.989 70.4767 67.8682 70.4966C67.566 70.5765 67.2839 70.6764 66.9818 70.7364C66.4983 70.8562 66.0349 70.8962 65.5313 70.9161C65.2694 70.9161 64.9873 70.9361 64.7254 70.9161C64.1614 70.8362 63.6174 70.7364 63.1742 70.3368C62.8318 70.0372 62.6303 69.6376 62.5296 69.2181C62.4288 68.7586 62.4288 68.2992 62.449 67.8197C62.4691 67.2404 62.5699 66.681 62.731 66.1416C63.0332 65.1428 63.5167 64.2438 64.3024 63.5446C64.947 62.9653 65.7126 62.6257 66.599 62.5658C67.0623 62.5258 67.5056 62.5658 67.9488 62.6856C68.6539 62.8654 69.1978 63.3249 69.2985 64.124C69.3791 64.6833 69.2582 65.2227 68.8755 65.6822C68.4524 66.2216 67.8682 66.5012 67.2437 66.721C66.6997 66.9207 66.1155 67.0406 65.5313 67.1005C65.0679 67.1405 64.6046 67.1804 64.1412 67.2204C64.0606 67.2204 64.0002 67.2604 64.0002 67.3403C63.9801 67.58 63.9398 67.7997 63.9398 68.0395C63.9398 68.2792 63.9398 68.5189 63.9801 68.7586C64.0808 69.3579 64.4233 69.6776 65.0276 69.7175C65.4507 69.7575 65.8738 69.7775 66.2767 69.7175C66.74 69.6576 67.1832 69.5178 67.6264 69.4179C67.7473 69.3979 67.8682 69.338 68.0092 69.298H68.0293ZM64.1614 66.1017C64.1614 66.1017 64.1815 66.1217 64.2017 66.1416C64.3628 66.1416 64.524 66.1217 64.665 66.1017C65.0276 66.0617 65.3903 66.0418 65.7529 66.0018C66.2767 65.9219 66.8005 65.822 67.2638 65.5423C67.6466 65.3026 67.8682 64.983 67.8682 64.5235C67.8682 64.104 67.5257 63.7644 67.1832 63.7045C66.5386 63.5846 65.9342 63.7045 65.4104 64.1439C65.0276 64.4636 64.7456 64.8631 64.524 65.3026C64.4031 65.5823 64.2822 65.842 64.1614 66.1217V66.1017Z" fill="#212121"/>
<path d="M57.4327 69.06C57.473 69.0001 57.5133 68.9601 57.5334 68.9202C57.8961 68.2409 58.2385 67.5617 58.6012 66.8825C59.125 65.8837 59.6487 64.8648 60.1927 63.866C60.4344 63.4065 60.6762 62.9271 60.9179 62.4676C60.9179 62.4276 60.9985 62.3877 61.0388 62.4077C61.4618 62.5475 61.8849 62.6873 62.3281 62.8472C62.2274 63.0469 62.1267 63.2267 62.0259 63.4065C61.6835 64.0458 61.3208 64.6651 60.9784 65.3043C60.6157 65.9835 60.233 66.6428 59.8703 67.322C59.3868 68.221 58.8832 69.1199 58.3997 70.0189C58.2587 70.2586 58.1378 70.4983 57.9968 70.7381C57.9565 70.818 57.8961 70.8579 57.8155 70.8579C57.3924 70.8579 56.9492 70.8579 56.5262 70.8579C56.4456 70.8579 56.4254 70.838 56.4254 70.758C56.3851 70.4983 56.3247 70.2386 56.2844 69.9789C56.1434 69.1799 56.0024 68.3608 55.8412 67.5617C55.7606 67.0823 55.6599 66.6028 55.5592 66.1234C55.4584 65.544 55.3577 64.9847 55.257 64.4054C55.1764 63.886 55.0757 63.3865 54.9749 62.8671C54.9749 62.8072 54.9749 62.7473 55.0555 62.7473C55.539 62.7473 56.0225 62.7473 56.5262 62.7473C56.8082 64.8449 57.2716 66.9225 57.4327 69.08V69.06Z" fill="#212121"/>
<path d="M104.775 62.6848C105.48 62.6848 106.205 62.6848 106.91 62.6848C106.91 62.6848 106.91 62.7048 106.91 62.7248C106.85 62.9645 106.79 63.2042 106.749 63.4639C106.749 63.5438 106.749 63.6238 106.729 63.7037C106.729 63.8035 106.669 63.8435 106.548 63.8435C105.923 63.8435 105.279 63.8435 104.654 63.8435C104.473 63.8435 104.473 63.8435 104.433 64.0233C104.332 64.5827 104.211 65.122 104.11 65.6814C104.01 66.1808 103.929 66.6802 103.828 67.1797C103.748 67.6192 103.647 68.0586 103.586 68.4981C103.546 68.7778 103.526 69.0775 103.627 69.3572C103.727 69.5969 103.929 69.6368 104.151 69.6968C104.433 69.7567 104.694 69.6968 104.976 69.6968C105.158 69.6768 105.359 69.6368 105.541 69.6169C105.541 69.7367 105.541 69.8566 105.541 69.9764C105.541 70.2162 105.5 70.4559 105.46 70.6956C105.46 70.7955 105.42 70.8355 105.299 70.8554C104.856 70.8954 104.412 70.9553 103.989 70.9753C103.607 70.9753 103.204 70.9753 102.841 70.7955C102.358 70.5957 102.136 70.2162 102.076 69.7167C102.015 69.1973 102.076 68.6979 102.196 68.1985C102.398 67.1996 102.599 66.2008 102.781 65.2019C102.861 64.7624 102.942 64.3229 103.022 63.8835H101.37C101.37 63.7836 101.411 63.6837 101.431 63.5638C101.471 63.3241 101.511 63.0844 101.552 62.8447C101.552 62.7448 101.632 62.7448 101.713 62.7448C101.995 62.7448 102.297 62.7448 102.579 62.7448C102.76 62.7448 102.962 62.7448 103.143 62.7448C103.224 62.7448 103.264 62.7248 103.284 62.6249C103.425 61.9057 103.566 61.1666 103.707 60.4474C103.748 60.0678 103.707 60.1278 104.09 60.0479C104.433 59.968 104.755 59.8881 105.097 59.8281C105.158 59.8281 105.218 59.8281 105.279 59.8281C105.259 59.948 105.238 60.0878 105.218 60.2077C105.097 60.787 104.976 61.3664 104.876 61.9457C104.835 62.1854 104.775 62.4251 104.735 62.6649C104.735 62.7048 104.735 62.7248 104.755 62.7647C104.755 62.7647 104.755 62.7647 104.775 62.7647V62.6848Z" fill="#212121"/>
<path d="M90.5723 59.7305C90.3709 60.7093 90.1694 61.6682 89.968 62.6671H92.2041C92.2041 62.767 92.184 62.8269 92.1638 62.9068C92.1034 63.1865 92.043 63.4462 92.0027 63.7259C92.0027 63.8058 91.9422 63.8258 91.8617 63.8258C91.217 63.8258 90.5925 63.8258 89.9478 63.8258C89.7665 63.8258 89.7665 63.8258 89.7262 64.0055C89.6456 64.4251 89.565 64.8646 89.4845 65.2841C89.3434 65.9833 89.2226 66.6825 89.0815 67.3617C89.001 67.7812 88.9204 68.2007 88.8599 68.6202C88.8398 68.84 88.8197 69.0597 88.9002 69.2595C89.001 69.5192 89.1823 69.6391 89.4643 69.679C89.9277 69.7389 90.3709 69.6191 90.8342 69.5592C90.8342 69.699 90.8342 69.8388 90.8141 69.9787C90.7939 70.1984 90.7536 70.4182 90.7536 70.6379C90.7536 70.7178 90.7335 70.7578 90.6529 70.7578C90.3709 70.7977 90.0888 70.8377 89.8068 70.8577C89.5449 70.8776 89.283 70.8776 89.0211 70.8776C88.6988 70.8776 88.3966 70.8177 88.1146 70.6978C87.6714 70.518 87.4699 70.1585 87.3893 69.719C87.3087 69.2994 87.349 68.86 87.4296 68.4404C87.6512 67.2618 87.893 66.0632 88.1146 64.8845C88.175 64.5649 88.2354 64.2453 88.2959 63.9456C88.316 63.8457 88.2959 63.8058 88.175 63.8058C87.6915 63.8058 87.2281 63.8058 86.7446 63.8058C86.7044 63.8058 86.6842 63.8058 86.6439 63.8058C86.7044 63.4662 86.7849 63.1266 86.8454 62.8069C86.8454 62.707 86.926 62.6871 87.0065 62.6871C87.4699 62.6871 87.9131 62.6871 88.3764 62.6871C88.4772 62.6871 88.5376 62.6871 88.5578 62.5472C88.6988 61.7681 88.8599 61.009 89.001 60.2299C89.0211 60.0901 89.0816 60.0301 89.2226 59.9902C89.6456 59.9103 90.0687 59.8104 90.4917 59.7305C90.4917 59.7305 90.532 59.7305 90.5723 59.7305Z" fill="#212121"/>
<path d="M80.0764 62.5273C80.298 62.5473 80.6002 62.5873 80.8823 62.6073C80.983 62.6073 81.0636 62.6073 81.1643 62.6272C81.265 62.6272 81.2852 62.6872 81.265 62.7671C81.1844 63.1067 81.124 63.4263 81.0434 63.7659C81.0434 63.8258 80.983 63.8458 80.9225 63.8258C80.4793 63.6461 79.9958 63.6461 79.5325 63.666C79.19 63.666 78.8677 63.7459 78.5857 63.9657C78.0417 64.4052 77.9813 65.1044 78.5051 65.6238C78.8677 65.9834 79.2907 66.263 79.6735 66.6027C79.8951 66.8024 80.1167 67.0022 80.298 67.2419C80.5801 67.6215 80.6808 68.041 80.6405 68.5204C80.6002 69.0199 80.3988 69.4194 80.0966 69.799C79.8347 70.1386 79.4721 70.3583 79.0893 70.5581C78.6662 70.7579 78.223 70.8777 77.7798 70.9177C77.3971 70.9576 77.0143 70.9976 76.6114 70.9576C76.3495 70.9177 76.0876 70.8977 75.8257 70.8777C75.8056 70.8777 75.7653 70.8178 75.7653 70.7978C75.8257 70.4382 75.9063 70.0587 75.9667 69.6991C75.9667 69.6192 76.0272 69.5992 76.1077 69.6192C76.3293 69.6791 76.5509 69.739 76.7927 69.779C77.4575 69.8589 78.1223 69.8589 78.7267 69.4594C78.9886 69.2796 79.1296 68.9999 79.1497 68.6803C79.19 68.2208 78.9684 67.8612 78.6259 67.5815C78.3036 67.3218 77.9611 67.0821 77.6388 66.8224C77.3165 66.5427 76.974 66.263 76.8531 65.8435C76.7725 65.5838 76.692 65.3041 76.692 65.0245C76.7121 64.2254 77.0747 63.5861 77.7597 63.1466C78.3036 62.787 78.9281 62.6472 79.5728 62.6272C79.734 62.6272 79.8951 62.6272 80.1369 62.5873L80.0764 62.5273Z" fill="#212121"/>
<path d="M73.2874 62.6858C73.2269 62.9655 73.1866 63.2451 73.106 63.5248C72.965 64.0242 72.824 64.5037 72.683 65.0031C72.6427 65.1629 72.5621 65.3427 72.5017 65.5025C72.5017 65.5425 72.5017 65.6024 72.4815 65.6424C72.4815 65.6424 72.5017 65.6424 72.5218 65.6424C72.542 65.6224 72.5621 65.5824 72.5823 65.5625C72.8844 64.8033 73.3075 64.1041 73.8313 63.4649C74.0529 63.1852 74.3148 62.9655 74.6371 62.7857C74.9393 62.6059 75.2415 62.506 75.6041 62.526C75.725 62.526 75.8459 62.526 75.9869 62.526C75.9869 62.5659 75.9869 62.6059 75.9869 62.6458C75.9063 63.0454 75.8056 63.4249 75.7048 63.8245C75.7048 63.8444 75.6444 63.9044 75.6243 63.8844C75.2012 63.7845 74.8587 63.9643 74.5565 64.184C74.1335 64.5037 73.791 64.9232 73.509 65.3827C73.0255 66.1817 72.6225 67.0208 72.3607 67.9197C72.1995 68.4591 72.0786 68.9985 71.998 69.5379C71.9577 69.8775 71.8772 70.1971 71.8167 70.5367C71.8167 70.5967 71.8167 70.6965 71.7764 70.7165C71.7361 70.7565 71.6354 70.7165 71.575 70.7165C71.1922 70.7165 70.7893 70.7165 70.4065 70.7165C70.4065 70.7165 70.3662 70.7165 70.3461 70.7165C70.4065 70.3969 70.467 70.0573 70.5274 69.7377C70.7087 68.8187 70.8699 67.8998 71.0512 66.9808C71.1721 66.3416 71.2929 65.7023 71.4138 65.063C71.5548 64.3039 71.6958 63.5448 71.8369 62.7857C71.8637 62.6658 71.9443 62.6059 72.0786 62.6059C72.4815 62.6059 72.8643 62.6059 73.2672 62.6059C73.2672 62.6059 73.2672 62.6059 73.2874 62.6258V62.6858Z" fill="#212121"/>
<path d="M82.4133 70.7747C82.4738 70.4751 82.5342 70.1954 82.5946 69.9157C82.776 69.0367 82.9371 68.1378 83.1184 67.2588C83.2796 66.4197 83.4408 65.5607 83.6019 64.7217C83.7228 64.0824 83.8437 63.4232 83.9645 62.7839C83.9645 62.684 84.0451 62.6641 84.1257 62.6641C84.4883 62.6641 84.851 62.6641 85.2136 62.6641C85.274 62.6641 85.3345 62.6641 85.415 62.6641C85.415 62.744 85.415 62.8039 85.415 62.8838C85.3345 63.3233 85.2337 63.7628 85.1531 64.2023C85.0726 64.6218 84.992 65.0413 84.9114 65.4409C84.8107 65.9802 84.7099 66.4996 84.6092 67.039C84.5286 67.4585 84.448 67.898 84.3675 68.3176C84.2466 68.9169 84.1257 69.5361 84.025 70.1355C83.9847 70.3152 83.9645 70.495 83.9243 70.6748C83.9243 70.6948 83.884 70.7547 83.8437 70.7547C83.3803 70.7547 82.917 70.7547 82.4536 70.7547L82.4133 70.7747Z" fill="#212121"/>
<path d="M53.4036 62.6641C52.8798 65.3809 52.3761 68.0778 51.8524 70.7747H50.4019C50.5832 69.7759 50.7846 68.797 50.9659 67.8181C51.0667 67.3387 51.1674 66.8393 51.248 66.3598C51.4293 65.4009 51.6308 64.442 51.8121 63.5031C51.8524 63.2434 51.8926 63.0037 51.9531 62.744C51.9531 62.724 51.9934 62.6641 52.0337 62.6641C52.497 62.6641 52.9402 62.6641 53.4036 62.6641Z" fill="#212121"/>
<path d="M53.1618 59.4492C53.7058 59.4492 54.1087 59.8687 54.1087 60.3482C54.1087 60.7877 53.7058 61.2471 53.2626 61.3071C52.8999 61.367 52.5776 61.2671 52.356 60.9475C52.1344 60.6279 52.1344 60.2883 52.3359 59.9486C52.5373 59.609 52.8395 59.4692 53.1618 59.4492Z" fill="#212121"/>
<path d="M86.1201 60.2887C86.1201 60.7482 85.7373 61.2077 85.2538 61.3076C84.8308 61.4075 84.307 61.0878 84.2264 60.5884C84.1257 60.029 84.6495 59.4297 85.2136 59.4497C85.6769 59.4497 85.9186 59.6695 86.0597 60.049C86.0798 60.1289 86.0798 60.2088 86.1 60.2688L86.1201 60.2887Z" fill="#212121"/>
<path d="M99.6178 60.968C99.1746 60.968 98.7515 60.5885 98.7515 60.149C98.7515 59.6895 99.1343 59.27 99.6178 59.25C100.081 59.25 100.504 59.5896 100.524 60.0091C100.524 60.5685 100.162 60.948 99.6379 60.948L99.6178 60.968Z" fill="#212121"/>
<path d="M97.3212 60.0491C97.3614 60.5485 96.9585 60.968 96.4347 60.968C95.9714 60.968 95.5685 60.5885 95.5685 60.149C95.5685 59.6296 95.9513 59.27 96.4952 59.25C96.9384 59.25 97.3816 59.6695 97.3212 60.0491Z" fill="#212121"/>
<path d="M44.0358 62.7465C44.0358 62.7465 44.0358 62.7465 44.0358 62.7266C44.0358 62.7266 44.0561 62.7266 44.0765 62.7266C44.0765 62.7266 44.0561 62.7266 44.0358 62.7266V62.7465Z" fill="#212121"/>
<path d="M33.4195 59.8095C33.4195 59.8095 33.4195 59.8095 33.3989 59.7891C33.3989 59.7891 33.3989 59.7891 33.4195 59.8095Z" fill="#212121"/>
<path d="M73.2877 62.6845C73.2877 62.6845 73.2877 62.6845 73.2672 62.6641C73.2672 62.6641 73.2672 62.6641 73.2877 62.6845Z" fill="#212121"/>
<path d="M125.485 73.6914C125.485 73.4517 125.465 73.2519 125.445 73.0322C125.445 72.9523 125.445 72.8524 125.445 72.7725C125.445 72.4129 125.445 72.0533 125.445 71.6937C125.445 71.474 125.525 71.2742 125.646 71.0944C125.827 70.7947 125.988 70.4751 126.17 70.1755C126.19 70.1355 126.19 70.0756 126.21 70.0156C126.109 70.0156 126.029 70.0156 125.948 70.0356C125.706 70.0955 125.485 69.9957 125.263 69.9158C125.062 69.8358 124.86 69.716 124.719 69.5562C124.679 69.5162 124.659 69.4962 124.639 69.4563C124.598 69.3764 124.538 69.3164 124.619 69.2166C124.679 69.1167 124.78 69.1566 124.86 69.1766C124.961 69.2166 125.082 69.2765 125.183 69.3364C125.545 69.5362 125.908 69.5162 126.271 69.2965C126.492 69.1566 126.714 69.1966 126.895 69.3564C127.036 69.2565 127.036 69.0967 127.056 68.9569C127.096 68.5573 127.036 68.1778 126.754 67.8781C126.492 67.5984 126.17 67.4186 125.747 67.4586C125.364 67.5185 125.001 67.6384 124.679 67.8581C124.659 67.8581 124.619 67.8981 124.598 67.9181C124.518 67.978 124.437 67.998 124.357 67.8981C124.296 67.8182 124.316 67.7383 124.357 67.6584C124.578 67.2788 124.921 67.059 125.324 66.9192C125.465 66.8793 125.626 66.8393 125.787 66.8193C125.868 66.8193 125.868 66.7794 125.827 66.6995C125.626 66.3399 125.404 65.9803 125.203 65.6007C125.122 65.4409 125.102 65.2411 125.082 65.0613C125.021 64.6019 124.981 64.1424 124.619 63.7828C124.478 63.643 124.276 63.5431 124.115 63.4033C124.054 63.3433 123.974 63.2834 123.934 63.2035C123.692 62.744 123.39 62.3045 123.047 61.925C122.745 61.5853 122.362 61.4056 121.919 61.3057C121.496 61.2058 121.073 61.1459 120.65 61.1459C120.428 61.1459 120.207 61.1459 119.985 61.1259C119.864 61.1259 119.763 61.046 119.743 60.9261C119.723 60.8262 119.804 60.7663 119.884 60.7463C119.985 60.7064 120.106 60.6864 120.207 60.6864C120.469 60.6664 120.73 60.6464 120.992 60.6265C121.174 60.6265 121.174 60.6265 121.154 60.4467C121.154 60.147 121.154 59.8473 121.154 59.5277C121.154 59.3879 121.174 59.248 121.194 59.0882C121.214 58.9284 121.274 58.7886 121.395 58.6687C121.476 58.6088 121.536 58.5289 121.617 58.449C121.677 58.389 121.677 58.3491 121.577 58.3091C121.274 58.1693 120.952 58.1493 120.65 58.0694C120.509 58.0294 120.348 58.0294 120.187 58.0095C119.884 57.9895 119.602 57.9695 119.3 57.9495C119.22 57.9495 119.159 57.9096 119.099 57.8696C118.978 57.7897 118.978 57.6299 119.099 57.57C119.24 57.51 119.381 57.4901 119.542 57.4701C119.925 57.4501 120.307 57.4102 120.69 57.4102C121.154 57.4102 121.597 57.53 121.959 57.8097C122.121 57.9296 122.262 58.0694 122.221 58.2891C122.181 58.429 122.121 58.5688 122.02 58.6687C121.818 58.8685 121.758 59.0882 121.738 59.3479C121.697 59.7475 121.758 60.127 121.859 60.5066C121.859 60.5665 121.899 60.6065 121.979 60.6265C122.342 60.7064 122.685 60.8662 123.007 61.0659C123.349 61.2857 123.652 61.5654 123.873 61.905C124.054 62.1647 124.236 62.4444 124.417 62.724C124.457 62.784 124.498 62.8239 124.558 62.8639C125.122 63.1835 125.424 63.663 125.646 64.2423C125.787 64.6019 125.827 64.9814 125.868 65.361C125.868 65.401 125.868 65.4609 125.908 65.5008C126.089 65.8205 126.25 66.1401 126.432 66.4597C126.492 66.5596 126.532 66.6795 126.613 66.7594C126.734 66.8992 126.875 67.0391 127.036 67.1789C127.379 67.4786 127.62 67.8381 127.661 68.2976C127.661 68.5373 127.701 68.7571 127.701 68.9968C127.701 69.1566 127.661 69.3364 127.62 69.4962C127.56 69.716 127.419 69.8758 127.217 69.9757C126.955 70.0955 126.794 70.2953 126.673 70.555C126.532 70.8347 126.371 71.0944 126.19 71.3541C126.089 71.5139 126.029 71.6737 126.029 71.8535C126.029 72.1931 126.029 72.5327 126.029 72.8724C126.029 73.2319 126.069 73.5715 126.069 73.9311C126.069 74.3107 126.029 74.2707 125.686 74.2508C125.545 74.2508 125.424 74.2108 125.283 74.1709C125.102 74.1309 125.102 74.1509 125.042 74.3107C125.021 74.3906 124.981 74.4705 124.981 74.5704C124.961 74.7502 124.86 74.89 124.739 75.0299C124.679 75.0898 124.659 75.1697 124.679 75.2496C124.76 75.4893 124.78 75.7091 124.679 75.9488C124.639 76.0287 124.598 76.0886 124.538 76.1885C124.659 76.2285 124.76 76.2884 124.88 76.3284C125.223 76.4283 125.586 76.5281 125.948 76.5281C126.452 76.5281 126.976 76.608 127.459 76.7679C127.882 76.9077 128.245 77.1474 128.587 77.4271C129.151 77.9066 129.574 78.4859 129.977 79.0852C130.219 79.4448 130.28 79.8243 130.34 80.2239C130.34 80.2838 130.36 80.3637 130.36 80.4237C130.36 80.5635 130.199 80.6234 130.098 80.5435C130.038 80.4836 129.977 80.4037 129.937 80.3238C129.756 79.8643 129.514 79.4248 129.232 79.0253C128.688 78.2661 128.023 77.6668 127.137 77.3072C126.814 77.1674 126.452 77.1075 126.109 77.1075C125.787 77.1075 125.485 77.1075 125.183 77.0276C125.042 76.9876 124.921 76.9477 124.8 76.8877C124.498 76.7479 124.196 76.668 123.873 76.628C123.631 76.5881 123.41 76.5481 123.168 76.5082C123.067 76.5082 123.027 76.5481 123.007 76.628C122.926 76.8677 122.906 77.1075 122.906 77.3672C122.906 77.507 122.906 77.6668 122.906 77.8067C122.906 77.8666 122.906 77.9265 122.866 77.9665C122.805 78.0863 122.705 78.1063 122.624 78.0064C122.584 77.9665 122.544 77.8866 122.523 77.8266C122.423 77.4071 122.342 76.9676 122.382 76.5281C122.382 76.4283 122.382 76.3284 122.241 76.2884C121.718 76.1086 121.295 75.789 120.892 75.4294C120.771 75.3095 120.63 75.1697 120.509 75.0498C120.469 74.9899 120.428 74.93 120.388 74.87C120.348 74.8101 120.348 74.7502 120.428 74.6903C120.489 74.6303 120.569 74.6103 120.63 74.6703C120.71 74.7302 120.811 74.7901 120.871 74.87C121.295 75.3295 121.818 75.6292 122.362 75.8689C122.725 76.0087 123.087 76.0886 123.49 76.1086C123.551 76.1086 123.631 76.1286 123.692 76.1086C124.054 76.0287 124.155 75.9089 124.155 75.5093C124.155 75.3695 124.095 75.2496 124.095 75.1098C124.095 75.0299 124.095 74.93 124.155 74.8501C124.216 74.7302 124.196 74.7102 124.075 74.6703C123.813 74.5904 123.551 74.4905 123.309 74.3906C123.249 74.3706 123.208 74.3107 123.168 74.2508C123.108 74.1509 123.168 74.031 123.289 74.031C123.531 74.031 123.772 74.031 123.994 74.071C124.135 74.071 124.296 74.071 124.437 74.071C124.457 74.071 124.498 74.031 124.498 73.9911C124.498 73.9311 124.498 73.8512 124.498 73.7713C124.498 73.6315 124.558 73.5516 124.699 73.5715C124.921 73.5915 125.142 73.6515 125.364 73.6714C125.384 73.6714 125.404 73.6714 125.465 73.6714L125.485 73.6914Z" fill="#212121"/>
<path d="M114.264 61.4853C114.203 61.6452 114.143 61.8249 114.102 61.9848C114.022 62.2445 113.961 62.5042 113.901 62.7639C113.841 63.0835 113.78 63.3832 113.72 63.7028C113.7 63.8826 113.659 64.0624 113.659 64.2222C113.659 64.7216 113.659 65.221 113.659 65.7005C113.659 66.2199 113.78 66.7393 113.921 67.2387C114.082 67.7981 114.304 68.3574 114.546 68.8768C114.787 69.3962 115.029 69.9156 115.11 70.495C115.15 70.6947 115.15 70.9145 115.17 71.1142C115.17 71.3939 115.211 71.6736 115.211 71.9733C115.211 72.2929 115.211 72.6125 115.19 72.9521C115.19 73.2518 115.17 73.5714 115.15 73.8711C115.13 74.2906 115.09 74.7101 115.049 75.1296C115.049 75.3893 115.009 75.649 115.009 75.9287C114.989 76.3282 114.969 76.7278 114.928 77.1073C114.928 77.2472 114.828 77.3271 114.687 77.367C114.284 77.4869 113.861 77.6068 113.458 77.7666C112.934 77.9664 112.451 78.2261 111.987 78.5457C111.685 78.7455 111.403 78.9652 111.121 79.185C111.06 79.2249 111 79.2848 110.919 79.3048C110.859 79.3048 110.758 79.3048 110.718 79.2649C110.678 79.2249 110.698 79.145 110.698 79.0851C110.698 79.0451 110.738 79.0052 110.758 78.9652C111.322 78.286 111.987 77.7067 112.793 77.3071C113.216 77.1073 113.639 76.9276 114.062 76.7478C114.163 76.7078 114.183 76.6679 114.183 76.568C114.183 76.2483 114.223 75.9487 114.244 75.6291C114.244 75.5092 114.244 75.3694 114.264 75.2495C114.264 74.83 114.304 74.3905 114.324 73.971C114.324 73.4516 114.364 72.9322 114.385 72.4128C114.385 72.0931 114.425 71.7735 114.405 71.4339C114.405 71.0343 114.385 70.6148 114.304 70.2153C114.244 69.8957 114.082 69.576 113.941 69.2764C113.8 68.9368 113.599 68.6171 113.498 68.2575C113.357 67.818 113.256 67.3586 113.156 66.9191C113.115 66.7393 113.075 66.5395 113.055 66.3597C113.035 66.16 112.994 65.9402 112.994 65.7404C112.994 65.281 112.954 64.8215 112.974 64.362C112.974 64.0424 113.075 63.7228 113.136 63.3832C113.176 63.1834 113.196 62.9836 113.277 62.8038C113.438 62.3843 113.619 61.9648 113.8 61.5453C113.82 61.4853 113.861 61.4454 113.901 61.3855C113.961 61.3055 114.022 61.2456 114.123 61.2656C114.223 61.2856 114.244 61.3855 114.244 61.4853H114.264Z" fill="#212121"/>
<path d="M121.234 79.8472C121.113 79.8472 120.992 79.8872 120.871 79.8672C120.589 79.8472 120.307 79.8073 120.025 79.7873C119.703 79.7474 119.381 79.6475 119.078 79.5276C118.897 79.4477 118.716 79.3678 118.555 79.2879C118.212 79.1081 117.89 78.9083 117.547 78.7285C117.104 78.4888 116.641 78.289 116.157 78.2091C115.835 78.1492 115.513 78.1492 115.19 78.2091C114.969 78.2491 114.747 78.2291 114.525 78.289C114.223 78.349 113.921 78.4489 113.639 78.5288C113.538 78.5487 113.458 78.5288 113.417 78.4489C113.357 78.3689 113.417 78.289 113.458 78.2291C113.498 78.1892 113.538 78.1492 113.579 78.1292C113.941 77.9894 114.284 77.8695 114.646 77.7497C114.949 77.6498 115.251 77.6098 115.553 77.6098C115.654 77.6098 115.734 77.6098 115.835 77.5898C116.218 77.5898 116.6 77.6498 116.963 77.8096C117.588 78.0693 118.212 78.349 118.817 78.6286C119.3 78.8484 119.804 79.0482 120.348 79.1281C120.71 79.188 121.073 79.168 121.456 79.168C122.1 79.168 122.705 78.9882 123.309 78.7885C124.155 78.5088 124.961 78.1092 125.747 77.7097C125.827 77.6698 125.908 77.6298 125.968 77.6298C126.029 77.6298 126.129 77.6498 126.129 77.6897C126.129 77.7696 126.129 77.8495 126.109 77.9095C126.109 77.9494 126.049 77.9894 126.009 78.0094C125.283 78.5288 124.498 78.9483 123.672 79.2879C123.269 79.4477 122.825 79.5875 122.402 79.7074C122.141 79.7873 121.879 79.8073 121.597 79.8472C121.496 79.8472 121.375 79.8672 121.254 79.8872L121.234 79.8472Z" fill="#212121"/>
<path d="M117.124 69.5357C117.185 69.3759 117.064 69.256 116.903 69.1561C116.46 68.8565 116.117 68.437 115.855 67.9575C115.573 67.4781 115.412 66.9587 115.351 66.3993C115.331 66.1996 115.311 65.9998 115.311 65.82C115.311 65.3206 115.412 64.8211 115.593 64.3417C115.835 63.6625 116.177 63.0632 116.641 62.5038C116.721 62.4039 116.822 62.2841 116.923 62.1842C117.003 62.1043 117.144 62.0843 117.205 62.1442C117.285 62.2241 117.265 62.304 117.245 62.4039C117.245 62.4439 117.205 62.4838 117.185 62.5038C117.024 62.7435 116.842 62.9833 116.681 63.243C116.58 63.4028 116.52 63.5626 116.46 63.7224C116.339 64.042 116.238 64.3816 116.157 64.7013C116.097 64.941 116.077 65.1807 116.057 65.4204C116.057 65.6002 116.016 65.7601 116.036 65.9399C116.036 66.6191 116.238 67.2384 116.641 67.7977C116.943 68.2372 117.306 68.5968 117.749 68.8964C117.749 68.8964 117.769 68.8964 117.789 68.9164C118.051 69.1362 118.031 69.1162 117.93 69.4358C117.809 69.7555 117.769 70.0951 117.829 70.4347C117.829 70.4946 117.85 70.5745 117.829 70.6344C117.829 70.6944 117.769 70.7543 117.709 70.7943C117.668 70.7943 117.588 70.7943 117.568 70.7343C117.487 70.6145 117.406 70.4946 117.346 70.3548C117.225 70.0951 117.144 69.8154 117.165 69.4958L117.124 69.5357Z" fill="#212121"/>
<path d="M120.509 68.9594C120.408 68.9395 120.247 68.9195 120.106 68.8795C120.005 68.8596 119.965 68.8795 119.925 68.9594C119.622 69.5987 119.159 70.1181 118.535 70.4577C118.474 70.4977 118.414 70.5177 118.353 70.4977C118.212 70.4977 118.132 70.3778 118.212 70.238C118.313 70.1181 118.394 69.9783 118.514 69.8784C118.897 69.5188 119.179 69.1193 119.381 68.6598C119.481 68.44 119.542 68.2003 119.622 67.9806C119.643 67.9007 119.663 67.8208 119.784 67.8008C119.904 67.8008 119.945 67.8607 120.005 67.9406C120.146 68.1604 120.307 68.3402 120.549 68.44C120.65 68.48 120.751 68.5 120.851 68.52C120.851 68.52 120.871 68.52 120.892 68.52C120.992 68.5599 121.093 68.6198 121.073 68.7397C121.073 68.8596 120.952 68.8795 120.871 68.8995C120.771 68.9195 120.67 68.8995 120.529 68.9395L120.509 68.9594Z" fill="#212121"/>
<path d="M124.316 71.5151C124.236 71.6949 124.075 71.7748 123.893 71.7948C123.813 71.7948 123.692 71.7348 123.631 71.6749C123.511 71.5151 123.39 71.3753 123.228 71.2554C123.168 71.2154 123.087 71.1555 123.208 71.0556C123.269 71.0157 123.208 70.9757 123.148 70.9557C123.027 70.9158 122.906 70.8559 122.805 70.7759C122.725 70.716 122.765 70.5362 122.886 70.5362C123.047 70.5362 123.228 70.5162 123.39 70.5362C123.611 70.5962 123.813 70.716 124.034 70.7959C124.155 70.8359 124.276 70.8758 124.397 70.8958C124.578 70.9158 124.699 70.9957 124.699 71.0956C124.719 71.4352 124.619 71.4552 124.417 71.5151C124.377 71.5151 124.336 71.5151 124.276 71.5151H124.316Z" fill="#212121"/>
<path d="M124.115 65.3208C124.256 65.3208 124.417 65.3008 124.558 65.3008C124.719 65.3008 124.82 65.3607 124.82 65.4806C124.82 65.6004 124.76 65.6803 124.598 65.7003C124.075 65.7203 123.571 65.8402 123.087 66C122.805 66.0999 122.523 66.2397 122.241 66.3596C122.141 66.3995 122.06 66.4794 121.919 66.4195C121.778 66.3396 121.738 66.2397 121.859 66.1598C122.1 66 122.342 65.8202 122.604 65.7003C122.926 65.5405 123.269 65.4206 123.631 65.3607C123.772 65.3607 123.934 65.3208 124.075 65.3208H124.115Z" fill="#212121"/>
<path d="M116.58 76.3307C116.52 76.3307 116.46 76.3307 116.419 76.3307C116.379 76.3107 116.319 76.2707 116.298 76.2108C116.298 76.1709 116.298 76.0909 116.359 76.071C116.439 76.011 116.54 75.9511 116.641 75.9112C117.104 75.7114 117.487 75.4317 117.709 74.9722C117.789 74.8124 117.85 74.6526 117.93 74.5128C117.97 74.4329 118.031 74.3529 118.111 74.313C118.253 74.2331 118.353 74.313 118.333 74.4528C118.313 74.6326 118.293 74.8324 118.232 75.0122C118.132 75.3318 117.991 75.6315 117.729 75.8512C117.386 76.1309 116.983 76.2907 116.58 76.3506V76.3307Z" fill="#212121"/>
<path d="M118.937 72.5732C118.937 72.2935 118.978 72.0538 119.099 71.8141C119.139 71.7342 119.199 71.6543 119.32 71.6942C119.421 71.7342 119.461 71.8341 119.441 71.9539C119.34 72.3535 119.401 72.733 119.622 73.0926C119.703 73.2125 119.824 73.3323 119.804 73.5121C119.804 73.652 119.683 73.7319 119.562 73.652C119.461 73.592 119.361 73.4922 119.26 73.3923C119.058 73.1525 118.897 72.8729 118.937 72.5732Z" fill="#212121"/>
</svg>
