<svg width="230" height="130" viewBox="0 0 230 130" fill="none" xmlns="http://www.w3.org/2000/svg">
<path d="M90.724 94.4957C90.8051 94.4957 90.8456 94.4552 90.9267 94.4147C89.7912 94.0904 89.3451 93.2394 89.3451 92.1857C89.3451 90.6457 89.3451 89.1057 89.3451 87.5657C89.3451 87.363 89.4262 87.282 89.629 87.282C89.629 87.282 89.6695 87.282 89.7101 87.282C90.3995 87.282 90.3995 87.282 90.3995 87.9304C90.3995 89.2678 90.3995 90.6052 90.3995 91.9425C90.3995 92.5504 90.5212 93.1178 91.089 93.4825C91.9001 93.9689 93.4411 93.7662 93.5628 92.3073C93.6845 90.8078 93.5628 89.2678 93.6033 87.7683C93.6033 87.6062 93.5222 87.4036 93.725 87.3225C94.0089 87.2415 94.2928 87.2415 94.5361 87.3225C94.6172 87.3225 94.6172 87.4846 94.6172 87.5657C94.6172 89.1867 94.6983 90.8078 94.5361 92.4288C94.455 93.361 94.0089 94.0904 93.0761 94.4147C92.9545 94.4552 92.9545 94.4957 93.0761 94.5768C92.3056 94.5768 91.5756 94.5768 90.8051 94.5768L90.724 94.4957Z" fill="#212121"/>
<path d="M104.593 94.4958C104.674 94.4958 104.715 94.4148 104.796 94.4148C103.904 94.05 103.458 93.4016 103.255 92.51C103.052 91.4968 103.133 90.5242 103.782 89.7137C104.309 89.0247 105.08 88.7816 105.931 88.8626C106.864 88.9437 107.513 89.4705 107.878 90.3216C108.243 91.3347 108.202 92.3479 107.756 93.3205C107.513 93.8069 107.148 94.1311 106.661 94.3337C106.58 94.3337 106.418 94.3337 106.54 94.4958C105.891 94.4958 105.242 94.4958 104.593 94.4958ZM107.107 91.6995C107.107 91.2942 107.107 90.9295 106.945 90.5242C106.824 90.2405 106.661 89.9568 106.337 89.7947C105.526 89.43 104.634 89.7947 104.39 90.6863C104.187 91.4158 104.187 92.1047 104.431 92.8342C104.593 93.3205 104.958 93.6042 105.445 93.6853C105.972 93.7663 106.418 93.6448 106.742 93.199C107.067 92.7532 107.107 92.2263 107.107 91.74V91.6995Z" fill="#212121"/>
<path d="M108.972 94.4967C109.135 94.3346 108.972 94.213 108.972 94.0509C108.972 92.4298 108.972 90.8493 108.972 89.2282C108.972 89.0256 109.054 88.9445 109.256 88.9445C109.378 88.9445 109.54 88.9445 109.662 88.9445C109.824 88.9445 109.905 89.0256 109.946 89.1877C109.946 89.4714 110.067 89.4308 110.23 89.3093C110.757 88.9445 111.325 88.7419 111.974 88.8635C112.622 88.9851 113.028 89.3903 113.19 89.9982C113.271 90.3224 113.312 90.6061 113.312 90.9303C113.312 91.9435 113.312 92.9567 113.312 93.9698C113.312 94.1319 113.15 94.294 113.312 94.4561H112.298C112.46 94.2535 112.298 94.0914 112.298 93.8888C112.298 92.8351 112.298 91.7814 112.298 90.7682C112.298 90.0387 111.933 89.674 111.284 89.7551C110.919 89.7551 110.595 89.9172 110.311 90.1198C110.067 90.2819 109.946 90.4845 109.946 90.8087C109.946 91.8624 109.946 92.9161 109.946 93.9293C109.946 94.0914 109.784 94.294 109.946 94.4561H109.013L108.972 94.4967Z" fill="#212121"/>
<path d="M95.8327 94.4951C95.8733 94.4546 95.995 94.4141 95.9138 94.2925C95.7516 94.0899 95.7922 93.8467 95.7922 93.6036C95.7922 92.1851 95.7922 90.7262 95.7922 89.3077C95.7922 89.0241 95.8733 88.9025 96.1572 88.943C96.2788 88.943 96.3599 88.943 96.4816 88.943C96.6844 88.943 96.7655 89.0241 96.7655 89.2267C96.7655 89.4698 96.8466 89.4699 97.0088 89.3483C97.2927 89.1456 97.6171 88.943 97.9821 88.9025C99.0366 88.6998 100.01 89.3888 100.05 90.483C100.05 91.6988 100.05 92.8741 100.05 94.0899C100.05 94.252 99.8476 94.3736 99.9693 94.5357H99.0366C99.2393 94.333 99.0771 94.0899 99.0771 93.8872C99.0771 92.9551 99.0771 92.023 99.0771 91.0909C99.0771 90.8072 98.996 90.5641 98.9149 90.3209C98.8338 90.0777 98.6716 89.9562 98.4688 89.9156C97.901 89.7535 97.4144 89.9967 96.9277 90.3209C96.7655 90.402 96.7249 90.5641 96.7249 90.7262C96.7249 92.023 96.7249 93.2793 96.7249 94.5762H95.7922L95.8327 94.4951Z" fill="#212121"/>
<path d="M101.39 94.4935C101.227 92.7914 101.39 91.0488 101.309 89.3467C101.309 88.9819 101.309 88.9414 101.714 88.9414C102.12 88.9414 102.322 89.144 102.322 89.5493C102.322 91.0083 102.322 92.4672 102.322 93.8856C102.322 94.0883 102.201 94.2909 102.241 94.4935H101.349H101.39Z" fill="#212121"/>
<path d="M89.3451 79.9882C89.3451 78.9345 89.3451 77.8808 89.3451 76.8677C89.3451 76.4624 89.3451 76.4219 89.7912 76.4219C91.0484 76.4219 92.265 76.4219 93.5222 76.4219C93.9278 76.4219 93.9278 76.4219 93.9278 76.8677C93.9278 76.9487 93.9278 77.0298 93.9278 77.1108C93.9278 77.354 93.8061 77.3945 93.6033 77.3945C92.6706 77.3945 91.6973 77.3945 90.7645 77.3945C90.4401 77.3945 90.359 77.4756 90.3995 77.7998C90.3995 78.1645 90.3995 78.5293 90.3995 78.9345C90.3995 79.1777 90.4806 79.2587 90.724 79.2587C91.5756 79.2587 92.4678 79.2587 93.3195 79.2587C93.6845 79.2587 93.725 79.2587 93.725 79.7451C93.725 80.1503 93.725 80.1908 93.3195 80.1908C92.4678 80.1908 91.6567 80.1908 90.8051 80.1908C90.5212 80.1908 90.3995 80.2719 90.3995 80.5961C90.3995 81.204 90.3995 81.8119 90.3995 82.4198C90.3995 82.7035 90.4806 82.7845 90.7645 82.7845C91.6973 82.7845 92.63 82.7845 93.5628 82.7845C93.9278 82.7845 93.9683 82.7845 93.9683 83.1898C93.9683 83.6356 93.9683 83.6761 93.5628 83.6761C92.3056 83.6761 91.0484 83.6761 89.7912 83.6761C89.5073 83.6761 89.3857 83.5545 89.3857 83.2709C89.3857 82.2172 89.3857 81.123 89.3857 80.0693L89.3451 79.9882Z" fill="#212121"/>
<path d="M109.258 81.8918C109.258 80.7975 109.258 79.7033 109.258 78.6091C109.258 78.2444 109.258 78.2038 109.664 78.2038C109.786 78.2038 109.948 78.2038 110.069 78.2038C110.191 78.2038 110.272 78.2444 110.272 78.366C110.272 78.6091 110.434 78.5281 110.556 78.447C112.178 77.3933 113.679 78.366 113.841 80.1491C113.882 80.7165 113.922 81.3244 113.719 81.8918C113.395 82.8644 112.787 83.5128 111.732 83.6749C111.327 83.7155 110.962 83.6749 110.597 83.4723C110.313 83.3507 110.272 83.4723 110.272 83.7155C110.272 84.2423 110.272 84.7691 110.272 85.2555C110.272 85.4986 110.191 85.5797 109.948 85.5797C109.056 85.5797 109.218 85.5797 109.218 84.8907C109.218 83.8776 109.218 82.9049 109.218 81.8918H109.258ZM110.313 81.0407C110.313 81.2839 110.313 81.4865 110.313 81.7297C110.313 82.3511 110.61 82.7158 111.205 82.8239C111.854 82.9455 112.462 82.6212 112.665 82.0133C112.908 81.2433 112.908 80.4733 112.665 79.7033C112.503 79.217 112.138 79.0144 111.611 79.0144C111.205 79.0144 110.84 79.217 110.516 79.4196C110.353 79.5007 110.313 79.6223 110.313 79.7844C110.313 80.1896 110.313 80.5949 110.313 81.0407Z" fill="#212121"/>
<path d="M131.238 79.8652C131.238 78.7709 131.238 77.6362 131.238 76.542C131.238 76.1367 131.238 76.1367 131.684 76.1367C132.089 76.1367 132.292 76.3394 132.292 76.7446C132.292 77.312 132.292 77.8794 132.292 78.4062C132.292 78.6494 132.373 78.6899 132.576 78.5683C132.819 78.4062 133.063 78.2846 133.347 78.163C134.482 77.7578 135.618 78.5278 135.618 79.7841C135.618 80.9188 135.618 82.0941 135.618 83.2289C135.618 83.5125 135.536 83.5936 135.253 83.5936C135.172 83.5936 135.09 83.5936 135.009 83.5936C134.725 83.5936 134.644 83.5125 134.644 83.2289C134.644 82.2968 134.644 81.3646 134.644 80.4731C134.644 80.1894 134.604 79.9057 134.563 79.622C134.482 79.2978 134.279 79.1357 133.995 79.0952C133.428 79.0141 132.9 79.2167 132.454 79.5409C132.333 79.6625 132.333 79.7841 132.333 79.9462C132.333 81.0404 132.333 82.1346 132.333 83.2289C132.333 83.6341 132.333 83.6341 131.927 83.6341C131.319 83.6341 131.319 83.6341 131.319 83.0262C131.319 81.9725 131.319 80.9188 131.319 79.9057L131.238 79.8652Z" fill="#212121"/>
<path d="M118.787 81.4445C118.787 81.9714 118.787 82.5387 118.787 83.0656C118.787 83.5924 118.787 83.5924 118.219 83.5924C118.138 83.5924 118.098 83.5924 118.016 83.5924C117.895 83.5924 117.814 83.5114 117.814 83.3898C117.814 83.0656 117.692 83.1466 117.53 83.2682C116.922 83.714 116.273 83.8356 115.583 83.633C114.813 83.4303 114.326 82.4982 114.488 81.6066C114.61 80.9987 114.975 80.634 115.543 80.3908C116.192 80.1477 116.881 80.1071 117.53 80.0261C117.773 80.0261 117.854 79.945 117.814 79.7019C117.692 79.2561 117.489 79.0535 117.003 79.0129C116.394 78.9319 115.827 79.0129 115.259 79.2156C114.894 79.3371 114.894 79.3371 114.894 78.9319C114.894 78.2429 114.934 78.2429 115.624 78.1619C116.232 78.1213 116.84 78.0403 117.449 78.1619C118.219 78.2834 118.787 78.9319 118.828 79.7019C118.828 80.2692 118.828 80.8771 118.828 81.4445H118.787ZM117.814 81.6471C117.814 81.404 117.814 81.2419 117.814 81.0798C117.814 80.9987 117.814 80.8771 117.651 80.8771C116.922 80.8771 116.192 80.8771 115.624 81.404C115.34 81.6472 115.38 82.4577 115.705 82.6198C116.192 82.9035 116.678 82.9035 117.165 82.6198C117.611 82.3766 117.976 82.0929 117.814 81.6066V81.6471Z" fill="#212121"/>
<path d="M139.308 81.0813C138.781 81.0813 138.254 81.0813 137.727 81.0813C137.524 81.0813 137.443 81.1624 137.443 81.365C137.443 82.135 138.051 82.7834 138.862 82.824C139.552 82.8645 140.201 82.7429 140.768 82.3377C141.052 82.1755 141.093 82.1755 141.093 82.4998C141.093 83.3508 141.215 83.1887 140.403 83.5129C139.673 83.7561 138.903 83.7966 138.173 83.5535C137.321 83.3103 136.794 82.7429 136.551 81.8919C136.348 81.0003 136.348 80.1087 136.794 79.2982C137.402 78.1634 138.862 77.7176 139.998 78.285C140.768 78.6497 141.052 79.2982 141.133 80.1087C141.133 80.3113 141.133 80.5545 141.133 80.7571C141.133 81.0003 141.052 81.0813 140.809 81.0813C140.282 81.0813 139.795 81.0813 139.268 81.0813H139.308ZM138.862 80.3113C139.227 80.3113 139.592 80.3113 139.957 80.3113C140.079 80.3113 140.201 80.3113 140.201 80.1492C140.16 79.825 140.12 79.5008 139.836 79.2576C139.39 78.8524 138.862 78.9334 138.376 79.055C137.889 79.1766 137.646 79.5818 137.484 80.0682C137.443 80.2708 137.565 80.3113 137.727 80.3113C138.092 80.3113 138.497 80.3113 138.862 80.3113Z" fill="#212121"/>
<path d="M108.447 80.9174C108.447 81.5253 108.366 82.0927 108.042 82.6601C107.677 83.349 107.068 83.7138 106.298 83.7543C104.392 83.7948 103.256 82.4574 103.54 80.5527C103.621 80.1474 103.702 79.7422 103.865 79.3774C104.311 78.4858 105.081 78.1211 106.014 78.1211C106.947 78.1211 107.717 78.5669 108.163 79.4585C108.407 79.9448 108.447 80.4716 108.447 80.9985V80.9174ZM107.433 80.9174C107.433 80.7553 107.433 80.5932 107.433 80.4311C107.352 79.9853 107.271 79.5395 106.906 79.2558C106.136 78.6885 105.081 79.0127 104.757 79.9043C104.676 80.1069 104.635 80.3095 104.635 80.5527C104.595 81.1201 104.595 81.6874 104.838 82.2143C105.081 82.7411 105.568 83.0248 106.136 82.9843C106.785 82.9843 107.19 82.6601 107.352 82.0522C107.474 81.6874 107.515 81.3632 107.474 80.9985L107.433 80.9174Z" fill="#212121"/>
<path d="M99.1593 80.9184C99.1593 81.6884 99.1593 82.4584 99.1593 83.2284C99.1593 83.5121 99.0782 83.6742 98.7538 83.6337C98.4699 83.6337 98.1455 83.7147 98.0644 83.2689C98.0644 83.1068 97.8616 83.2689 97.7805 83.3095C97.2533 83.6742 96.7261 83.7958 96.0772 83.6742C95.3878 83.5121 94.9417 83.0663 94.82 82.3774C94.7794 82.0937 94.7389 81.81 94.7389 81.5263C94.7389 80.5537 94.7389 79.581 94.7389 78.6084C94.7389 78.2842 94.8606 78.2031 95.1444 78.2031C95.7933 78.2031 95.7933 78.2031 95.7933 78.811C95.7933 79.7431 95.7933 80.6752 95.7933 81.6074C95.7933 81.7289 95.7933 81.81 95.7933 81.9316C95.8744 82.6205 96.3611 82.9447 97.0505 82.7421C97.1722 82.7421 97.2938 82.661 97.4155 82.6205C97.9022 82.4584 98.1455 82.1342 98.1049 81.5668C98.0644 80.5537 98.1049 79.5405 98.1049 78.5679C98.1049 78.2842 98.186 78.2031 98.4699 78.2031C99.1593 78.2031 99.1593 78.2031 99.1593 78.8921C99.1593 79.581 99.1593 80.2295 99.1593 80.9184Z" fill="#212121"/>
<path d="M123.775 83.7575C123.207 83.7575 122.68 83.636 122.153 83.4333C121.95 83.3523 121.869 83.2307 121.869 82.9875C121.869 82.2175 121.869 82.2175 122.518 82.5417C123.126 82.866 123.734 83.0281 124.424 82.7849C124.708 82.6633 124.829 82.5012 124.829 82.2175C124.829 81.9339 124.748 81.6907 124.424 81.5691C124.14 81.4881 123.897 81.407 123.613 81.3665C123.41 81.326 123.167 81.2449 122.964 81.2044C122.234 80.9612 121.869 80.5154 121.869 79.867C121.869 79.1375 122.234 78.5296 122.923 78.2865C123.775 78.0028 124.627 78.1244 125.438 78.408C125.6 78.4486 125.641 78.5701 125.641 78.7323C125.641 78.8133 125.641 78.8944 125.641 78.9754C125.641 79.1375 125.722 79.4212 125.559 79.5023C125.397 79.5833 125.276 79.3402 125.154 79.2996C124.667 79.0565 124.14 78.9349 123.572 79.0159C123.207 79.0565 122.923 79.2996 122.883 79.5833C122.883 79.9481 123.045 80.2317 123.451 80.3938C123.816 80.5154 124.221 80.5965 124.586 80.6775C125.316 80.8802 125.722 81.2854 125.803 81.8933C125.884 82.5012 125.519 83.2307 124.911 83.5144C124.505 83.7575 124.181 83.8386 123.653 83.8386L123.775 83.7575Z" fill="#212121"/>
<path d="M126.332 80.9185C126.332 80.5943 126.332 80.2295 126.454 79.9053C126.859 78.6085 127.914 77.96 129.252 78.1221C129.576 78.1627 129.901 78.2437 130.225 78.3653C130.428 78.4463 130.509 78.5679 130.509 78.7706C130.509 79.5811 130.509 79.5811 129.82 79.2164C129.617 79.0948 129.414 79.0137 129.171 78.9732C128.441 78.8111 127.751 79.1758 127.508 79.8648C127.305 80.4321 127.305 81.04 127.427 81.6074C127.67 82.7016 128.4 82.9853 129.455 82.7422C129.739 82.6611 129.941 82.5395 130.185 82.3774C130.266 82.3369 130.347 82.2153 130.428 82.2964C130.509 82.3369 130.509 82.4585 130.509 82.5395C130.509 83.4311 130.671 83.269 129.779 83.5527C128.846 83.8769 127.954 83.7553 127.184 83.1474C126.616 82.7016 126.413 82.0127 126.332 81.3237C126.332 81.1616 126.332 81.04 126.332 80.8779V80.9185Z" fill="#212121"/>
<path d="M100.376 80.9206C100.376 80.1506 100.376 79.3806 100.376 78.6106C100.376 78.3269 100.457 78.2054 100.741 78.2459C100.822 78.2459 100.943 78.2459 101.024 78.2459C101.268 78.2459 101.389 78.3269 101.389 78.6106C101.389 78.6917 101.349 78.8133 101.43 78.8538C101.552 78.9348 101.592 78.7727 101.673 78.7322C102.079 78.4485 102.525 78.2459 103.052 78.2459C103.295 78.2459 103.417 78.3269 103.417 78.5701C103.417 78.6106 103.417 78.6511 103.417 78.6917C103.417 79.0429 103.241 79.232 102.89 79.259C102.647 79.259 102.403 79.2996 102.16 79.4211C101.552 79.6238 101.43 79.8264 101.43 80.4748C101.43 81.4069 101.43 82.2985 101.43 83.2306C101.43 83.6764 101.43 83.6764 100.984 83.6764C100.903 83.6764 100.822 83.6764 100.781 83.6764C100.538 83.6764 100.497 83.5549 100.497 83.3117C100.497 82.5417 100.497 81.7312 100.497 80.9612L100.376 80.9206Z" fill="#212121"/>
<path d="M120.979 80.9208C120.979 81.6909 120.979 82.4609 120.979 83.2714C120.979 83.5145 120.897 83.6361 120.614 83.5956C120.005 83.5956 120.005 83.5956 120.005 82.9877C120.005 81.5287 120.005 80.0698 120.005 78.6514C120.005 78.2461 120.005 78.2461 120.451 78.2461C120.938 78.2461 120.938 78.2461 120.938 78.6514C120.938 79.4214 120.938 80.1914 120.938 80.9614L120.979 80.9208Z" fill="#212121"/>
<path d="M101.876 88.1717C101.227 88.1717 101.267 88.1717 101.227 87.5638C101.227 87.2801 101.308 87.118 101.632 87.1585H101.714C102.403 87.1585 102.403 87.1585 102.403 87.8475C102.403 88.0906 102.322 88.2527 102.038 88.2122C101.957 88.2122 101.916 88.2122 101.835 88.2122L101.876 88.1717Z" fill="#212121"/>
<path d="M120.491 76.3792C120.653 76.4197 120.897 76.2576 120.978 76.5008C121.1 76.7439 121.059 77.0276 120.978 77.3113C120.978 77.3923 120.897 77.4329 120.816 77.4329C120.572 77.4329 120.329 77.4329 120.086 77.4329C120.005 77.4329 119.923 77.3923 119.923 77.2708C119.923 77.0276 119.923 76.7844 119.923 76.5413C119.923 76.4602 120.005 76.4197 120.086 76.4197C120.207 76.4197 120.329 76.4197 120.451 76.4197L120.491 76.3792Z" fill="#212121"/>
<path d="M117.734 76.3773C117.815 76.3773 117.896 76.3773 117.977 76.3773C118.018 76.3773 118.058 76.3773 118.099 76.3773C118.423 76.5799 118.22 76.8636 118.261 77.1068C118.261 77.2689 118.261 77.3905 118.058 77.3905C117.977 77.3905 117.896 77.3905 117.855 77.3905C117.166 77.3905 117.207 77.3905 117.207 76.742C117.207 76.4989 117.288 76.3368 117.572 76.3773C117.653 76.3773 117.693 76.3773 117.774 76.3773H117.734Z" fill="#212121"/>
<path d="M115.787 77.3945C115.625 77.3945 115.503 77.3945 115.382 77.3945C115.26 77.3945 115.179 77.3135 115.179 77.1919C115.179 76.9892 115.179 76.8271 115.179 76.6245C115.179 76.5435 115.22 76.4219 115.341 76.4219C115.584 76.4219 115.868 76.4219 116.112 76.4219C116.193 76.4219 116.233 76.5029 116.233 76.584C116.233 76.8271 116.274 77.0703 116.233 77.2729C116.152 77.5566 115.909 77.3945 115.787 77.435V77.3945Z" fill="#212121"/>
<path d="M115.219 70.991H89.913C89.3858 70.991 89.1425 70.7478 89.1019 70.221V37.2324C89.1019 36.7056 89.3858 36.4219 89.913 36.4219H140.485C141.012 36.4219 141.255 36.665 141.255 37.1919V70.221C141.255 70.7478 141.012 70.991 140.525 70.991H115.179H115.219Z" fill="#212121"/>
<path d="M121.019 61.3477L121.465 62.604L122.844 62.685L121.749 63.4956L122.155 64.8329L121.019 64.0629L119.884 64.8329L120.249 63.4956L119.154 62.685L120.532 62.604L121.019 61.3477Z" fill="#EFEFEF"/>
<path d="M124.951 57.332L125.397 58.6289L126.776 58.6694L125.722 59.5205L126.087 60.8173L124.951 60.0473L123.816 60.8173L124.181 59.5205L123.126 58.6694L124.505 58.6289L124.951 57.332Z" fill="#EFEFEF"/>
<path d="M126.493 51.7422L126.979 53.039L128.318 53.0796L127.263 53.9306L127.628 55.2275L126.493 54.4575L125.357 55.2275L125.763 53.9306L124.668 53.0796L126.047 53.039L126.493 51.7422Z" fill="#EFEFEF"/>
<path d="M124.831 46.1875L125.277 47.4438L126.656 47.5249L125.561 48.3354L125.967 49.6728L124.831 48.9028L123.695 49.6728L124.06 48.3354L123.006 47.5249L124.344 47.4438L124.831 46.1875Z" fill="#EFEFEF"/>
<path d="M120.774 42.1367L121.22 43.4336L122.599 43.4741L121.545 44.3252L121.91 45.622L120.774 44.852L119.639 45.622L120.004 44.3252L118.949 43.4741L120.288 43.4336L120.774 42.1367Z" fill="#EFEFEF"/>
<path d="M115.26 40.5977L115.706 41.8945L117.085 41.935L115.99 42.7861L116.355 44.0829L115.26 43.3129L114.124 44.0829L114.489 42.7861L113.394 41.935L114.773 41.8945L115.26 40.5977Z" fill="#EFEFEF"/>
<path d="M109.583 42.1367L110.069 43.4336L111.408 43.4741L110.353 44.3252L110.718 45.622L109.583 44.852L108.447 45.622L108.853 44.3252L107.758 43.4741L109.137 43.4336L109.583 42.1367Z" fill="#EFEFEF"/>
<path d="M105.608 46.1875L106.094 47.4843L107.473 47.5249L106.378 48.3354L106.743 49.6728L105.608 48.9028L104.513 49.6728L104.878 48.3354L103.783 47.5249L105.162 47.4843L105.608 46.1875Z" fill="#EFEFEF"/>
<path d="M103.985 51.7422L104.431 53.039L105.81 53.0796L104.715 53.9306L105.12 55.2275L103.985 54.4575L102.849 55.2275L103.214 53.9306L102.16 53.0796L103.498 53.039L103.985 51.7422Z" fill="#EFEFEF"/>
<path d="M105.567 57.332L106.053 58.6289L107.392 58.6694L106.337 59.5205L106.702 60.8173L105.567 60.0473L104.431 60.8173L104.837 59.5205L103.742 58.6694L105.121 58.6289L105.567 57.332Z" fill="#EFEFEF"/>
<path d="M109.46 61.2227L109.947 62.5195L111.326 62.56L110.231 63.4111L110.596 64.7079L109.46 63.9379L108.365 64.7079L108.73 63.4111L107.635 62.56L109.014 62.5195L109.46 61.2227Z" fill="#EFEFEF"/>
<path d="M115.26 63.2891L115.706 64.5859L117.085 64.6264L115.99 65.4775L116.355 66.7743L115.26 66.0043L114.124 66.7743L114.489 65.4775L113.394 64.6264L114.773 64.5859L115.26 63.2891Z" fill="#EFEFEF"/>
</svg>
