<svg width="230" height="130" viewBox="0 0 230 130" fill="none" xmlns="http://www.w3.org/2000/svg">
<path d="M112.012 79.4023C111.942 79.481 111.864 79.5564 111.798 79.6401C110.58 81.1535 109.362 82.6686 108.143 84.1836C108.123 84.2099 108.103 84.2361 108.083 84.2623C107.875 84.5148 107.837 84.5165 107.638 84.2672C106.659 83.0424 105.68 81.8176 104.701 80.5927C104.411 80.2303 104.121 79.868 103.831 79.5072C103.804 79.4728 103.771 79.4433 103.742 79.4138C103.644 79.4499 103.683 79.5269 103.683 79.581C103.68 80.2369 103.681 80.8928 103.683 81.5487C103.683 83.7229 103.683 85.8971 103.683 88.073C103.683 88.1713 103.685 88.2697 103.683 88.3681C103.673 88.6436 103.636 88.678 103.339 88.6878C103.306 88.6878 103.272 88.6878 103.238 88.6878C102.261 88.6878 101.283 88.6878 100.306 88.6878C100.227 88.6878 100.148 88.6878 100.07 88.6796C99.9287 88.6632 99.8798 88.6141 99.868 88.4665C99.8613 88.3796 99.863 88.291 99.863 88.2041C99.863 83.5376 99.863 78.8727 99.863 74.2061C99.863 74.0963 99.8663 73.9881 99.8748 73.8799C99.8815 73.7913 99.9422 73.7421 100.028 73.7306C100.106 73.7192 100.185 73.7159 100.262 73.7159C101.251 73.7159 102.239 73.7208 103.228 73.711C103.466 73.7093 103.624 73.788 103.766 73.9733C104.416 74.8227 105.077 75.6655 105.735 76.5099C106.374 77.3281 107.013 78.1447 107.651 78.9629C107.692 79.0153 107.731 79.0695 107.776 79.1186C107.854 79.2055 107.921 79.2072 107.997 79.1121C108.297 78.7448 108.595 78.3742 108.892 78.0037C109.97 76.6608 111.047 75.3162 112.125 73.9717C112.167 73.9208 112.208 73.8684 112.252 73.8192C112.306 73.7585 112.375 73.7241 112.457 73.7208C112.547 73.7159 112.638 73.7142 112.727 73.7142C113.615 73.7142 114.501 73.7142 115.389 73.7142C115.878 73.7142 115.88 73.7159 115.88 74.1848C115.88 77.879 115.88 81.5716 115.88 85.2658C115.88 86.2381 115.88 87.2105 115.88 88.1828C115.88 88.2927 115.88 88.4009 115.868 88.5108C115.858 88.6157 115.804 88.6632 115.694 88.678C115.617 88.6878 115.538 88.6895 115.458 88.6895C114.469 88.6895 113.482 88.6911 112.493 88.6895C112.081 88.6895 112.066 88.6731 112.066 88.255C112.066 85.5888 112.066 82.9227 112.066 80.2566C112.066 80.027 112.066 79.7975 112.066 79.5679C112.066 79.5171 112.086 79.4581 112.012 79.4072V79.4023Z" fill="#212121"/>
<path d="M118.153 63.1339C118.112 63.1487 118.109 63.1831 118.109 63.2142C118.107 63.3241 118.105 63.4323 118.105 63.5422C118.105 66.2837 118.105 69.0269 118.105 71.7685C118.105 71.8882 118.109 72.0095 118.1 72.1292C118.089 72.3112 118.046 72.3489 117.849 72.362C117.794 72.3653 117.736 72.3653 117.681 72.3653C116.693 72.3653 115.704 72.3653 114.717 72.3653C114.296 72.3653 114.285 72.3538 114.285 71.9406C114.285 68.6842 114.285 65.4295 114.285 62.173C114.285 60.7416 114.285 59.3102 114.285 57.8787C114.285 57.7705 114.29 57.6606 114.299 57.5524C114.304 57.4786 114.354 57.4311 114.425 57.4163C114.501 57.4016 114.58 57.3917 114.658 57.3917C115.657 57.3917 116.656 57.395 117.656 57.3868C117.897 57.3852 118.052 57.4835 118.19 57.6639C118.891 58.5723 119.597 59.4774 120.303 60.3825C120.906 61.1564 121.513 61.9304 122.118 62.7043C122.158 62.7568 122.202 62.8076 122.247 62.8552C122.283 62.8912 122.328 62.8994 122.367 62.8634C122.407 62.8256 122.441 62.7814 122.477 62.7387C123.223 61.809 123.97 60.8793 124.714 59.948C125.323 59.1905 125.934 58.4362 126.534 57.6721C126.693 57.4704 126.873 57.3835 127.134 57.3868C128.044 57.3966 128.954 57.3901 129.862 57.3901C130.77 57.3901 129.93 57.3901 129.963 57.3901C130.268 57.4016 130.3 57.4344 130.307 57.7426C130.307 57.8082 130.307 57.8738 130.307 57.9394C130.307 62.5617 130.307 67.1823 130.307 71.8045C130.307 71.9242 130.309 72.0456 130.299 72.1653C130.289 72.2948 130.24 72.3424 130.113 72.3555C130.024 72.3653 129.935 72.3653 129.844 72.3653C128.878 72.3653 127.913 72.3653 126.947 72.3653C126.858 72.3653 126.767 72.3653 126.677 72.3538C126.571 72.3424 126.519 72.2915 126.507 72.1833C126.495 72.0636 126.494 71.9439 126.494 71.8242C126.494 69.0499 126.494 66.2739 126.494 63.4995C126.494 63.4012 126.494 63.3028 126.489 63.2044C126.489 63.1733 126.482 63.129 126.44 63.1306C126.411 63.1306 126.376 63.1519 126.357 63.1749C126.084 63.5077 125.81 63.8406 125.54 64.1751C124.566 65.3885 123.594 66.6051 122.62 67.8185C122.551 67.9037 122.48 67.989 122.404 68.0693C122.315 68.1644 122.246 68.1612 122.15 68.0628C122.111 68.0234 122.077 67.9792 122.042 67.9365C121.134 66.797 120.225 65.6574 119.315 64.5194C118.972 64.0882 118.623 63.6586 118.277 63.229C118.244 63.188 118.218 63.1355 118.154 63.1323L118.153 63.1339Z" fill="#212121"/>
<path d="M82.1929 66.1695C82.1979 66.0154 82.203 65.8989 82.203 65.7809C82.203 63.159 82.203 60.5372 82.203 57.9153C82.203 57.7956 82.208 57.6759 82.2148 57.5562C82.2198 57.4824 82.267 57.4333 82.3395 57.4201C82.4153 57.4054 82.4945 57.3955 82.572 57.3955C83.5595 57.3939 84.5486 57.3923 85.536 57.3955C85.8849 57.3955 85.9219 57.4382 85.932 57.771C85.932 57.8251 85.932 57.8809 85.932 57.935C85.932 62.5671 85.932 67.1992 85.932 71.8313C85.932 71.9412 85.9337 72.051 85.9219 72.1593C85.9068 72.3036 85.8528 72.3511 85.7096 72.3642C85.6321 72.3708 85.5529 72.3691 85.4737 72.3691C84.4862 72.3691 83.4971 72.3691 82.5097 72.3691C82.4423 72.3691 82.3748 72.3659 82.3074 72.3659C82.1979 72.3659 82.1137 72.3216 82.0513 72.233C82.0008 72.1609 81.9485 72.0904 81.8997 72.0166C80.4876 69.926 79.0772 67.8354 77.6651 65.7432C77.1478 64.9758 76.6304 64.2084 76.1114 63.4427C76.0811 63.3968 76.0491 63.3525 76.0154 63.3082C75.9952 63.2804 75.9648 63.2541 75.9345 63.2755C75.9126 63.2918 75.8991 63.3279 75.8958 63.3574C75.889 63.4001 75.8907 63.4443 75.8907 63.4886C75.8907 63.5755 75.8907 63.6641 75.8907 63.751C75.8907 66.4269 75.8907 69.1045 75.8907 71.7805C75.8907 71.9002 75.8941 72.0215 75.8823 72.1412C75.8671 72.3068 75.8166 72.3527 75.6531 72.3642C75.552 72.3708 75.4509 72.3691 75.3498 72.3691C74.4516 72.3691 73.5535 72.3691 72.6554 72.3691C72.1397 72.3659 72.1111 72.4069 72.1111 71.8494C72.1128 69.3472 72.1111 66.845 72.1111 64.3445C72.1111 62.2146 72.1111 60.0846 72.1111 57.953C72.1111 57.8333 72.1111 57.712 72.1229 57.5923C72.1347 57.4759 72.1953 57.4201 72.3183 57.4037C72.4077 57.3923 72.497 57.3906 72.5863 57.3906C73.6529 57.3906 74.7196 57.3906 75.7862 57.3906C75.8536 57.3906 75.921 57.3939 75.9884 57.3955C76.1216 57.3988 76.226 57.4546 76.2985 57.5628C76.3726 57.6727 76.4434 57.7841 76.5175 57.8924C77.6802 59.6058 78.8446 61.3193 80.0073 63.0328C80.6628 63.9986 81.3166 64.966 81.9738 65.9317C82.0227 66.0039 82.0581 66.0875 82.1878 66.1662L82.1929 66.1695Z" fill="#212121"/>
<path d="M96.6007 49.8415C96.653 49.7152 96.6344 49.607 96.6344 49.5021C96.6344 48.5298 96.6344 47.5574 96.6344 46.5851C96.6344 44.9356 96.6344 43.286 96.6344 41.6365C96.6344 41.5168 96.6378 41.3955 96.6479 41.2774C96.6547 41.1922 96.7103 41.1364 96.7979 41.1266C96.8872 41.1167 96.9765 41.1135 97.0658 41.1135C98.0196 41.1135 98.975 41.1135 99.9287 41.1135C100.353 41.1135 100.369 41.1282 100.369 41.5332C100.369 42.986 100.369 44.4387 100.369 45.8915C100.369 49.0922 100.369 52.2928 100.369 55.4935C100.369 55.6247 100.367 55.7558 100.357 55.887C100.35 55.9854 100.286 56.0477 100.185 56.0608C100.097 56.0739 100.006 56.0805 99.9169 56.0805C98.9295 56.0805 97.9404 56.0805 96.9529 56.0805C96.9192 56.0805 96.8855 56.0789 96.8518 56.0805C96.6648 56.0903 96.5367 56.0133 96.4356 55.8591C96.1761 55.4623 95.9031 55.0754 95.6386 54.6818C94.9123 53.6046 94.1877 52.5257 93.4614 51.4484C92.5195 50.0514 91.5758 48.6544 90.6339 47.2574C90.5598 47.1491 90.4822 47.0426 90.4132 46.9458C90.3306 46.9442 90.3289 46.9917 90.3272 47.0327C90.3238 47.1524 90.3238 47.2738 90.3238 47.3935C90.3238 50.0809 90.3238 52.7683 90.3238 55.4558C90.3238 55.587 90.3255 55.7181 90.3154 55.8493C90.3036 56.0051 90.2497 56.0543 90.0829 56.0756C90.0273 56.0821 89.9717 56.0838 89.9144 56.0838C88.937 56.0838 87.9614 56.0838 86.984 56.0838C86.9385 56.0838 86.8947 56.0838 86.8492 56.0805C86.6386 56.0625 86.5948 56.0198 86.583 55.8214C86.5779 55.7345 86.5796 55.646 86.5796 55.5591C86.5796 50.9155 86.5796 46.2736 86.5796 41.63C86.5796 41.5201 86.5796 41.4119 86.5897 41.302C86.6015 41.1774 86.6521 41.1331 86.7852 41.1217C86.8627 41.1135 86.9419 41.1151 87.0211 41.1151C88.0995 41.1151 89.1763 41.1151 90.2548 41.1151C90.3003 41.1151 90.3441 41.1184 90.3896 41.1151C90.5648 41.1003 90.6861 41.1758 90.7805 41.3184C90.981 41.6218 91.19 41.9202 91.3939 42.2203C91.987 43.0958 92.5802 43.9714 93.1733 44.847C94.2298 46.4064 95.2847 47.9673 96.3429 49.5267C96.4137 49.6316 96.471 49.7497 96.5974 49.8431L96.6007 49.8415Z" fill="#212121"/>
<path d="M144.3 64.8681C144.3 62.5627 144.3 60.2589 144.3 57.9535C144.3 57.8224 144.306 57.6912 144.32 57.5617C144.328 57.478 144.386 57.4223 144.473 57.4108C144.562 57.3993 144.652 57.3928 144.741 57.3928C146.942 57.3928 149.142 57.3862 151.343 57.396C152.294 57.401 153.22 57.5485 154.103 57.9109C155.022 58.288 155.804 58.8373 156.398 59.6244C156.818 60.1802 157.088 60.8017 157.224 61.4723C157.377 62.2298 157.379 62.9939 157.206 63.7498C156.907 65.0485 156.166 66.0552 155.039 66.7964C154.755 66.9816 154.754 66.9784 154.907 67.2522C155.433 68.1934 155.957 69.1329 156.481 70.0741C156.845 70.7267 157.207 71.3809 157.571 72.0335C157.598 72.0811 157.627 72.1286 157.649 72.1794C157.694 72.2827 157.652 72.35 157.537 72.3598C157.46 72.3664 157.381 72.3664 157.302 72.3664C156.146 72.3664 154.988 72.3664 153.832 72.3664C153.439 72.3664 153.436 72.3664 153.266 72.0302C152.976 71.4629 152.695 70.8923 152.406 70.3233C152.039 69.5986 151.668 68.8755 151.299 68.1507C151.279 68.1114 151.257 68.0737 151.235 68.036C151.188 67.9523 151.114 67.9081 151.016 67.9064C150.87 67.9048 150.725 67.9031 150.578 67.9031C149.961 67.9031 149.343 67.9031 148.726 67.9031C148.647 67.9031 148.57 67.9015 148.49 67.9031C148.256 67.9113 148.224 67.9409 148.219 68.177C148.214 68.5147 148.217 68.8542 148.217 69.1936C148.217 70.0888 148.217 70.9857 148.217 71.881C148.217 72.3631 148.216 72.3631 147.705 72.3647C146.751 72.3647 145.796 72.3647 144.842 72.3647C144.335 72.3647 144.296 72.4156 144.296 71.8466C144.298 69.5199 144.296 67.1932 144.296 64.8664L144.3 64.8681ZM148.219 62.6709C148.219 63.1612 148.219 63.6531 148.219 64.1433C148.219 64.2303 148.217 64.3188 148.224 64.4057C148.234 64.5336 148.283 64.5779 148.413 64.5926C148.447 64.5959 148.48 64.5975 148.514 64.5975C149.444 64.5959 150.376 64.5959 151.306 64.591C151.566 64.591 151.82 64.5369 152.063 64.45C152.371 64.3401 152.647 64.1827 152.865 63.9318C153.342 63.3825 153.416 62.7496 153.266 62.0823C153.126 61.4657 152.705 61.0821 152.096 60.8804C151.785 60.7771 151.465 60.7394 151.136 60.7394C150.295 60.7394 149.454 60.7394 148.613 60.7394C148.546 60.7394 148.479 60.7394 148.411 60.7459C148.285 60.7607 148.236 60.8082 148.224 60.9361C148.216 61.023 148.219 61.1099 148.219 61.1985C148.219 61.6887 148.219 62.1806 148.219 62.6709Z" fill="#212121"/>
<path d="M127.155 48.5847C127.155 46.2793 127.155 43.9755 127.155 41.6701C127.155 41.5505 127.154 41.4291 127.162 41.3094C127.172 41.1799 127.219 41.1323 127.347 41.1192C127.425 41.111 127.504 41.111 127.583 41.111C129.885 41.111 132.185 41.1045 134.487 41.1176C135.655 41.1241 136.752 41.416 137.754 42.0063C138.926 42.6949 139.702 43.6853 140.019 44.9774C140.415 46.5974 140.125 48.0993 139.069 49.4357C138.73 49.8636 138.317 50.2162 137.849 50.5048C137.589 50.6655 137.598 50.6687 137.733 50.9081C138.289 51.9067 138.841 52.9069 139.397 53.9055C139.728 54.5007 140.063 55.0942 140.392 55.6911C140.577 56.0272 140.547 56.0764 140.149 56.0781C138.993 56.0813 137.837 56.0781 136.679 56.0781C136.657 56.0781 136.634 56.0781 136.612 56.0781C136.384 56.0895 136.24 55.9977 136.138 55.7895C135.845 55.1877 135.534 54.5941 135.229 53.9973C134.875 53.3021 134.519 52.6085 134.165 51.9133C134.145 51.8739 134.121 51.8362 134.105 51.7952C134.047 51.6575 133.951 51.605 133.791 51.6066C133.107 51.6165 132.421 51.6148 131.737 51.6148C131.569 51.6148 131.4 51.6034 131.233 51.6001C131.102 51.5968 131.051 51.6476 131.056 51.7788C131.061 51.9313 131.078 52.0838 131.078 52.2363C131.08 53.3283 131.078 54.4203 131.078 55.5124C131.078 55.6321 131.075 55.7534 131.058 55.8715C131.041 55.9961 130.987 56.0453 130.864 56.0617C130.787 56.0731 130.707 56.0748 130.63 56.0748C129.619 56.0748 128.61 56.0748 127.599 56.0748C127.565 56.0748 127.531 56.0748 127.497 56.0748C127.191 56.0617 127.155 56.0321 127.154 55.7239C127.15 55.1451 127.154 54.5663 127.154 53.9875C127.154 52.1854 127.154 50.3834 127.154 48.5814L127.155 48.5847ZM132.782 48.2846C133.129 48.2846 133.478 48.2863 133.825 48.2846C134.003 48.2846 134.184 48.283 134.362 48.2633C134.77 48.219 135.153 48.0977 135.475 47.8403C136.258 47.2172 136.381 46.0678 135.894 45.2807C135.614 44.8298 135.173 44.6085 134.659 44.5052C134.396 44.4527 134.128 44.4215 133.857 44.4232C133.038 44.4265 132.219 44.4232 131.4 44.4215C131.344 44.4215 131.287 44.4215 131.232 44.4265C131.1 44.4396 131.051 44.4888 131.055 44.6167C131.06 44.8233 131.077 45.0299 131.078 45.2381C131.082 45.7841 131.078 46.3301 131.078 46.8745C131.078 47.1254 131.082 47.3762 131.051 47.6271C131.038 47.7452 131.041 47.8665 131.044 47.9862C131.051 48.2436 131.087 48.2764 131.365 48.2863C131.432 48.2879 131.499 48.2863 131.567 48.2863C131.971 48.2863 132.374 48.2863 132.778 48.2863L132.782 48.2846Z" fill="#212121"/>
<path d="M99.8607 64.8768C99.8607 62.5599 99.8607 60.243 99.8607 57.9262C99.8607 57.8065 99.864 57.6851 99.8708 57.5654C99.8758 57.4785 99.9314 57.4228 100.017 57.408C100.105 57.3933 100.196 57.3884 100.285 57.3884C101.308 57.3884 102.329 57.3867 103.352 57.3884C103.76 57.3884 103.792 57.4195 103.794 57.8196C103.795 59.3822 103.794 60.9448 103.794 62.5075C103.794 62.6271 103.797 62.7485 103.809 62.8665C103.817 62.9518 103.874 63.0059 103.962 63.0174C104.04 63.0289 104.119 63.0322 104.196 63.0322C105.656 63.0322 107.117 63.0338 108.576 63.0322C108.948 63.0322 108.965 63.0125 108.965 62.6321C108.965 61.0694 108.965 59.5068 108.965 57.9442C108.965 57.8344 108.963 57.7261 108.97 57.6163C108.98 57.4589 109.032 57.4097 109.201 57.3933C109.268 57.3867 109.336 57.3867 109.403 57.3867C110.426 57.3867 111.447 57.3867 112.47 57.3867C112.881 57.3867 112.903 57.4097 112.903 57.818C112.903 60.976 112.903 64.134 112.903 67.2921C112.903 68.7891 112.903 70.2861 112.903 71.7831C112.903 71.8815 112.906 71.9799 112.9 72.0783C112.886 72.3078 112.847 72.3472 112.622 72.3587C112.566 72.362 112.509 72.3603 112.453 72.3603C111.442 72.3603 110.431 72.3603 109.42 72.3603C109.331 72.3603 109.24 72.3603 109.15 72.3505C109.039 72.339 108.987 72.2898 108.977 72.1849C108.965 72.0766 108.965 71.9668 108.965 71.8569C108.965 70.2943 108.965 68.7317 108.965 67.1691C108.965 67.0707 108.967 66.9723 108.962 66.8739C108.952 66.6903 108.911 66.6526 108.714 66.6411C108.647 66.6378 108.579 66.6395 108.512 66.6395C107.096 66.6395 105.681 66.6395 104.265 66.6395C103.795 66.6395 103.792 66.6411 103.792 67.092C103.792 68.6759 103.792 70.2615 103.792 71.8455C103.792 71.9651 103.787 72.0865 103.772 72.2045C103.762 72.2865 103.704 72.3423 103.615 72.3505C103.526 72.357 103.436 72.3603 103.345 72.3603C102.334 72.3603 101.323 72.3603 100.312 72.3603C100.211 72.3603 100.11 72.3554 100.011 72.3439C99.9382 72.3357 99.8859 72.2865 99.8775 72.2144C99.8657 72.1062 99.8607 71.9963 99.8607 71.8881C99.8607 70.719 99.8607 69.5499 99.8607 68.3808C99.8607 67.2117 99.8607 66.0426 99.8607 64.8735V64.8768Z" fill="#212121"/>
<path d="M87.2826 64.884C87.2826 62.5786 87.2826 60.2732 87.2826 57.9662C87.2826 57.835 87.2876 57.7038 87.2994 57.5743C87.3078 57.4742 87.3752 57.4169 87.4763 57.4054C87.5656 57.3955 87.655 57.3906 87.7443 57.3906C91.17 57.3906 94.5958 57.3906 98.0215 57.3906C98.1108 57.3906 98.2018 57.3955 98.2894 57.407C98.3905 57.4201 98.4512 57.4808 98.463 57.5792C98.4731 57.6661 98.4765 57.753 98.4765 57.8399C98.4765 58.6712 98.4765 59.5009 98.4765 60.3322C98.4765 60.7749 98.4529 60.7995 98.0047 60.7995C96.05 60.7995 94.0953 60.7995 92.1423 60.7995C91.9064 60.7995 91.6705 60.7962 91.4346 60.8061C91.2677 60.8126 91.2172 60.8635 91.2121 61.0307C91.2054 61.3144 91.2088 61.5997 91.2071 61.8834C91.2071 62.2228 91.2037 62.5605 91.2105 62.9C91.2138 63.1066 91.2543 63.141 91.4733 63.1492C91.5744 63.1541 91.6755 63.1508 91.7766 63.1508C93.8206 63.1508 95.8646 63.1508 97.9086 63.1508C98.0215 63.1508 98.1344 63.1492 98.2456 63.1574C98.404 63.1689 98.4563 63.2246 98.4714 63.3853C98.4765 63.4394 98.4765 63.4952 98.4765 63.5493C98.4765 64.4134 98.4765 65.2759 98.4765 66.14C98.4765 66.1941 98.4765 66.2498 98.4697 66.3039C98.4512 66.4663 98.4023 66.5138 98.2372 66.5253C98.126 66.5319 98.0131 66.5302 97.9002 66.5302C95.8343 66.5302 93.7667 66.5302 91.7008 66.5302C91.5879 66.5302 91.4767 66.5302 91.3638 66.5401C91.2711 66.5483 91.2256 66.5975 91.2138 66.6876C91.2071 66.7532 91.2054 66.8188 91.2054 66.8844C91.2054 67.4632 91.2054 68.042 91.2054 68.6225C91.2054 68.6438 91.2054 68.6667 91.2054 68.688C91.2138 68.9586 91.2357 68.9816 91.5205 68.9881C91.6772 68.9914 91.8356 68.9881 91.9923 68.9881C93.9571 68.9881 95.9236 68.9881 97.8884 68.9881C98.0013 68.9881 98.1125 68.9848 98.2254 68.993C98.4057 69.0045 98.4546 69.0553 98.4697 69.239C98.4748 69.3046 98.4731 69.3702 98.4731 69.4357C98.4731 70.2671 98.4731 71.0967 98.4731 71.9281C98.4731 71.9395 98.4731 71.9494 98.4731 71.9609C98.4664 72.3445 98.4478 72.3675 98.0502 72.3675C95.0962 72.3675 92.1423 72.3675 89.1884 72.3675C88.6711 72.3675 88.1554 72.3691 87.6381 72.3675C87.3213 72.3659 87.2893 72.3314 87.2775 72.033C87.2741 71.9461 87.2775 71.8576 87.2775 71.7707C87.2775 69.4751 87.2775 67.1812 87.2775 64.8856L87.2826 64.884Z" fill="#212121"/>
<path d="M131.686 64.8677C131.686 62.5508 131.686 60.2356 131.686 57.9187C131.686 57.8089 131.686 57.7007 131.694 57.5908C131.704 57.4711 131.762 57.4154 131.886 57.4006C131.976 57.3908 132.065 57.3908 132.156 57.3908C132.56 57.3908 132.965 57.3908 133.369 57.3908C136.333 57.3908 139.297 57.3908 142.263 57.3908C142.386 57.3908 142.511 57.3891 142.634 57.3973C142.802 57.4104 142.854 57.4596 142.875 57.6154C142.883 57.6793 142.883 57.7466 142.883 57.8122C142.883 58.6648 142.885 59.5158 142.883 60.3684C142.883 60.7685 142.851 60.7997 142.443 60.7997C140.355 60.8013 138.266 60.7997 136.178 60.7997C136.065 60.7997 135.954 60.798 135.841 60.8062C135.678 60.8193 135.634 60.8685 135.619 61.0341C135.619 61.0456 135.617 61.0555 135.617 61.0669C135.617 61.6785 135.617 62.2901 135.617 62.9017C135.617 62.9345 135.622 62.9673 135.627 63.0001C135.642 63.087 135.698 63.1346 135.787 63.1411C135.888 63.1477 135.989 63.1493 136.091 63.1493C138.145 63.1493 140.2 63.1493 142.254 63.1493C142.378 63.1493 142.502 63.1461 142.625 63.1542C142.806 63.1657 142.858 63.2182 142.876 63.3969C142.885 63.4723 142.883 63.5494 142.883 63.6265C142.883 64.4463 142.885 65.2645 142.883 66.0844C142.883 66.514 142.868 66.5254 142.43 66.5254C140.318 66.5254 138.207 66.5254 136.097 66.5254C135.984 66.5254 135.873 66.5271 135.76 66.5369C135.686 66.5435 135.641 66.5943 135.627 66.6648C135.619 66.7189 135.614 66.773 135.614 66.8271C135.614 67.4387 135.614 68.0503 135.614 68.6619C135.614 68.7161 135.617 68.7718 135.625 68.8259C135.637 68.9128 135.691 68.9653 135.78 68.9718C135.892 68.98 136.005 68.9817 136.117 68.9817C138.183 68.9817 140.249 68.9817 142.315 68.9817C142.438 68.9817 142.563 68.9817 142.686 68.9932C142.792 69.003 142.846 69.0538 142.864 69.1588C142.88 69.244 142.885 69.3326 142.885 69.4195C142.885 70.2606 142.888 71.1018 142.885 71.943C142.885 72.3447 142.864 72.3611 142.44 72.3611C139.016 72.3611 135.59 72.3611 132.166 72.3611C131.696 72.3611 131.691 72.3578 131.691 71.9085C131.691 69.5589 131.691 67.2108 131.691 64.8612L131.686 64.8677Z" fill="#212121"/>
<path d="M114.62 48.6017C114.62 46.2848 114.62 43.9696 114.62 41.6527C114.62 41.533 114.62 41.4117 114.63 41.292C114.64 41.1838 114.691 41.1346 114.798 41.1231C114.888 41.1133 114.977 41.1133 115.068 41.1133C118.482 41.1133 121.896 41.1133 125.31 41.1133C125.77 41.1133 125.778 41.1231 125.78 41.5724C125.78 42.4021 125.78 43.2334 125.78 44.0631C125.78 44.473 125.761 44.491 125.347 44.491C123.247 44.491 121.148 44.491 119.046 44.491C118.923 44.491 118.799 44.491 118.676 44.4992C118.563 44.5074 118.521 44.555 118.509 44.6681C118.502 44.7337 118.502 44.7993 118.502 44.8649C118.502 45.3896 118.502 45.9143 118.502 46.4373C118.502 46.4816 118.502 46.5242 118.502 46.5685C118.512 46.7899 118.549 46.8243 118.789 46.8341C118.89 46.8374 118.991 46.8358 119.092 46.8358C121.136 46.8358 123.18 46.8358 125.224 46.8358C125.347 46.8358 125.472 46.8374 125.593 46.8505C125.704 46.862 125.755 46.9161 125.768 47.0178C125.778 47.1047 125.778 47.1916 125.778 47.2801C125.778 48.1213 125.778 48.9624 125.778 49.8036C125.778 50.2332 125.763 50.2496 125.328 50.2496C123.229 50.2496 121.129 50.2496 119.028 50.2496C118.915 50.2496 118.804 50.2496 118.691 50.2578C118.563 50.2676 118.517 50.3185 118.506 50.448C118.5 50.5021 118.5 50.5579 118.5 50.612C118.5 51.1793 118.5 51.7483 118.5 52.3156C118.5 52.3697 118.5 52.4255 118.506 52.4796C118.519 52.6058 118.566 52.655 118.696 52.6649C118.807 52.6747 118.92 52.6731 119.033 52.6731C121.065 52.6731 123.097 52.6731 125.131 52.6731C125.244 52.6731 125.355 52.6698 125.468 52.6763C125.714 52.6911 125.763 52.7386 125.777 52.9698C125.78 53.0141 125.778 53.0567 125.778 53.101C125.778 53.9536 125.778 54.8046 125.778 55.6573C125.778 56.036 125.741 56.0688 125.359 56.077C125.303 56.077 125.246 56.077 125.19 56.077C121.855 56.077 118.521 56.077 115.184 56.077C115.061 56.077 114.937 56.077 114.815 56.0639C114.685 56.0492 114.637 55.9983 114.627 55.8737C114.618 55.7655 114.62 55.6556 114.62 55.5458C114.62 53.2289 114.62 50.9137 114.62 48.5968V48.6017Z" fill="#212121"/>
<path d="M81.7194 49.7571C81.812 49.8571 81.9233 49.885 82.021 49.9292C82.5535 50.1752 83.0388 50.4884 83.46 50.8868C84.1863 51.5738 84.6598 52.4084 84.9362 53.3496C85.167 54.1334 85.2243 54.9385 85.2024 55.7518C85.2024 55.796 85.199 55.8387 85.1923 55.8829C85.1788 55.9797 85.1215 56.0436 85.0204 56.0584C84.9311 56.0699 84.8418 56.0764 84.7525 56.0764C83.7195 56.0764 82.6866 56.0797 81.652 56.0764C81.2425 56.0764 81.2138 56.042 81.2088 55.6468C81.2054 55.4287 81.2172 55.209 81.1987 54.9909C81.1313 54.2039 80.7943 53.5661 80.0815 53.1496C79.7782 52.9725 79.4462 52.8757 79.0991 52.8266C79.0435 52.8184 78.9862 52.8167 78.9306 52.8184C78.8025 52.8216 78.7452 52.8692 78.7317 52.9938C78.7216 53.0905 78.7233 53.1906 78.7233 53.2889C78.7233 54.0858 78.7233 54.8844 78.7233 55.6812C78.7233 55.7583 78.7233 55.8337 78.7233 55.9108C78.7132 56.2371 78.6626 56.2912 78.3189 56.2748C77.232 56.2207 76.1788 56.0289 75.1981 55.5468C74.0405 54.9778 73.203 54.1104 72.679 52.9594C72.3756 52.2937 72.2206 51.5935 72.1583 50.8688C72.1145 50.3769 72.1111 49.8866 72.1111 49.3963C72.1111 46.8171 72.1111 44.2379 72.1111 41.6603C72.1111 41.5291 72.1145 41.398 72.1296 41.2684C72.1397 41.1848 72.1953 41.1274 72.2863 41.1209C72.3638 41.1143 72.443 41.1094 72.5222 41.1094C73.5788 41.1094 74.6336 41.1094 75.6902 41.1094C75.7576 41.1094 75.825 41.1094 75.8924 41.1143C76.0373 41.1274 76.0879 41.175 76.0996 41.3225C76.1098 41.4422 76.1081 41.5619 76.1081 41.6833C76.1081 44.5019 76.1081 47.3221 76.1081 50.1408C76.1081 50.4933 76.1435 50.8393 76.2564 51.1738C76.5327 51.9854 77.1326 52.4445 77.9616 52.6478C78.1032 52.6823 78.2481 52.7003 78.393 52.7134C78.5683 52.7282 78.6205 52.6806 78.6323 52.5183C78.6374 52.4314 78.6357 52.3429 78.6357 52.2559C78.6357 51.4033 78.6357 50.5507 78.6357 49.6997C78.6357 49.6013 78.6407 49.5029 78.6508 49.4062C78.6593 49.334 78.7098 49.2848 78.7806 49.2734C78.8682 49.2602 78.9592 49.2553 79.0485 49.257C79.6113 49.2734 80.1657 49.3537 80.7134 49.48C80.8111 49.5029 80.9088 49.5308 81.0083 49.5488C81.1363 49.5734 81.1953 49.5275 81.2054 49.3931C81.2138 49.2848 81.2121 49.175 81.2121 49.0651C81.2121 46.5958 81.2121 44.1264 81.2121 41.657C81.2121 41.5259 81.2172 41.3947 81.2324 41.2651C81.2425 41.1832 81.2998 41.1274 81.3891 41.1192C81.4666 41.1127 81.5458 41.1094 81.625 41.1094C82.6815 41.1094 83.7364 41.1094 84.7929 41.1094C84.8148 41.1094 84.8384 41.1094 84.8603 41.1094C85.1687 41.1176 85.1973 41.1454 85.2058 41.457C85.2075 41.5226 85.2058 41.5882 85.2058 41.6538C85.2058 44.1559 85.2058 46.6581 85.2058 49.1602C85.2058 49.2799 85.2041 49.4013 85.194 49.521C85.1855 49.6193 85.1266 49.6849 85.0255 49.6964C84.9143 49.7095 84.8014 49.7161 84.6901 49.7161C83.8139 49.7161 82.9377 49.7161 82.0614 49.7177C81.9553 49.7177 81.8441 49.6948 81.721 49.7571H81.7194Z" fill="#212121"/>
<path d="M98.4785 78.6362C98.4785 80.0447 98.4785 81.4548 98.4785 82.8633C98.4785 83.511 98.396 84.1488 98.2174 84.7735C97.9326 85.7623 97.4254 86.6264 96.6502 87.3298C95.9543 87.9627 95.1219 88.3562 94.2103 88.6005C93.1352 88.8891 92.0449 88.9449 90.9395 88.8317C90.2082 88.758 89.5022 88.594 88.8248 88.3169C87.6317 87.8266 86.7285 87.0281 86.127 85.9082C85.7209 85.1506 85.5136 84.3423 85.4395 83.4946C85.4007 83.0469 85.3973 82.6009 85.3973 82.1533C85.3973 79.5528 85.3973 76.9539 85.3973 74.3533C85.3973 74.2336 85.394 74.1123 85.4024 73.9926C85.4176 73.7712 85.4664 73.7237 85.6855 73.7106C85.7529 73.7057 85.8203 73.7073 85.8877 73.7073C86.8987 73.7073 87.9081 73.7073 88.9191 73.7073C89.3724 73.7073 89.3825 73.7171 89.3825 74.1746C89.3825 76.9719 89.3825 79.7676 89.3825 82.5649C89.3825 82.9486 89.3994 83.3273 89.5022 83.7012C89.6707 84.3046 90.0431 84.7473 90.5958 85.0539C90.803 85.1687 91.0288 85.2343 91.2631 85.272C91.7214 85.3474 92.1797 85.3589 92.6347 85.2589C93.6997 85.0244 94.3855 84.2636 94.4799 83.1535C94.495 82.9682 94.4917 82.7829 94.4917 82.596C94.4917 79.8217 94.4917 77.0457 94.4917 74.2713C94.4917 74.1516 94.49 74.0303 94.5001 73.9106C94.5119 73.7729 94.5709 73.7237 94.7175 73.7122C94.795 73.7057 94.8742 73.7073 94.9534 73.7073C95.9745 73.7073 96.9974 73.7073 98.0185 73.7073C98.1078 73.7073 98.1988 73.7073 98.2881 73.7171C98.396 73.7302 98.4533 73.7794 98.4651 73.8844C98.4768 73.9926 98.4785 74.1025 98.4785 74.2107C98.4785 75.6848 98.4785 77.1605 98.4785 78.6345V78.6362Z" fill="#212121"/>
<path d="M76.2821 82.8423C76.2821 81.0715 76.2821 79.3023 76.2821 77.5314C76.2821 77.2297 76.1282 77.0789 75.8204 77.0789C74.742 77.0789 73.6635 77.0789 72.5868 77.0789C72.1251 77.0789 72.1133 77.0674 72.1133 76.6197C72.1133 75.7999 72.1133 74.9801 72.1133 74.1619C72.1133 73.7273 72.1284 73.7109 72.5598 73.7109C76.2316 73.7109 79.905 73.7109 83.5768 73.7109C83.6661 73.7109 83.7571 73.7126 83.8464 73.7208C83.9475 73.729 84.0133 73.7864 84.0284 73.8847C84.0419 73.97 84.0486 74.0586 84.0486 74.1455C84.0486 74.9751 84.0486 75.8065 84.0486 76.6361C84.0486 76.6575 84.0486 76.6804 84.0486 76.7017C84.0368 77.0329 83.9981 77.0756 83.651 77.0772C82.618 77.0805 81.5851 77.0772 80.5521 77.0789C80.451 77.0789 80.3499 77.0772 80.2488 77.0789C79.9809 77.087 79.9489 77.1182 79.9404 77.392C79.9371 77.4904 79.9404 77.5888 79.9404 77.6872C79.9404 81.1502 79.9404 84.6148 79.9404 88.0778C79.9404 88.209 79.9404 88.3402 79.9286 88.4714C79.9135 88.6107 79.8545 88.6616 79.7129 88.678C79.6455 88.6845 79.5781 88.6845 79.5107 88.6845C78.5789 88.6845 77.6471 88.6845 76.7152 88.6845C76.3057 88.6845 76.2872 88.6649 76.2872 88.2517C76.2872 86.448 76.2872 84.646 76.2872 82.8423H76.2821Z" fill="#212121"/>
<path d="M107.496 41.1095C109.293 41.1095 111.089 41.1095 112.887 41.1095C113 41.1095 113.111 41.1079 113.224 41.1161C113.369 41.1259 113.418 41.1767 113.433 41.3227C113.441 41.3981 113.44 41.4752 113.44 41.5522C113.44 42.3721 113.44 43.1903 113.44 44.0101C113.44 44.4545 113.416 44.4791 112.969 44.4791C111.925 44.4807 110.882 44.4791 109.837 44.4791C109.5 44.4791 109.331 44.6397 109.33 44.9611C109.33 48.4569 109.33 51.9527 109.33 55.4502C109.33 55.5814 109.331 55.7125 109.323 55.8437C109.311 55.9995 109.256 56.0503 109.09 56.07C109.013 56.0798 108.934 56.0798 108.855 56.0798C107.956 56.0798 107.058 56.0798 106.16 56.0798C106.059 56.0798 105.958 56.0733 105.858 56.0618C105.756 56.0503 105.697 55.9831 105.69 55.8863C105.68 55.7552 105.678 55.624 105.678 55.4928C105.678 52.0068 105.678 48.5225 105.678 45.0366C105.678 44.9169 105.68 44.7955 105.67 44.6758C105.66 44.5512 105.606 44.5004 105.479 44.4889C105.378 44.4791 105.277 44.4807 105.176 44.4807C104.121 44.4807 103.065 44.4807 102.01 44.4807C101.899 44.4807 101.786 44.4758 101.674 44.4627C101.604 44.4528 101.556 44.4036 101.55 44.3282C101.546 44.2741 101.545 44.2183 101.545 44.1642C101.545 43.2903 101.545 42.4163 101.545 41.5424C101.545 41.1177 101.55 41.1128 102.005 41.1128C103.835 41.1128 105.665 41.1128 107.496 41.1128V41.1095Z" fill="#212121"/>
</svg>
