<svg width="230" height="130" viewBox="0 0 230 130" fill="none" xmlns="http://www.w3.org/2000/svg">
<path d="M63.5416 73.32C59.6216 73.32 56.8216 70.48 56.8216 65.88C56.8216 61.28 59.6016 58.44 63.5416 58.44C66.5016 58.44 69.1016 60 69.7816 63.48H67.6216C67.0416 61.22 65.3816 60.34 63.5416 60.34C60.8216 60.34 59.0416 62.4 59.0416 65.88C59.0416 69.36 60.8216 71.42 63.5416 71.42C65.4816 71.42 67.3816 70.26 67.7216 67.74H69.8616C69.4616 71.48 66.6216 73.32 63.5416 73.32ZM76.1799 73.24C73.1599 73.24 71.0599 71.14 71.0599 67.84C71.0599 64.54 73.1599 62.44 76.1799 62.44C79.1799 62.44 81.2799 64.54 81.2799 67.84C81.2799 71.14 79.1799 73.24 76.1799 73.24ZM76.1799 71.52C77.9999 71.52 79.1999 70.2 79.1999 67.84C79.1999 65.48 77.9999 64.16 76.1799 64.16C74.3399 64.16 73.1399 65.48 73.1399 67.84C73.1399 70.2 74.3399 71.52 76.1799 71.52ZM94.3238 62.44C96.6638 62.44 97.8838 63.96 97.8838 66.08V73H95.8638V66.34C95.8638 64.86 95.1638 64.2 93.8838 64.2C92.6638 64.2 91.4638 65.1 91.4638 67.34V73H89.4638V66.34C89.4638 64.86 88.7438 64.2 87.4638 64.2C86.2838 64.2 85.0438 65.1 85.0438 67.34V73H83.0438V62.68H84.9638V64.22C85.5838 63.16 86.5438 62.44 87.9438 62.44C89.5638 62.44 90.6238 63.22 91.1238 64.38C91.7838 63.24 92.8438 62.44 94.3238 62.44ZM100.094 61.22V59.08H102.134V61.22H100.094ZM100.114 73V62.68H102.114V73H100.114ZM109.512 62.44C111.752 62.44 113.132 63.72 113.132 66.08V73H111.132V66.36C111.132 64.88 110.352 64.2 108.952 64.2C107.732 64.2 106.352 65.1 106.352 67.18V73H104.352V62.68H106.272V64.22C106.952 63.2 108.052 62.44 109.512 62.44ZM123.048 62.68H124.968V72.62C124.968 75.32 123.348 77.16 120.048 77.16C117.248 77.16 115.688 75.78 115.488 73.72H117.488C117.648 74.94 118.548 75.54 120.068 75.54C121.948 75.54 122.968 74.56 122.968 72.66V71.52C122.228 72.54 121.108 73.12 119.648 73.12C116.788 73.12 114.908 71 114.908 67.78C114.908 64.54 116.768 62.44 119.628 62.44C121.148 62.44 122.308 63.08 123.048 64.14V62.68ZM120.008 71.4C121.848 71.4 123.028 70.08 123.028 67.78C123.028 65.48 121.848 64.16 120.008 64.16C118.168 64.16 116.988 65.56 116.988 67.78C116.988 70.02 118.168 71.4 120.008 71.4ZM135.086 73.26C132.326 73.26 130.706 72.18 130.566 69.72H132.566C132.726 71.16 133.426 71.68 135.106 71.68C136.726 71.68 137.386 71.16 137.386 70.24C137.386 69.42 136.886 69.02 135.186 68.72L134.126 68.52C131.906 68.12 130.846 67.12 130.846 65.44C130.846 63.62 132.286 62.44 134.826 62.44C137.766 62.44 139.126 63.72 139.186 65.9H137.246C137.166 64.42 136.286 64 134.826 64C133.526 64 132.826 64.52 132.826 65.38C132.826 66.26 133.526 66.6 134.746 66.84L135.826 67.02C138.346 67.5 139.406 68.38 139.406 70.1C139.406 72.12 137.786 73.26 135.086 73.26ZM145.535 73.24C142.515 73.24 140.415 71.14 140.415 67.84C140.415 64.54 142.515 62.44 145.535 62.44C148.535 62.44 150.635 64.54 150.635 67.84C150.635 71.14 148.535 73.24 145.535 73.24ZM145.535 71.52C147.355 71.52 148.555 70.2 148.555 67.84C148.555 65.48 147.355 64.16 145.535 64.16C143.695 64.16 142.495 65.48 142.495 67.84C142.495 70.2 143.695 71.52 145.535 71.52ZM157.039 73.24C154.019 73.24 151.919 71.14 151.919 67.84C151.919 64.54 154.019 62.44 157.039 62.44C160.039 62.44 162.139 64.54 162.139 67.84C162.139 71.14 160.039 73.24 157.039 73.24ZM157.039 71.52C158.859 71.52 160.059 70.2 160.059 67.84C160.059 65.48 158.859 64.16 157.039 64.16C155.199 64.16 153.999 65.48 153.999 67.84C153.999 70.2 155.199 71.52 157.039 71.52ZM169.063 62.44C171.303 62.44 172.683 63.72 172.683 66.08V73H170.683V66.36C170.683 64.88 169.903 64.2 168.503 64.2C167.283 64.2 165.903 65.1 165.903 67.18V73H163.903V62.68H165.823V64.22C166.503 63.2 167.603 62.44 169.063 62.44Z" fill="#9A9A9A"/>
</svg>
