<svg width="230" height="130" viewBox="0 0 230 130" fill="none" xmlns="http://www.w3.org/2000/svg">
<path d="M81.6263 84.2701C81.3905 84.2259 81.1547 84.2038 80.9189 84.1596C80.0185 83.9827 79.0968 83.8501 78.1964 83.629C76.8245 83.2974 75.5383 82.7226 74.3164 82.0372C73.459 81.5508 72.623 81.0424 71.8727 80.3791C71.2939 79.8706 70.6723 79.4064 70.1363 78.8536C68.9145 77.5935 67.8641 76.1786 67.0281 74.6089C66.192 73.0392 65.5704 71.3811 65.1631 69.6566C65.013 68.9713 64.9059 68.2859 64.8416 67.6006C64.7772 66.5173 64.7129 65.434 64.7344 64.3507C64.7344 63.599 64.9273 62.8252 65.0345 62.0735C65.1845 60.9902 65.5061 59.9733 65.8705 58.9563C66.4493 57.3424 67.2424 55.8169 68.2285 54.4241C68.893 53.4956 69.6004 52.6555 70.415 51.8596C71.3582 50.9089 72.4086 50.113 73.5447 49.4056C74.8309 48.6097 76.1814 47.9685 77.6391 47.5485C78.5394 47.2832 79.4612 47.0842 80.4044 46.9294C81.2833 46.7968 82.1836 46.7305 83.0625 46.7305C83.8557 46.7305 84.6488 46.8189 85.4419 46.9294C88.1215 47.2611 90.5867 48.1896 92.8161 49.7151C97.2105 52.6776 99.8901 56.8339 100.898 62.1399C101.176 63.6211 101.241 65.1245 101.133 66.6057C100.833 70.2757 98.561 73.0171 95.024 73.5698C93.2019 73.8572 91.4227 73.6803 89.7721 72.8181C87.95 71.8896 86.8139 70.3641 86.3423 68.308C86.1493 67.4679 86.0207 66.5836 86.085 65.7214C86.2137 63.9748 86.5995 62.3167 87.6928 60.9018C88.443 59.929 89.4506 59.509 90.651 59.4648C91.8514 59.3985 92.9018 59.7743 93.7807 60.5702C94.4881 61.2113 94.9812 62.0072 95.1526 62.98C95.1955 63.2453 95.1741 63.5327 95.1955 63.8201H87.8214V67.5564H100.533C100.533 67.1805 100.555 66.7826 100.533 66.4067C100.49 65.7656 100.426 65.1245 100.34 64.4833C100.04 62.4936 99.3756 60.6144 98.1966 58.9784C96.6532 56.856 94.5953 55.5516 92.0444 55.22C88.2072 54.7115 84.1343 56.7455 82.3122 60.4154C81.8835 61.2555 81.6048 62.162 81.4333 63.0905C81.3047 63.7317 81.1975 64.3728 81.1761 65.0139C80.9617 69.8114 82.8267 73.5256 86.7924 76.0901C88.2072 76.9966 89.7507 77.5935 91.3798 77.9472C92.4517 78.1683 93.5664 78.2125 94.6596 78.0578C95.3241 77.9693 95.9887 77.8146 96.6532 77.704C96.6961 77.704 96.7389 77.704 96.8676 77.704C96.4388 78.1683 96.053 78.6105 95.6457 79.0084C93.1162 81.4845 90.158 83.1205 86.7496 83.8501C85.9779 84.027 85.1633 84.0933 84.3701 84.2038C84.3273 84.2038 84.2844 84.2259 84.2415 84.248C83.3626 84.248 82.4837 84.248 81.6263 84.248V84.2701ZM73.5019 63.599C72.5372 63.4885 71.4225 64.4612 71.4225 65.6993C71.4225 66.871 72.3443 67.7775 73.3518 67.8217C74.7452 67.888 75.5383 66.6942 75.5383 65.854C75.5383 64.4833 74.7237 63.5769 73.4804 63.5769L73.5019 63.599Z" fill="#212121"/>
<path d="M153.138 62.2722H148.551C148.508 61.6089 148.637 60.9899 148.765 60.3709C149.387 57.6737 151.145 56.1703 153.674 55.5071C155.046 55.1534 156.439 55.1312 157.833 55.1976C158.969 55.2418 160.084 55.3081 161.155 55.7282C162.699 56.3251 163.921 57.2978 164.65 58.8454C164.993 59.575 165.1 60.3709 165.186 61.1668C165.271 61.9627 165.336 62.7365 165.336 63.5323C165.378 66.2959 165.378 69.0594 165.4 71.8229C165.4 72.3756 165.357 72.9283 165.4 73.4589C165.486 74.3875 165.593 75.3381 166 76.2003C166 76.2003 166 76.2446 166 76.3109H165.743C164.285 76.3109 162.849 76.3109 161.391 76.3109C161.177 76.3109 161.07 76.2446 161.005 76.0456C160.855 75.5813 160.705 75.117 160.555 74.6307C160.512 74.6528 160.47 74.697 160.405 74.7191C158.926 75.9571 157.254 76.6646 155.346 76.8415C154.875 76.8857 154.382 76.9299 153.91 76.8857C151.852 76.7309 150.009 76.0677 148.615 74.4096C147.822 73.4589 147.436 72.3535 147.308 71.1155C147.029 68.5951 148.572 66.4285 150.48 65.4115C151.745 64.7483 153.074 64.3946 154.467 64.2177C155.689 64.0629 156.933 63.9966 158.112 63.6208C158.583 63.466 159.055 63.2449 159.462 62.9575C159.912 62.6701 160.105 62.1838 160.127 61.631C160.191 60.5035 159.612 59.7961 158.69 59.3981C157.361 58.8012 155.989 58.7349 154.66 59.4423C153.889 59.8403 153.417 60.5256 153.224 61.41C153.16 61.6753 153.138 61.9627 153.095 62.2501L153.138 62.2722ZM160.427 66.0085C160.041 66.2074 159.698 66.4727 159.312 66.6054C158.69 66.8265 158.069 66.9591 157.426 67.1139C156.482 67.3571 155.539 67.5339 154.617 67.8213C153.653 68.1308 152.988 68.7941 152.667 69.8111C152.431 70.607 152.581 71.2923 153.074 71.9113C153.503 72.4419 154.103 72.7293 154.789 72.862C156.247 73.1273 157.618 72.862 158.883 72.0882C159.633 71.6239 160.169 70.9386 160.255 70.01C160.341 69.2805 160.384 68.5509 160.405 67.8213C160.427 67.2244 160.405 66.6054 160.405 66.0306L160.427 66.0085Z" fill="#212121"/>
<path d="M125.635 67.6033H113.051V63.8449H120.297C120.383 62.2973 119.718 61.1698 118.582 60.2854C116.653 58.8042 112.944 59.1358 111.808 62.6068C111.594 63.2701 111.444 63.9554 111.401 64.6408C111.358 65.2156 111.315 65.7904 111.358 66.3431C111.444 67.6917 111.615 69.0403 112.301 70.2341C113.051 71.5385 114.209 72.246 115.624 72.5555C117.875 73.0419 119.847 71.7817 120.447 69.6593C120.447 69.593 120.49 69.5488 120.511 69.4824H125.656C125.592 70.2341 125.334 70.9416 125.013 71.6048C124.477 72.7545 123.791 73.7935 122.869 74.6337C121.647 75.7612 120.19 76.4244 118.603 76.7781C117.96 76.9108 117.296 77.0213 116.653 77.0434C115.109 77.0877 113.63 76.7339 112.237 76.0486C109.193 74.5673 107.328 72.1133 106.556 68.7529C106.32 67.6917 106.192 66.6084 106.256 65.503C106.428 62.5405 107.392 59.9317 109.429 57.8093C110.822 56.3723 112.537 55.5543 114.488 55.3332C115.109 55.2669 115.731 55.2006 116.353 55.2448C119.632 55.488 122.183 56.9471 123.834 59.9538C124.563 61.2582 125.099 62.651 125.399 64.1323C125.613 65.1714 125.72 66.2325 125.677 67.3158C125.677 67.4264 125.635 67.5369 125.635 67.6696V67.6033Z" fill="#212121"/>
<path d="M144.562 62.3383C143.125 62.3383 141.753 62.3383 140.403 62.3383C140.274 62.3383 140.21 62.2941 140.189 62.1394C140.124 60.3707 138.988 59.3095 137.723 59.0221C136.523 58.7568 135.344 58.7789 134.229 59.3537C133.543 59.7075 133.05 60.2602 132.964 61.034C132.879 61.6751 133.136 62.2499 133.672 62.6257C134.143 62.9795 134.701 63.1342 135.258 63.2669C136.223 63.4659 137.166 63.6206 138.131 63.7975C139.331 64.0186 140.532 64.2396 141.689 64.7039C144.24 65.6988 145.248 67.7548 145.162 70.231C145.033 73.4145 143.19 75.8685 139.717 76.6865C139.117 76.8192 138.474 76.9076 137.852 76.9518C137.209 76.9961 136.566 77.0403 135.944 76.9961C134.015 76.8634 132.193 76.3549 130.628 75.1169C129.192 73.9672 128.399 72.3976 128.034 70.6068C127.97 70.3194 127.97 70.0099 127.927 69.7225C127.927 69.6783 127.927 69.634 127.927 69.5898C128.013 69.5898 128.077 69.5898 128.163 69.5898C129.513 69.5898 130.864 69.5898 132.193 69.5898C132.386 69.5898 132.45 69.634 132.493 69.833C132.622 70.3415 132.772 70.8721 132.986 71.3585C133.307 72.1102 133.886 72.6408 134.637 72.9282C136.073 73.4809 137.509 73.4366 138.924 72.8176C139.867 72.3976 140.424 71.668 140.381 70.5626C140.381 69.7888 140.039 69.1698 139.331 68.9266C138.624 68.6834 137.873 68.4844 137.123 68.3518C135.601 68.0644 134.058 67.7991 132.6 67.2685C132.021 67.0474 131.443 66.8042 130.885 66.4947C129.706 65.8535 128.956 64.8366 128.57 63.5322C128.42 63.0237 128.313 62.4931 128.313 61.9625C128.334 59.5969 129.32 57.7398 131.335 56.5239C132.214 55.9933 133.136 55.6175 134.144 55.4848C135.001 55.3522 135.858 55.2858 136.716 55.33C138.474 55.3743 140.146 55.8606 141.668 56.8113C143.168 57.7619 144.004 59.1769 144.369 60.9234C144.476 61.4098 144.476 61.8962 144.519 62.4268L144.562 62.3383Z" fill="#212121"/>
</svg>
