<svg width="230" height="130" viewBox="0 0 230 130" fill="none" xmlns="http://www.w3.org/2000/svg">
<g clip-path="url(#clip0_1019_46375)">
<path d="M104.388 55.4314C105.135 54.6004 105.865 53.7936 106.595 52.9807C109.218 50.0602 111.836 47.1458 114.453 44.2194C114.574 44.0869 114.646 44.0688 114.797 44.1712C116.239 45.0985 117.68 46.0138 119.127 46.929C119.302 47.0374 119.284 47.0916 119.158 47.2301C115.485 51.108 111.818 54.9918 108.151 58.8757C107.904 59.1346 107.668 59.4056 107.409 59.6525C107.258 59.791 107.246 59.8994 107.343 60.086C108.79 62.9041 110.226 65.7342 111.661 68.5583C112.481 70.1721 113.308 71.7858 114.128 73.3996C114.152 73.4478 114.17 73.502 114.2 73.5622C114.104 73.6164 114.007 73.5923 113.923 73.5923C111.776 73.5923 109.623 73.5923 107.475 73.5983C107.282 73.5983 107.18 73.5562 107.089 73.3635C105.63 70.2022 104.164 67.0469 102.699 63.8916C102.663 63.8134 102.62 63.7411 102.572 63.6508C101.969 64.3192 101.372 64.9815 100.781 65.6379C97.9766 68.757 95.1661 71.8761 92.3556 74.9953C92.2772 75.0856 92.2289 75.2181 92.048 75.0976C90.5041 74.0921 88.9541 73.0925 87.3739 72.0749C87.7418 71.6895 88.1037 71.3041 88.4656 70.9308C91.1253 68.1729 93.785 65.4211 96.4386 62.6632C97.5001 61.5613 98.5616 60.4534 99.6291 59.3574C99.7919 59.1888 99.8401 59.0684 99.7195 58.8336C98.5374 56.4852 97.3674 54.1247 96.1974 51.7703C95.2143 49.7953 94.2373 47.8142 93.2542 45.8392C93.2241 45.7729 93.1939 45.7067 93.1638 45.6404C93.2542 45.5682 93.3387 45.5983 93.4171 45.5983C95.4797 45.5983 97.5483 45.5983 99.611 45.5923C99.816 45.5923 99.9065 45.6585 99.9849 45.8392C101.396 48.9342 102.819 52.0293 104.237 55.1243C104.285 55.2146 104.333 55.311 104.388 55.4314Z" fill="#D3D3D3"/>
<path d="M131.569 70.5632C129.657 70.5632 127.842 70.1236 126.069 69.4372C125.852 69.3529 125.834 69.2746 125.906 69.0759C126.202 68.263 126.485 67.444 126.763 66.6191C126.829 66.4264 126.871 66.3782 127.076 66.4987C128.397 67.2935 129.832 67.7391 131.382 67.727C132.492 67.715 133.535 67.4561 134.416 66.7214C135.713 65.6376 136.207 63.3434 134.476 61.8561C133.909 61.3683 133.27 60.983 132.625 60.6036C131.811 60.1219 131.008 59.6281 130.285 59.0079C127.963 57.0148 128.083 53.2574 130.08 51.2342C131.491 49.8071 133.24 49.1688 135.206 49.0905C136.985 49.0242 138.704 49.3494 140.369 49.9997C140.55 50.072 140.604 50.1382 140.537 50.343C140.272 51.1378 140.019 51.9387 139.778 52.7395C139.717 52.9503 139.663 52.9503 139.482 52.8539C137.739 51.8784 135.9 51.6255 133.982 52.2096C132.679 52.6071 131.991 53.5344 131.931 54.8892C131.901 55.5877 132.184 56.1718 132.667 56.6716C133.149 57.1714 133.728 57.5507 134.313 57.918C135.116 58.4178 135.924 58.9055 136.678 59.4776C139.156 61.3623 139.476 64.0298 138.36 66.6251C137.438 68.7688 135.719 69.955 133.451 70.4066C132.83 70.5271 132.197 70.5511 131.569 70.5632Z" fill="#212121"/>
<path d="M143.082 52.2596C143.281 51.3443 143.474 50.4591 143.661 49.574C143.685 49.4596 143.733 49.4114 143.854 49.4295C143.89 49.4355 143.932 49.4295 143.968 49.4295C149.131 49.4295 154.294 49.4295 159.456 49.4295C159.541 49.4295 159.619 49.4295 159.722 49.4295C159.529 50.3387 159.33 51.2239 159.149 52.109C159.112 52.2957 158.98 52.2535 158.865 52.2535C157.4 52.2535 155.928 52.2535 154.462 52.2535C153.95 52.2535 153.437 52.2596 152.931 52.2475C152.774 52.2475 152.701 52.2776 152.665 52.4523C151.839 56.3241 151.001 60.1959 150.168 64.0738C149.746 66.0368 149.324 67.9998 148.902 69.9688C148.866 70.1374 148.811 70.2157 148.612 70.2157C147.696 70.2037 146.773 70.2037 145.856 70.2157C145.663 70.2157 145.621 70.1856 145.669 69.9809C146.411 66.5787 147.141 63.1766 147.871 59.7744C148.401 57.3056 148.932 54.8308 149.463 52.3619C149.469 52.3379 149.469 52.3078 149.469 52.2656C147.346 52.2596 145.235 52.2596 143.082 52.2596Z" fill="#212121"/>
<path d="M125.659 49.4279C125.423 50.5238 125.194 51.5956 124.965 52.6614C124.006 57.1053 123.047 61.5492 122.088 65.9931C121.799 67.3298 121.509 68.6666 121.232 70.0034C121.196 70.172 121.117 70.2081 120.96 70.2021C120.044 70.1961 119.121 70.1901 118.204 70.2021C117.975 70.2081 117.963 70.1178 118.005 69.9432C118.488 67.7212 118.97 65.4993 119.447 63.2774C120.363 59.0202 121.28 54.7569 122.203 50.4997C122.269 50.2047 122.329 49.9096 122.39 49.6146C122.414 49.5002 122.45 49.4219 122.607 49.4219C123.602 49.4339 124.609 49.4279 125.659 49.4279Z" fill="#212121"/>
<path d="M110.274 40.9196C110.322 43.0211 108.579 44.7673 106.45 44.7553C104.291 44.7432 102.608 43.1114 102.608 40.9015C102.614 38.7759 104.339 37.0718 106.54 37.102C108.585 37.1381 110.322 38.8903 110.274 40.9196Z" fill="#B9B9B9"/>
<path d="M114.422 87.5289C114.434 87.5229 114.44 87.5229 114.453 87.5169C115.231 87.4627 115.231 87.4687 115.436 88.2154C115.779 89.4498 116.123 90.6842 116.491 91.9969C116.684 91.2321 116.853 90.5396 117.028 89.8472C117.203 89.1427 117.384 88.4382 117.553 87.7336C117.595 87.565 117.661 87.4868 117.854 87.5048C118.125 87.5289 118.469 87.4205 118.656 87.547C118.861 87.6855 118.831 88.0588 118.903 88.3298C119.199 89.4738 119.482 90.6119 119.772 91.756C119.784 91.8102 119.808 91.8584 119.844 91.9547C120.23 90.5758 120.616 89.239 120.972 87.8962C121.057 87.5831 121.171 87.4446 121.497 87.5048C121.617 87.5289 121.738 87.5108 121.901 87.5108C121.714 88.113 121.533 88.6911 121.358 89.2751C121.026 90.353 120.689 91.4369 120.363 92.5207C120.309 92.7014 120.23 92.7676 120.031 92.7676C119.302 92.7616 119.302 92.7676 119.127 92.0691C118.825 90.8588 118.524 89.6545 118.222 88.4502C118.21 88.396 118.204 88.3418 118.132 88.2876C117.818 89.528 117.51 90.7564 117.203 91.9848C116.998 92.8037 117.004 92.7977 116.171 92.7736C116.045 92.7676 115.972 92.7435 115.93 92.605C115.43 90.9431 114.929 89.2872 114.422 87.6252C114.416 87.5891 114.422 87.559 114.422 87.5289Z" fill="#212121"/>
<path d="M87.5242 82.1278C87.5242 81.3269 87.5302 80.5201 87.5182 79.7192C87.5182 79.5325 87.5724 79.4844 87.7534 79.4844C88.5796 79.4964 89.3998 79.4964 90.2261 79.4844C90.4191 79.4844 90.5095 79.5326 90.4794 79.7373C90.4673 79.8035 90.4673 79.8698 90.4794 79.936C90.5035 80.1106 90.4312 80.1588 90.2623 80.1588C89.6833 80.1467 89.1104 80.1648 88.5314 80.1528C88.3323 80.1467 88.272 80.207 88.2781 80.4057C88.2962 80.7549 88.2962 81.1042 88.2781 81.4534C88.266 81.6461 88.3384 81.6882 88.5193 81.6822C89.0319 81.6702 89.5446 81.6822 90.0512 81.6762C90.214 81.6702 90.2804 81.7003 90.2804 81.8869C90.2743 82.3566 90.2864 82.3566 89.81 82.3566C89.3637 82.3566 88.9174 82.3627 88.4771 82.3506C88.3263 82.3446 88.2841 82.3928 88.2841 82.5433C88.2962 82.9889 88.2962 83.4285 88.2841 83.8741C88.2781 84.0306 88.3444 84.0607 88.4831 84.0607C89.0802 84.0547 89.6773 84.0667 90.2743 84.0547C90.4553 84.0487 90.4975 84.1029 90.4915 84.2775C90.4854 84.7411 90.4975 84.7412 90.0331 84.7412C89.2732 84.7412 88.5193 84.7351 87.7594 84.7472C87.5785 84.7472 87.5242 84.705 87.5242 84.5183C87.5362 83.7115 87.5242 82.9226 87.5242 82.1278Z" fill="#212121"/>
<path d="M146.195 89.4398C146.611 88.952 147.094 88.7654 147.667 88.8497C148.384 88.952 148.788 89.3555 148.849 90.072C148.927 90.909 148.867 91.752 148.885 92.589C148.885 92.7095 148.849 92.7456 148.722 92.7576C148.161 92.8058 148.173 92.8058 148.161 92.2578C148.149 91.5895 148.203 90.9151 148.125 90.2467C148.065 89.7589 147.866 89.506 147.51 89.4338C147.076 89.3495 146.647 89.5482 146.43 89.9336C146.255 90.2467 146.207 90.5899 146.201 90.9452C146.195 91.463 146.189 91.9869 146.201 92.5047C146.207 92.6914 146.171 92.7697 145.96 92.7636C145.477 92.7516 145.477 92.7637 145.477 92.288C145.477 90.6802 145.483 89.0785 145.471 87.4708C145.471 87.1877 145.538 87.0974 145.827 87.1155C146.195 87.1456 146.195 87.1215 146.195 87.5009C146.195 88.1271 146.195 88.7533 146.195 89.4398Z" fill="#212121"/>
<path d="M126.021 84.2066C125.575 84.7787 125.008 84.8991 124.374 84.7847C123.765 84.6763 123.379 84.1825 123.355 83.4298C123.325 82.635 123.349 81.8402 123.343 81.0514C123.343 80.9309 123.379 80.8948 123.5 80.8888C124.073 80.8526 124.073 80.8466 124.073 81.4126C124.073 81.9486 124.073 82.4905 124.073 83.0264C124.073 83.1769 124.079 83.3275 124.103 83.478C124.163 83.8333 124.302 84.1404 124.7 84.2187C125.11 84.2969 125.472 84.1765 125.725 83.8273C125.924 83.5623 126.003 83.2492 126.009 82.924C126.021 82.3279 126.027 81.7318 126.015 81.1417C126.009 80.943 126.069 80.8888 126.268 80.8888C126.751 80.9008 126.751 80.8888 126.751 81.3584C126.751 82.4062 126.745 83.4539 126.757 84.5017C126.757 84.7064 126.702 84.7546 126.503 84.7485C126.063 84.7305 126.063 84.7365 126.021 84.2066Z" fill="#212121"/>
<path d="M142.407 81.4674C142.853 80.8592 143.426 80.7388 144.059 80.8412C144.675 80.9435 145.073 81.4253 145.103 82.1479C145.133 82.9608 145.115 83.7737 145.127 84.5866C145.127 84.713 145.079 84.7371 144.964 84.7431C144.409 84.7732 144.409 84.7732 144.403 84.2132C144.397 83.587 144.427 82.9668 144.379 82.3405C144.337 81.7685 144.114 81.4614 143.691 81.3952C143.227 81.3229 142.769 81.5999 142.582 82.0876C142.485 82.3345 142.443 82.5934 142.443 82.8644C142.443 83.4244 142.437 83.9784 142.449 84.5384C142.449 84.701 142.401 84.7431 142.244 84.7431C141.713 84.7431 141.713 84.7551 141.713 84.2373C141.713 83.2136 141.719 82.196 141.707 81.1724C141.701 80.9315 141.78 80.8472 142.009 80.8893C142.045 80.8954 142.087 80.8954 142.123 80.8893C142.359 80.8472 142.455 80.9435 142.419 81.1784C142.395 81.2506 142.407 81.3229 142.407 81.4674Z" fill="#212121"/>
<path d="M128.633 81.467C128.923 81.0515 129.278 80.8528 129.725 80.8167C130.75 80.7384 131.287 81.2262 131.335 82.3221C131.371 83.0687 131.341 83.8154 131.347 84.5621C131.347 84.7006 131.305 84.7307 131.172 84.7367C130.617 84.7608 130.629 84.7668 130.617 84.2068C130.605 83.5204 130.672 82.8279 130.569 82.1414C130.515 81.7801 130.364 81.4851 129.972 81.4068C129.568 81.3285 129.218 81.449 128.971 81.7862C128.717 82.1174 128.663 82.5087 128.663 82.9122C128.657 83.4421 128.657 83.972 128.663 84.4958C128.669 84.6705 128.627 84.7367 128.434 84.7367C127.939 84.7307 127.939 84.7367 127.939 84.255C127.939 83.2133 127.945 82.1776 127.933 81.1358C127.933 80.9191 127.994 80.8649 128.205 80.8709C128.627 80.8829 128.627 80.8709 128.633 81.3044C128.627 81.3466 128.627 81.3767 128.633 81.467Z" fill="#212121"/>
<path d="M108.168 81.4736C108.602 80.8655 109.157 80.745 109.784 80.8354C110.369 80.9197 110.762 81.3412 110.84 81.9674C110.948 82.8405 110.87 83.7197 110.894 84.5988C110.9 84.7192 110.84 84.7433 110.737 84.7373C110.605 84.7313 110.472 84.7253 110.339 84.7373C110.177 84.7554 110.158 84.6831 110.158 84.5446C110.164 83.9304 110.158 83.3162 110.164 82.702C110.164 82.4672 110.146 82.2323 110.086 82.0035C110.008 81.6844 109.821 81.4556 109.483 81.4074C109.103 81.3472 108.771 81.4616 108.524 81.7747C108.265 82.0999 108.204 82.4913 108.204 82.8947C108.198 83.4306 108.192 83.9726 108.21 84.5085C108.216 84.6951 108.162 84.7433 107.975 84.7433C107.487 84.7373 107.487 84.7433 107.487 84.2616C107.487 83.2319 107.493 82.2022 107.481 81.1726C107.475 80.9317 107.553 80.8474 107.782 80.8895C107.836 80.9016 107.897 80.8956 107.951 80.8895C108.144 80.8594 108.204 80.9437 108.18 81.1244C108.156 81.2147 108.168 81.3111 108.168 81.4736Z" fill="#212121"/>
<path d="M94.2975 92.1918C93.9718 92.6314 93.5858 92.8361 93.1033 92.8421C92.1745 92.8542 91.6921 92.4327 91.6076 91.5114C91.5352 90.6985 91.5895 89.8856 91.5775 89.0727C91.5775 88.9462 91.6317 88.9221 91.7463 88.9161C92.3072 88.88 92.3012 88.874 92.3132 89.44C92.3253 90.1204 92.259 90.8008 92.3615 91.4752C92.4339 91.9509 92.6208 92.1737 92.9887 92.252C93.3687 92.3303 93.7969 92.1436 94.014 91.8004C94.213 91.4873 94.2733 91.138 94.2733 90.7707C94.2794 90.2348 94.2794 89.6929 94.2733 89.157C94.2673 88.9823 94.3035 88.9101 94.5025 88.9161C94.9971 88.9221 94.9971 88.9101 94.9971 89.3978C94.9971 90.4395 94.991 91.4752 95.0031 92.517C95.0031 92.7157 94.9488 92.794 94.7498 92.7578C94.7136 92.7518 94.6714 92.7518 94.6352 92.7578C94.3638 92.806 94.2492 92.7036 94.3035 92.4266C94.3095 92.3785 94.2975 92.3243 94.2975 92.1918Z" fill="#212121"/>
<path d="M139.826 84.1583C139.464 84.6641 139.012 84.8387 138.469 84.8146C137.715 84.7906 137.227 84.351 137.154 83.5983C137.076 82.7493 137.142 81.9002 137.124 81.0452C137.124 80.9247 137.166 80.8886 137.287 80.8766C137.836 80.8344 137.83 80.8284 137.836 81.3643C137.848 82.0508 137.788 82.7432 137.884 83.4297C137.95 83.9054 138.15 84.1463 138.499 84.2125C138.921 84.2908 139.344 84.1041 139.567 83.7248C139.778 83.3695 139.808 82.9721 139.814 82.5746C139.82 82.0929 139.826 81.6112 139.814 81.1295C139.808 80.9368 139.85 80.8645 140.061 80.8706C140.52 80.8826 140.52 80.8706 140.52 81.3342C140.52 82.3759 140.514 83.4116 140.526 84.4534C140.526 84.6762 140.465 84.7665 140.248 84.7243C140.11 84.7002 139.917 84.8146 139.844 84.6521C139.778 84.5437 139.826 84.3751 139.826 84.1583Z" fill="#212121"/>
<path d="M155.784 81.4415C156.441 80.6888 157.509 80.5925 158.088 81.1886C158.335 81.4475 158.456 81.7667 158.462 82.1099C158.48 82.9288 158.468 83.7538 158.48 84.5727C158.48 84.6992 158.443 84.7293 158.317 84.7353C157.774 84.7654 157.78 84.7654 157.774 84.2234C157.768 83.5611 157.81 82.8987 157.732 82.2424C157.671 81.7426 157.46 81.4716 157.074 81.3994C156.67 81.3271 156.236 81.5379 156.025 81.9172C155.868 82.2062 155.808 82.5194 155.802 82.8445C155.796 83.4045 155.796 83.9585 155.802 84.5185C155.808 84.6871 155.772 84.7413 155.585 84.7413C155.078 84.7353 155.078 84.7473 155.078 84.2475C155.078 83.2299 155.084 82.2062 155.072 81.1886C155.072 80.9598 155.114 80.8454 155.362 80.8875C155.416 80.8996 155.476 80.8935 155.53 80.8875C155.736 80.8574 155.802 80.9417 155.778 81.1404C155.772 81.2187 155.784 81.303 155.784 81.4415Z" fill="#212121"/>
<path d="M135.321 89.4889C135.797 88.8748 136.376 88.7483 137.034 88.8868C137.57 89.0012 137.938 89.4528 137.993 90.0791C138.065 90.9161 138.011 91.7591 138.029 92.6021C138.029 92.7285 137.981 92.7586 137.86 92.7646C137.305 92.8068 137.311 92.8128 137.305 92.2588C137.293 91.5965 137.347 90.9341 137.269 90.2778C137.203 89.7539 137.004 89.501 136.612 89.4408C136.159 89.3685 135.755 89.5793 135.538 90.0068C135.387 90.3019 135.339 90.615 135.339 90.9401C135.333 91.47 135.333 91.9999 135.339 92.5298C135.339 92.6984 135.321 92.7827 135.116 92.7767C134.615 92.7707 134.615 92.7827 134.615 92.289C134.615 91.2593 134.621 90.2296 134.609 89.1999C134.609 88.9952 134.645 88.8928 134.869 88.935C134.905 88.941 134.947 88.941 134.983 88.935C135.255 88.8868 135.369 88.9892 135.315 89.2662C135.315 89.3083 135.321 89.3625 135.321 89.4889Z" fill="#212121"/>
<path d="M92.922 82.2447C93.1451 81.8834 93.3743 81.5582 93.5552 81.209C93.694 80.9501 93.8689 80.8417 94.1583 80.8839C94.2669 80.9019 94.3875 80.8839 94.5021 80.8839C94.5504 81.0103 94.4478 81.0765 94.3936 81.1548C94.086 81.6185 93.7784 82.0821 93.4527 82.5337C93.3562 82.6722 93.3562 82.7626 93.4527 82.9011C93.8628 83.4912 94.2609 84.0813 94.6951 84.7256C94.3936 84.7256 94.1342 84.7256 93.8749 84.7256C93.7543 84.7256 93.7301 84.6172 93.6819 84.5449C93.4045 84.1174 93.1391 83.6899 92.8556 83.2383C92.5842 83.6718 92.3189 84.0692 92.0776 84.4847C91.9691 84.6714 91.8545 84.7617 91.6313 84.7316C91.4564 84.7075 91.2755 84.7256 91.0524 84.7256C91.4806 84.0993 91.8846 83.5092 92.3008 82.9312C92.4154 82.7686 92.4214 82.6602 92.3008 82.4916C91.9329 81.9798 91.5831 81.4559 91.1911 80.8778C91.5047 80.8778 91.7701 80.8718 92.0354 80.8778C92.1379 80.8778 92.156 80.9862 92.1983 81.0585C92.4395 81.4559 92.6687 81.8352 92.922 82.2447Z" fill="#212121"/>
<path d="M112.631 84.1579C113.355 84.1579 114.019 84.176 114.676 84.1519C114.959 84.1398 114.911 84.2964 114.923 84.465C114.935 84.6577 114.905 84.748 114.67 84.742C113.789 84.7239 112.909 84.73 112.028 84.742C111.823 84.742 111.793 84.6758 111.781 84.4891C111.763 84.2061 111.859 83.9953 112.04 83.7786C112.68 83.0379 113.307 82.2792 113.934 81.5265C113.874 81.4362 113.789 81.4783 113.723 81.4783C113.174 81.4723 112.625 81.4723 112.077 81.4783C111.902 81.4844 111.853 81.4001 111.884 81.2616C111.914 81.1351 111.751 80.9003 112.034 80.8942C112.915 80.8822 113.795 80.8882 114.676 80.8882C114.73 80.8882 114.809 80.8822 114.803 80.9605C114.791 81.2074 114.881 81.4543 114.688 81.6891C114.061 82.4177 113.446 83.1644 112.83 83.905C112.782 83.9712 112.722 84.0435 112.631 84.1579Z" fill="#212121"/>
<path d="M154.71 91.1151C154.71 90.6454 154.704 90.1697 154.716 89.7C154.716 89.5555 154.68 89.4953 154.53 89.5073C154.343 89.5194 154.15 89.5013 153.963 89.5133C153.836 89.5194 153.812 89.4712 153.806 89.3508C153.788 88.9232 153.782 88.9233 154.21 88.9233C154.71 88.9233 154.71 88.9232 154.716 88.4295C154.716 88.3452 154.716 88.2609 154.729 88.1766C154.825 87.3516 155.277 86.9783 156.11 87.0325C156.472 87.0566 156.562 87.189 156.472 87.5503C156.447 87.6467 156.399 87.6346 156.327 87.6346C155.549 87.6467 155.446 87.7611 155.446 88.5499C155.446 88.6161 155.452 88.6824 155.446 88.7486C155.434 88.8871 155.488 88.9353 155.627 88.9233C155.778 88.9112 155.929 88.9233 156.08 88.9233C156.453 88.9233 156.538 89.0437 156.453 89.411C156.429 89.5254 156.357 89.5073 156.285 89.5073C156.073 89.5073 155.868 89.5194 155.657 89.5073C155.476 89.4953 155.44 89.5615 155.44 89.7301C155.446 90.6454 155.44 91.5607 155.446 92.4759C155.446 92.6927 155.404 92.771 155.169 92.765C154.71 92.7469 154.71 92.765 154.71 92.3013C154.71 91.9099 154.71 91.5125 154.71 91.1151Z" fill="#212121"/>
<path d="M101.402 79.7852C101.402 80.0923 101.42 80.3693 101.396 80.6402C101.378 80.869 101.462 80.9172 101.667 80.8931C101.806 80.875 101.951 80.8931 102.095 80.8931C102.391 80.8931 102.536 81.128 102.415 81.4049C102.379 81.4892 102.313 81.4772 102.252 81.4772C102.053 81.4772 101.854 81.4892 101.655 81.4772C101.462 81.4591 101.396 81.5133 101.402 81.7181C101.414 82.3142 101.408 82.9103 101.408 83.5004C101.408 84.1206 101.782 84.3735 102.361 84.1628C102.397 84.1507 102.427 84.1387 102.463 84.1267C102.475 84.1447 102.481 84.1508 102.481 84.1568C102.53 84.7529 102.463 84.8252 101.86 84.8252C101.082 84.8252 100.69 84.4398 100.684 83.663C100.678 83.0307 100.672 82.3985 100.69 81.7662C100.696 81.5194 100.618 81.4471 100.389 81.4832C100.298 81.4953 100.196 81.4712 100.105 81.4892C99.864 81.5314 99.8157 81.429 99.8097 81.2002C99.8037 80.9413 99.8881 80.8871 100.129 80.8991C100.684 80.9172 100.702 80.9052 100.678 80.3512C100.666 80.0923 100.745 79.9718 100.998 79.9297C101.112 79.8875 101.233 79.8333 101.402 79.7852Z" fill="#212121"/>
<path d="M98.0301 89.5966C97.7225 89.5123 97.433 89.3858 97.1134 89.434C96.8842 89.4701 96.6791 89.5363 96.6248 89.7892C96.5645 90.0542 96.7153 90.2228 96.9264 90.3372C97.1315 90.4516 97.3486 90.5419 97.5597 90.6503C98.1085 90.9273 98.3316 91.3067 98.2653 91.8185C98.1929 92.3604 97.825 92.7398 97.234 92.8301C96.8721 92.8843 96.4982 92.8662 96.1363 92.7578C95.9313 92.6976 95.8288 92.6133 95.877 92.3845C95.9011 92.2761 95.8891 92.1617 95.8951 92.0292C96.1303 92.1075 96.3474 92.2219 96.5887 92.258C96.7213 92.2761 96.854 92.2882 96.9807 92.258C97.2219 92.2039 97.433 92.1075 97.4813 91.8305C97.5295 91.5596 97.3667 91.403 97.1616 91.2886C96.9083 91.1441 96.6429 91.0176 96.3896 90.8791C95.9916 90.6563 95.7805 90.3251 95.8469 89.8494C95.9132 89.3737 96.1846 89.0667 96.649 88.9221C97.0832 88.7897 97.5054 88.8439 97.9336 88.9462C98.0422 88.9703 98.0964 89.0185 98.0723 89.1449C98.0482 89.2834 98.0422 89.434 98.0301 89.5966Z" fill="#212121"/>
<path d="M141.057 89.5971C140.779 89.5188 140.514 89.4044 140.224 89.4285C139.971 89.4526 139.718 89.5068 139.651 89.7958C139.585 90.0848 139.778 90.2534 140.007 90.3739C140.2 90.4762 140.399 90.5605 140.592 90.6569C141.153 90.9399 141.382 91.3433 141.28 91.8853C141.183 92.4091 140.773 92.7825 140.194 92.8427C139.856 92.8788 139.513 92.8607 139.181 92.7704C138.97 92.7102 138.849 92.6259 138.903 92.379C138.928 92.2706 138.909 92.1562 138.909 92.0177C139.157 92.102 139.368 92.2165 139.603 92.2526C139.724 92.2706 139.85 92.2947 139.971 92.2646C140.218 92.2104 140.453 92.1382 140.514 91.8491C140.58 91.5481 140.387 91.3915 140.17 91.265C139.923 91.1266 139.663 91.0061 139.422 90.8676C139.048 90.6569 138.831 90.3438 138.879 89.8921C138.934 89.4044 139.187 89.0793 139.663 88.9227C140.116 88.7782 140.556 88.8324 141.002 88.9528C141.099 88.9769 141.135 89.0311 141.111 89.1395C141.075 89.284 141.075 89.4345 141.057 89.5971Z" fill="#212121"/>
<path d="M99.2848 81.5563C99.0979 81.5081 98.929 81.4539 98.7541 81.4178C98.6455 81.3937 98.5249 81.3816 98.4164 81.3937C98.1872 81.4238 97.952 81.478 97.8856 81.7369C97.8133 82.0259 97.9882 82.2066 98.2174 82.327C98.4345 82.4414 98.6637 82.5317 98.8808 82.6461C99.3934 82.9171 99.5985 83.3145 99.514 83.8264C99.4296 84.3442 99.0496 84.7055 98.5008 84.7898C98.1028 84.85 97.7107 84.832 97.3247 84.6995C97.1679 84.6453 97.0413 84.1395 97.1619 84.0251C97.2283 83.9649 97.2825 84.0371 97.3368 84.0612C97.6082 84.1816 97.8856 84.2659 98.1872 84.2238C98.4405 84.1876 98.6697 84.0973 98.736 83.8143C98.8024 83.5313 98.6335 83.3687 98.4164 83.2483C98.1932 83.1218 97.964 83.0195 97.7409 82.893C97.1921 82.5859 97.0111 82.2427 97.1197 81.7249C97.2283 81.201 97.6263 80.8698 98.2113 80.8216C98.5129 80.7975 98.8144 80.8216 99.116 80.8879C99.2909 80.924 99.3813 80.9962 99.321 81.1889C99.2848 81.3033 99.2969 81.4298 99.2848 81.5563Z" fill="#212121"/>
<path d="M129.35 89.5966C129.049 89.5063 128.759 89.3859 128.439 89.434C128.21 89.4702 128.005 89.5424 127.945 89.7893C127.885 90.0362 128.023 90.2108 128.228 90.3252C128.446 90.4457 128.669 90.542 128.886 90.6564C129.459 90.9454 129.664 91.3128 129.579 91.8848C129.507 92.3665 129.139 92.7338 128.578 92.8242C128.186 92.8904 127.788 92.8723 127.402 92.7338C127.227 92.6736 127.113 92.1979 127.239 92.0715C127.306 92.0052 127.36 92.0775 127.414 92.1016C127.734 92.222 128.053 92.3424 128.403 92.2341C128.614 92.1678 128.777 92.0534 128.819 91.8186C128.862 91.5898 128.741 91.4332 128.56 91.3248C128.331 91.1923 128.096 91.0719 127.86 90.9515C127.294 90.6504 127.101 90.3252 127.191 89.7773C127.269 89.2715 127.625 88.9644 128.204 88.862C128.542 88.8018 128.862 88.856 129.187 88.9222C129.374 88.9584 129.447 89.0306 129.398 89.2233C129.374 89.3437 129.368 89.4642 129.35 89.5966Z" fill="#212121"/>
<path d="M124.314 92.0059C124.562 92.1384 124.791 92.2106 125.032 92.2588C125.237 92.2949 125.43 92.2708 125.611 92.1805C125.961 92.0119 126.009 91.6265 125.714 91.3796C125.478 91.1869 125.189 91.0846 124.924 90.9401C124.29 90.5908 124.091 90.1031 124.351 89.513C124.556 89.0433 125.123 88.7723 125.762 88.8325C125.858 88.8446 125.949 88.8566 126.045 88.8747C126.51 88.9469 126.516 88.965 126.468 89.4226C126.449 89.5973 126.377 89.5852 126.25 89.5371C126.003 89.4467 125.744 89.3805 125.472 89.4347C125.267 89.4768 125.086 89.5551 125.032 89.7779C124.978 90.0128 125.086 90.1874 125.285 90.2958C125.509 90.4222 125.738 90.5246 125.967 90.639C126.522 90.916 126.751 91.2953 126.667 91.8072C126.576 92.3792 126.208 92.7465 125.611 92.8188C125.255 92.8609 124.893 92.8429 124.544 92.7405C124.333 92.6803 124.236 92.59 124.29 92.3611C124.314 92.2708 124.302 92.1564 124.314 92.0059Z" fill="#212121"/>
<path d="M159.263 92.1804C159.312 92.3249 159.276 92.4815 159.288 92.626C159.294 92.7344 159.233 92.7645 159.137 92.7946C158.878 92.8608 158.612 92.8729 158.347 92.8307C157.804 92.7404 157.502 92.3791 157.496 91.8251C157.49 91.1387 157.49 90.4462 157.502 89.7597C157.508 89.5671 157.46 89.4828 157.255 89.5129C157.153 89.5249 157.044 89.5008 156.942 89.5189C156.706 89.549 156.622 89.4828 156.622 89.2238C156.622 88.9589 156.712 88.9228 156.942 88.9288C157.496 88.9468 157.49 88.9348 157.496 88.4049C157.496 88.2845 157.43 88.1159 157.533 88.0557C157.707 87.9533 157.919 87.9111 158.118 87.863C158.22 87.8389 158.202 87.9412 158.202 88.0015C158.208 88.1701 158.202 88.3387 158.202 88.5133C158.202 88.9348 158.202 88.9348 158.642 88.9348C158.775 88.9348 158.908 88.9468 159.04 88.9348C159.288 88.9107 159.233 89.0853 159.221 89.2118C159.209 89.3322 159.33 89.537 159.046 89.5249C158.841 89.5129 158.63 89.537 158.425 89.5189C158.244 89.5068 158.202 89.5671 158.202 89.7417C158.214 90.2776 158.208 90.8195 158.208 91.3554C158.208 92.1744 158.467 92.3851 159.263 92.1804Z" fill="#212121"/>
<path d="M144.585 89.5655C143.638 89.3246 143.186 89.433 142.842 89.9569C142.486 90.4988 142.516 91.3238 142.902 91.8235C143.258 92.2872 143.765 92.3655 144.603 92.0885C144.615 92.1005 144.633 92.1126 144.633 92.1246C144.687 92.793 144.633 92.8291 143.885 92.8472C143.023 92.8653 142.365 92.51 142.016 91.7272C141.66 90.9203 141.738 90.1315 142.323 89.4511C142.908 88.7706 143.831 88.7405 144.549 88.9513C144.645 88.9814 144.651 89.0476 144.639 89.1259C144.621 89.2644 144.603 89.4029 144.585 89.5655Z" fill="#212121"/>
<path d="M110.659 89.4639C110.997 88.9942 111.371 88.7775 111.896 88.8437C112.077 88.8678 112.155 88.922 112.143 89.1207C112.131 89.482 112.143 89.482 111.787 89.4639C111.407 89.4459 111.136 89.6205 110.943 89.9396C110.75 90.2587 110.701 90.614 110.695 90.9753C110.689 91.4871 110.683 91.999 110.695 92.5048C110.701 92.6975 110.659 92.7697 110.448 92.7637C109.972 92.7577 109.972 92.7697 109.972 92.288C109.972 91.2704 109.984 90.2467 109.966 89.2291C109.96 88.9581 110.05 88.8798 110.297 88.922C110.328 88.928 110.358 88.928 110.382 88.922C110.605 88.8859 110.695 88.9702 110.659 89.1929C110.647 89.2592 110.659 89.3254 110.659 89.4639Z" fill="#212121"/>
<path d="M121.093 81.3509C121.419 80.9655 121.793 80.7729 122.294 80.809C122.511 80.827 122.583 80.8993 122.577 81.1161C122.571 81.3449 122.601 81.5195 122.251 81.4473C121.884 81.375 121.594 81.5677 121.401 81.8808C121.202 82.206 121.136 82.5612 121.136 82.9346C121.13 83.4645 121.124 83.9943 121.142 84.5182C121.148 84.6989 121.087 84.735 120.919 84.735C120.418 84.729 120.418 84.741 120.418 84.2352C120.418 83.2176 120.424 82.1999 120.412 81.1763C120.412 80.9475 120.46 80.8511 120.701 80.8752C120.906 80.8993 121.166 80.809 121.099 81.1763C121.087 81.2365 121.093 81.2967 121.093 81.3509Z" fill="#212121"/>
<path d="M95.437 82.78C95.437 82.232 95.443 81.684 95.431 81.1361C95.4249 80.9434 95.4732 80.8772 95.6782 80.8832C96.1668 80.8952 96.1668 80.8832 96.1668 81.3769C96.1668 82.4126 96.1607 83.4544 96.1728 84.4901C96.1728 84.6948 96.1185 84.743 95.9195 84.7369C95.437 84.7249 95.437 84.7369 95.437 84.2492C95.437 83.7615 95.437 83.2677 95.437 82.78Z" fill="#212121"/>
<path d="M122.595 90.8292C122.595 90.2692 122.601 89.7153 122.589 89.1553C122.583 88.9806 122.619 88.9084 122.818 88.9144C123.313 88.9204 123.313 88.9144 123.313 89.3961C123.313 90.4258 123.307 91.4555 123.319 92.4852C123.319 92.6899 123.283 92.7682 123.06 92.7621C122.595 92.7501 122.595 92.7621 122.595 92.2985C122.595 91.8168 122.595 91.323 122.595 90.8292Z" fill="#212121"/>
<path d="M95.7875 80.059C95.3895 80.059 95.3895 80.059 95.3895 79.6857C95.3895 79.2461 95.3895 79.2461 95.8659 79.2461C96.2097 79.2461 96.2097 79.2461 96.2097 79.7338C96.2037 80.1192 96.2579 80.053 95.7875 80.059Z" fill="#212121"/>
<path d="M123.349 87.6103C123.349 88.08 123.349 88.08 122.89 88.08C122.547 88.08 122.547 88.08 122.547 87.6043C122.547 87.2791 122.547 87.3032 123.017 87.2671C123.355 87.249 123.397 87.3996 123.349 87.6103Z" fill="#212121"/>
<path d="M125.303 79.931C125.309 79.4974 125.243 79.5697 125.683 79.5637C126.021 79.5577 125.991 79.5637 126.033 79.9912C126.069 80.3585 125.87 80.3284 125.635 80.3224C125.303 80.3163 125.303 80.3224 125.303 79.931Z" fill="#212121"/>
<path d="M124.066 79.9178C124.066 79.5625 124.066 79.5625 124.452 79.5625C124.79 79.5625 124.754 79.5685 124.796 80.0021C124.832 80.3935 124.591 80.3152 124.38 80.3152C124.066 80.3212 124.066 80.3212 124.066 79.9178Z" fill="#212121"/>
<path fill-rule="evenodd" clip-rule="evenodd" d="M87.1515 67.3489C87.2067 67.0324 87.2624 66.7131 87.3186 66.3899C86.1426 66.8656 84.9665 67.2209 83.7603 67.4196C82.1199 67.7026 80.4794 67.7387 78.8571 67.3293C77.5061 66.9921 76.4085 66.2936 75.7873 64.9929C75.1841 63.7224 75.1118 62.3796 75.2927 61.0067C75.3201 60.8101 75.4169 60.8116 75.5426 60.8136C75.5555 60.8138 75.5687 60.814 75.5822 60.814H83.6518C85.6058 60.814 87.5539 60.814 89.5079 60.82C89.7069 60.82 89.8095 60.7839 89.8276 60.5551C89.8392 60.3577 89.8733 60.1603 89.9073 59.9628C89.9263 59.8532 89.9452 59.7435 89.9603 59.6338C90.1653 58.0562 90.2618 56.4785 89.9301 54.9009C89.4898 52.8175 88.4525 51.1555 86.5165 50.1499C84.8037 49.2587 82.9582 49.1022 81.0765 49.325C78.0791 49.6742 75.6666 51.0953 73.8694 53.4919C71.4087 56.7676 70.6669 60.4587 71.475 64.451C71.7947 66.0467 72.5124 67.4618 73.7548 68.5637C75.2505 69.8945 77.0719 70.4304 79.0199 70.623C81.5771 70.8699 84.0739 70.4906 86.5527 69.8944C86.6552 69.8704 86.7216 69.8463 86.7397 69.7258C86.8738 68.9395 87.0111 68.1531 87.1515 67.3489ZM79.7187 57.9956C80.1275 57.996 80.5361 57.9963 80.9443 57.9963C81.7706 57.9963 82.5983 57.9948 83.4261 57.9933C84.2539 57.9918 85.0816 57.9903 85.9079 57.9903C86.137 57.9903 86.2396 57.9602 86.2577 57.7013C86.2629 57.6379 86.2683 57.5745 86.2737 57.5112C86.3243 56.9181 86.375 56.3246 86.2878 55.7262C86.0828 54.3172 85.4073 53.2333 84.0503 52.6974C82.247 51.9869 80.5161 52.2097 78.9239 53.2875C77.3438 54.3593 76.3969 55.8948 75.8179 57.6892C75.7455 57.9241 75.7395 58.0024 76.035 58.0024C77.2612 57.9933 78.4908 57.9945 79.7187 57.9956Z" fill="#212121"/>
<path fill-rule="evenodd" clip-rule="evenodd" d="M147.744 85.8141C147.28 85.8201 146.857 85.6575 146.429 85.4768C146.418 85.5434 146.41 85.6061 146.401 85.6674C146.391 85.7391 146.382 85.8088 146.369 85.8803C146.321 86.091 146.399 86.1693 146.604 86.2295C147.038 86.356 147.473 86.4102 147.919 86.3981C149.095 86.362 149.71 85.7418 149.71 84.5616V81.2738C149.71 80.9117 149.71 80.9117 149.39 80.8915C149.375 80.8905 149.359 80.8895 149.342 80.8884C149.095 80.8704 148.992 80.9426 149.035 81.1955C149.036 81.2044 149.037 81.2139 149.039 81.2238C149.048 81.2744 149.058 81.3349 148.992 81.3702C148.534 80.6115 147.075 80.6235 146.52 81.3943C145.989 82.1289 145.905 82.9237 146.224 83.7547C146.502 84.4773 147.195 84.8446 147.961 84.7181C148.341 84.6579 148.673 84.5013 148.98 84.1641C148.98 84.2313 148.981 84.2914 148.982 84.3468C148.983 84.4454 148.984 84.5288 148.98 84.6097C148.962 85.3745 148.504 85.8141 147.744 85.8141ZM148.13 84.1165C148.648 83.984 148.98 83.4782 148.98 82.8279C148.98 82.3883 148.871 82.0331 148.66 81.7681C148.274 81.2864 147.593 81.2623 147.183 81.726C146.73 82.2318 146.688 83.1892 147.086 83.7311C147.346 84.0804 147.713 84.2189 148.13 84.1165Z" fill="#212121"/>
<path fill-rule="evenodd" clip-rule="evenodd" d="M118.554 81.3175C118.554 81.3235 118.554 81.3356 118.548 81.3837C117.836 80.4564 116.244 80.6732 115.774 81.8173C115.526 82.4254 115.478 83.0396 115.695 83.6659C115.967 84.4728 116.715 84.8762 117.559 84.7076C117.921 84.6353 118.216 84.4607 118.494 84.1717C118.506 84.4487 118.506 84.6835 118.452 84.9123C118.319 85.4844 117.933 85.8035 117.348 85.8216C116.956 85.8336 116.582 85.7493 116.22 85.5988C116.073 85.537 116.003 85.5068 115.963 85.5294C115.922 85.553 115.913 85.6343 115.882 85.7975C115.828 86.0805 115.919 86.1889 116.19 86.2611C116.684 86.3876 117.179 86.4298 117.68 86.3816C118.596 86.2852 119.115 85.7614 119.199 84.8461C119.214 84.7111 119.213 84.5722 119.212 84.4357C119.212 84.4017 119.211 84.3679 119.211 84.3343C119.211 83.9765 119.212 83.6195 119.213 83.2629C119.214 82.551 119.216 81.8409 119.211 81.1308C119.211 81.1137 119.214 81.0951 119.217 81.076C119.227 81.0011 119.238 80.9188 119.103 80.89C118.675 80.8057 118.56 80.89 118.554 81.3175ZM117.638 84.1179C118.156 83.9975 118.524 83.4435 118.506 82.7811C118.488 82.468 118.434 82.1368 118.229 81.8478C117.849 81.2878 117.101 81.2336 116.685 81.7394C116.257 82.2573 116.214 83.1484 116.582 83.7024C116.824 84.0637 117.216 84.2203 117.638 84.1179Z" fill="#212121"/>
<path fill-rule="evenodd" clip-rule="evenodd" d="M102.542 92.8471C103.073 92.8651 103.519 92.6905 103.905 92.257C103.928 92.7513 103.929 92.7514 104.326 92.7562C104.34 92.7564 104.354 92.7566 104.369 92.7568C104.587 92.7628 104.605 92.6725 104.605 92.4918C104.599 90.86 104.599 89.2221 104.599 87.5903C104.599 87.3495 104.599 87.2291 104.538 87.1696C104.477 87.1085 104.351 87.1116 104.098 87.1146C103.929 87.1146 103.893 87.1688 103.893 87.3253C103.897 87.7228 103.896 88.1202 103.894 88.5176C103.894 88.7163 103.893 88.915 103.893 89.1137C103.893 89.1821 103.889 89.2544 103.884 89.3403C103.883 89.3603 103.882 89.3811 103.881 89.4028C103.254 88.5718 101.661 88.6019 101.173 89.7159C100.817 90.5408 100.853 91.3598 101.3 92.1365C101.565 92.6062 101.993 92.835 102.542 92.8471ZM101.861 90.0109C101.752 90.2517 101.71 90.5167 101.716 90.7816C101.704 91.161 101.776 91.5162 101.987 91.8293C102.367 92.3954 103.127 92.4194 103.549 91.8775C103.971 91.3416 103.983 90.3902 103.573 89.8362C103.103 89.204 102.192 89.3003 101.861 90.0109Z" fill="#212121"/>
<path fill-rule="evenodd" clip-rule="evenodd" d="M132.782 84.3378C133.313 84.946 134.501 85.0243 135.207 84.2656C135.254 84.7295 135.255 84.7295 135.669 84.7348C135.679 84.7349 135.69 84.7351 135.701 84.7352C135.888 84.7352 135.943 84.6871 135.937 84.5004C135.924 84.2036 135.926 83.9068 135.928 83.61C135.929 83.4913 135.93 83.3726 135.93 83.254C135.93 82.9322 135.93 82.6101 135.93 82.2878C135.929 81.3189 135.927 80.3475 135.937 79.3761C135.937 79.1352 135.864 79.0509 135.635 79.0871C135.593 79.0931 135.544 79.0931 135.496 79.0871C135.249 79.0449 135.201 79.1533 135.207 79.3821C135.22 79.8468 135.217 80.3084 135.215 80.7692C135.214 80.9532 135.213 81.1371 135.213 81.321C135.149 81.3302 135.126 81.2977 135.106 81.2684C135.1 81.259 135.093 81.25 135.086 81.2428C134.501 80.6286 133.331 80.6527 132.764 81.2909C132.095 82.0436 132.119 83.5791 132.782 84.3378ZM134.773 83.9711C135.099 83.6519 135.195 83.2485 135.213 82.9113C135.207 82.4356 135.093 82.0622 134.906 81.8093C134.472 81.2252 133.627 81.2614 133.259 81.8695C132.928 82.4115 132.976 83.3508 133.356 83.8566C133.706 84.3203 134.351 84.3745 134.773 83.9711Z" fill="#212121"/>
<path fill-rule="evenodd" clip-rule="evenodd" d="M150.64 92.7801C151.292 92.9366 151.901 92.8824 152.407 92.2983C152.429 92.5574 152.44 92.6838 152.508 92.7406C152.573 92.7947 152.691 92.7856 152.92 92.768H152.95C153.047 92.774 153.083 92.7379 153.083 92.6355C153.079 92.3546 153.077 92.0737 153.076 91.7931C153.073 91.2314 153.071 90.6706 153.047 90.1125C153.023 89.5766 152.799 89.131 152.251 88.9504C151.605 88.7396 150.978 88.8179 150.381 89.125C150.377 89.127 150.374 89.1289 150.37 89.1308C150.308 89.1646 150.249 89.1965 150.254 89.2876C150.266 89.4502 150.278 89.6127 150.29 89.8054C150.628 89.5646 150.972 89.4441 151.346 89.4201C151.865 89.39 152.208 89.6007 152.305 90.0222C152.395 90.3895 152.383 90.4016 152.015 90.4016C151.945 90.4016 151.874 90.4002 151.804 90.3989C151.664 90.3962 151.525 90.3936 151.388 90.4016C150.99 90.4196 150.61 90.522 150.272 90.7568C149.862 91.0459 149.754 91.4614 149.832 91.931C149.911 92.3826 150.2 92.6717 150.64 92.7801ZM152.326 90.986C152.272 90.9254 152.15 90.9254 151.907 90.9254C151.569 90.9315 151.243 90.9616 150.942 91.1121C150.706 91.2265 150.562 91.4192 150.58 91.6721C150.598 91.9491 150.773 92.1358 151.038 92.2261C151.635 92.4248 152.262 92.0334 152.335 91.4132C152.365 91.1688 152.38 91.0469 152.326 90.986Z" fill="#212121"/>
<path fill-rule="evenodd" clip-rule="evenodd" d="M87.6138 89.1996C87.5608 89.2921 87.6032 89.4394 87.6456 89.7871C87.9773 89.5643 88.321 89.4379 88.707 89.4138C89.28 89.3777 89.6117 89.6246 89.6901 90.1545C89.7142 90.317 89.7082 90.4254 89.4911 90.4013C89.2887 90.3806 89.0819 90.3866 88.8784 90.3926C88.8453 90.3935 88.8123 90.3945 88.7794 90.3953C88.3572 90.4074 87.9532 90.5097 87.6094 90.7626C87.0123 91.2022 87.0002 92.1596 87.5792 92.5811C88.0858 92.9484 89.0086 92.9364 89.4971 92.545C89.5439 92.5055 89.5906 92.4638 89.6412 92.4188C89.6755 92.3883 89.7115 92.3562 89.7504 92.3222L89.7504 92.3222C89.7745 92.7618 89.7745 92.7618 90.1967 92.7558H90.251C90.4018 92.7798 90.4319 92.7076 90.4259 92.5631C90.4123 92.3108 90.4089 92.0552 90.4056 91.8012C90.4044 91.7157 90.4033 91.6304 90.4018 91.5454C90.3998 91.3797 90.4028 91.214 90.4059 91.0483C90.4123 90.6962 90.4187 90.344 90.3776 89.9919C90.3113 89.3958 89.9615 89.0043 89.4066 88.8839C88.9784 88.7936 88.5502 88.7876 88.1461 88.9441C87.8129 89.07 87.6665 89.1079 87.6138 89.1996ZM88.4183 92.2315C89.0817 92.4302 89.6788 91.9605 89.6968 91.2199C89.6901 91.1914 89.6932 91.1572 89.6964 91.1226C89.7046 91.0328 89.7131 90.9395 89.5521 90.9309C89.136 90.9128 88.7198 90.9128 88.3278 91.0874C88.0383 91.2199 87.8996 91.4367 87.9297 91.7076C87.9659 92.0027 88.1529 92.1532 88.4183 92.2315Z" fill="#212121"/>
<path fill-rule="evenodd" clip-rule="evenodd" d="M133.398 92.1077V91.8849C133.084 92.0896 132.776 92.192 132.451 92.2522C131.763 92.3727 131.106 91.921 130.973 91.2406C130.937 91.06 130.973 90.9877 131.178 90.9937C131.631 91.0028 132.087 91.0016 132.541 91.0005C132.692 91.0001 132.843 90.9997 132.994 90.9997C133.373 90.9997 133.563 90.9997 133.642 90.9061C133.722 90.8121 133.69 90.6239 133.627 90.2471C133.488 89.398 133.036 88.9524 132.204 88.8441C131.413 88.7417 130.696 89.1391 130.376 89.8496C130.153 90.3434 130.141 90.8552 130.243 91.3731C130.406 92.2161 130.883 92.6737 131.733 92.8182C132.107 92.8785 132.487 92.8664 132.861 92.7821C133.129 92.722 133.263 92.6919 133.33 92.6081C133.398 92.5239 133.398 92.3854 133.398 92.1077ZM132.101 89.4345C131.492 89.3562 131.04 89.7657 130.974 90.4642H130.977C131.573 90.4642 132.163 90.4642 132.759 90.4702C132.873 90.4702 132.922 90.4461 132.916 90.3137C132.885 89.8621 132.548 89.4887 132.101 89.4345Z" fill="#212121"/>
<path fill-rule="evenodd" clip-rule="evenodd" d="M106.243 84.0821C106.244 84.0121 106.245 83.9393 106.245 83.8622C105.949 84.0368 105.672 84.1452 105.37 84.2114C104.61 84.368 103.947 83.9224 103.808 83.1817C103.778 83.0071 103.826 82.977 103.989 82.977C104.387 82.981 104.785 82.9797 105.183 82.9783C105.382 82.9777 105.581 82.977 105.78 82.977C106.2 82.977 106.411 82.977 106.496 82.8734C106.583 82.7686 106.541 82.5579 106.456 82.134C106.305 81.3933 105.846 80.9237 105.183 80.8273C104.345 80.7009 103.615 81.0321 103.277 81.6944C102.939 82.3568 102.958 83.0432 103.199 83.7297C103.374 84.2355 103.742 84.5727 104.254 84.7172C104.875 84.8918 105.491 84.8617 106.094 84.6329C106.184 84.5968 106.251 84.5667 106.245 84.4583C106.241 84.3363 106.242 84.2142 106.243 84.0821ZM103.964 82.4413H104.76C104.849 82.4413 104.938 82.4399 105.026 82.4386C105.202 82.4359 105.378 82.4332 105.55 82.4413C105.756 82.4533 105.78 82.369 105.737 82.1883C105.623 81.6705 105.261 81.3694 104.766 81.3875C104.29 81.4116 103.904 81.7849 103.82 82.2847C103.795 82.4412 103.856 82.4413 103.964 82.4413Z" fill="#212121"/>
<path fill-rule="evenodd" clip-rule="evenodd" d="M108.716 92.5959C108.782 92.5014 108.735 92.3281 108.729 91.9022C108.421 92.0889 108.12 92.1912 107.812 92.2515C107.113 92.3719 106.479 91.9383 106.335 91.2459C106.292 91.0592 106.323 90.993 106.528 90.999C107.03 91.008 107.536 91.0069 108.04 91.0058C108.207 91.0054 108.375 91.005 108.542 91.005C109.073 91.005 109.073 91.005 109.019 90.4691C108.91 89.4635 108.415 88.9276 107.499 88.8373C106.642 88.753 105.876 89.2588 105.641 90.0897C105.478 90.6497 105.502 91.2097 105.707 91.7577C105.906 92.3056 106.311 92.6428 106.865 92.7813C107.263 92.8837 107.674 92.9018 108.072 92.8054C108.483 92.7049 108.652 92.6871 108.716 92.5959ZM107.45 89.4336C106.841 89.3553 106.425 89.7286 106.316 90.4633H106.32C106.934 90.4633 107.542 90.4633 108.15 90.4693C108.246 90.4693 108.277 90.4331 108.271 90.3368C108.258 89.8852 107.903 89.4938 107.45 89.4336Z" fill="#212121"/>
<path fill-rule="evenodd" clip-rule="evenodd" d="M153.842 83.922C153.842 83.916 153.836 83.91 153.806 83.8859C153.565 84.0364 153.293 84.1388 153.004 84.1869C152.256 84.3556 151.574 83.934 151.424 83.2235C151.387 83.0489 151.394 82.9525 151.629 82.9586C152.055 82.9715 152.482 82.969 152.908 82.9665C153.079 82.9656 153.249 82.9646 153.42 82.9646H153.42C154.234 82.9646 154.24 82.9646 154.071 82.1577C153.945 81.5556 153.673 81.0437 153.022 80.8751C152.334 80.6945 151.683 80.7788 151.158 81.3147C150.616 81.8627 150.471 82.9525 150.821 83.7654C151.038 84.2712 151.412 84.5844 151.936 84.7289C152.328 84.8373 152.72 84.8312 153.118 84.7831C153.794 84.7048 153.884 84.5904 153.842 83.922ZM151.557 82.435H152.377C152.509 82.438 152.642 82.4365 152.775 82.435C152.908 82.4335 153.04 82.432 153.173 82.435C153.366 82.441 153.39 82.3688 153.36 82.2002C153.275 81.6944 152.883 81.3572 152.377 81.3812C151.894 81.4053 151.46 81.8449 151.424 82.3146C151.418 82.435 151.478 82.435 151.557 82.435H151.557Z" fill="#212121"/>
</g>
<defs>
<clipPath id="clip0_1019_46375">
<rect width="88.6566" height="56" fill="white" transform="translate(70.9998 37)"/>
</clipPath>
</defs>
</svg>
