<svg width="230" height="130" viewBox="0 0 230 130" fill="none" xmlns="http://www.w3.org/2000/svg">
<path d="M82.3526 44.6406C82.5332 44.8672 82.561 45.1071 82.561 45.387C82.5471 47.5195 82.5332 49.652 82.561 51.7844C82.561 52.171 82.5471 52.5441 82.5471 52.9306C82.5471 56.5159 82.561 60.0878 82.561 63.673C82.561 64.0062 82.3387 64.2328 81.9774 64.2328C81.644 64.2328 81.3105 64.2328 80.9771 64.2328C75.0025 64.2328 69.0141 64.2328 63.0396 64.2328C62.331 64.2328 62.206 64.1129 62.206 63.4331C62.206 57.4222 62.206 51.4113 62.206 45.4003C62.206 45.1338 62.2338 44.8672 62.4005 44.6406H82.3387H82.3526ZM70.2091 63.3132C70.5286 63.2865 70.8482 63.3132 71.1678 63.2332C72.2793 62.9666 73.2241 62.4069 74.0994 61.7138C75.3916 60.7009 76.5031 59.5014 77.5174 58.2352C77.6424 58.0886 77.7258 57.9553 77.5591 57.7554C76.392 56.3559 75.1971 54.9832 73.6687 53.9169C72.9045 53.3705 72.0987 52.8907 71.1539 52.7307C69.6116 52.4775 68.1666 52.784 66.8605 53.6104C65.3183 54.5833 64.2484 55.9295 63.4704 57.5155C63.3036 57.8354 63.3036 58.0886 63.4704 58.4085C64.1234 59.7013 64.9432 60.8608 66.0964 61.7805C67.2913 62.7401 68.639 63.2732 70.1952 63.2998L70.2091 63.3132ZM73.502 52.7041C73.7521 52.864 73.9883 53.0239 74.2384 53.1972C75.7112 54.2368 76.9199 55.5296 78.0454 56.8891C78.3094 57.2089 78.3372 57.2223 78.5734 56.8891C79.4626 55.6362 80.324 54.3434 81.0743 53.0106C81.2688 52.6774 81.2688 52.6774 80.8659 52.6774C78.49 52.6774 76.1141 52.6774 73.7382 52.6774C73.6687 52.6774 73.5853 52.6374 73.502 52.7307V52.7041ZM73.5298 63.2599C73.5853 63.2865 73.6131 63.2998 73.6409 63.2998C76.0724 63.2998 78.5039 63.2998 80.9354 63.2998C81.2133 63.2998 81.1855 63.1799 81.0882 63.0066C80.324 61.6738 79.4904 60.381 78.5734 59.1282C78.2955 58.755 78.2955 58.755 77.9898 59.1282C76.9616 60.381 75.864 61.5539 74.544 62.5401C74.2106 62.7801 73.8771 63.02 73.5159 63.2599H73.5298ZM81.5606 61.9404V54.0102C80.7547 55.343 79.9489 56.5959 79.0458 57.782C78.9207 57.9553 78.9763 58.0886 79.0874 58.2485C79.4765 58.8083 79.8794 59.3548 80.2546 59.9145C80.6853 60.5676 81.1021 61.234 81.5606 61.9404ZM69.3337 48.6257C69.3059 48.5724 69.292 48.4924 69.2504 48.4391C68.7085 47.6528 68.1666 46.8797 67.6247 46.1067C67.5275 45.9601 67.4441 45.9334 67.333 46.1067C66.805 46.8931 66.277 47.6794 65.749 48.4658C65.6518 48.6124 65.6795 48.719 65.7768 48.8389C66.3187 49.612 66.8605 50.3717 67.3885 51.1447C67.5275 51.3579 67.6108 51.3313 67.7359 51.1447C68.1666 50.505 68.6112 49.8652 69.0419 49.2121C69.1531 49.0389 69.3059 48.8656 69.3615 48.639L69.3337 48.6257ZM77.2395 45.9734C77.1284 45.9734 77.0867 46.0534 77.045 46.1067C76.517 46.8664 75.989 47.6261 75.4611 48.3858C75.3638 48.5324 75.3916 48.6257 75.475 48.759C75.989 49.5054 76.517 50.2384 77.0172 50.9848C77.1423 51.158 77.2256 51.2113 77.3646 51.0114C77.8786 50.265 78.3927 49.5187 78.9068 48.7723C78.9902 48.639 79.0041 48.5191 78.9068 48.3858C78.3927 47.6261 77.8786 46.8664 77.3646 46.12C77.3229 46.0534 77.2673 46.0134 77.2256 45.9601L77.2395 45.9734ZM74.1828 48.5591C74.155 48.5057 74.1411 48.4524 74.1133 48.4125C73.5714 47.6394 73.0296 46.8531 72.4877 46.0801C72.3627 45.8935 72.2932 45.9868 72.1959 46.1067C71.6818 46.8664 71.1816 47.6261 70.6676 48.3858C70.5564 48.5457 70.5564 48.6923 70.6676 48.8523C71.1678 49.5587 71.654 50.265 72.1403 50.9848C72.2932 51.2113 72.3765 51.2113 72.5294 50.9848C73.0296 50.2517 73.5576 49.5187 74.0577 48.7856C74.0994 48.719 74.1411 48.639 74.1828 48.5591ZM63.1508 59.8612C63.1508 60.9141 63.1508 61.967 63.1508 63.02C63.1508 63.2332 63.2481 63.2998 63.4565 63.2865C63.9845 63.2865 64.4985 63.2865 65.0265 63.2865C65.5406 63.2865 66.0547 63.2865 66.5827 63.2865C65.1655 62.3802 64.0956 61.194 63.1647 59.8479L63.1508 59.8612ZM66.5688 52.6374C65.5684 52.6374 64.5541 52.6374 63.5537 52.6374C63.2481 52.6374 63.1508 52.7307 63.1508 53.0239C63.1647 53.9836 63.1508 54.9432 63.1508 55.9028C63.1508 55.9561 63.123 56.0361 63.2342 56.0627C64.0956 54.7166 65.1655 53.5571 66.5688 52.6508V52.6374ZM74.7802 51.7178C75.2387 51.7178 75.6834 51.7178 76.1419 51.7178C76.3503 51.7178 76.3781 51.6645 76.2669 51.5046C75.8223 50.8781 75.3916 50.2517 74.9609 49.6253C74.808 49.4121 74.7247 49.4787 74.6135 49.652C74.1828 50.2784 73.766 50.8915 73.3214 51.5046C73.1824 51.7045 73.2658 51.7311 73.4603 51.7311C73.9049 51.7311 74.3495 51.7311 74.7941 51.7311L74.7802 51.7178ZM79.5737 51.7178C80.0045 51.7178 80.4352 51.7178 80.8659 51.7178C81.0743 51.7178 81.1299 51.6645 81.0048 51.4779C80.588 50.8648 80.1712 50.2517 79.7544 49.6253C79.6432 49.452 79.5598 49.452 79.4487 49.6253C79.018 50.265 78.5872 50.8915 78.1426 51.5179C78.0315 51.6778 78.0871 51.7178 78.2538 51.7178C78.6845 51.7178 79.1152 51.7178 79.5459 51.7178H79.5737ZM69.9728 51.7178C70.4036 51.7178 70.8343 51.7178 71.265 51.7178C71.4317 51.7178 71.5012 51.6911 71.3901 51.5179C70.9593 50.9048 70.5286 50.2784 70.0979 49.652C69.9867 49.4787 69.8895 49.5054 69.7783 49.6653C69.3754 50.2784 68.9725 50.8781 68.5556 51.4912C68.4445 51.6512 68.4445 51.7178 68.6668 51.7178C69.0975 51.7178 69.5282 51.7178 69.959 51.7178H69.9728ZM65.096 51.7178C65.5267 51.7178 65.9574 51.7178 66.402 51.7178C66.5688 51.7178 66.6521 51.6911 66.5271 51.5179C66.0964 50.9048 65.6656 50.305 65.2488 49.6919C65.1238 49.5054 65.0265 49.5187 64.9154 49.6919C64.5124 50.305 64.0956 50.9048 63.6788 51.5179C63.5676 51.6778 63.6232 51.7178 63.8038 51.7178C64.2345 51.7178 64.6653 51.7178 65.1099 51.7178H65.096ZM65.0682 45.5203C64.6514 45.5203 64.2207 45.5203 63.8038 45.5203C63.7344 45.5203 63.6371 45.4803 63.5815 45.5603C63.5259 45.6536 63.6232 45.7202 63.6649 45.7868C64.0678 46.3733 64.4846 46.9597 64.8737 47.5461C64.9987 47.7327 65.0821 47.7594 65.221 47.5461C65.624 46.933 66.0408 46.3333 66.4576 45.7202C66.5688 45.5603 66.5549 45.5069 66.3326 45.5069C65.9157 45.5069 65.485 45.5069 65.0682 45.5069V45.5203ZM69.9312 45.5203C69.5004 45.5203 69.0697 45.5203 68.639 45.5203C68.4445 45.5203 68.375 45.5603 68.5001 45.7335C68.9308 46.3599 69.3754 46.9864 69.8061 47.6128C69.8895 47.7327 69.959 47.7461 70.0562 47.6128C70.4869 46.973 70.9177 46.32 71.3484 45.6802C71.4317 45.5469 71.404 45.4936 71.2233 45.4936C70.7926 45.4936 70.3619 45.4936 69.9312 45.4936V45.5203ZM78.0871 45.5336C78.5873 46.2666 79.0458 46.9464 79.5182 47.6261C79.6015 47.7594 79.6849 47.6794 79.7405 47.5994C80.1712 46.973 80.6158 46.3466 81.0465 45.7069C81.1299 45.5869 81.116 45.5069 80.9354 45.5203C80.727 45.5203 80.5185 45.5203 80.2962 45.5203C79.5737 45.5203 78.8651 45.5203 78.0871 45.5203V45.5336ZM73.2936 45.5336C73.2658 45.6136 73.2936 45.6536 73.3352 45.6935C73.7521 46.2933 74.1828 46.8931 74.5857 47.4928C74.7386 47.7194 74.8219 47.6661 74.947 47.4928C75.2804 46.9997 75.6278 46.5199 75.9612 46.0267C76.0585 45.8801 76.2808 45.7202 76.1836 45.5736C76.1141 45.4403 75.864 45.5469 75.6834 45.5336C74.8775 45.5336 74.0716 45.5336 73.2797 45.5336H73.2936ZM81.5467 50.6249V46.7065C81.0882 47.2796 80.6714 47.8793 80.2684 48.4658C80.199 48.5724 80.199 48.6657 80.2684 48.759C80.6853 49.3587 81.0882 49.9718 81.5467 50.6382V50.6249ZM63.1786 46.7065V50.505C63.6371 49.9318 64.04 49.3321 64.443 48.7323C64.4985 48.6524 64.4846 48.5724 64.4291 48.4924C64.0261 47.9193 63.6371 47.3462 63.1786 46.7065Z" fill="#212121"/>
<path d="M105.431 44.6406C105.626 44.8405 105.653 45.0804 105.653 45.347C105.653 51.4379 105.653 57.5155 105.653 63.6064C105.653 64.0995 105.473 64.2461 104.972 64.2328C104.681 64.2328 104.389 64.2328 104.111 64.2328C98.0532 64.2328 91.9953 64.2328 85.9374 64.2328C85.3956 64.2328 85.2149 64.0595 85.2149 63.5531C85.2149 57.4755 85.2149 51.3979 85.2149 45.3204C85.2149 45.0538 85.2844 44.8405 85.4372 44.6406H105.445H105.431ZM86.1736 62.3802C86.2014 62.3802 86.2153 62.3935 86.2431 62.4069C86.3682 62.2469 86.5071 62.1003 86.6321 61.9404C88.3689 59.688 90.1057 57.4355 91.8286 55.1698C92.162 54.7299 92.565 54.3301 92.69 53.7437C92.8984 52.7707 93.1763 51.8244 93.4264 50.8648C93.6487 49.9718 93.8849 49.0922 94.1072 48.1992C94.1628 47.9993 94.1072 47.8927 93.871 47.9326C92.9123 48.0659 91.9814 48.2792 91.0644 48.599C89.1609 49.2788 87.6186 50.425 86.3682 51.9444C86.2153 52.131 86.1875 52.3442 86.1875 52.5708C86.1875 55.7562 86.1875 58.9416 86.1875 62.127C86.1875 62.2069 86.1875 62.3002 86.1875 62.3802H86.1736ZM104.653 62.3402C104.667 62.2069 104.681 62.1403 104.681 62.087C104.681 58.9016 104.681 55.7162 104.681 52.5308C104.681 52.3042 104.611 52.1176 104.458 51.9444C102.499 49.5453 99.9011 48.2792 96.7888 47.906C96.6221 47.8927 96.5943 47.9193 96.636 48.0793C96.8166 48.7323 96.9833 49.3854 97.15 50.0251C97.4835 51.2646 97.817 52.4908 98.1504 53.7303C98.2199 53.9969 98.3172 54.2501 98.4978 54.4767C99.7761 56.116 101.068 57.7687 102.346 59.4214C103.097 60.381 103.847 61.3273 104.639 62.3402H104.653ZM104.695 50.6649C104.695 50.0118 104.695 49.3454 104.695 48.6923C104.695 47.7594 104.695 46.8397 104.695 45.9068C104.695 45.6136 104.639 45.4936 104.292 45.5203C103.666 45.5603 103.055 45.5203 102.43 45.5203C100.443 45.5203 98.4561 45.5203 96.4692 45.5203C96.0246 45.5203 95.9968 45.5603 96.108 45.9868C96.1775 46.2133 96.2608 46.4399 96.2886 46.6665C96.3164 46.8664 96.4414 46.9464 96.6221 46.9597C97.0389 46.9997 97.4279 47.093 97.8309 47.1596C99.915 47.4928 101.777 48.2792 103.402 49.572C103.833 49.9185 104.25 50.2784 104.695 50.6649ZM86.1875 50.6915C86.7016 50.2917 87.0907 49.8386 87.5492 49.4787C89.4666 47.9993 91.6757 47.2662 94.0794 46.9864C94.3156 46.9597 94.4407 46.8531 94.4824 46.6398C94.5518 46.3599 94.5935 46.0801 94.6769 45.8002C94.7464 45.5603 94.6769 45.5203 94.4268 45.5203C91.7869 45.5203 89.1609 45.5203 86.521 45.5203C86.2292 45.5203 86.132 45.5869 86.1458 45.8668C86.1458 47.3729 86.1458 48.8789 86.1458 50.3717C86.1458 50.4516 86.1458 50.5316 86.1597 50.6915H86.1875ZM93.4681 61.3806C93.4681 61.8871 93.4959 62.4069 93.4681 62.9133C93.4403 63.2599 93.5653 63.2998 93.871 63.2998C94.8992 63.2998 95.9135 63.2865 96.9416 63.2998C97.2612 63.2998 97.3724 63.2199 97.3585 62.9C97.3446 61.8604 97.3446 60.8075 97.3585 59.7679C97.3585 59.5547 97.3029 59.4347 97.1223 59.3281C96.6221 59.0216 96.1358 58.7283 95.6356 58.4085C95.4827 58.3152 95.3577 58.3285 95.2049 58.4085C94.7047 58.7283 94.2045 59.0349 93.6904 59.3414C93.5237 59.448 93.4542 59.568 93.4542 59.7679C93.4681 60.301 93.4542 60.8342 93.4542 61.3673L93.4681 61.3806ZM95.4411 57.2756C96.4553 57.3689 97.5669 56.4093 97.553 55.2897C97.553 54.1568 96.6221 53.2239 95.4827 53.2105C94.274 53.2105 93.3153 54.1035 93.3014 55.2497C93.3014 56.4759 94.4268 57.3689 95.4411 57.2756ZM103.069 61.9137C103.069 61.9004 103.097 61.8871 103.111 61.8604C102.458 61.0208 101.805 60.1944 101.165 59.3548C100.332 58.2885 99.4982 57.2356 98.6645 56.156C98.4839 55.9295 98.4144 55.9561 98.3311 56.2093C98.0949 56.9024 97.6086 57.4222 96.9555 57.7954C96.7054 57.942 96.7332 57.9953 96.9555 58.1286C98.1782 58.8749 99.387 59.6213 100.596 60.381C101.429 60.8875 102.249 61.3939 103.083 61.9137H103.069ZM87.827 61.8871C87.827 61.9004 87.8548 61.9137 87.8687 61.9271C89.8973 60.6609 91.9119 59.3947 93.9405 58.1286C94.1072 58.0219 94.135 57.942 93.9405 57.8487C93.2319 57.4755 92.7595 56.9024 92.4955 56.1694C92.426 55.9694 92.3566 55.9828 92.2454 56.1294C91.9536 56.5026 91.6618 56.8891 91.3701 57.2623C90.1891 58.8083 89.008 60.3544 87.827 61.8871ZM103.402 63.2465C103.402 63.2199 103.402 63.2065 103.375 63.1932C101.777 62.2069 100.165 61.2073 98.5673 60.2211C98.3311 60.0745 98.345 60.2077 98.345 60.3677C98.345 61.234 98.3588 62.087 98.345 62.9533C98.345 63.2332 98.4283 63.2998 98.6923 63.2998C100.179 63.2998 101.666 63.2998 103.152 63.2998C103.236 63.2998 103.333 63.3398 103.402 63.2599V63.2465ZM87.4658 63.2465C87.5631 63.2599 87.6047 63.2732 87.6464 63.2732C89.1609 63.2732 90.6892 63.2732 92.2037 63.2732C92.4538 63.2732 92.5372 63.1799 92.5372 62.9533C92.5372 62.1136 92.5372 61.274 92.5372 60.4343C92.5372 60.341 92.5789 60.2211 92.4816 60.1678C92.3704 60.1144 92.301 60.2211 92.2176 60.2744C91.2728 60.8608 90.3141 61.4606 89.3693 62.047C88.7441 62.4335 88.1327 62.82 87.4658 63.2465ZM96.9 52.6108C96.3998 50.7182 95.8996 48.8656 95.3994 46.9597C95.2743 47.2796 93.9683 52.4508 93.9544 52.6108C95.1493 52.2109 95.4689 52.131 96.9 52.6108Z" fill="#212121"/>
<path d="M85.4783 86.3594C85.2699 86.1728 85.1865 85.9596 85.1865 85.6797C85.1865 79.6288 85.1865 73.5779 85.1865 67.5136C85.1865 66.8739 85.3116 66.7539 85.9924 66.7539C88.938 66.7539 91.8835 66.7539 94.8291 66.7539C98.1915 66.7539 101.554 66.7539 104.93 66.7539C105.514 66.7539 105.653 66.8872 105.653 67.447C105.653 73.5245 105.653 79.6021 105.653 85.6664C105.653 85.9462 105.583 86.1595 105.361 86.3461H85.4922L85.4783 86.3594ZM104.694 78.2293C104.722 76.6033 104.18 75.1905 103.166 73.9244C102.665 73.298 102.026 72.7915 101.373 72.3117C99.6365 71.0055 97.9275 69.6994 96.1907 68.3933C96.1213 68.3399 96.0518 68.22 95.9406 68.2733C95.8573 68.3133 95.8989 68.4332 95.8989 68.5132C95.8989 69.1396 95.8989 69.766 95.8989 70.4058C95.8989 70.6324 95.9684 70.779 96.1629 70.9256C97.4134 71.8719 98.65 72.8182 99.9005 73.7644C101.693 75.1106 102.526 76.8166 102.193 79.0157C101.86 81.1748 100.164 83.0141 97.8441 83.5072C97.3023 83.6272 96.7604 83.5739 96.2185 83.6272C95.9962 83.6538 95.8989 83.7071 95.8989 83.9337C95.8989 84.3469 95.8989 84.7601 95.8989 85.1866C95.8989 85.3731 95.9545 85.4531 96.1629 85.4531C96.6909 85.4531 97.2328 85.4798 97.7608 85.4531C98.7334 85.4265 99.6782 85.1999 100.54 84.7601C103.263 83.3739 104.569 81.1615 104.68 78.2427L104.694 78.2293ZM94.9541 69.4728C94.9541 69.1663 94.9541 68.8597 94.9541 68.5399C94.9541 68.4466 95.0097 68.3 94.8847 68.2466C94.7874 68.2067 94.7179 68.3266 94.6346 68.3799C92.9673 69.6461 91.3139 70.9122 89.6466 72.1651C88.9657 72.6849 88.271 73.1913 87.7292 73.8444C86.6315 75.1772 86.1174 76.6966 86.173 78.3893C86.2425 80.695 87.2429 82.5609 89.1047 83.987C90.7442 85.2532 92.6755 85.5064 94.704 85.3998C94.8986 85.3998 94.9541 85.2932 94.9541 85.1332C94.9541 84.88 94.9541 84.6268 94.9541 84.3602C94.9541 83.5339 94.9541 83.5205 94.0788 83.5339C93.1201 83.5472 92.2309 83.3073 91.4111 82.8275C89.7855 81.8812 88.8407 80.5084 88.6323 78.6958C88.4517 76.9898 88.938 75.4704 90.2718 74.2976C91.5362 73.1913 92.9117 72.2184 94.2733 71.2188C94.7457 70.8723 95.0792 70.5124 94.9541 69.8993C94.9264 69.7527 94.9541 69.6061 94.9541 69.4462V69.4728ZM95.9128 77.283C95.9128 78.9624 95.9128 80.655 95.9128 82.3344C95.9128 82.5609 95.9545 82.6942 96.2324 82.6942C98.1498 82.7475 99.6921 82.0811 100.679 80.4551C101.846 78.5359 101.484 76.1235 99.6643 74.7107C98.525 73.8178 97.3717 72.9514 96.2185 72.0851C96.149 72.0318 96.0657 71.9118 95.9684 71.9652C95.8712 72.0185 95.9128 72.1384 95.9128 72.2317C95.9128 73.9111 95.9128 75.6037 95.9128 77.283ZM94.9541 77.283C94.9541 75.6037 94.9541 73.9377 94.9541 72.2584C94.9541 72.1518 95.0097 72.0185 94.8986 71.9652C94.7874 71.9118 94.704 72.0451 94.6207 72.0984C93.5091 72.9381 92.3837 73.7778 91.2722 74.6441C89.6605 75.8969 89.2158 77.5896 89.7021 79.3222C90.3274 81.5213 92.1475 82.7342 94.5234 82.6942C94.8569 82.6942 94.968 82.6009 94.9541 82.2677C94.9402 80.6017 94.9541 78.9357 94.9541 77.283ZM94.051 67.6602C93.7731 67.6602 93.5925 67.6602 93.398 67.6602C91.1332 67.6602 88.8685 67.6602 86.5898 67.6602C86.2425 67.6602 86.1591 67.7668 86.1591 68.0867C86.1591 70.0992 86.1591 72.1118 86.1591 74.1376C86.1591 74.2043 86.1035 74.2976 86.2286 74.3642C86.7288 73.5379 87.3401 72.8048 88.1043 72.2184C89.5076 71.1255 90.9387 70.0593 92.3559 68.9797C92.8978 68.5665 93.4258 68.1533 94.0371 67.6869L94.051 67.6602ZM96.8854 67.7269C98.2332 68.7531 99.5531 69.7527 100.873 70.7523C101.693 71.3787 102.54 71.9518 103.291 72.6582C103.819 73.1514 104.249 73.7245 104.625 74.3375C104.708 74.2976 104.694 74.2309 104.694 74.1776C104.694 72.1251 104.694 70.0726 104.694 68.0067C104.694 67.7002 104.569 67.6336 104.277 67.6336C101.929 67.6336 99.567 67.6336 97.2189 67.6336C97.1216 67.6336 97.0244 67.6069 96.8854 67.7002V67.7269ZM89.5771 85.4265C88.146 84.6134 87.0483 83.4939 86.2008 82.1478C86.173 83.174 86.173 84.1736 86.1591 85.1732C86.1591 85.3998 86.2842 85.4398 86.4787 85.4398C87.0761 85.4398 87.6736 85.4398 88.2849 85.4398C88.7156 85.4398 89.1464 85.4398 89.5771 85.4398V85.4265ZM101.359 85.3598C101.429 85.4531 101.498 85.4265 101.568 85.4265C102.485 85.4265 103.402 85.4265 104.333 85.4265C104.638 85.4265 104.708 85.3198 104.708 85.0533C104.708 84.147 104.708 83.2407 104.708 82.3477C104.708 82.281 104.75 82.2011 104.638 82.1478C103.874 83.5072 102.79 84.5868 101.387 85.3598H101.359Z" fill="#212121"/>
<path d="M62.137 66.9672C62.3454 66.7806 62.5955 66.7539 62.8734 66.7539C67.4585 66.7539 72.0436 66.7539 76.6425 66.7539C78.3793 66.7539 80.13 66.7539 81.8668 66.7539C82.3947 66.7539 82.5615 66.9138 82.5615 67.4203C82.5615 69.4462 82.5615 71.472 82.5615 73.4979C82.5615 75.2172 82.5615 76.9232 82.5615 78.6425C82.5893 81.0149 82.5615 83.4006 82.5615 85.773C82.5615 86.0262 82.4364 86.1862 82.2697 86.3594C75.6561 86.3594 69.0285 86.3594 62.4149 86.3594C62.1787 86.3594 62.1231 86.3061 62.1231 86.0795C62.1231 79.7087 62.1231 73.3379 62.1231 66.9672H62.137ZM72.3076 85.4398C75.2809 85.4398 78.2404 85.4398 81.2137 85.4398C81.5194 85.4398 81.6306 85.3598 81.6167 85.0533C81.6028 84.4402 81.6167 83.8138 81.6167 83.2007C81.6167 82.7875 81.5611 82.7342 81.1304 82.8008C79.4214 83.0674 77.7402 82.8941 76.1007 82.401C75.0864 82.0944 74.086 81.8146 73.0301 81.7346C71.6406 81.628 70.2651 81.7079 68.9452 82.1344C67.0972 82.7342 65.2354 83.0674 63.2902 82.8275C63.0679 82.8008 63.054 82.8808 63.054 83.0541C63.054 83.7071 63.0679 84.3602 63.054 85C63.054 85.4398 63.054 85.4398 63.4986 85.4398C66.4303 85.4398 69.362 85.4398 72.3076 85.4398ZM63.0679 80.5351C63.0679 80.8816 63.0679 81.2415 63.0679 81.588C63.0679 81.8146 63.1513 81.9079 63.4014 81.9345C64.0822 82.0012 64.7491 81.9745 65.4299 81.9612C66.6804 81.9212 67.8336 81.508 69.0146 81.1748C70.7931 80.6817 72.5854 80.6684 74.3917 80.9882C75.3643 81.1615 76.2674 81.5613 77.24 81.7613C78.5322 82.0411 79.8382 82.0545 81.1443 81.9079C81.5889 81.8545 81.6167 81.8279 81.6167 81.3881C81.6167 80.775 81.6167 80.1752 81.6167 79.5621C81.6167 79.1889 81.575 79.1623 81.1859 79.2289C79.3936 79.5088 77.6429 79.3356 75.9339 78.7624C73.822 78.0561 71.6962 77.9095 69.5148 78.4159C68.709 78.6025 67.9309 78.8957 67.1111 79.069C65.8884 79.3356 64.638 79.4288 63.3736 79.2689C63.1235 79.2423 63.0262 79.2956 63.054 79.5488C63.0818 79.882 63.054 80.2152 63.054 80.5351H63.0679ZM72.8355 73.7378C72.8355 74.7774 72.8355 75.8303 72.8355 76.8699C72.8355 77.1231 72.8911 77.2297 73.1829 77.2431C74.1555 77.323 75.0864 77.5229 76.0034 77.8295C76.9621 78.1627 77.9486 78.3626 78.9629 78.4026C79.2408 78.4026 79.4214 78.3626 79.5464 78.096C80.1161 76.9632 80.7135 75.8436 81.311 74.7241C81.4221 74.5108 81.4083 74.3642 81.1582 74.2443C78.4766 72.9648 75.8089 71.6853 73.1412 70.3925C72.8772 70.2725 72.8494 70.3525 72.8494 70.579C72.8494 71.6186 72.8494 72.6715 72.8494 73.7111L72.8355 73.7378ZM71.8629 73.7778C71.8629 72.7382 71.8629 71.6853 71.8629 70.6457C71.8629 70.2858 71.8629 70.2858 71.5156 70.4458C70.1678 71.0855 68.834 71.7253 67.4863 72.3783C66.1385 73.0181 64.8047 73.6711 63.457 74.3109C63.318 74.3775 63.2069 74.4308 63.318 74.6174C63.9571 75.817 64.5824 77.0165 65.1937 78.216C65.2632 78.3493 65.3605 78.4026 65.5133 78.3893C66.3053 78.3226 67.0972 78.2027 67.8614 77.9494C69.0146 77.5496 70.2095 77.283 71.4322 77.2297C71.8074 77.2164 71.8768 77.1098 71.8629 76.7899C71.849 75.7903 71.8629 74.7907 71.8629 73.7778ZM81.6167 70.6057C81.6167 69.7394 81.6167 68.8864 81.6167 68.0201C81.6167 67.7535 81.5194 67.6602 81.2415 67.6735C80.1717 67.6735 79.1157 67.6735 78.0459 67.6735C77.768 67.6735 77.6707 67.7668 77.6846 68.0201C77.6846 69.113 77.6846 70.2192 77.6846 71.3121C77.6846 71.5253 77.7541 71.6586 77.9486 71.7386C79.074 72.2717 80.1995 72.8048 81.311 73.3379C81.5472 73.4579 81.6167 73.4046 81.6167 73.1514C81.6167 72.2984 81.6167 71.4454 81.6167 70.5924V70.6057ZM63.0818 70.579C63.0818 71.4454 63.0957 72.2984 63.0818 73.1647C63.0818 73.4712 63.1652 73.4579 63.3875 73.3379C64.499 72.7915 65.6244 72.2584 66.7499 71.7253C66.9305 71.6453 67.0139 71.5253 67.0139 71.3254C67.0139 70.2059 67.0139 69.0863 67.0139 67.9668C67.0139 67.7269 66.9166 67.6469 66.6804 67.6469C65.5967 67.6469 64.5268 67.6469 63.4431 67.6469C63.1652 67.6469 63.0679 67.7402 63.0818 68.0067C63.0818 68.8597 63.0818 69.7127 63.0818 70.5657V70.579ZM72.3909 67.6735C71.0432 67.6735 69.6816 67.6735 68.3338 67.6735C68.0559 67.6735 67.9448 67.7668 67.9726 68.0334C67.9865 68.2333 67.9726 68.4332 67.9726 68.6465C67.9726 69.0996 67.9726 69.0996 68.4172 69.0996C69.8622 69.0996 71.3072 69.113 72.7383 69.113C73.9888 69.113 75.2531 69.113 76.5036 69.113C76.712 69.113 76.7815 69.033 76.7954 68.8597C76.7954 68.6065 76.7954 68.3533 76.7954 68.0867C76.8232 67.7802 76.712 67.6735 76.3786 67.6735C75.0447 67.6869 73.7109 67.6735 72.377 67.6735H72.3909ZM74.475 69.9926C74.475 70.0193 74.475 70.0326 74.475 70.0593C74.9891 70.3125 75.5032 70.5657 76.0173 70.8056C76.2535 70.9122 76.5592 71.1921 76.712 71.0589C76.9065 70.8856 76.8093 70.5257 76.8093 70.2325C76.8093 70.0726 76.7398 69.9926 76.5731 69.9926C75.8784 69.9926 75.1837 69.9926 74.4889 69.9926H74.475ZM70.2651 70.0593C70.2651 70.0326 70.2651 70.0193 70.2512 69.9926C69.6816 69.9926 69.1258 69.9926 68.5561 69.9926C67.9031 69.9926 67.9726 69.9526 67.9726 70.5391C67.9726 70.6457 67.9726 70.7523 67.9726 70.8589C67.9587 71.0855 68.042 71.1255 68.2504 71.0189C68.9174 70.699 69.5982 70.3791 70.2651 70.0593ZM63.1374 76.2568C63.1235 76.2568 63.0957 76.2568 63.0818 76.2701C63.0818 76.6966 63.0818 77.1364 63.0818 77.5629C63.0818 78.3893 63.1652 78.4559 64.0266 78.3893H64.0544C64.2072 78.3893 64.2211 78.3226 64.1517 78.216C63.8043 77.5629 63.4708 76.9099 63.1235 76.2568H63.1374ZM81.6167 76.3101C81.5889 76.3101 81.575 76.3101 81.5472 76.2968C81.2137 76.9365 80.8664 77.5896 80.5329 78.2293C80.4634 78.3626 80.519 78.4159 80.6441 78.4026C80.8942 78.3759 81.1582 78.3626 81.4083 78.3226C81.5611 78.296 81.6167 78.1893 81.6167 78.0427C81.6167 77.4696 81.6167 76.8965 81.6167 76.3234V76.3101Z" fill="#212121"/>
<path d="M119.451 56.3958C118.284 57.5287 116.936 57.662 115.491 57.2755C113.824 56.8356 112.906 55.7028 112.531 54.1301C112.267 53.0638 112.295 51.9976 112.656 50.958C113.254 49.212 114.81 48.1058 116.713 48.0125C117.881 47.9592 118.964 48.1458 119.937 48.7989C120.729 49.3453 121.146 50.105 121.354 50.998C121.41 51.2246 121.326 51.3179 121.09 51.3179C120.368 51.3179 119.645 51.3179 118.923 51.3179C118.77 51.3179 118.659 51.2779 118.575 51.1313C118.256 50.4382 117.644 50.225 116.908 50.3049C116.241 50.3716 115.783 50.7447 115.532 51.3179C115.13 52.2508 115.13 53.2104 115.546 54.1434C116.033 55.1963 117.103 55.3962 118.061 55.0764C118.339 54.9831 118.534 54.7698 118.686 54.5166C118.812 54.3167 118.742 54.25 118.52 54.2633C118.325 54.2633 118.117 54.2633 117.922 54.2633C117.7 54.2633 117.603 54.1834 117.603 53.9568C117.603 53.4903 117.603 53.0238 117.603 52.544C117.603 52.3574 117.672 52.2908 117.867 52.2908C119.006 52.2908 120.159 52.2908 121.299 52.2908C121.493 52.2908 121.576 52.3708 121.576 52.5574C121.576 54.0234 121.576 55.5028 121.576 56.9689C121.576 57.1555 121.479 57.2488 121.285 57.2488C120.84 57.2488 120.395 57.2488 119.951 57.2488C119.742 57.2488 119.631 57.1555 119.59 56.9556C119.562 56.7823 119.506 56.6091 119.451 56.3958Z" fill="#212121"/>
<path d="M117.146 70.7636C114.826 70.8303 113.075 69.3909 112.616 67.6449C112.116 65.7523 112.297 63.953 113.839 62.5269C115.076 61.3807 116.632 61.1142 118.299 61.434C119.439 61.6473 120.369 62.1937 121.05 63.1C121.801 64.0996 122.037 65.2059 121.967 66.4187C121.912 67.285 121.662 68.0714 121.203 68.8044C120.453 69.9773 118.883 70.8436 117.174 70.7636H117.146ZM119.091 65.9789C119.119 65.6857 119.036 65.3258 118.938 64.966C118.73 64.2063 118.146 63.6598 117.521 63.5932C116.479 63.4866 115.937 63.7798 115.59 64.5395C115.117 65.5257 115.131 66.552 115.562 67.5516C115.826 68.1514 116.298 68.4979 116.979 68.5512C117.73 68.6178 118.299 68.3513 118.674 67.7249C118.98 67.2051 119.077 66.6586 119.077 65.9789H119.091Z" fill="#212121"/>
<path d="M125.787 68.0562C125.787 68.7759 125.787 69.4823 125.787 70.202C125.787 70.4553 125.703 70.5619 125.426 70.5619C124.828 70.5486 124.231 70.5486 123.619 70.5619C123.314 70.5619 123.189 70.4686 123.189 70.1487C123.189 68.7493 123.189 67.3498 123.189 65.9637C123.189 65.6972 123.133 65.5772 122.813 65.6172C122.411 65.6572 122.341 65.5905 122.327 65.204C122.327 64.9375 122.327 64.6709 122.327 64.4043C122.327 64.1644 122.438 64.0711 122.688 64.0711C123.161 64.0711 123.147 64.0711 123.175 63.6313C123.272 62.4318 123.758 61.912 124.967 61.6721C125.481 61.5788 126.009 61.5788 126.523 61.6055C126.801 61.6055 126.926 61.7254 126.912 61.992C126.912 62.2452 126.912 62.4984 126.912 62.765C126.912 63.3115 126.912 63.3248 126.343 63.3514C126.051 63.3648 125.87 63.5247 125.773 63.7646C125.69 63.9512 125.745 64.0845 125.981 64.0711C126.329 64.0711 126.676 64.0711 127.009 64.0711C127.218 64.0711 127.273 63.9779 127.287 63.8046C127.287 63.4047 127.357 63.0182 127.524 62.6451C127.718 62.2052 128.052 61.9253 128.51 61.7521C129.288 61.4722 130.094 61.4855 130.914 61.5255C131.108 61.5255 131.206 61.6188 131.192 61.8054C131.192 62.2052 131.192 62.5917 131.192 62.9916C131.192 63.1915 131.094 63.2448 130.9 63.2581C130.705 63.2581 130.497 63.2581 130.302 63.3248C129.983 63.4047 129.913 63.6447 129.872 63.9112C129.858 64.0711 129.969 64.0845 130.094 64.0845C130.344 64.0845 130.608 64.0845 130.858 64.0845C131.08 64.0845 131.192 64.1511 131.192 64.3777C131.192 64.7109 131.192 65.0441 131.192 65.364C131.192 65.5506 131.094 65.6305 130.914 65.6305C130.733 65.6305 130.553 65.6305 130.386 65.6305C130.043 65.6305 129.872 65.7993 129.872 66.137C129.872 67.4431 129.872 68.7626 129.872 70.0688C129.872 70.3886 129.71 70.5486 129.385 70.5486C128.83 70.5486 128.274 70.5486 127.718 70.5486C127.412 70.5486 127.287 70.4553 127.287 70.1354C127.287 68.7759 127.287 67.4032 127.287 66.0437C127.287 65.6039 127.287 65.6039 126.815 65.6039C126.551 65.6039 126.287 65.6172 126.009 65.6039C125.787 65.5905 125.717 65.6572 125.717 65.8704C125.717 66.5901 125.717 67.3232 125.717 68.0429L125.787 68.0562Z" fill="#212121"/>
<path d="M139.111 66.0059C139.111 64.6464 139.111 63.2736 139.111 61.9142C139.111 61.6076 139.194 61.4877 139.528 61.501C140.139 61.5276 140.75 61.5143 141.362 61.501C141.64 61.501 141.737 61.5943 141.737 61.8475C141.737 62.6739 141.737 63.4869 141.737 64.3132C141.737 64.4065 141.681 64.5265 141.792 64.5664C141.904 64.6064 141.959 64.4865 142.029 64.4332C142.862 63.8201 143.765 63.6735 144.752 64.0466C145.544 64.3532 145.975 64.9663 146.058 65.726C146.225 67.232 146.1 68.7514 146.127 70.2575C146.127 70.4574 146.03 70.5507 145.822 70.5507C145.169 70.5507 144.516 70.5507 143.849 70.5507C143.585 70.5507 143.501 70.4308 143.515 70.1909C143.515 69.1513 143.515 68.125 143.515 67.0854C143.515 66.8855 143.515 66.6723 143.46 66.4857C143.376 66.1258 143.098 65.9126 142.723 65.8992C142.32 65.8859 141.945 66.1391 141.82 66.5257C141.751 66.7522 141.723 66.9788 141.723 67.2187C141.723 68.1917 141.723 69.1646 141.723 70.1242C141.723 70.5107 141.681 70.5374 141.278 70.5374C140.695 70.5374 140.097 70.5374 139.514 70.5374C139.208 70.5374 139.111 70.4308 139.111 70.1375C139.111 68.7514 139.111 67.3653 139.111 65.9792V66.0059Z" fill="#212121"/>
<path d="M137.665 78.0278C138.151 77.5746 138.651 77.3081 139.235 77.2014C140.749 76.9482 142.041 77.9211 142.055 79.4006C142.083 80.7867 142.055 82.1728 142.055 83.5589C142.055 83.8255 141.944 83.9188 141.68 83.9188C141.083 83.9188 140.485 83.9188 139.874 83.9188C139.568 83.9188 139.457 83.8255 139.457 83.5056C139.457 82.3327 139.527 81.1599 139.415 79.987C139.374 79.5738 139.124 79.3073 138.735 79.2273C138.415 79.1607 137.998 79.3739 137.831 79.6938C137.72 79.9203 137.651 80.1469 137.651 80.4002C137.651 81.4264 137.651 82.4527 137.651 83.4656C137.651 83.8788 137.623 83.9054 137.206 83.9054C136.623 83.9054 136.053 83.9054 135.469 83.9054C135.164 83.9054 135.066 83.7988 135.066 83.5056C135.066 80.7334 135.066 77.9611 135.066 75.1889C135.066 74.909 135.15 74.7891 135.469 74.7891C136.067 74.8024 136.664 74.8024 137.276 74.7891C137.567 74.7891 137.665 74.8824 137.665 75.1622C137.665 76.0819 137.665 76.9882 137.665 78.0144V78.0278Z" fill="#212121"/>
<path d="M116.434 74.8164C117.671 74.8164 118.894 74.8164 120.13 74.8164C120.45 74.8164 120.561 74.9364 120.561 75.2296C120.561 75.736 120.547 76.2558 120.561 76.7623C120.561 77.0555 120.464 77.1888 120.144 77.1755C119.505 77.1621 118.852 77.1755 118.213 77.1755C117.921 77.1755 117.824 77.2554 117.838 77.5353C117.838 79.5079 117.838 81.4804 117.838 83.453C117.838 83.9194 117.824 83.9328 117.324 83.9328C116.684 83.9328 116.059 83.9328 115.42 83.9328C115.1 83.9328 115.003 83.8128 115.003 83.5196C115.003 81.5604 115.003 79.6012 115.003 77.6419C115.003 77.1888 115.003 77.1888 114.517 77.1888C113.906 77.1888 113.294 77.1888 112.683 77.1888C112.405 77.1888 112.308 77.0955 112.322 76.8289C112.336 76.2958 112.349 75.7627 112.322 75.2296C112.322 74.9097 112.433 74.8297 112.752 74.8297C113.975 74.8297 115.198 74.8297 116.42 74.8297L116.434 74.8164Z" fill="#212121"/>
<path d="M146.266 51.4387C146.6 51.1188 146.947 50.8523 147.378 50.679C149.059 50.0659 150.671 51.0522 150.712 52.7715C150.74 54.1443 150.712 55.5171 150.726 56.8898C150.726 57.1297 150.643 57.2364 150.379 57.2364C149.768 57.2364 149.156 57.2364 148.545 57.2364C148.253 57.2364 148.128 57.1297 148.142 56.8365C148.142 55.7703 148.142 54.704 148.142 53.6378C148.142 53.5045 148.142 53.3579 148.1 53.2246C147.961 52.7315 147.642 52.5183 147.114 52.5716C146.711 52.6115 146.336 53.0647 146.322 53.5578C146.308 54.2376 146.322 54.9173 146.322 55.6104C146.322 56.0502 146.322 56.49 146.322 56.9165C146.322 57.1164 146.252 57.2364 146.016 57.2364C145.363 57.2364 144.71 57.2364 144.043 57.2364C143.807 57.2364 143.724 57.1431 143.724 56.9032C143.724 54.9573 143.724 53.0247 143.724 51.0788C143.724 50.8123 143.807 50.719 144.085 50.7323C144.641 50.7456 145.196 50.759 145.752 50.7323C146.086 50.7323 146.238 50.8123 146.183 51.1455C146.183 51.2254 146.155 51.3187 146.252 51.4254L146.266 51.4387Z" fill="#212121"/>
<path d="M132.845 54.6346C132.165 54.6346 131.484 54.6346 130.817 54.6346C130.567 54.6346 130.511 54.7145 130.594 54.9411C130.886 55.7275 131.873 55.9541 132.484 55.3676C132.609 55.2477 132.734 55.1944 132.901 55.2077C133.512 55.2077 134.124 55.2077 134.735 55.2077C135.096 55.2077 135.152 55.301 134.985 55.6209C134.457 56.6604 133.54 57.1936 132.401 57.3801C131.109 57.5801 129.914 57.3402 128.955 56.4339C127.955 55.4742 127.718 54.3014 128.08 53.0352C128.649 51.0493 130.789 50.0364 132.831 50.7295C134.165 51.1826 134.86 52.1289 135.138 53.3951C135.207 53.6883 135.221 53.9815 135.249 54.288C135.277 54.5546 135.152 54.6746 134.86 54.6746C134.193 54.6746 133.526 54.6746 132.859 54.6746L132.845 54.6346ZM131.539 53.2618C131.831 53.2618 132.109 53.2618 132.401 53.2618C132.554 53.2618 132.609 53.2085 132.567 53.0352C132.456 52.5821 132.039 52.2222 131.595 52.2089C131.122 52.2089 130.692 52.5288 130.553 52.9952C130.497 53.1818 130.539 53.2618 130.733 53.2618C130.997 53.2618 131.261 53.2618 131.525 53.2618H131.539Z" fill="#212121"/>
<path d="M140.598 54.6344C139.931 54.6344 139.264 54.6344 138.597 54.6344C138.278 54.6344 138.25 54.6877 138.375 54.9676C138.709 55.7406 139.64 55.9139 140.279 55.3275C140.404 55.2075 140.543 55.1809 140.695 55.1809C141.293 55.1809 141.89 55.1809 142.502 55.1809C142.849 55.1809 142.905 55.2608 142.752 55.5674C142.238 56.607 141.335 57.1401 140.195 57.3533C138.528 57.6599 136.875 56.9935 136.138 55.674C135.457 54.4478 135.499 53.195 136.277 52.0355C137.083 50.8359 138.32 50.3828 139.765 50.5427C141.46 50.716 142.571 51.7689 142.891 53.3683C142.946 53.6615 143.002 53.9547 143.002 54.2479C143.002 54.5278 142.905 54.6477 142.599 54.6477C141.932 54.6344 141.265 54.6477 140.598 54.6477V54.6344ZM139.32 53.2616C139.598 53.2616 139.876 53.2616 140.154 53.2616C140.334 53.2616 140.376 53.1817 140.348 53.0084C140.251 52.5686 139.82 52.2087 139.389 52.2087C138.917 52.2087 138.458 52.5553 138.333 52.9951C138.278 53.2083 138.347 53.2616 138.556 53.2616C138.806 53.2616 139.07 53.2616 139.32 53.2616Z" fill="#212121"/>
<path d="M165.179 67.9517C164.498 67.9517 163.817 67.9517 163.15 67.9517C162.914 67.9517 162.844 68.005 162.942 68.2316C163.289 69.0579 164.178 69.2845 164.873 68.6847C164.984 68.5914 165.109 68.5381 165.262 68.5381C165.873 68.5381 166.485 68.5381 167.096 68.5381C167.429 68.5381 167.499 68.6447 167.36 68.9246C167.068 69.5377 166.582 69.9909 165.971 70.2974C164.595 70.9638 163.22 70.9372 161.9 70.1775C160.663 69.4578 160.218 68.3115 160.33 66.9787C160.441 65.6326 161.122 64.6197 162.469 64.0999C163.845 63.5801 165.165 63.74 166.332 64.633C167.082 65.2061 167.402 66.0191 167.541 66.9121C167.568 67.112 167.568 67.3119 167.596 67.5119C167.624 67.8051 167.513 67.9384 167.179 67.9384C166.512 67.925 165.846 67.9384 165.179 67.9384V67.9517ZM163.886 66.5789C164.15 66.5789 164.414 66.5789 164.678 66.5789C164.956 66.5789 164.998 66.4589 164.901 66.2324C164.72 65.7925 164.345 65.5526 163.873 65.5793C163.4 65.606 163.039 65.9125 162.9 66.3657C162.844 66.5389 162.942 66.5789 163.081 66.5789C163.345 66.5789 163.609 66.5789 163.873 66.5789H163.886Z" fill="#212121"/>
<path d="M124.397 81.2539C123.716 81.2539 123.035 81.2539 122.368 81.2539C122.021 81.2539 122.007 81.3072 122.132 81.6137C122.451 82.4134 123.563 82.5867 124.035 82.0136C124.133 81.8936 124.258 81.8536 124.41 81.8536C125.05 81.8536 125.675 81.8536 126.314 81.8536C126.606 81.8536 126.661 81.9469 126.536 82.2135C126.106 83.1065 125.369 83.6796 124.41 83.9061C122.924 84.266 121.534 84.0927 120.409 82.9865C119.575 82.1602 119.325 81.1206 119.52 80.0277C119.798 78.415 120.854 77.442 122.521 77.2021C124.911 76.8689 126.578 78.3883 126.731 80.5208C126.731 80.5608 126.731 80.6008 126.731 80.6541C126.74 81.0451 126.532 81.2405 126.106 81.2405C125.536 81.2405 124.966 81.2405 124.41 81.2405L124.397 81.2539ZM123.132 79.8944C123.382 79.8944 123.646 79.8944 123.896 79.8944C124.133 79.8944 124.16 79.8144 124.105 79.6278C123.952 79.1614 123.563 78.8681 123.104 78.8681C122.66 78.8681 122.243 79.188 122.09 79.6145C122.021 79.8144 122.118 79.8677 122.299 79.8677C122.576 79.8677 122.854 79.8677 123.132 79.8677V79.8944Z" fill="#212121"/>
<path d="M154.198 67.3231C154.31 69.309 152.628 70.7751 150.516 70.7751C148.252 70.7751 146.821 69.1757 146.807 67.3898C146.793 65.3639 148.307 63.8845 150.502 63.8712C152.698 63.8579 154.282 65.3506 154.198 67.3231ZM149.433 67.4564C149.405 67.603 149.488 67.8829 149.544 68.1628C149.627 68.6693 150.016 69.0291 150.447 69.0558C150.905 69.0824 151.239 68.8292 151.433 68.3094C151.711 67.5897 151.67 66.87 151.378 66.1636C151.225 65.8037 150.933 65.6038 150.544 65.5772C150.141 65.5638 149.849 65.7771 149.683 66.1236C149.502 66.4968 149.474 66.8966 149.447 67.4431L149.433 67.4564Z" fill="#212121"/>
<path d="M132.913 68.4161C133.08 68.4161 133.247 68.4161 133.414 68.4161C133.789 68.4027 134.122 68.3494 134.275 68.8426C134.4 69.2424 135.303 69.3357 135.664 69.0691C135.97 68.8292 135.928 68.5094 135.539 68.3361C135.136 68.1495 134.678 68.1362 134.247 68.0695C133.608 67.9629 132.969 67.8696 132.455 67.4431C131.58 66.7367 131.593 65.2307 132.497 64.5643C133.275 63.9778 134.178 63.8312 135.136 63.8446C135.609 63.8446 136.081 63.9379 136.54 64.0711C137.346 64.311 137.915 64.7775 138.096 65.6172C138.151 65.8704 138.054 65.9504 137.804 65.9504C137.221 65.9504 136.623 65.9504 136.04 65.9504C135.845 65.9504 135.706 65.8971 135.609 65.7105C135.428 65.3773 134.789 65.2573 134.47 65.4706C134.206 65.6438 134.219 65.8971 134.511 66.0437C134.706 66.137 134.942 66.1636 135.15 66.1903C135.803 66.2836 136.47 66.3636 137.096 66.6035C137.832 66.8967 138.263 67.3898 138.36 68.1495C138.457 68.9492 138.249 69.6556 137.526 70.1487C137.054 70.4819 136.512 70.6552 135.956 70.7085C134.942 70.8151 133.928 70.8151 132.983 70.3753C132.26 70.0421 131.774 69.5223 131.649 68.7359C131.607 68.496 131.677 68.3894 131.941 68.4027C132.26 68.4027 132.58 68.4027 132.913 68.4027V68.4161Z" fill="#212121"/>
<path d="M133.067 79.8795C132.761 79.8795 132.441 79.8795 132.136 79.8795C131.941 79.8795 131.802 79.8129 131.747 79.5996C131.65 79.2131 131.372 78.9999 130.969 78.9599C130.607 78.9199 130.246 79.1865 130.066 79.5596C129.954 79.7729 129.913 79.9995 129.913 80.2394C129.913 80.7325 129.829 81.239 130.066 81.7188C130.274 82.1453 130.594 82.3452 131.038 82.3052C131.427 82.2786 131.705 82.052 131.802 81.5722C131.858 81.2523 132.025 81.1857 132.33 81.199C132.886 81.2123 133.442 81.2256 133.998 81.199C134.289 81.199 134.373 81.2923 134.345 81.5455C134.262 82.4785 133.734 83.1449 132.928 83.6247C131.719 84.3311 129.593 84.2245 128.496 83.2915C127.44 82.3852 127.078 81.2656 127.328 79.9462C127.606 78.4667 128.565 77.6004 130.066 77.2806C131.177 77.0407 132.233 77.1873 133.178 77.827C133.803 78.2535 134.15 78.8666 134.303 79.573C134.345 79.7862 134.22 79.8529 134.039 79.8529C133.72 79.8529 133.4 79.8529 133.067 79.8529V79.8795Z" fill="#212121"/>
<path d="M125.105 51.4796C125.202 51.493 125.243 51.413 125.285 51.3597C125.785 50.7732 126.452 50.5733 127.216 50.6C127.439 50.6 127.536 50.7066 127.536 50.9198C127.536 51.453 127.536 51.9861 127.536 52.5192C127.536 52.7458 127.48 52.8124 127.216 52.7724C126.119 52.6125 125.243 53.159 125.243 54.3185C125.243 55.1582 125.243 55.9978 125.243 56.8508C125.243 57.224 125.202 57.264 124.799 57.2773C124.188 57.2773 123.576 57.2773 122.965 57.2773C122.687 57.2773 122.576 57.1707 122.576 56.9041C122.576 54.9849 122.576 53.0657 122.576 51.1464C122.576 50.8665 122.687 50.7732 122.965 50.7866C123.521 50.7999 124.076 50.7866 124.632 50.7866C125.091 50.7866 125.132 50.8266 125.105 51.253C125.105 51.333 125.049 51.413 125.105 51.493V51.4796Z" fill="#212121"/>
<path d="M157.506 64.78C157.631 64.78 157.673 64.6734 157.728 64.6068C158.187 64.127 158.784 63.9537 159.423 63.9137C159.812 63.8871 159.924 64.007 159.924 64.3802C159.924 64.86 159.924 65.3398 159.924 65.8196C159.924 66.0462 159.84 66.1528 159.576 66.1128C159.243 66.0729 158.909 66.0729 158.59 66.1795C158.09 66.3394 157.784 66.6859 157.645 67.1791C157.478 67.8188 157.52 68.4719 157.52 69.125C157.52 69.5248 157.52 69.9113 157.52 70.3112C157.52 70.4978 157.437 70.5911 157.242 70.5777C156.589 70.5777 155.936 70.5777 155.269 70.5777C155.033 70.5777 154.936 70.4844 154.936 70.2445C154.936 68.2986 154.936 66.3661 154.936 64.4202C154.936 64.1803 155.019 64.0737 155.283 64.0737C155.853 64.0737 156.422 64.0737 156.978 64.0737C157.395 64.0737 157.423 64.1003 157.437 64.5135C157.437 64.6068 157.395 64.7001 157.478 64.78H157.506Z" fill="#212121"/>
</svg>
