<svg width="230" height="130" viewBox="0 0 230 130" fill="none" xmlns="http://www.w3.org/2000/svg">
<path d="M71.5668 45.8811C73.2552 45.7575 74.9129 45.9428 76.5399 46.406C78.3511 46.9 80.0701 47.6102 81.6664 48.5674C83.4469 49.6173 84.9818 50.9759 86.3325 52.4889C87.8674 54.1872 89.034 56.1325 89.8628 58.2631C90.5995 60.1158 91.0293 62.0302 91.1828 64.0373C91.3977 66.9089 90.9986 69.7188 89.9856 72.4052C89.1874 74.5049 88.0823 76.3884 86.6395 78.0867C85.1046 79.9085 83.2934 81.4215 81.2367 82.5949C79.2106 83.7374 77.0617 84.5093 74.7901 84.8799C73.7771 85.0343 72.7333 85.1578 71.7203 85.1578C69.2952 85.1578 66.9314 84.7872 64.6598 83.9226C62.5109 83.1198 60.5769 82.0082 58.8271 80.5261C56.8932 78.8895 55.2969 76.9751 54.0997 74.721C53.2094 73.0227 52.5341 71.2318 52.1657 69.3483C51.9508 68.144 51.8587 66.9089 51.7973 65.6738C51.7973 65.4577 51.8894 65.3341 52.1043 65.3341C52.7182 65.3341 53.3015 65.3341 53.9155 65.3341C54.1917 65.3341 54.2531 65.5194 54.2531 65.7664C54.2838 67.2486 54.4987 68.6998 54.8978 70.0893C55.6959 72.8992 57.1081 75.3695 59.1648 77.5C61.1295 79.5071 63.4318 80.9275 66.0412 81.8538C68.497 82.7184 71.0142 82.9346 73.5929 82.6258C76.0794 82.3479 78.3818 81.5451 80.5306 80.2482C82.526 79.0131 84.2144 77.5 85.5958 75.5856C87.0079 73.6403 87.9902 71.4788 88.4814 69.1321C89.126 66.0752 88.9726 63.0492 87.9902 60.054C87.2842 57.8926 86.179 55.9781 84.7362 54.249C83.846 53.1682 82.7716 52.2419 81.605 51.4082C80.1008 50.3275 78.4738 49.5246 76.7241 48.9688C75.4961 48.5674 74.2375 48.3204 72.9482 48.2587C72.5184 48.2587 72.058 48.1969 71.6282 48.1969C68.6812 48.1969 65.857 48.8762 63.2783 50.3275C62.8486 50.5745 62.8179 50.5436 62.5416 50.1422C62.296 49.7408 62.0811 49.3394 61.8355 48.938C61.6207 48.5983 61.6514 48.4439 62.0197 48.2587C63.2783 47.5793 64.5677 47.0235 65.9491 46.6221C67.7909 46.0046 69.6635 45.7575 71.5668 45.8811Z" fill="#212121"/>
<path d="M71.3826 78.3629C74.7287 78.3629 77.5836 77.313 80.0088 75.2133C81.0218 74.3487 81.8813 73.3606 82.5567 72.2182C82.7102 71.9403 82.8637 71.8167 83.1706 72.0329C83.6004 72.3108 84.0916 72.5578 84.552 72.8357C84.7976 72.9592 84.8283 73.1445 84.6748 73.3915C83.1092 75.9544 80.9911 77.9306 78.2897 79.2274C76.5706 80.0611 74.7287 80.5861 72.7947 80.7405C68.5891 81.0492 64.8439 79.845 61.6514 77.1586C58.735 74.7193 56.9546 71.5388 56.402 67.7409C55.9108 64.6222 56.402 61.5961 57.7527 58.7554C58.3974 57.4276 59.2569 56.2234 60.2393 55.1118C61.7435 53.4444 63.5239 52.1784 65.6114 51.3138C67.1156 50.6962 68.7119 50.2948 70.3389 50.1713C72.7947 49.986 75.1585 50.3566 77.4301 51.2829C79.9474 52.3019 82.0041 53.9075 83.6618 56.069C84.0302 56.5322 84.3372 56.9953 84.6441 57.4894C84.859 57.829 84.7976 57.9526 84.46 58.1378C83.9995 58.3848 83.539 58.6319 83.0785 58.9098C82.8637 59.0333 82.7716 59.0024 82.6488 58.7863C81.6971 57.2115 80.4692 55.9146 78.965 54.8648C77.3687 53.7532 75.6189 53.0121 73.685 52.7033C71.5054 52.3328 69.3566 52.4872 67.2691 53.2282C65.6728 53.784 64.23 54.6486 62.9407 55.7602C61.2523 57.2115 60.1165 59.0024 59.349 61.0712C58.8885 62.2755 58.6737 63.5415 58.6123 64.8692C58.5202 66.9689 58.8885 68.976 59.7788 70.8904C60.2699 71.9711 60.9146 72.9592 61.6821 73.8547C62.8486 75.2442 64.2607 76.294 65.8877 77.0969C67.6682 77.9614 69.5407 78.3937 71.3826 78.3629Z" fill="#212121"/>
<path d="M67.3612 65.5804C66.1026 65.5804 64.8439 65.5804 63.5853 65.5804C63.2476 65.5804 63.1248 65.7039 63.1248 66.0436C63.1248 66.4758 63.1555 66.8773 63.2476 67.2787C63.3704 68.0506 64.0458 68.5447 64.9667 68.6064C66.1026 68.699 67.2384 68.7299 68.3742 68.6064C68.9268 68.5447 69.4793 68.4211 69.8477 67.9271C69.9398 67.8036 70.0626 67.7727 70.2161 67.7727C70.4617 67.7727 70.7379 67.7727 70.9835 67.7727C71.3826 67.7727 71.4747 67.8962 71.2905 68.2976C70.83 69.3166 69.9705 69.7798 68.9268 69.9342C67.6374 70.1194 66.3481 70.0268 65.0588 69.9959C64.537 69.9959 63.9844 69.9033 63.4932 69.6871C62.4188 69.224 61.8969 68.3594 61.7741 67.2169C61.6206 65.8583 61.6206 64.5305 61.8662 63.1719C62.0504 62.1529 63.0634 61.1648 64.1072 61.0413C65.6728 60.8252 67.2077 60.8561 68.7733 60.9796C69.8477 61.0413 70.7072 61.4736 71.2598 62.4617C71.4133 62.7396 71.5361 63.0175 71.5668 63.3263C71.6589 63.8821 71.6896 64.4688 71.7203 65.0555C71.7203 65.5495 71.6896 65.5804 71.1984 65.5804C69.9398 65.5804 68.6812 65.5804 67.4226 65.5804H67.3612ZM66.6551 64.2218C67.6988 64.2218 68.7733 64.2218 69.817 64.2218C69.9705 64.2218 70.2161 64.2835 70.1547 64.0365C70.0933 63.6042 70.0012 63.141 69.6328 62.8014C69.2337 62.4617 68.7733 62.4 68.3128 62.3382C67.2077 62.1838 66.1025 62.2147 65.0281 62.3382C63.9537 62.4617 63.4011 62.9249 63.2169 63.8512C63.1555 64.16 63.2169 64.2526 63.5239 64.2526C64.5677 64.2526 65.6114 64.2526 66.6551 64.2526V64.2218Z" fill="#212121"/>
<path d="M174.221 69.9331C173.054 69.9331 171.919 69.9331 170.813 69.8096C169.585 69.6552 168.941 69.0068 168.818 67.8025C168.665 66.1042 168.634 64.4059 168.91 62.7077C169.064 61.8122 169.739 61.2873 170.813 61.1638C172.379 60.9785 173.975 60.9476 175.541 61.0094C176.186 61.0094 176.83 61.0711 177.475 61.2255C178.242 61.4108 178.764 61.9666 178.887 62.7694C178.918 63.1091 178.979 63.4179 178.948 63.7575C178.948 63.9737 178.826 64.0972 178.611 64.0972C178.549 64.0972 178.519 64.0972 178.457 64.0972C177.659 64.0972 177.567 64.1898 177.598 63.2943C177.598 62.8003 177.444 62.6459 176.953 62.4606C176.4 62.2754 175.848 62.2754 175.295 62.2445C174.374 62.1827 173.453 62.1519 172.532 62.2445C172.103 62.3062 171.673 62.3062 171.243 62.3371C170.537 62.4298 170.261 62.6459 170.169 63.3252C170.015 64.4986 170.077 65.6719 170.107 66.8453C170.107 67.0306 170.107 67.2158 170.138 67.4011C170.199 68.1422 170.537 68.5127 171.274 68.5436C172.993 68.6671 174.743 68.6362 176.462 68.5436C177.383 68.4818 177.659 68.2039 177.659 67.2467C177.659 66.7218 177.69 66.6909 178.212 66.6909C179.01 66.6909 178.979 66.6909 179.01 67.4629C179.01 67.7716 178.979 68.0495 178.918 68.3583C178.795 69.0994 178.334 69.5317 177.628 69.6861C176.492 69.964 175.295 69.8405 174.19 69.8713L174.221 69.9331Z" fill="#212121"/>
<path d="M101.866 69.934C100.638 69.934 99.4713 69.934 98.3048 69.8105C97.0461 69.6561 96.5857 68.9768 96.4322 67.9269C96.1866 66.2904 96.248 64.6539 96.4322 63.0482C96.555 61.9057 97.261 61.2882 98.4889 61.1338C100.024 60.9794 101.559 60.9485 103.063 61.0103C103.738 61.0103 104.444 61.072 105.12 61.2264C105.918 61.4117 106.44 62.0293 106.532 62.863C106.532 63.1717 106.593 63.4496 106.593 63.7584C106.593 64.0363 106.47 64.1598 106.194 64.129C106.194 64.129 106.194 64.129 106.163 64.129C105.611 64.129 105.304 63.8716 105.243 63.357C105.181 62.8321 104.997 62.6159 104.506 62.4924C103.953 62.338 103.401 62.338 102.817 62.3072C101.589 62.2145 100.362 62.2763 99.1336 62.3998C97.9671 62.5233 97.875 62.6159 97.7215 63.9746C97.5987 65.2097 97.6908 66.4448 97.7829 67.649C97.8443 68.2666 98.2127 68.6063 98.888 68.6371C100.607 68.7606 102.357 68.7298 104.076 68.6371C104.26 68.6371 104.475 68.5754 104.659 68.5136C105.181 68.3592 105.212 67.8961 105.273 67.4638C105.273 67.2476 105.15 66.9388 105.457 66.8462C105.764 66.7227 106.133 66.7536 106.47 66.8462C106.563 66.8462 106.624 66.9697 106.624 67.0315C106.624 67.8961 106.716 68.7606 105.979 69.44C105.58 69.8105 105.058 69.8414 104.567 69.9031C103.646 70.0266 102.695 69.9649 101.835 69.9649L101.866 69.934Z" fill="#212121"/>
<path d="M155.188 65.4265C155.188 64.0988 155.188 62.8019 155.188 61.4741C155.188 61.0419 155.25 60.9801 155.679 60.9801C156.232 60.9801 156.508 61.2477 156.508 61.7829C156.508 62.6166 156.508 63.4503 156.508 64.284C156.508 64.6546 156.631 64.7472 156.969 64.7472C157.583 64.7781 158.104 64.6237 158.657 64.2532C160.161 63.2033 161.696 62.2152 163.2 61.1962C163.446 61.011 163.722 60.9492 164.029 60.9492C164.459 60.9492 164.919 60.9492 165.349 60.9492C165.472 60.9492 165.595 60.9492 165.625 61.0727C165.687 61.2271 165.533 61.2889 165.441 61.3506C164.367 62.0608 163.292 62.7401 162.249 63.4503C161.389 64.0061 160.53 64.5928 159.67 65.1486C159.424 65.303 159.394 65.3956 159.67 65.5809C160.53 66.1058 161.358 66.6925 162.187 67.2483C163.384 68.0203 164.551 68.7922 165.748 69.5642C165.84 69.6259 165.994 69.6877 165.963 69.8421C165.932 70.0273 165.748 69.9656 165.625 69.9656C165.134 69.9656 164.612 69.9656 164.121 69.9656C163.906 69.9656 163.753 69.8729 163.569 69.7803C161.819 68.6069 160.069 67.4645 158.319 66.2911C157.797 65.9206 157.245 66.0441 156.692 66.075C156.477 66.075 156.508 66.2911 156.508 66.4455C156.508 67.4336 156.508 68.3908 156.508 69.3789C156.508 69.9656 156.508 69.9656 155.925 69.9656C155.434 69.9656 155.188 69.7185 155.188 69.2245C155.188 67.9585 155.188 66.7234 155.188 65.4574V65.4265Z" fill="#212121"/>
<path d="M112.242 66.7859C112.242 65.9214 112.242 65.0259 112.242 64.1613C112.242 63.6981 112.303 63.6364 112.733 63.6364C113.04 63.6364 113.408 63.5129 113.439 64.0378C113.439 64.1613 113.592 64.0996 113.654 64.0378C114.084 63.6673 114.575 63.6364 115.097 63.5746C115.895 63.5129 116.693 63.5438 117.491 63.6673C117.982 63.729 118.412 63.9143 118.75 64.2848C118.842 64.4083 118.964 64.4392 119.087 64.2848C119.609 63.6055 120.407 63.6055 121.144 63.5438C121.973 63.482 122.771 63.5438 123.6 63.6673C124.367 63.8217 125.073 64.4701 125.165 65.3656C125.288 66.7551 125.165 68.1446 125.227 69.5341C125.227 69.7502 125.104 69.8429 124.889 69.8737C124.091 69.9355 124.03 69.8737 124.03 69.1327C124.03 68.1754 124.03 67.2491 124.03 66.2919C123.999 65.0568 123.784 64.748 122.403 64.6554C121.942 64.6554 121.482 64.6245 120.991 64.6554C119.916 64.748 119.486 65.0877 119.394 66.1684C119.302 67.2491 119.394 68.299 119.333 69.3797C119.333 69.8737 119.302 69.8737 118.719 69.8737C118.197 69.8737 118.136 69.8737 118.136 69.3488C118.136 68.3298 118.136 67.3417 118.136 66.3228C118.136 66.261 118.136 66.1684 118.136 66.1066C118.105 64.9333 117.89 64.8406 116.908 64.6862C116.171 64.5627 115.404 64.5936 114.667 64.6862C113.899 64.8098 113.592 65.2112 113.5 65.9831C113.377 67.0638 113.47 68.1446 113.439 69.2253C113.439 69.8737 113.439 69.8737 112.856 69.8737C112.242 69.8737 112.242 69.8737 112.242 69.1944C112.242 68.3607 112.242 67.5579 112.242 66.7242V66.7859Z" fill="#212121"/>
<path d="M133.393 67.465C133.393 68.1443 133.393 68.7928 133.393 69.4721C133.393 69.6882 133.393 69.9352 133.116 69.9352C132.84 69.9352 132.41 70.1514 132.287 69.6573C132.257 69.503 132.195 69.4412 132.073 69.5647C131.612 70.0279 130.967 69.997 130.415 70.0279C129.402 70.0588 128.358 70.0896 127.345 69.9661C126.209 69.8426 125.718 69.1015 125.779 67.9591C125.81 67.3724 125.933 66.7857 126.516 66.4152C126.762 66.2608 127.038 66.2299 127.284 66.199C128.696 66.0755 130.108 66.0446 131.489 66.2299C131.704 66.2299 131.858 66.3225 132.042 66.446C132.103 66.4769 132.165 66.6004 132.257 66.5387C132.349 66.4769 132.318 66.3843 132.318 66.2917C132.318 65.2418 131.796 64.7478 130.783 64.686C129.862 64.6551 128.941 64.6242 128.051 64.7478C127.56 64.8095 127.437 64.933 127.345 65.4271C127.314 65.6123 127.222 65.705 127.038 65.705C127.038 65.705 127.038 65.705 127.007 65.705C126.731 65.6741 126.363 65.8594 126.148 65.5506C125.964 65.3036 126.148 64.6242 126.363 64.3463C126.792 63.7905 127.437 63.6979 128.082 63.6362C129.156 63.5126 130.231 63.5435 131.305 63.6362C132.165 63.7288 132.932 63.9449 133.3 64.8095C133.393 65.0257 133.454 65.2727 133.454 65.5197C133.454 66.1681 133.454 66.8166 133.454 67.4341L133.393 67.465ZM129.34 67.1871C128.819 67.1871 128.235 67.1254 127.652 67.2489C127.253 67.3106 127.007 67.6194 127.007 68.0517C127.007 68.4531 127.222 68.7001 127.621 68.7928C128.143 68.9163 128.634 68.8236 129.156 68.8854C129.985 68.978 130.814 68.8854 131.643 68.731C131.858 68.7001 132.011 68.5766 132.103 68.3605C132.318 67.7738 132.042 67.3724 131.336 67.2489C130.691 67.1562 130.077 67.1871 129.371 67.1871H129.34Z" fill="#212121"/>
<path d="M145.549 67.1262C144.597 67.1262 143.646 67.1262 142.663 67.1262C142.234 67.1262 142.141 67.2497 142.234 67.6511C142.418 68.4848 142.633 68.7009 143.492 68.8245C144.628 68.9788 145.795 69.0097 146.93 68.8245C147.299 68.7627 147.575 68.5774 147.636 68.176C147.698 67.9599 147.821 67.8672 148.035 67.8981C148.097 67.8981 148.128 67.8981 148.189 67.8981C148.956 67.8981 149.079 68.1143 148.772 68.8245C148.465 69.5038 147.882 69.8125 147.207 69.9052C145.764 70.1213 144.29 70.0904 142.848 69.8743C141.957 69.7508 141.343 69.2259 141.128 68.3613C140.852 67.2806 140.821 66.1998 141.19 65.1191C141.527 64.1001 142.356 63.7605 143.339 63.6678C144.382 63.5752 145.457 63.6061 146.501 63.6678C147.79 63.7605 148.803 64.5324 148.864 65.9219C148.864 66.1381 148.926 66.3542 148.926 66.5704C148.926 67.1262 148.926 67.157 148.373 67.157C147.422 67.157 146.47 67.157 145.549 67.157V67.1262ZM144.935 66.1072C145.702 66.1072 146.47 66.1072 147.237 66.1072C147.544 66.1072 147.636 66.0146 147.575 65.7367C147.483 65.2735 147.115 64.8721 146.47 64.8103C145.426 64.6559 144.352 64.6868 143.277 64.8103C142.755 64.8721 142.418 65.1809 142.264 65.7058C142.172 66.0146 142.234 66.1381 142.571 66.1381C143.339 66.1381 144.106 66.1381 144.874 66.1381L144.935 66.1072Z" fill="#212121"/>
<path d="M75.8031 65.335C75.8031 64.5321 75.8031 63.6984 75.8031 62.8956C75.8031 62.5251 75.6087 62.3398 75.2199 62.3398C74.9743 62.3398 74.7594 62.3398 74.5138 62.3398C74.2989 62.3398 74.1761 62.2163 74.1761 62.0002C74.1761 62.0002 74.1761 62.0002 74.1761 61.9693C74.1352 61.3311 74.432 61.0121 75.0664 61.0121C75.8338 61.0121 75.8031 61.0738 75.8031 60.3019C75.8031 59.9622 75.8031 59.6226 75.8031 59.252C75.8031 59.005 75.8952 58.8815 76.1715 58.8506C77.1232 58.7889 77.1232 58.7889 77.1232 59.7461C77.1232 60.024 77.1232 60.3019 77.1232 60.6107C77.1232 60.8886 77.2459 61.0121 77.5222 61.0121C78.6581 61.0121 79.7939 61.0121 80.899 61.0121C81.4516 61.0121 81.4823 61.0121 81.4823 61.5987C81.4823 62.0928 81.2367 62.3398 80.7455 62.3398C79.7018 62.3398 78.6274 62.3398 77.5836 62.3398C77.2459 62.3398 77.1232 62.4324 77.1232 62.7721C77.1232 64.3778 77.1232 65.9834 77.1232 67.5891C77.1232 68.2375 77.5222 68.608 78.1669 68.6389C79.1185 68.6389 80.0702 68.6389 80.9911 68.6389C81.4209 68.6389 81.4823 68.7007 81.4823 69.133C81.4823 69.6888 81.2162 69.9667 80.6841 69.9667C79.8553 69.9667 79.0264 69.9667 78.1976 69.9667C76.939 70.0284 75.6803 68.8551 75.8031 67.5582C75.8645 66.8171 75.8031 66.076 75.8031 65.335Z" fill="#212121"/>
<path d="M138.243 64.6847C137.69 64.6847 137.107 64.6847 136.554 64.6847C136.278 64.6847 136.155 64.7773 136.155 65.0861C136.155 66.0433 136.155 67.0005 136.155 67.9578C136.155 68.4209 136.34 68.668 136.769 68.8223C137.383 69.0076 138.028 68.9767 138.673 68.8841C139.01 68.8223 139.256 68.6062 139.256 68.1739C139.256 67.896 139.317 67.649 139.317 67.3711C139.317 67.1241 139.409 67.0005 139.655 67.0005C140.453 66.9388 140.607 67.0623 140.484 67.8651C140.392 68.4827 140.392 69.1002 139.839 69.5325C139.44 69.8722 138.949 69.9339 138.458 69.9957C137.69 70.0883 136.923 70.0575 136.186 69.8722C135.357 69.6561 134.958 69.0694 134.927 68.2048C134.927 67.1858 134.927 66.1977 134.927 65.1788C134.927 64.8391 134.835 64.6847 134.467 64.7156C134.252 64.7156 134.037 64.7156 133.853 64.7156C133.423 64.7156 133.454 64.4377 133.454 64.1598C133.454 63.8819 133.485 63.6349 133.853 63.6657C134.099 63.6657 134.375 63.6657 134.62 63.6657C134.805 63.6657 134.927 63.5731 134.927 63.357C134.927 63.1099 134.927 62.832 134.927 62.585C134.927 62.3071 135.02 62.1836 135.327 62.1836C136.094 62.1836 136.125 62.1836 136.125 62.9247C136.125 63.7275 136.063 63.6657 136.861 63.6657C137.844 63.6657 138.857 63.6657 139.839 63.6657C140.269 63.6657 140.33 63.7275 140.33 64.1907C140.33 64.6229 140.269 64.6847 139.87 64.7156C139.317 64.7156 138.765 64.7156 138.212 64.7156L138.243 64.6847Z" fill="#212121"/>
<path d="M167.774 65.4883C167.774 66.816 167.774 68.1129 167.774 69.4406C167.774 69.7803 167.651 69.9347 167.314 69.9347C166.27 69.9347 166.362 70.0273 166.362 69.0084C166.362 66.5072 166.362 64.037 166.362 61.5359C166.362 60.9801 166.362 60.9492 166.945 60.9492C167.498 60.9492 167.774 61.2271 167.774 61.7829C167.774 63.018 167.774 64.2532 167.774 65.4883Z" fill="#212121"/>
<path d="M73.8077 65.4578C73.8077 66.7855 73.8077 68.0824 73.8077 69.4101C73.8077 69.8733 73.777 69.9351 73.3166 69.9351C72.764 69.9351 72.4877 69.6572 72.4877 69.1014C72.4877 66.6003 72.4877 64.0683 72.4877 61.5671C72.4877 61.0113 72.4877 60.9805 73.071 60.9805C73.5622 60.9805 73.8077 61.2275 73.8077 61.7215C73.8077 62.9567 73.8077 64.2227 73.8077 65.4578Z" fill="#212121"/>
<path d="M107.668 65.4265C107.668 64.0988 107.668 62.8019 107.668 61.4741C107.668 60.9801 107.698 60.9492 108.282 60.9492C108.803 60.9492 108.865 60.9801 108.865 61.4741C108.865 64.1296 108.865 66.7851 108.865 69.4098C108.865 69.8421 108.803 69.9038 108.374 69.9038C108.282 69.9038 108.189 69.9038 108.067 69.9038C107.76 69.9038 107.668 69.7803 107.668 69.4715C107.668 68.4526 107.668 67.4645 107.668 66.4455C107.668 66.1058 107.668 65.7662 107.668 65.3956V65.4265Z" fill="#212121"/>
<path d="M109.878 66.7862C109.878 65.8908 109.878 64.9953 109.878 64.0998C109.878 63.7602 110.001 63.6058 110.338 63.6367C110.461 63.6367 110.584 63.6367 110.707 63.6367C110.983 63.6367 111.075 63.7602 111.075 64.0381C111.075 65.8908 111.075 67.7434 111.075 69.5961C111.075 69.8431 110.952 69.9358 110.707 69.9666C109.909 70.0284 109.878 69.9666 109.878 69.1947C109.878 68.3919 109.878 67.6199 109.878 66.8171V66.7862Z" fill="#212121"/>
<path d="M152.026 67.402C151.289 67.402 150.522 67.402 149.785 67.402C149.478 67.402 149.355 67.2785 149.355 66.9697C149.355 66.0742 149.355 66.0742 150.215 66.0742C151.535 66.0742 152.886 66.0742 154.206 66.0742C154.697 66.0742 154.728 66.1051 154.728 66.5991C154.728 67.1344 154.462 67.402 153.929 67.402C153.285 67.402 152.671 67.402 152.026 67.402Z" fill="#212121"/>
<path d="M73.8078 59.5298C73.8078 59.9621 73.5724 60.1783 73.1017 60.1783C72.631 60.1783 72.4161 59.9416 72.4571 59.4681C72.498 58.9946 72.7333 58.7888 73.1631 58.8505C73.5929 58.9123 73.7975 59.1387 73.7771 59.5298H73.8078Z" fill="#212121"/>
<path d="M111.075 61.658C111.075 61.7815 111.075 61.905 111.075 61.9976C111.075 62.2755 110.983 62.399 110.676 62.399C109.878 62.4299 109.878 62.399 109.878 61.6271C109.878 61.0404 110.369 60.7316 110.891 61.0095C111.167 61.1639 111.014 61.4418 111.075 61.658Z" fill="#212121"/>
</svg>
