<svg width="230" height="130" viewBox="0 0 230 130" fill="none" xmlns="http://www.w3.org/2000/svg">
<g clip-path="url(#clip0_765_9050)">
<path d="M64.5559 45C66.6545 47.07 68.3785 49.4049 69.6062 52.0926C70.9961 55.134 71.5427 58.3005 71.0673 61.6256C70.9931 62.1438 70.9526 62.668 70.9081 63.1902C70.8972 63.3192 70.9309 63.4522 70.9437 63.5833C70.9981 63.5911 71.0524 63.599 71.1068 63.6069C71.2976 62.9813 71.4874 62.3567 71.6999 61.6611C71.8294 61.8069 71.9184 61.8926 71.9925 61.9911C73.0433 63.398 74.1001 64.8 75.1311 66.2207C75.2813 66.4276 75.3664 66.7232 75.3753 66.9813C75.4059 67.8118 75.3861 68.6453 75.3861 69.531C74.6843 69.531 74.1277 69.531 73.4852 69.531C72.639 69.531 71.7928 69.5429 70.9467 69.5251C70.5928 69.5172 70.3951 69.5754 70.3921 69.998C70.3891 70.4739 70.3012 70.9488 70.2409 71.5005H68.0028C66.787 71.5005 66.8067 71.5005 66.7504 72.7271C66.5675 76.6453 66.3698 80.5636 66.1721 84.4808C66.1632 84.6542 66.096 84.8256 66.0555 84.9971H65.8578C65.8232 84.7389 65.7668 84.4808 65.7579 84.2217C65.7045 82.7448 65.6709 81.268 65.6156 79.7911C65.406 74.1468 65.1905 68.5035 64.975 62.8601C64.971 62.7468 64.9345 62.6345 64.9127 62.5212C64.8702 62.5202 64.8267 62.5192 64.7842 62.5182C64.7605 62.6502 64.7229 62.7813 64.716 62.9133C64.5717 65.8158 64.4303 68.7182 64.289 71.6207C64.1703 74.064 64.0567 76.5084 63.9232 78.9507C63.9114 79.1773 63.7749 79.3971 63.6959 79.6197C63.6257 79.3852 63.5051 79.1527 63.4942 78.9153C63.3884 76.603 63.3024 74.2897 63.2036 71.9773C63.1976 71.8414 63.1433 71.6 63.0879 71.5921C62.7657 71.5498 62.4256 71.5192 62.1132 71.5852C62.0173 71.6049 61.9452 71.9389 61.9363 72.132C61.8513 73.9527 61.785 75.7734 61.701 77.5941C61.6951 77.734 61.5933 77.869 61.5369 78.0059C61.4578 77.867 61.3244 77.734 61.3066 77.5872C61.1296 76.1035 60.9735 74.6177 60.8064 73.133C60.7481 72.6177 60.6769 72.1035 60.6067 71.5537C60.2746 71.5537 59.9968 71.5537 59.719 71.5537C58.979 71.555 58.5684 71.1846 58.4873 70.4424C58.3914 69.5616 58.3914 69.5665 57.4909 69.5606C55.9933 69.5507 54.4947 69.534 52.9971 69.5202C53 68.6631 53 67.7941 53 66.933C53 66.6719 53.09 66.4128 53.2758 66.2286C53.2926 66.2118 53.3085 66.1951 53.3233 66.1764C54.0093 65.3586 54.6874 64.534 55.3695 63.7133C55.9004 63.0749 56.4352 62.4404 57.0154 61.7478C57.2457 62.4246 57.4464 63.0138 57.6471 63.603L57.8408 63.5636C57.7954 62.932 57.7578 62.3005 57.7044 61.67C57.572 60.0995 57.4494 58.533 57.7094 56.9606C58.4962 52.2138 60.8618 48.3271 64.2583 45H64.5559ZM62.129 54.3034C62.132 55.4325 62.9594 56.4138 64.0725 56.6207C65.5483 56.8946 66.8838 55.7074 66.8769 54.268C66.87 52.9882 65.7984 51.933 64.5035 51.932C63.1838 51.9301 62.1261 52.9882 62.129 54.3034Z" fill="#212121"/>
<path d="M176.842 77.7396C176.862 78.1199 176.883 78.5042 176.902 78.8845C175.708 80.785 173.521 81.4293 171.461 80.4805C171.328 80.4194 171.182 80.2411 171.165 80.1032C171.123 79.7524 171.151 79.3938 171.151 79.0628C171.791 79.2815 172.375 79.5613 172.989 79.6667C173.508 79.7554 174.068 79.6884 174.597 79.6037C175.069 79.5278 175.379 79.1948 175.461 78.7051C175.538 78.2431 175.385 77.8293 175.002 77.584C174.565 77.3032 174.071 77.1071 173.602 76.8756C173.102 76.6293 172.564 76.4391 172.109 76.1278C170.856 75.2707 170.846 73.4313 172.098 72.5751C173.377 71.7002 174.781 71.6973 176.207 72.1702C176.312 72.2047 176.433 72.3643 176.444 72.4756C176.474 72.8116 176.455 73.1524 176.455 73.5712C175.64 73.1268 174.835 72.9357 173.983 73.0234C173.742 73.048 173.495 73.1042 173.274 73.1987C172.839 73.384 172.568 73.7209 172.567 74.2441C172.566 74.6943 172.833 75.1042 173.233 75.313C173.603 75.5051 173.996 75.6519 174.372 75.8352C174.915 76.1012 175.499 76.3199 175.978 76.6746C176.334 76.9386 176.562 77.3741 176.843 77.7396H176.842Z" fill="#212121"/>
<path d="M93.7271 51.8797V61.7496C93.7271 61.7496 92.4332 61.7496 92.4421 61.7496V49.7752C92.9946 49.7752 93.5621 49.7605 94.1285 49.789C94.2224 49.794 94.339 49.9723 94.3924 50.0935C95.7427 53.1693 97.0871 56.2491 98.4325 59.327C98.4641 59.3989 98.5116 59.4639 98.5699 59.5644C99.0207 58.5447 99.4497 57.5565 99.8916 56.5733C100.852 54.4353 101.826 52.3033 102.778 50.1624C102.912 49.86 103.077 49.7378 103.408 49.7605C103.816 49.788 104.228 49.7674 104.7 49.7674V61.8491H103.415V51.8875C103.358 51.8826 103.334 51.8777 103.309 51.8728C102.666 53.3161 102.025 54.7595 101.381 56.2018C100.6 57.9536 99.8164 59.7023 99.0395 61.456C98.9475 61.6639 98.8635 61.8048 98.5877 61.8048C98.306 61.8048 98.1824 61.6915 98.0766 61.455C96.7817 58.5506 95.4778 55.6501 94.1799 52.7467C94.0484 52.4531 93.9426 52.1486 93.826 51.8491C93.7953 51.86 93.7657 51.8698 93.7262 51.8807L93.7271 51.8797Z" fill="#212121"/>
<path d="M163.023 79.496V84.6733C162.606 84.6733 162.23 84.696 161.86 84.6566C161.774 84.6477 161.653 84.427 161.649 84.3009C161.627 83.6852 161.639 83.0684 161.639 82.4517C161.639 79.1512 161.639 72.699 161.738 72.699V72.093H163.023V73.4073C163.091 73.4231 163.127 73.4389 163.165 73.4556C163.255 73.361 163.353 73.2733 163.432 73.1709C165 71.162 168.16 71.4625 169.169 73.7886C169.976 75.6487 169.858 77.5315 168.783 79.299C167.619 81.2103 164.409 81.4014 163.334 79.6783C163.302 79.628 163.022 79.497 163.022 79.497L163.023 79.496ZM163.022 76.5118C163.036 76.5137 163.051 76.5147 163.066 76.5167C163.066 76.7462 163.061 76.9758 163.066 77.2054C163.096 78.4743 163.916 79.4852 165.096 79.7088C166.319 79.9403 167.451 79.3068 167.929 78.093C168.317 77.1068 168.39 76.0812 168.169 75.0477C167.889 73.7443 167.033 73.0063 165.827 72.9857C164.531 72.964 163.462 73.7778 163.185 75.0507C163.081 75.5265 163.073 76.0231 163.022 76.5108V76.5118Z" fill="#212121"/>
<path d="M124.174 70.318C123.233 69.7781 122.225 69.5909 121.175 69.6855C120.757 69.7229 120.324 69.8145 119.94 69.9791C118.775 70.4746 118.52 71.9249 119.454 72.7742C119.825 73.1111 120.281 73.3643 120.72 73.6165C121.503 74.0668 122.333 74.4402 123.09 74.9288C124.505 75.8421 125.01 77.1032 124.62 78.5456C124.312 79.6825 123.479 80.2914 122.417 80.5919C120.937 81.0116 119.459 80.8973 117.997 80.4362C117.575 80.3032 117.367 80.0884 117.425 79.6254C117.463 79.3229 117.432 79.0116 117.432 78.6264C117.634 78.7347 117.77 78.8077 117.906 78.8796C119.106 79.515 120.369 79.7978 121.718 79.5278C122.433 79.385 123.019 79.0382 123.228 78.2796C123.444 77.4894 123.242 76.782 122.587 76.3042C121.967 75.853 121.267 75.5111 120.606 75.115C119.917 74.7032 119.174 74.3554 118.555 73.8549C116.927 72.5397 117.118 70.1988 118.908 69.1141C120.025 68.4372 121.264 68.3426 122.533 68.4451C122.631 68.453 122.728 68.4717 122.826 68.4884C124.5 68.7732 124.249 68.5722 124.176 70.316L124.174 70.318Z" fill="#212121"/>
<path d="M136.785 75.1782C136.938 73.4954 135.874 72.6215 134.172 73.0442C133.516 73.2068 132.903 73.5408 132.218 73.8186C132.218 73.5201 132.193 73.1683 132.232 72.8245C132.247 72.6964 132.388 72.5408 132.514 72.4747C133.69 71.8531 134.935 71.6511 136.236 71.9693C137.323 72.2353 138.015 73.0481 138.094 74.2344C138.17 75.3772 138.163 76.527 138.177 77.6738C138.189 78.6225 138.179 79.5713 138.179 80.5654H136.827V79.4698C136.77 79.4481 136.768 79.4481 136.712 79.4265C136.599 79.5526 136.485 79.6777 136.373 79.8048C135.452 80.857 133.707 81.1486 132.502 80.4324C131.58 79.8846 131.309 79.0127 131.399 77.9821C131.477 77.0876 132.253 76.1358 133.115 75.8767C133.903 75.6403 134.737 75.5319 135.55 75.3693C135.963 75.2866 136.383 75.2403 136.786 75.1792L136.785 75.1782ZM136.851 76.3772C136.793 76.3309 136.735 76.2856 136.675 76.2393C135.648 76.4422 134.607 76.594 133.599 76.8679C132.902 77.057 132.665 77.5802 132.711 78.3831C132.745 79.0028 133.133 79.4669 133.769 79.6511C134.92 79.9851 136.182 79.391 136.564 78.2393C136.759 77.6511 136.761 76.9999 136.85 76.3782L136.851 76.3772Z" fill="#212121"/>
<path d="M101.062 80.8464C98.1972 80.8681 96.6769 78.6947 96.8815 75.9873C96.9833 74.6464 97.4262 73.4681 98.5729 72.6375C100.042 71.5745 103.06 71.473 104.457 73.2612C105.631 74.7636 105.858 78.4967 103.702 80.0484C102.907 80.6208 102.025 80.8513 101.062 80.8464ZM104.007 76.3203C103.94 75.9104 103.898 75.4188 103.773 74.9489C103.466 73.7922 102.657 73.1075 101.567 73.0198C100.122 72.9045 99.1314 73.4159 98.6094 74.5646C98.2032 75.4602 98.1715 76.4011 98.3297 77.3548C98.5659 78.7745 99.6681 79.7173 101.1 79.737C102.589 79.7577 103.572 78.9577 103.861 77.472C103.93 77.1203 103.952 76.7607 104.006 76.3193L104.007 76.3203Z" fill="#212121"/>
<path d="M150.238 57.4241C150.253 58.831 149.901 60.1088 148.766 61.028C147.354 62.1719 145.747 62.2763 144.12 61.6014C142.598 60.9689 141.914 59.6832 141.829 58.096C141.791 57.4004 141.823 56.6724 141.99 56.0004C142.478 54.0438 144.071 52.962 146.247 53.0093C148.805 53.0645 150.229 54.6408 150.238 57.4241ZM148.897 57.5886C148.843 57.1305 148.822 56.7029 148.74 56.2881C148.49 55.0211 147.624 54.232 146.398 54.1206C145.051 53.9985 143.981 54.5896 143.49 55.7699C143.052 56.8251 143.039 57.9187 143.394 58.9926C143.805 60.2359 144.811 60.8812 146.16 60.8477C147.472 60.8152 148.336 60.1748 148.689 58.9167C148.812 58.4802 148.833 58.0152 148.897 57.5896V57.5886Z" fill="#212121"/>
<path d="M133.109 57.4473C133.1 59.1764 132.579 60.6759 130.939 61.4975C129.452 62.2424 127.905 62.2305 126.475 61.3271C125.053 60.4296 124.628 59.0059 124.662 57.4158C124.687 56.2424 124.958 55.1399 125.804 54.2571C126.987 53.0227 129.048 52.6158 130.79 53.3232C132.428 53.9882 132.993 55.3665 133.108 57.0059C133.118 57.1527 133.109 57.3005 133.109 57.4483V57.4473ZM131.807 57.5025C131.715 56.9793 131.675 56.4345 131.519 55.9241C131.197 54.867 130.45 54.2473 129.344 54.133C128.225 54.0177 127.212 54.2946 126.617 55.3172C125.801 56.7202 125.763 58.198 126.578 59.6148C127.226 60.7429 128.33 60.9832 129.53 60.8108C130.598 60.6571 131.261 59.9872 131.548 58.9695C131.68 58.5025 131.721 58.0099 131.808 57.5025H131.807Z" fill="#212121"/>
<path d="M157.783 79.3322C157.613 79.4937 157.534 79.546 157.485 79.6189C156.609 80.9036 155.049 81.0149 153.824 80.5873C152.749 80.212 152.226 79.3006 152.181 78.2494C152.093 76.2149 152.155 74.1736 152.155 72.0938H153.335V73.4829C153.273 74.6642 153.267 75.8455 153.277 77.0268C153.28 77.3361 153.308 77.6494 153.364 77.9538C153.562 79.0376 154.105 79.5952 155.058 79.7282C156.05 79.8662 157.035 79.3558 157.424 78.4139C157.607 77.9716 157.708 77.4671 157.72 76.9883C157.758 75.5125 157.733 74.0356 157.735 72.5588C157.735 72.4149 157.751 72.2711 157.762 72.1923H159.069V80.5667H157.783V79.3322Z" fill="#212121"/>
<path d="M94.0287 72.095H96.0492C96.0492 72.3817 96.0374 72.6221 96.0522 72.8605C96.069 73.1364 95.9523 73.2359 95.6795 73.229C95.1457 73.2162 94.6119 73.225 94.0247 73.225V80.5679H92.8385V73.1787H91.3557V71.9965H92.7782C92.7782 71.4487 92.7515 70.8625 92.7831 70.2802C92.8731 68.6231 94.3045 67.5117 95.9553 67.7669C96.3408 67.826 96.5069 67.9639 96.4506 68.36C96.4209 68.5659 96.4456 68.7797 96.4456 68.9886C96.1026 68.9521 95.811 68.897 95.5194 68.894C94.773 68.8871 94.2807 69.2595 94.174 69.9925C94.0771 70.6506 94.0297 72.095 94.0297 72.095H94.0287Z" fill="#212121"/>
<path d="M134.696 60.0776C135.666 60.715 136.638 60.9328 137.689 60.8293C138.65 60.7347 139.238 60.0845 138.923 59.3062C138.771 58.9288 138.363 58.5879 137.987 58.3791C137.302 57.9968 136.525 57.7791 135.842 57.3958C134.315 56.5387 134.283 54.518 135.779 53.6076C136.203 53.3495 136.71 53.1259 137.194 53.0874C137.937 53.0293 138.695 53.1328 139.444 53.1948C139.844 53.2283 140.059 53.4421 139.988 53.8865C139.95 54.119 139.981 54.3633 139.981 54.5259C139.2 54.383 138.472 54.2175 137.734 54.1318C137.443 54.0983 137.117 54.2116 136.83 54.317C136.4 54.4756 136.126 54.7998 136.081 55.2697C136.035 55.7564 136.233 56.1534 136.654 56.3869C137.067 56.6175 137.521 56.7771 137.949 56.983C138.465 57.2313 139.015 57.4362 139.476 57.7643C140.708 58.6401 140.707 60.4264 139.455 61.2727C138.028 62.2382 136.481 62.1653 134.929 61.5791C134.821 61.5387 134.719 61.3436 134.707 61.2126C134.677 60.8727 134.696 60.5268 134.696 60.0776Z" fill="#212121"/>
<path d="M156.202 53.2487V54.2585C155.848 54.2585 155.501 54.2585 155.154 54.2585C154.535 54.2585 154.226 54.583 154.226 55.2319C154.226 57.2132 154.226 59.1955 154.226 61.1768C154.226 61.3551 154.226 61.5344 154.226 61.7462H152.842C152.842 61.5334 152.842 61.3413 152.842 61.1492C152.842 59.0319 152.833 56.9147 152.85 54.7984C152.853 54.4112 152.744 54.2595 152.34 54.2989C152.027 54.3295 151.71 54.3048 151.359 54.3048V53.2477C151.68 53.2477 151.978 53.2241 152.27 53.2536C152.696 53.296 152.885 53.1669 152.844 52.7068C152.806 52.295 152.828 51.8753 152.845 51.4605C152.917 49.6832 154.529 48.4664 156.254 48.9009C156.379 48.9324 156.525 49.1265 156.548 49.2635C156.594 49.5364 156.562 49.8221 156.562 50.1354C156.309 50.0782 156.103 50.0201 155.893 49.9876C155.103 49.8654 154.412 50.2743 154.275 51.0457C154.163 51.6782 154.174 52.3344 154.172 52.9797C154.172 53.0684 154.404 53.229 154.535 53.2359C155.079 53.2654 155.625 53.2477 156.204 53.2477L156.202 53.2487Z" fill="#212121"/>
<path d="M148.195 72.0937H150.37V73.1774H148.344C148.344 73.1774 148.249 73.2956 148.248 73.3203C148.243 75.0415 148.21 76.7646 148.25 78.4848C148.273 79.4631 148.956 79.9045 149.912 79.6631C150.053 79.6277 150.193 79.5853 150.404 79.5262C150.404 79.808 150.437 80.0671 150.391 80.3114C150.365 80.4533 150.235 80.6513 150.112 80.6868C149.404 80.8897 148.679 80.9331 147.993 80.6099C147.066 80.1725 146.896 79.3085 146.878 78.4178C146.848 76.8927 146.869 75.3676 146.909 73.8424V73.1774H145.426V71.9952H146.869C146.869 71.4671 146.884 70.9134 146.863 70.3617C146.852 70.069 146.932 69.9065 147.236 69.8415C147.55 69.7735 147.856 69.6602 148.194 69.5469V72.0927L148.195 72.0937Z" fill="#212121"/>
<path d="M130.322 79.5192C130.426 80.6709 130.335 80.7724 129.222 80.7872C127.547 80.8088 126.761 80.0404 126.745 78.329C126.73 76.8197 126.743 75.3093 126.745 73.8C126.745 73.6207 126.745 73.4798 126.745 73.2216C126.368 73.2216 126.019 73.2019 125.674 73.2276C125.314 73.2542 125.183 73.1231 125.223 72.7793C125.247 72.5724 125.227 72.3596 125.227 72.0965H126.745C126.745 71.5172 126.774 70.9882 126.733 70.464C126.708 70.1497 126.931 69.868 127.242 69.8118C127.522 69.7606 127.79 69.6581 128.129 69.5586V71.999H130.205V73.1813H128.129C128.129 73.7822 128.129 74.3192 128.129 74.8561C128.129 75.8571 128.128 76.8581 128.129 77.8591C128.132 79.5221 128.667 79.9359 130.323 79.5221L130.322 79.5192Z" fill="#212121"/>
<path d="M159.403 54.2604C159.403 54.7382 159.403 55.1638 159.403 55.5894C159.404 56.7313 159.392 57.8742 159.41 59.016C159.426 60.1333 160.323 60.8131 161.383 60.4485C161.426 60.4338 161.473 60.4298 161.578 60.4081C161.578 60.6958 161.609 60.9658 161.565 61.2239C161.544 61.3431 161.396 61.4879 161.272 61.5362C159.585 62.1835 158.083 61.221 158.059 59.4663C158.038 57.886 158.041 56.3047 158.061 54.7234C158.065 54.4426 157.838 54.2259 157.558 54.2515C157.251 54.2801 156.938 54.2574 156.596 54.2574V53.1924C156.809 53.1924 157 53.1944 157.191 53.1924C158.251 53.1825 157.998 53.3126 158.043 52.1224C158.052 51.8988 158.056 51.6742 158.035 51.4515C158.01 51.1658 158.094 51.0111 158.377 50.9431C158.688 50.8692 158.99 50.7549 159.364 50.6367V53.1756H161.539V54.2594H159.402L159.403 54.2604Z" fill="#212121"/>
<path d="M117.477 54.6029C116.773 54.4314 116.133 54.1733 115.482 54.1388C114.183 54.0689 113.247 54.7142 112.717 55.8925C112.267 56.8925 112.248 57.9378 112.596 58.9664C113.18 60.6915 115.139 61.3743 116.877 60.4876C117.046 60.4009 117.212 60.3073 117.369 60.2236C117.409 60.2679 117.429 60.2787 117.43 60.2915C117.522 61.4452 117.422 61.5841 116.294 61.859C113.188 62.6186 110.645 60.329 111.021 57.1487C111.196 55.6669 111.731 54.4157 113.054 53.6255C114.317 52.8699 115.672 52.864 117.058 53.2433C117.382 53.3319 117.517 53.5063 117.483 53.8442C117.457 54.1162 117.477 54.393 117.477 54.6029Z" fill="#212121"/>
<path d="M124.058 54.4879C123.809 54.4258 123.616 54.3578 123.418 54.3312C122.414 54.1992 121.621 54.5726 121.236 55.481C121.003 56.0278 120.855 56.6396 120.828 57.2288C120.768 58.5667 120.808 59.9095 120.806 61.2504C120.806 61.409 120.806 61.5687 120.806 61.748H119.429V53.2751H120.813V54.7795C121.19 54.3381 121.504 53.8948 121.896 53.5302C122.364 53.0957 122.978 53.0199 123.613 53.081C123.942 53.1125 124.096 53.2504 124.063 53.5864C124.035 53.8731 124.057 54.1637 124.057 54.4869L124.058 54.4879Z" fill="#212121"/>
<path d="M111.794 73.3035C109.982 72.8838 108.84 73.806 108.781 75.7252C108.739 77.1291 108.767 78.5341 108.765 79.939C108.765 80.1321 108.765 80.3262 108.765 80.5666H107.468V72.0937H108.753V73.5626C108.803 73.5764 108.798 73.5754 108.85 73.5892C108.951 73.4188 109.052 73.2474 109.155 73.0779C109.679 72.2129 110.431 71.8286 111.436 71.941C111.694 71.9695 111.812 72.0582 111.798 72.3331C111.782 72.6405 111.794 72.9508 111.794 73.3025V73.3035Z" fill="#212121"/>
<path d="M141.943 80.5654H140.682V72.0925H141.967V73.5289C142.036 73.5476 142.029 73.5457 142.098 73.5654C142.174 73.4383 142.255 73.3131 142.327 73.1841C142.843 72.258 143.621 71.8304 144.698 71.9329C144.998 71.9614 145.154 72.0462 145.127 72.3752C145.104 72.6659 145.122 72.9604 145.122 73.2629C145.054 73.2747 145.004 73.3003 144.968 73.2865C143.58 72.7486 142.536 73.5575 142.163 74.8728C142.039 75.3072 141.987 75.7723 141.979 76.2245C141.955 77.5634 141.971 78.9033 141.969 80.2422C141.969 80.3368 141.954 80.4314 141.943 80.5664V80.5654Z" fill="#212121"/>
<path d="M108.852 61.7502H107.665V53.2773H108.852V61.7502Z" fill="#212121"/>
<path d="M81.8649 48.7617V81.1479C81.5495 80.7647 81.5485 49.1548 81.8649 48.7617Z" fill="#212121"/>
<path d="M108.294 49.2109C108.755 49.2178 109.17 49.6405 109.165 50.0986C109.16 50.5853 108.736 50.9755 108.228 50.9607C107.736 50.9459 107.4 50.5765 107.412 50.0612C107.423 49.5765 107.81 49.204 108.294 49.2119V49.2109Z" fill="#212121"/>
</g>
<defs>
<clipPath id="clip0_765_9050">
<rect width="123.902" height="40" fill="white" transform="translate(53 45)"/>
</clipPath>
</defs>
</svg>
