<svg width="52" height="23" viewBox="0 0 52 23" fill="none" xmlns="http://www.w3.org/2000/svg">
<g clip-path="url(#clip0_1231_112703)">
<path d="M38.3816 6.90598H35.2838V6.2046C35.2838 5.49153 35.1202 4.88366 34.7812 4.36932C34.4422 3.85497 33.8811 3.5978 33.0978 3.5978C32.677 3.5978 32.3263 3.67963 32.0458 3.84328C31.7769 4.00694 31.5548 4.21735 31.4028 4.46283C31.2509 4.72001 31.1457 5.01225 31.0872 5.33956C31.0288 5.67856 30.9937 6.01756 30.9937 6.39163C30.9937 6.81246 31.0054 7.17484 31.0405 7.46709C31.0755 7.75933 31.1457 8.0165 31.2626 8.22692C31.3795 8.43733 31.5665 8.62437 31.7886 8.78802C32.0224 8.95168 32.338 9.11533 32.7472 9.27899L35.1202 10.2259C35.8099 10.4947 36.371 10.7986 36.7918 11.1493C37.2126 11.5 37.5516 11.9209 37.7737 12.4001C38.0075 12.8794 38.1595 13.4171 38.2413 14.0367C38.3231 14.6562 38.3582 15.3576 38.3582 16.1525C38.3582 17.0643 38.2647 17.906 38.0894 18.6892C37.9023 19.4724 37.6101 20.1387 37.1892 20.6881C36.7684 21.2492 36.219 21.6818 35.5293 22.0091C34.8396 22.3364 33.998 22.5 33.0043 22.5C32.2562 22.5 31.5548 22.3714 30.9119 22.1026C30.2689 21.8454 29.7078 21.483 29.2402 21.0271C28.7727 20.5712 28.4103 20.0335 28.1297 19.4023C27.8609 18.771 27.7206 18.093 27.7206 17.3683V16.211H30.8184V17.1812C30.8184 17.754 30.982 18.2567 31.321 18.7126C31.66 19.1685 32.2211 19.3906 33.0043 19.3906C33.5304 19.3906 33.9395 19.3204 34.2317 19.1685C34.524 19.0165 34.7461 18.8061 34.8981 18.5255C35.05 18.2567 35.1435 17.9177 35.1903 17.5085C35.2254 17.0994 35.2488 16.6552 35.2488 16.1759C35.2488 15.6148 35.2254 15.1472 35.1903 14.7848C35.1552 14.4225 35.0617 14.1302 34.9331 13.9081C34.8045 13.686 34.6175 13.499 34.3837 13.3587C34.1499 13.2184 33.846 13.0664 33.4602 12.9028L31.2392 11.991C29.9066 11.4416 29.0064 10.7168 28.5506 9.81671C28.0947 8.91661 27.8725 7.78271 27.8725 6.4267C27.8725 5.62011 27.9778 4.84859 28.2115 4.12383C28.4337 3.39907 28.761 2.76783 29.1935 2.24179C29.626 1.71576 30.1754 1.29493 30.8534 0.979306C31.5197 0.663685 32.3029 0.511719 33.1914 0.511719C33.9629 0.511719 34.6643 0.651995 35.3072 0.932548C35.9501 1.2131 36.4879 1.58717 36.9438 2.05476C37.3997 2.52235 37.7503 3.03669 37.9958 3.62118C38.2413 4.19397 38.3582 4.79015 38.3582 5.39801V6.90598H38.3816Z" fill="white"/>
<path d="M47.3593 22.3134H44.6239L40.2286 0.6875H43.5017L45.9565 15.7789H46.015L48.5166 0.6875H51.8014L47.3593 22.3134Z" fill="white"/>
<path d="M24.4708 3.47998C24.3072 3.1176 24.1085 2.79029 23.8864 2.49805L21.829 7.03365V17.2154C21.829 17.9635 21.6185 18.5129 21.2094 18.8753C20.7886 19.226 20.2976 19.4013 19.7365 19.4013C19.1637 19.4013 18.6727 19.226 18.2636 18.8753C17.8428 18.5246 17.644 17.9635 17.644 17.2154V16.2451L15.6568 20.6171C15.8205 20.8275 16.0075 21.0145 16.2062 21.1899C16.6972 21.6224 17.2583 21.9497 17.8778 22.1718C18.4974 22.3939 19.117 22.5108 19.7482 22.5108C20.3794 22.5108 20.999 22.3939 21.6185 22.1718C22.2381 21.9497 22.7875 21.6224 23.2902 21.1899C23.7811 20.7573 24.1903 20.2079 24.4942 19.5533C24.7981 18.8987 24.9501 18.1155 24.9501 17.2271V5.79454C24.9267 4.91781 24.7748 4.14629 24.4708 3.47998Z" fill="white"/>
<path d="M11.5771 6.91767H8.47934V6.21629C8.47934 5.50322 8.31569 4.89535 7.97669 4.38101C7.63768 3.86666 7.07658 3.60949 6.29337 3.60949C5.87254 3.60949 5.52185 3.69132 5.24129 3.85497C4.97243 4.01863 4.75033 4.22904 4.59836 4.47452C4.44639 4.7317 4.34119 5.02394 4.28274 5.35125C4.22429 5.69025 4.18922 6.02925 4.18922 6.40332C4.18922 6.82415 4.20091 7.18653 4.23598 7.47878C4.27105 7.77102 4.34119 8.02819 4.45808 8.2386C4.57498 8.44902 4.76202 8.63605 4.98412 8.79971C5.21791 8.96337 5.53354 9.12702 5.94268 9.29068L8.31569 10.2375C9.00538 10.4947 9.56649 10.8103 9.98732 11.161C10.4081 11.5117 10.7355 11.9325 10.9692 12.4001C11.203 12.8794 11.355 13.4288 11.4368 14.0367C11.5187 14.6562 11.5537 15.3576 11.5537 16.1525C11.5537 17.0643 11.4602 17.906 11.2849 18.6892C11.0978 19.4724 10.8056 20.1387 10.3848 20.6881C9.96393 21.2492 9.41452 21.6818 8.72483 22.0091C8.03513 22.3364 7.19348 22.5 6.19985 22.5C5.45171 22.5 4.75033 22.3714 4.10739 22.1026C3.46446 21.8454 2.90335 21.483 2.43576 21.0271C1.96818 20.5712 1.6058 20.0335 1.32524 19.4023C1.09145 18.771 0.951172 18.093 0.951172 17.3566V16.1993H4.04894V17.1695C4.04894 17.7306 4.2126 18.245 4.5516 18.7009C4.8906 19.1568 5.45171 19.3789 6.23492 19.3789C6.76096 19.3789 7.1701 19.2971 7.46234 19.1568C7.75458 19.0048 7.97669 18.7944 8.12865 18.5138C8.28062 18.245 8.37414 17.906 8.42089 17.4968C8.45596 17.0877 8.47934 16.6435 8.47934 16.1642C8.47934 15.6031 8.45596 15.1355 8.42089 14.7615C8.37414 14.3991 8.29231 14.1068 8.16372 13.8847C8.03513 13.6626 7.8481 13.4756 7.6143 13.3353C7.38051 13.195 7.07658 13.0431 6.69082 12.8794L4.46977 11.9676C3.13715 11.4416 2.23704 10.7168 1.78114 9.81671C1.32524 8.91661 1.10314 7.78271 1.10314 6.4267C1.10314 5.62011 1.22004 4.84859 1.44214 4.12383C1.66424 3.39907 1.99156 2.76783 2.42407 2.24179C2.85659 1.71576 3.40601 1.29493 4.08401 0.979306C4.75033 0.663685 5.53354 0.511719 6.42195 0.511719C7.19347 0.511719 7.89486 0.651995 8.53779 0.932548C9.18073 1.2131 9.71845 1.58717 10.1744 2.05476C10.6302 2.52235 10.9809 3.03669 11.2264 3.62118C11.4719 4.19397 11.5888 4.79015 11.5888 5.39801V6.91767H11.5771Z" fill="white"/>
<path d="M17.6324 5.79543C17.6324 5.04729 17.8428 4.49787 18.2519 4.13549C18.6728 3.7848 19.1637 3.60946 19.7248 3.60946C19.8067 3.60946 19.8885 3.60946 19.9703 3.62115L21.2913 0.733794C20.7769 0.581828 20.2626 0.5 19.7365 0.5C19.1053 0.5 18.4857 0.616897 17.8662 0.839001C17.2466 1.06111 16.6855 1.38842 16.1945 1.82094C15.7036 2.25345 15.2944 2.80287 14.9905 3.48087C14.6866 4.14718 14.5346 4.9187 14.5346 5.79543V17.2163C14.5346 18.1047 14.6866 18.8879 14.9905 19.5425C15.1775 19.94 15.388 20.2907 15.6451 20.618L17.6324 16.246V5.79543Z" fill="white"/>
</g>
<defs>
<clipPath id="clip0_1231_112703">
<rect width="50.8385" height="22" fill="white" transform="translate(0.951233 0.5)"/>
</clipPath>
</defs>
</svg>
