<svg width="109" height="25" viewBox="0 0 109 25" fill="none" xmlns="http://www.w3.org/2000/svg">
<g clip-path="url(#clip0_1231_112704)">
<path d="M52.8337 8.53125H58.8337V20.5312H62.8337V8.53125H67.8337L69.8337 4.53125H52.8337V8.53125ZM88.8337 8.53125H82.8337V20.5312H78.8337V8.53125H71.8337L73.8337 4.53125H88.8337V8.53125Z" fill="white"/>
<path d="M37.3427 4.53125H32.8337V20.5317H36.8337V16.5318H44.8337V12.5318H36.8337V8.53175H48.8337V4.53175H37.3377H37.3427V4.53125ZM97.3427 4.53125H92.8337V20.5317H96.8337V16.5318H104.834V12.5318H96.8337V8.53175H108.834V4.53175H97.3377H97.3427V4.53125Z" fill="white"/>
<mask id="mask0_1231_112704" style="mask-type:luminance" maskUnits="userSpaceOnUse" x="0" y="0" width="25" height="25">
<path d="M0.822449 12.5352C0.822449 5.90816 6.19545 0.535156 12.8224 0.535156C19.4494 0.535156 24.8224 5.90816 24.8224 12.5352C24.8224 19.1622 19.4499 24.5352 12.8224 24.5352C6.19495 24.5352 0.822449 19.1627 0.822449 12.5352Z" fill="white"/>
</mask>
<g mask="url(#mask0_1231_112704)">
<path opacity="0.8" fill-rule="evenodd" clip-rule="evenodd" d="M17.2455 -5.44531H8.39998V3.40069H8.44998L0.487981 16.6697H-4.86902V25.5157H3.97698V22.5667H21.6685V25.5157H30.515V16.6697H25.157L17.196 3.40069H17.246L17.2455 -5.44531ZM3.97698 19.6182H21.6685V16.6697H21.7185L13.757 3.40069H11.8885L3.92698 16.6697H3.97698V19.6182ZM11.3485 0.452188V-2.49681H14.297V0.452188H11.3485ZM24.6175 19.6182V22.5667H27.566V19.6182H24.6175ZM-1.92052 22.5667V19.6182H1.02798V22.5667H-1.92052Z" fill="white"/>
<path opacity="0.6" fill-rule="evenodd" clip-rule="evenodd" d="M16.7324 25.6537L24.3929 21.2307L19.9699 13.5697L19.9269 13.5947L20.1869 -1.8773L24.8269 -4.5558L20.4039 -12.2168L12.7429 -7.7938L14.2179 -5.2403L-1.10456 3.6062L-2.57906 1.0527L-10.2396 5.4757L-5.81606 13.1362L-1.17656 10.4572L12.3524 17.9677L12.3094 17.9927L16.7324 25.6537ZM15.6919 -2.6863L0.369937 6.1587L1.84394 8.7127L1.80094 8.7377L15.3299 16.2477L16.9484 15.3137L17.2084 -0.158297L17.1654 -0.133297L15.6914 -2.6868L15.6919 -2.6863ZM18.8909 17.5977L20.3654 20.1512L17.8114 21.6257L16.3374 19.0717L18.8909 17.5977ZM-2.18306 7.6337L-3.65806 5.0802L-6.21106 6.5547L-4.73706 9.1082L-2.18306 7.6337ZM19.3249 -8.1888L20.7989 -5.6353L18.2454 -4.1608L16.7709 -6.7143L19.3249 -8.1888Z" fill="white"/>
<path opacity="0.4" fill-rule="evenodd" clip-rule="evenodd" d="M-2.78839 13.9408L1.63511 21.6007L9.29611 17.1782L9.27111 17.1353L24.7431 17.3953L27.4216 22.0353L35.0826 17.6117L30.6596 9.95125L28.1061 11.4252L19.2591 -3.89625L21.8126 -5.37025L17.3901 -13.0312L9.72911 -8.60825L12.4081 -3.96825L4.89761 9.56075L4.87261 9.51725L-2.78839 13.9408ZM25.5516 12.8997L16.7061 -2.42175L14.1521 -0.94725L14.1271 -0.990749L6.61711 12.5382L7.55111 14.1567L23.0231 14.4172L22.9981 14.3743L25.5516 12.8997ZM5.26761 16.0987L2.71411 17.5732L1.23961 15.0197L3.79311 13.5452L5.26761 16.0987ZM15.2316 -4.97525L17.7851 -6.44975L16.3106 -9.00325L13.7571 -7.52875L15.2316 -4.97525ZM31.0541 16.5327L28.5006 18.0068L27.0261 15.4532L29.5796 13.9792L31.0541 16.5327Z" fill="white"/>
<path opacity="0.2" fill-rule="evenodd" clip-rule="evenodd" d="M1.62727 -1.53525L-2.79523 6.12525L4.86527 10.5483L4.89027 10.5052L12.4008 24.0343L9.72227 28.6742L17.3828 33.0968L21.8058 25.4363L19.2523 23.9618L28.0983 8.64075L30.6518 10.1152L35.0748 2.45425L27.4138 -1.96875L24.7353 2.67125L9.26327 2.93125L9.28827 2.88825L1.62727 -1.53525ZM16.6988 22.4877L25.5448 7.16575L22.9908 5.69175L23.0158 5.64825L7.54427 5.90825L6.60927 7.52725L14.1208 21.0557L14.1458 21.0127L16.6993 22.4872L16.6988 22.4877ZM3.78627 6.52025L1.23227 5.04625L2.70677 2.49275L5.26027 3.96675L3.78627 6.52025ZM27.0188 4.61225L29.5723 6.08675L31.0473 3.53325L28.4933 2.05875L27.0188 4.61225ZM16.3038 29.0688L13.7503 27.5948L15.2243 25.0413L17.7778 26.5152L16.3038 29.0688Z" fill="white"/>
<path d="M0.822449 6.02406V7.32406C7.90095 6.71906 16.3654 5.01756 24.8224 1.00556V0.414062C16.2274 4.34156 8.26295 5.43156 2.42745 5.90556C1.88145 5.95056 1.34745 5.99006 0.822449 6.02406ZM0.822449 12.0566C8.03845 10.3731 16.5909 7.67206 24.8224 3.35656V2.38806C16.4299 6.60206 7.84245 8.94906 0.822449 10.2536V12.0566ZM0.822449 20.5681C7.20095 17.3591 16.0849 12.5091 24.8224 6.46806V4.57306C16.0639 10.0781 7.17945 14.3066 0.822449 17.0431V20.5681ZM6.33295 24.4141H9.40195C13.9469 21.1026 19.3584 16.8871 24.8224 12.0191V11.0591C23.5913 12.063 22.3524 13.0576 21.1059 14.0426C15.8884 18.1726 10.6494 21.7061 6.33295 24.4141ZM0.822449 24.4141H3.05945C9.21745 20.7416 17.0999 15.6416 24.8219 9.52306V8.93306C14.8949 16.2741 6.53195 21.2956 0.822449 24.4016V24.4141Z" fill="white"/>
<path fill-rule="evenodd" clip-rule="evenodd" d="M2.26245 12.5332C2.26245 18.3657 6.99045 23.0932 12.8224 23.0932C18.6544 23.0932 23.3825 18.3657 23.3825 12.5332C23.3825 6.7007 18.6549 1.9732 12.8224 1.9732C6.98995 1.9732 2.26245 6.7012 2.26245 12.5332ZM12.8224 0.533203C6.19545 0.533203 0.822449 5.9062 0.822449 12.5332C0.822449 19.1602 6.19545 24.5332 12.8224 24.5332C19.4494 24.5332 24.8224 19.1607 24.8224 12.5332C24.8224 5.9057 19.4499 0.533203 12.8224 0.533203Z" fill="white"/>
</g>
</g>
<defs>
<clipPath id="clip0_1231_112704">
<rect width="108" height="24" fill="white" transform="translate(0.789734 0.5)"/>
</clipPath>
</defs>
</svg>
