<svg width="175" height="25" viewBox="0 0 175 25" fill="none" xmlns="http://www.w3.org/2000/svg">
<path d="M59.8171 24.3294C58.1098 24.3294 56.5854 23.2928 56.5854 21.4636C56.5854 19.8782 57.9268 18.5367 59.5732 18.5977C59.6342 18.5977 59.6342 18.5977 59.6951 18.5977C60.122 18.5977 60.6098 18.6587 60.9756 18.8416C61.0366 18.8416 61.5854 19.0855 61.6464 19.0855C61.8903 19.0855 62.0732 18.9026 62.0732 18.6587H62.5V20.8538H62.1951C61.9512 19.8172 60.9756 19.0245 59.8781 19.0245C58.4756 19.0245 57.7439 20.1831 57.7439 21.4636C57.7439 22.744 58.4147 23.9026 59.8781 23.9026C61.0366 23.9026 61.7683 23.1709 62.1951 22.1343L62.622 22.3172C62.3171 23.5367 61.0976 24.3904 59.8171 24.3294Z" fill="white"/>
<path d="M68.7805 24.207V23.7802H69.0854C69.2073 23.7802 69.939 23.7802 69.6342 23.1094C69.3293 22.4387 69.2683 22.1948 69.2683 22.1948H66.4634C66.4634 22.1948 66.0976 22.9875 66.0366 23.0484C65.9756 23.1094 65.6707 23.7802 66.4634 23.7802H66.8903V24.207H64.5122V23.7802H64.6342C65 23.7802 65.3049 23.5972 65.4268 23.2314C65.7317 22.6216 67.6829 18.6582 67.6829 18.6582H68.6585C68.6585 18.6582 70.5488 22.8655 70.6098 23.0484C70.7317 23.4753 71.1585 23.7802 71.5854 23.7802V24.207H68.7805ZM67.9268 19.207L66.6464 21.768H69.0854L67.9268 19.207Z" fill="white"/>
<path d="M75.3658 21.768V23.1704C75.3658 23.8411 76.0366 23.7802 76.5244 23.7802V24.207H73.3536V23.7802C74.0244 23.7802 74.5122 23.7802 74.5122 22.9875V19.8777C74.5122 19.0241 74.0244 19.085 73.3536 19.085V18.6582H77.0732C78.1097 18.6582 79.5732 18.9021 79.5732 20.2436C79.5122 22.1338 76.5244 21.768 75.3658 21.768ZM76.6463 19.146C75.9146 19.146 75.3049 19.085 75.3049 19.9387V21.3411H76.7683C77.5 21.3411 78.4146 21.1582 78.4146 20.2436C78.4146 19.268 77.439 19.146 76.6463 19.146Z" fill="white"/>
<path d="M81.2805 24.2066V23.7797C81.8903 23.7797 82.4391 23.8407 82.4391 22.987V19.9383C82.4391 19.3895 82.1951 19.1456 81.6464 19.1456H81.2805V18.7188H84.5122V19.1456H84.0244C83.5366 19.1456 83.3537 19.3895 83.3537 19.8773V22.987C83.3537 23.8407 83.9025 23.7797 84.5122 23.7797V24.2066H81.2805Z" fill="white"/>
<path d="M92.3781 20.609L92.3171 20.0602C92.2561 19.2675 91.7073 19.0846 90.9756 19.0846C90.3659 19.0846 90.122 19.2066 90.122 19.8773V22.9261C90.122 23.8407 90.7317 23.7188 91.4634 23.7188V24.1456H87.9269V23.7797C88.6586 23.7797 89.2683 23.9017 89.2683 22.987V19.8773C89.2683 19.2066 88.9634 19.0846 88.3537 19.0846C87.622 19.0846 87.1342 19.2066 87.0732 20.0602L87.0122 20.609H86.4634V18.7188H92.8659V20.609H92.3781Z" fill="white"/>
<path d="M98.9025 24.207V23.7802H99.2073C99.3293 23.7802 100.061 23.7802 99.7561 23.1094C99.4512 22.4387 99.3903 22.1948 99.3903 22.1948H96.5854C96.5854 22.1948 96.2195 22.9875 96.1585 23.0484C96.0976 23.1704 95.7927 23.7802 96.5854 23.7802H97.0122V24.207H94.6342V23.7802H94.7561C95.122 23.7802 95.4268 23.5972 95.5488 23.2314C95.8537 22.6216 97.8049 18.6582 97.8049 18.6582H98.7805C98.7805 18.6582 100.671 22.8655 100.732 23.0484C100.854 23.4753 101.281 23.7802 101.707 23.7802V24.207H98.9025ZM98.0488 19.207L96.7683 21.768H99.2073L98.0488 19.207Z" fill="white"/>
<path d="M103.415 24.207V23.7802C104.085 23.7802 104.573 23.7802 104.573 22.9875V19.8777C104.573 19.0241 104.085 19.085 103.415 19.085V18.6582H106.646V19.085C105.976 19.085 105.427 19.0241 105.427 19.8777V22.9875C105.427 23.6582 105.732 23.7802 106.341 23.7802H107.378C108.841 23.7802 108.659 23.4753 108.78 22.0728H109.329V24.146L103.415 24.207Z" fill="white"/>
<path d="M0.0609756 11.2205H0.609756C1.09756 11.2814 1.58537 11.1595 2.07317 10.9156C2.31707 10.7327 2.43902 10.2449 2.43902 9.45217V2.74486C2.43902 2.43998 2.31707 2.07412 2.13415 1.76925C1.70732 1.46437 1.09756 1.28144 0.54878 1.34242H0V0.976562H8.29268V1.34242H7.7439C7.31707 1.28144 6.89024 1.34242 6.46341 1.52534C6.15854 1.70827 6.03658 2.25705 6.03658 3.11071V11.2205H7.2561C8.23171 11.2205 9.14634 11.0375 10 10.5497C11.1585 9.81802 12.1341 8.84242 12.9878 7.74485H13.3537V11.5863H0.0609756V11.2205ZM5 1.58632C5.06098 1.52534 5.12195 1.40339 5.18293 1.34242H2.2561C2.43902 1.52534 2.56098 1.70827 2.62195 1.8912H4.87805L5 1.58632ZM2.62195 10.7327L2.5 10.9766L2.2561 11.2205H4.87805V10.6717L2.62195 10.7327ZM2.7439 2.1351L2.80488 2.50095V2.86681H4.87805V2.31803V2.1351H2.7439ZM2.80488 9.75705V10.1839L2.7439 10.4278H4.87805V9.75705H2.80488ZM2.80488 3.04973V3.72046H4.87805V3.04973H2.80488ZM2.80488 4.02534V4.69607H4.87805V4.02534H2.80488ZM2.80488 5.00095V5.67168H4.87805V5.00095H2.80488ZM2.80488 5.91559V6.58632H4.87805V5.91559H2.80488ZM2.80488 6.8912V7.56193H4.87805V6.8912H2.80488ZM2.80488 7.80583V8.47656H4.87805V7.80583H2.80488ZM2.80488 8.78144V9.45217H4.87805V8.78144H2.80488ZM9.93902 10.8546L9.26829 11.1595H12.1951V10.4278H10.6098L9.93902 10.8546ZM12.1341 10.1839V9.02534C11.7683 9.45217 11.3415 9.81803 10.8537 10.1839H12.1341Z" fill="white"/>
<path d="M26.0976 2.19417C27.439 3.16978 28.1707 4.75515 28.1098 6.40149C28.1098 7.25515 27.9268 8.1088 27.561 8.84051C27.1951 9.63319 26.5854 10.2429 25.9146 10.7308C24.8171 11.5234 23.2927 11.8893 21.2805 11.8893C20.3049 11.8893 19.2683 11.7673 18.2927 11.5234C17.439 11.2795 16.7073 10.8527 16.0366 10.3649C14.6951 9.38929 13.9024 7.8649 13.9634 6.21856C13.9634 4.51124 14.8171 2.8649 16.2195 1.95027C17.5 1.03563 19.1464 0.608803 20.7317 0.669779C22.9878 0.669779 24.7561 1.15758 26.0976 2.19417ZM14.3293 5.97466V6.27954V6.64539H16.7683V5.97466H14.3293ZM14.5122 4.99905L14.4512 5.3649L14.3903 5.66978H16.8293L16.9512 4.99905H14.5122ZM14.3903 6.88929L14.4512 7.25514L14.5732 7.621H16.9512L16.8903 7.25514L16.8293 6.88929H14.3903ZM14.8781 4.02344L14.6951 4.38929L14.5732 4.69417H16.9512L17.1342 4.02344H14.8781ZM14.6342 7.8649L14.7561 8.23075L14.939 8.53563H17.1951L17.0732 8.23075L16.9512 7.80393L14.6342 7.8649ZM15.4878 3.1088L15.1829 3.47466L15 3.77954H17.1951L17.5 3.1088H15.4878ZM15.061 8.77954L15.3049 9.14539L15.6098 9.45027H17.561L17.2561 8.77954H15.061ZM16.5244 2.13319L15.7317 2.80393H17.6829L17.8659 2.49905L18.1707 2.07222L16.5244 2.13319ZM15.7927 9.75515L16.2195 10.121L16.6464 10.4259H18.1098L17.6829 9.75515H15.7927ZM18.7195 1.46246L19.0854 1.09661L17.9268 1.34051C17.561 1.46246 17.2561 1.64539 16.9512 1.88929H18.3537L18.7195 1.46246ZM17.0732 10.6698C17.6829 11.0356 18.3537 11.2186 19.0244 11.3405L18.5976 10.9747L18.2927 10.6698H17.0732ZM23.1707 2.43807C22.6829 1.52344 22.0122 1.03563 21.1585 1.03563H20.7927L20.4268 1.09661C20.2439 1.15758 20.122 1.21856 20 1.27953C19.3903 1.76734 18.9634 2.43807 18.7195 3.16978C18.6585 3.41368 18.5976 3.59661 18.5366 3.84051C18.4756 4.08441 18.4146 4.32832 18.4146 4.57222C18.2927 4.8771 18.2927 5.121 18.2317 5.3649C18.1707 5.6088 18.1707 5.91368 18.1707 6.21856L18.2317 7.13319C18.2317 7.25514 18.2317 7.31612 18.2317 7.3771C18.2317 7.43807 18.2927 7.621 18.3537 7.98685L18.5976 8.90149C18.6585 9.08441 18.6585 9.20636 18.7195 9.32832C18.7805 9.51124 18.8415 9.63319 18.9024 9.81612C19.0854 10.3039 19.3293 10.7308 19.7561 11.0356C20.122 11.3405 20.6098 11.4625 21.0976 11.4625C22.0122 11.4625 22.8049 10.9747 23.1707 10.121C23.7195 8.96246 23.9634 7.68197 23.9025 6.40149V6.21856C23.9025 4.93807 23.6585 3.65758 23.1707 2.43807ZM22.5 11.5234C22.6829 11.5234 22.8049 11.5234 22.9878 11.4625C23.1098 11.4015 23.2927 11.3405 23.4146 11.2795C23.5976 11.2186 23.7195 11.0966 23.9025 11.0356C24.0854 10.9137 24.2683 10.7917 24.4512 10.6698H23.2317C23.0488 11.0356 22.8049 11.2795 22.5 11.5234ZM23.9634 1.58441L23.5976 1.40149L22.561 1.09661L22.9268 1.46246L23.1707 1.82832H24.3293L23.9634 1.58441ZM23.3537 2.13319L23.5366 2.49905L23.6585 2.80393H25.3659L25.061 2.43807L24.6951 2.13319H23.3537ZM23.7805 9.69417L23.4756 10.3649H24.8781L25.3049 9.93807L25.5488 9.63319L23.7805 9.69417ZM23.7805 3.04783L23.9634 3.71856H25.9756L25.7927 3.35271L25.6098 3.04783H23.7805ZM24.0244 8.77954L23.9634 9.14539L23.8415 9.45027H25.6707L25.9146 9.08441L26.0976 8.71856H24.0244V8.77954ZM24.0244 4.02344L24.1464 4.69417H26.4024L26.1585 4.02344H24.0244ZM24.2073 7.80393L24.0854 8.53563H26.2195L26.3415 8.16978L26.4634 7.8649L24.2073 7.80393ZM24.2073 4.93807L24.2683 5.6088H26.6464L26.5244 4.93807H24.2073ZM24.2683 6.88929L24.2073 7.56002H26.5244L26.6464 6.88929H24.2683ZM24.2683 5.91368V6.58441H26.7073V6.27954V5.91368H24.2683Z" fill="white"/>
<path d="M45.6707 4.75705C45.8537 4.33022 45.9756 3.90339 45.9756 3.47656C45.9756 2.379 45.1829 1.46437 44.0854 1.40339V0.976562H49.5732V1.34242C49.3293 1.34242 49.0854 1.34242 48.9024 1.40339L48.6585 1.52534C48.5366 1.58632 48.4146 1.64729 48.2927 1.76925C47.8659 2.07412 47.5 2.379 47.1951 2.80583C47.0122 3.04973 46.8293 3.29364 46.7073 3.53754L46.1585 4.51315L42.7439 11.9522H42.439L38.5366 3.96437L34.8781 11.9522H34.6341L30.3049 3.41559L29.8781 2.74486C29.6951 2.31803 29.3902 1.95217 29.0244 1.70827C28.5976 1.46437 28.1707 1.34242 27.6829 1.40339H27.3781V1.03754H35.061V1.40339H34.6951C34.0244 1.40339 33.7195 1.58632 33.7195 1.8912L33.7805 2.1351L33.8415 2.43998L36.4024 7.50095L38.2317 3.47656C38.1098 3.11071 37.9268 2.80583 37.6829 2.50095C37.561 2.31803 37.439 2.1351 37.2561 1.95217C37.0732 1.76925 36.8902 1.64729 36.7073 1.52534C36.5854 1.46437 36.4634 1.46437 36.3415 1.40339L35.8537 1.34242V0.976562H42.9878V1.34242H42.622C42.3781 1.34242 42.0732 1.34242 41.8293 1.46437C41.7073 1.52534 41.5854 1.70827 41.6463 1.83022C41.6463 2.01315 41.7073 2.25705 41.8293 2.43998L44.3293 7.50095L45.6707 4.75705ZM32.561 1.34242H29.0854L29.4512 1.58632L29.6951 1.83022H32.3781C32.3781 1.64729 32.439 1.52534 32.561 1.34242ZM29.939 2.1351L30.122 2.379L30.3049 2.68388L30.3659 2.80583H32.6829L32.561 2.56193C32.5 2.43998 32.439 2.25705 32.439 2.1351H29.939ZM30.4268 3.04973L30.7927 3.72047H33.1098L32.7439 3.04973H30.4268ZM30.9146 4.02534L31.2805 4.69607H33.5976L33.2317 4.02534H30.9146ZM31.4024 5.00095L31.7683 5.67168H34.0244L33.6585 5.00095H31.4024ZM31.8902 5.97656L32.2561 6.64729H34.5732L34.2073 5.97656H31.8902ZM32.3781 6.8912L32.7439 7.56193H35.061L34.6951 6.8912H32.3781ZM32.8659 7.86681L33.2317 8.53754H35.5488L35.1829 7.86681H32.8659ZM33.3537 8.84242L33.7195 9.51315H35.5488L35.7927 9.02534L35.6707 8.78144L33.3537 8.84242ZM33.8415 9.75705L34.2073 10.4278H35.122L35.4268 9.75705H33.8415ZM34.3293 10.7327L34.6951 11.4034L35 10.7327H34.3293ZM40.5488 1.34242H37.0732C37.1951 1.40339 37.3781 1.52534 37.439 1.58632L37.6829 1.83022H40.3659C40.3659 1.64729 40.4268 1.52534 40.5488 1.34242ZM37.9268 2.1351C38.0488 2.31803 38.1707 2.50095 38.2317 2.68388L38.2927 2.80583H40.6098L40.4878 2.56193C40.4268 2.43998 40.3659 2.25705 40.3659 2.1351H37.9268ZM38.4146 3.04973L38.7805 3.72047H41.0976L40.7927 3.04973H38.4146ZM38.9024 4.02534L39.2683 4.69607H41.5854L41.2195 4.02534H38.9024ZM39.3902 5.00095L39.7561 5.67168H42.0732L41.7073 5.00095H39.3902ZM39.8781 5.91559L40.2439 6.58632H42.561L42.1951 5.91559H39.8781ZM40.3659 6.8912L40.7317 7.56193H43.0488L42.6829 6.8912H40.3659ZM40.8537 7.80583L41.2195 8.47656H43.5366L43.1707 7.80583H40.8537ZM41.3415 8.78144L41.7073 9.45217H43.5366L43.7195 8.96437L43.5976 8.72047L41.3415 8.78144ZM41.8902 9.75705L42.2561 10.4278H43.1707L43.4756 9.75705H41.8902ZM42.3781 10.6717L42.7439 11.3424L43.0488 10.6717H42.3781ZM47.3171 1.70827L47.439 1.52534L47.561 1.34242H45.1829L45.4878 1.58632L45.7927 1.83022H47.2561L47.3171 1.70827ZM45.9756 2.1351C46.0976 2.31803 46.2195 2.43998 46.2805 2.68388L46.3415 2.92778L46.4024 3.23266C46.5854 2.86681 46.7683 2.50095 47.0122 2.1351H45.9756Z" fill="white"/>
<path d="M63.2927 4.81803H62.9878C62.6219 4.33022 62.2561 3.90339 61.8293 3.47656C61.4024 3.04973 60.9756 2.6229 60.4878 2.25705C60.1219 1.95217 59.6951 1.70827 59.2683 1.52534C58.8415 1.40339 58.3537 1.34242 57.8658 1.34242H56.2195V5.79364H56.6463C57.1951 5.79364 57.7439 5.67168 58.2317 5.36681C58.7805 5.00095 59.2073 4.51315 59.5122 3.90339H59.878V7.98876H59.5122L59.2683 7.6229L59.0244 7.31803L58.5976 6.8912C58.5366 6.83022 58.4756 6.76924 58.4146 6.70827C58.3537 6.64729 58.2317 6.58632 58.1707 6.52534C57.7439 6.22046 57.1951 6.09851 56.6463 6.09851H56.2195V11.0985H57.8658L58.2927 11.0375C58.4756 11.0375 58.7195 10.9766 58.9024 10.9156C59.0854 10.8546 59.2683 10.7936 59.5122 10.6717C59.939 10.4888 60.3658 10.1839 60.7317 9.879C61.6463 9.20827 62.378 8.41559 63.0488 7.56193H63.4146V11.5863H50.2439V11.2205H50.7927C51.0976 11.2205 51.3415 11.2205 51.6463 11.1595C51.7073 11.1595 51.7683 11.1595 51.8293 11.0985L51.9512 11.0375L52.1951 10.8546C52.3171 10.7327 52.439 10.5497 52.5 10.3668C52.561 10.0619 52.561 9.69607 52.561 9.3912V3.11071C52.561 2.80583 52.561 2.43998 52.5 2.1351C52.439 1.95217 52.378 1.76925 52.1951 1.64729C52.0122 1.52534 51.8902 1.46437 51.6463 1.40339L50.7317 1.34242H50.1829V0.976562H63.2317L63.2927 4.81803ZM55.061 1.34242H52.439C52.6219 1.46437 52.7439 1.64729 52.8049 1.83022H55.061V1.34242ZM52.8049 10.6717L52.6829 10.9766L52.439 11.1595H55.061V10.6107L52.8049 10.6717ZM52.9268 2.07412V2.43998V2.80583H55V2.07412H52.9268ZM52.9878 9.75705V10.1839L52.9268 10.4278H55.061V9.75705H52.9878ZM52.9878 3.04973V3.72046H55.061V3.04973H52.9878ZM52.9878 4.02534V4.69607H55.061V4.02534H52.9878ZM52.9878 5.00095V5.67168H55.061V5.00095H52.9878ZM52.9878 5.91559V6.58632H55.061V5.91559H52.9878ZM52.9878 6.8912V7.56193H55.061V6.8912H52.9878ZM52.9878 7.80583V8.47656H55.061V7.80583H52.9878ZM52.9878 8.78144V9.45217H55.061V8.78144H52.9878ZM58.4756 6.40339L58.8415 6.70827L59.0854 6.95217V6.15949H57.9878L58.4756 6.40339ZM59.0854 5.85461V5.06193L58.7805 5.36681C58.6585 5.48876 58.5366 5.54973 58.4146 5.61071L57.9878 5.85461H59.0854ZM60.1829 10.8546L59.4512 11.1595H62.378V10.5497H60.6097L60.1829 10.8546ZM62.2561 1.34242H59.7561L60.2439 1.58632L60.6707 1.8912H62.2561V1.34242ZM62.378 10.3058V9.02534C62.2561 9.14729 62.0732 9.33022 61.8902 9.51315L61.2805 10.0619L60.9756 10.3058H62.378ZM60.9756 2.19607L61.4024 2.56193C61.5854 2.74486 61.7073 2.86681 61.8902 3.04973L62.2561 3.47656V2.25705L60.9756 2.19607Z" fill="white"/>
<path d="M72.8049 0.976562H74.2073C74.8171 0.976562 75.4269 1.09851 75.9756 1.28144C76.4634 1.46437 76.8903 1.76925 77.1342 2.19607C77.439 2.6229 77.561 3.11071 77.561 3.65949C77.561 5.18388 76.5854 6.15949 74.6951 6.46437L76.5244 9.879C76.7073 10.2449 77.0122 10.6107 77.3171 10.8546C77.5 10.9766 77.6829 11.0375 77.8659 11.0985C78.1098 11.1595 78.3537 11.1595 78.5976 11.1595V11.5253H73.5976L70.8537 6.58632H70V9.45217C70 9.75705 70 10.1229 70.061 10.4278C70.122 10.6107 70.183 10.7936 70.3659 10.9156C70.5488 11.0375 70.6708 11.0985 70.9147 11.1595L71.8293 11.2205H71.9512V11.5863H64.0854V11.2205H64.6342C64.939 11.2205 65.183 11.2205 65.4878 11.1595C65.5488 11.1595 65.6098 11.1595 65.6708 11.0985L65.7927 11.0375L66.0366 10.8546C66.1586 10.7327 66.2805 10.5497 66.3415 10.3668C66.4025 10.0619 66.4025 9.69607 66.4025 9.3912V3.11071C66.4025 2.80583 66.4025 2.43998 66.3415 2.1351C66.2805 1.95217 66.2195 1.76925 66.0366 1.64729C65.8537 1.52534 65.7317 1.46437 65.4878 1.40339H64.6342H64.0854V1.03754L72.8049 0.976562ZM68.9025 1.40339H66.2805C66.4634 1.52534 66.5854 1.70827 66.6464 1.8912H68.9025V1.40339ZM66.6464 10.7327L66.4634 10.9766L66.2195 11.2205H69.1464C69.0854 11.0985 69.0244 11.0375 69.0244 10.9766C68.9634 10.9156 68.9634 10.7936 68.9025 10.6717H66.6464V10.7327ZM66.7073 2.1351L66.7683 2.50095V2.86681H68.8415V2.1351H66.7073ZM66.7683 9.75705V10.1839L66.7073 10.4278H68.9025V10.3058V9.69607L66.7683 9.75705ZM66.7683 3.11071V3.78144H68.8415V3.11071H66.7683ZM66.7683 4.02534V4.69607H68.8415V4.02534H66.7683ZM66.7683 5.00095V5.67168H68.8415V5.00095H66.7683ZM66.7683 5.97656V6.64729H68.8415V5.97656H66.7683ZM66.7683 6.8912V7.56193H68.8415V6.8912H66.7683ZM66.7683 7.86681V8.53754H68.8415V7.86681H66.7683ZM66.7683 8.78144V9.45217H68.8415V8.78144H66.7683ZM71.0366 6.22046C72.6829 6.22046 73.5366 5.42778 73.5366 3.84242C73.5976 3.11071 73.2927 2.379 72.7439 1.8912C72.1951 1.52534 71.5854 1.40339 70.9147 1.46437H70.061V6.28144L71.0366 6.22046ZM73.1098 5.97656L72.8049 6.22046L72.439 6.40339L71.9512 6.52534L71.2805 6.64729L71.3415 6.70827H73.3537L74.2073 6.34242L74.5122 6.22046L74.8171 6.03754L73.1098 5.97656ZM71.5244 6.8912L71.8903 7.56193H73.9025L73.5366 6.8912H71.5244ZM72.0122 7.86681L72.3781 8.53754H74.3293L73.9634 7.86681H72.0122ZM72.561 8.78144L72.9269 9.45217H74.8781L74.5122 8.78144H72.561ZM74.8781 1.70827L74.5122 1.52534L74.1464 1.40339L73.7195 1.34242H73.2317H72.622L72.9269 1.58632L73.2317 1.83022H75.183L74.8781 1.70827ZM73.1098 9.75705L73.4756 10.4278H75.4268L75.061 9.75705H73.1098ZM73.7805 5.00095L73.6586 5.30583L73.4147 5.67168H75.2439C75.4878 5.48876 75.6708 5.24485 75.8537 5.00095H73.7805ZM73.4756 2.1351L73.7195 2.56193L73.8415 2.86681H76.0366L75.8537 2.50095L75.5488 2.1351H73.4756ZM73.5976 10.7327L73.8415 11.2814H75.7927L75.5488 10.7327H73.5976ZM73.9634 4.08632L73.9025 4.45217L73.8415 4.81803H76.0366L76.0976 4.51315L76.1586 4.14729L73.9634 4.08632ZM73.9025 3.11071L73.9634 3.41559L74.0244 3.78144H76.2805V3.35461L76.1586 3.11071H73.9025Z" fill="white"/>
<path d="M91.0976 5.30431L90.8537 5.36529L90.6098 4.87748C90.4878 4.63358 90.3049 4.3287 90.183 4.0848C89.8781 3.597 89.5732 3.10919 89.2073 2.68236C88.7805 2.19456 88.2927 1.8287 87.7439 1.52383C87.5 1.40188 87.1952 1.3409 86.9513 1.21895C86.6464 1.15797 86.3415 1.097 86.0976 1.097C85.3049 1.097 84.6342 1.52383 84.2074 2.43846C83.9634 2.92627 83.7805 3.47505 83.6586 4.0848C83.5366 4.81651 83.4756 5.54822 83.4756 6.27992C83.4756 6.95066 83.5366 7.62139 83.5976 8.23114C83.6586 8.53602 83.7195 8.77992 83.7805 9.0848C83.8415 9.38968 83.9634 9.63358 84.0244 9.87749C84.3293 10.7921 85.183 11.4019 86.0976 11.4019C87.1342 11.4019 88.1098 11.097 88.9025 10.4872C89.8171 9.81651 90.5488 8.90188 90.9756 7.92627L91.2805 8.10919C91.2195 8.23114 91.1586 8.35309 91.1586 8.47505C91.0976 8.65797 90.9756 8.77992 90.9147 8.90188L90.3659 9.69456C90.183 9.93846 90 10.1214 89.8171 10.3653C89.6342 10.5482 89.3903 10.7311 89.2073 10.9141C88.1098 11.6458 86.8293 12.0116 85.5488 12.0116C83.9025 12.0726 82.3171 11.4629 81.0976 10.3653C78.8415 8.29212 78.6586 4.81651 80.7317 2.56041C80.7927 2.49944 80.9147 2.37748 80.9756 2.31651C82.1952 1.21895 83.7195 0.670168 85.3659 0.731143C85.8537 0.731143 86.2805 0.792119 86.7683 0.91407C87.2561 1.03602 87.683 1.21895 88.1098 1.46285L88.6586 1.70675L89.0854 1.76773C89.6952 1.76773 90.2439 1.46285 90.6708 1.03602H90.9756L91.0976 5.30431ZM79.6951 5.97505V6.27992V6.64578H82.0122V6.40188V5.97505H79.6951ZM79.8171 4.99944L79.6951 5.67017H82.0122L82.1342 4.99944H79.8171ZM79.6951 6.88968L79.7561 7.37749L79.8171 7.62139H82.0122L81.9512 6.95066L79.6951 6.88968ZM80.122 4.02383L80 4.38968L79.8781 4.75553H82.1342L82.3171 4.0848L80.122 4.02383ZM79.9391 7.86529L80.061 8.23114L80.2439 8.53602H82.2561L82.1952 8.23114L82.1342 7.86529H79.9391ZM80.6708 3.10919L80.4269 3.47505L80.2439 3.77992H82.3781L82.5 3.41407L82.683 3.10919H80.6708ZM80.3659 8.77992L80.6098 9.20675L80.8537 9.45066H82.622L82.3781 8.77992H80.3659ZM81.5854 2.13358L81.2195 2.49944L80.9147 2.86529H82.8049L83.2317 2.19456L81.5854 2.13358ZM81.0366 9.75553L81.4025 10.1214L81.8293 10.4263H83.1098L82.9269 10.1214L82.683 9.75553H81.0366ZM83.7805 1.46285L84.2074 1.03602L83.5976 1.097L83.2927 1.15797L82.8049 1.3409L82.4391 1.52383L81.9512 1.8287H83.4147L83.7805 1.46285ZM82.1952 10.6702C82.683 10.975 83.2927 11.2189 83.9025 11.3409L83.5366 10.975L83.2927 10.6702H82.1952ZM89.9391 1.70675L89.7561 1.8287L89.5122 1.88968L88.9634 1.95066L89.2073 2.13358H90L89.9391 1.70675ZM89.4512 2.37748L89.8171 2.86529L90.061 3.17017L90 2.37748H89.4512Z" fill="white"/>
<path d="M95.5488 8.65925C95.4878 8.84218 95.4268 9.0251 95.4268 9.26901C95.4268 9.63486 95.4878 10.0007 95.6707 10.3056C95.8537 10.6105 96.0976 10.8544 96.4634 11.0373L96.7683 11.2202C96.8903 11.2812 97.0732 11.2812 97.1951 11.2812H97.622V11.5861H91.8903V11.2202C92.5 11.2202 93.0488 10.9763 93.4756 10.5495C94.0854 9.93974 94.5732 9.20803 94.939 8.47632L99.3903 0.732422H99.7561L104.695 9.57388L105.183 10.3666C105.244 10.4275 105.305 10.5495 105.427 10.6105C105.488 10.6714 105.61 10.7934 105.671 10.8544C106.098 11.1592 106.524 11.2812 107.012 11.2202H107.256V11.5861H98.9634V11.2202H99.7561C100 11.2202 100.244 11.1593 100.488 11.0373C100.671 10.9153 100.793 10.7324 100.793 10.4885C100.793 10.3056 100.732 10.0617 100.61 9.87876L99.939 8.59828L95.5488 8.65925ZM93.4756 10.9763L93.1708 11.1592H94.939L94.6951 10.6105H93.9025L93.4756 10.9763ZM94.6342 10.1836L94.6951 9.69584L94.3903 10.0617L94.2683 10.1836L94.0854 10.3666H94.6342V10.1836ZM97.6829 4.57389L95.6707 8.23242H99.6951L97.6829 4.57389ZM97.8659 4.20803L98.1707 4.75681H100.549L100.183 4.08608H97.9268L97.8659 4.20803ZM98.1098 3.7812H100L99.6342 3.11047H98.4756L98.1098 3.7812ZM98.6586 5.67145H101.037L100.671 5.00071H98.2927L98.6586 5.67145ZM98.6586 2.80559H99.5122L99.0854 2.07389L98.6586 2.80559ZM99.2073 6.64706H101.646L101.22 5.97632H98.8415L99.2073 6.64706ZM99.6951 7.56169H102.134L101.768 6.89096H99.3903L99.6951 7.56169ZM100.244 8.5373H102.683L102.317 7.86657H99.8781L100.244 8.5373ZM100.793 9.45193H103.232L102.866 8.7812H100.427L100.793 9.45193ZM100.854 11.2202H104.146L103.841 10.6714H101.098C101.098 10.8544 101.037 11.0373 100.854 11.2202ZM100.976 9.87876C101.037 9.93974 101.037 10.0617 101.098 10.1836C101.098 10.2446 101.159 10.3666 101.159 10.4885H103.72L103.354 9.81779H100.915L100.976 9.87876Z" fill="white"/>
<path d="M116.585 0.976562H117.988C118.598 0.976562 119.207 1.09851 119.756 1.28144C120.244 1.46437 120.671 1.76925 120.915 2.19607C121.22 2.6229 121.341 3.11071 121.341 3.65949C121.341 5.18388 120.366 6.15949 118.476 6.46437L120.305 9.879C120.488 10.2449 120.793 10.6107 121.098 10.8546C121.28 10.9766 121.463 11.0375 121.646 11.0985C121.89 11.1595 122.134 11.1595 122.378 11.1595V11.5253H117.378L114.634 6.58632H113.78V9.45217C113.78 9.75705 113.78 10.1229 113.841 10.4278C113.902 10.6107 113.963 10.7936 114.146 10.9156C114.329 11.0375 114.451 11.0985 114.695 11.1595L115.61 11.2205H115.732V11.5863H107.927V11.2205H108.476C108.78 11.2205 109.085 11.2205 109.329 11.1595C109.39 11.1595 109.451 11.1595 109.512 11.0985L109.634 11.0375L109.878 10.8546C110 10.7327 110.122 10.5497 110.183 10.3668C110.244 10.0619 110.244 9.69607 110.244 9.3912V3.11071C110.244 2.80583 110.244 2.43998 110.183 2.1351C110.122 1.95217 110.061 1.76925 109.878 1.64729C109.695 1.52534 109.573 1.46437 109.329 1.40339L108.415 1.34242H107.927V1.03754L116.585 0.976562ZM112.683 1.40339H110.061C110.244 1.52534 110.366 1.70827 110.427 1.8912H112.683V1.40339ZM110.427 10.7327L110.244 11.0375L110 11.2814H112.988C112.927 11.1595 112.866 11.0985 112.866 11.0375C112.805 10.9766 112.805 10.8546 112.744 10.7327H110.427ZM110.549 2.1351L110.61 2.50095V2.86681H112.683V2.1351H110.549ZM110.61 9.75705V10.1839L110.549 10.4278H112.744V10.3058V9.69607L110.61 9.75705ZM110.61 3.11071V3.78144H112.683V3.11071H110.61ZM110.61 4.02534V4.69607H112.683V4.02534H110.61ZM110.61 5.00095V5.67168H112.683V5.00095H110.61ZM110.61 5.97656V6.64729H112.683V5.97656H110.61ZM110.61 6.8912V7.56193H112.683V6.8912H110.61ZM110.61 7.86681V8.53754H112.683V7.86681H110.61ZM110.61 8.78144V9.45217H112.683V8.78144H110.61ZM114.817 6.22046C116.463 6.22046 117.317 5.42778 117.317 3.84242C117.378 3.11071 117.073 2.379 116.524 1.8912C115.976 1.52534 115.366 1.40339 114.695 1.46437H113.841V6.28144L114.817 6.22046ZM116.951 5.97656L116.646 6.22046L116.28 6.40339L115.793 6.52534L115.122 6.64729L115.183 6.70827H117.195L118.049 6.34242L118.354 6.22046L118.659 6.03754L116.951 5.97656ZM115.305 6.8912L115.671 7.56193H117.683L117.317 6.8912H115.305ZM115.854 7.86681L116.22 8.53754H118.232L117.866 7.86681H115.854ZM116.341 8.78144L116.707 9.45217H118.659L118.293 8.78144H116.341ZM118.72 1.70827L118.293 1.52534L117.927 1.40339L117.5 1.34242H117.073H116.463L116.768 1.58632L117.073 1.83022H119.024L118.72 1.70827ZM116.89 9.75705L117.256 10.4278H119.207L118.841 9.75705H116.89ZM117.561 5.00095L117.439 5.30583L117.195 5.67168H119.024C119.268 5.48876 119.512 5.24485 119.695 5.00095H117.561ZM117.256 2.1351L117.5 2.56193L117.622 2.86681H119.817L119.634 2.43998L119.329 2.07412L117.256 2.1351ZM117.439 10.6717L117.683 11.2205H119.634L119.39 10.6717H117.439ZM117.744 4.02534L117.683 4.3912L117.622 4.75705H119.756L119.817 4.45217L119.878 4.08632L117.744 4.02534ZM117.683 3.04973L117.744 3.35461L117.805 3.72046H120.061V3.35461L119.939 3.04973H117.683Z" fill="white"/>
<path d="M136.646 8.90296C136.646 9.69565 136.22 10.4883 135.549 10.9152C135.183 11.1591 134.756 11.342 134.268 11.4639C133.537 11.5859 132.866 11.6469 132.134 11.5859H123.049V11.22H123.598C123.902 11.22 124.146 11.22 124.451 11.1591C124.512 11.1591 124.573 11.1591 124.634 11.0981L124.756 11.0371L125 10.8542C125.122 10.7322 125.244 10.5493 125.305 10.3664C125.366 10.0615 125.366 9.69565 125.366 9.39077V3.17126C125.366 2.86638 125.366 2.50052 125.305 2.19565C125.244 2.01272 125.183 1.82979 125 1.70784C124.817 1.58589 124.695 1.52491 124.451 1.46394L123.537 1.40296H122.988V1.03711H131.829L133.11 1.09808L133.659 1.15906L134.207 1.34199C134.817 1.52491 135.366 1.82979 135.793 2.3176C136.159 2.74443 136.341 3.29321 136.341 3.90296C136.341 4.45174 136.22 4.93955 135.915 5.36638C135.488 5.85418 135 6.15906 134.39 6.40296C135.854 6.76882 136.646 7.62248 136.646 8.90296ZM127.866 1.34199H125.244C125.427 1.46394 125.549 1.64687 125.61 1.82979H127.866V1.34199ZM125.61 10.6713L125.427 10.9761L125.183 11.22H127.805V10.6713H125.61ZM125.671 2.13467L125.732 2.50052V2.86638H127.805V2.13467H125.671ZM125.732 9.75662V10.1835L125.671 10.4274H127.805V9.75662H125.732ZM125.732 3.0493V3.72004H127.805V3.0493H125.732ZM125.732 4.02491V4.69565H127.805V4.02491H125.732ZM125.732 5.00052V5.67126H127.805V5.00052H125.732ZM125.732 5.91516V6.58589H127.805V5.91516H125.732ZM125.732 6.89077V7.5615H127.805V6.89077H125.732ZM125.732 7.8054V8.47613H127.805V7.8054H125.732ZM125.732 8.78101V9.45174H127.805V8.78101H125.732ZM129.878 6.09808H130.488L131.037 6.03711C131.28 5.97613 131.524 5.85418 131.707 5.73223C132.256 5.36638 132.5 4.69565 132.5 3.72004C132.561 2.98833 132.256 2.25662 131.707 1.82979C131.463 1.70784 131.22 1.58589 130.976 1.52491C130.549 1.46394 130.122 1.40296 129.695 1.40296H129.024V6.09808H129.878ZM130.122 11.1591H130.61C130.793 11.1591 130.915 11.1591 131.098 11.0981C131.341 11.0371 131.524 10.9152 131.707 10.7932C132.256 10.4274 132.561 9.75662 132.561 8.72004C132.622 7.92735 132.317 7.19565 131.707 6.76882C131.524 6.64687 131.341 6.52491 131.098 6.52491L130.549 6.46394H129.695H129.024V11.22L130.122 11.1591ZM131.768 6.09808L131.341 6.28101L131.707 6.46394L132.012 6.64686H133.537L132.805 6.40296L132.073 6.28101C132.317 6.28101 132.5 6.22004 132.744 6.15906C132.988 6.09808 133.232 6.03711 133.476 5.91516H132.012L131.768 6.09808ZM131.951 1.58589C132.073 1.64687 132.134 1.70784 132.256 1.82979H133.963C133.72 1.64687 133.415 1.52491 133.11 1.46394L132.561 1.40296L131.89 1.34199H131.646L131.951 1.58589ZM132.134 10.9152L131.829 11.1591H132.073C132.5 11.1591 132.927 11.1591 133.354 11.0371C133.659 10.9761 134.024 10.7932 134.268 10.6713H132.378L132.134 10.9152ZM132.5 5.36638L132.256 5.67126H134.024L134.329 5.48833C134.451 5.36638 134.573 5.18345 134.695 5.00052H132.683C132.622 5.12247 132.561 5.24443 132.5 5.36638ZM132.744 7.5615H134.878C134.695 7.25662 134.39 7.01272 134.085 6.89077H132.317C132.5 7.07369 132.622 7.3176 132.744 7.5615ZM132.805 2.8054H134.756L134.573 2.43955C134.512 2.3176 134.39 2.19565 134.329 2.13467H132.5C132.561 2.3176 132.683 2.5615 132.805 2.8054ZM132.744 10.0615L132.561 10.4274H134.573C134.817 10.2444 134.939 10.0005 135.122 9.75662H132.866L132.744 10.0615ZM132.866 4.32979L132.744 4.69565H134.817C134.878 4.45174 134.939 4.26882 135 4.02491H132.866V4.32979ZM132.866 3.41516V3.78101H135V3.41516L134.878 3.0493H132.805L132.866 3.41516ZM132.866 8.0493L132.927 8.47613H135.183L135.122 8.11028L135 7.8054H132.805L132.866 8.0493ZM132.988 9.14686L132.927 9.45174H135.183L135.244 9.14686V8.84199V8.72004H132.988V9.14686Z" fill="white"/>
<path d="M149.451 2.19521C150.793 3.17082 151.524 4.75619 151.463 6.40253C151.463 7.25619 151.28 8.10985 150.915 8.84156C150.549 9.63424 149.939 10.244 149.268 10.7318C148.171 11.5245 146.585 11.8903 144.634 11.8903C143.659 11.8903 142.622 11.7684 141.646 11.5245C140.793 11.2806 140.061 10.8538 139.39 10.3659C138.049 9.39034 137.256 7.86595 137.317 6.2196C137.317 4.51229 138.171 2.86595 139.573 1.95131C140.915 1.03668 142.561 0.548872 144.146 0.670824C146.341 0.670824 148.11 1.15863 149.451 2.19521ZM137.683 5.9757V6.28058V6.64643H140.122V5.9757H137.683ZM137.866 5.00009L137.805 5.36595L137.744 5.67082H140.183L140.305 5.00009H137.866ZM137.744 6.89034L137.805 7.25619L137.927 7.62204H140.305L140.244 7.25619L140.183 6.89034H137.744ZM138.232 4.02448L138.049 4.39034L137.927 4.69521H140.305L140.488 4.02448H138.232ZM137.988 7.86595L138.11 8.2318L138.293 8.53668H140.549L140.427 8.29278L140.305 7.86595H137.988ZM138.902 3.10985L138.598 3.4757L138.415 3.78058H140.61L140.915 3.10985H138.902ZM138.415 8.78058L138.659 9.14643L138.963 9.45131H140.915L140.61 8.78058H138.415ZM139.878 2.13424L139.085 2.80497H141.037L141.22 2.50009L141.524 2.07326L139.878 2.13424ZM139.146 9.75619L139.573 10.122L140 10.4269H141.463L141.037 9.75619H139.146ZM142.073 1.46351L142.439 1.09765L141.28 1.34156C140.915 1.46351 140.61 1.64643 140.305 1.89034H141.707L142.073 1.46351ZM140.427 10.6708C141.037 10.9757 141.707 11.2196 142.378 11.3416L141.951 10.9757L141.646 10.6708H140.427ZM146.463 2.43912C145.976 1.52448 145.305 1.03668 144.451 1.03668H144.085L143.72 1.09765C143.537 1.15863 143.415 1.2196 143.293 1.28058C142.683 1.76838 142.256 2.43912 142.012 3.17082C141.951 3.41473 141.89 3.59765 141.829 3.84156C141.768 4.08546 141.707 4.32936 141.707 4.57326C141.646 4.87814 141.646 5.12204 141.585 5.36595C141.524 5.60985 141.524 5.91473 141.524 6.2196L141.585 7.13424C141.585 7.25619 141.585 7.31717 141.585 7.37814C141.585 7.43912 141.646 7.62204 141.707 7.9879L141.951 8.90253C142.012 9.08546 142.012 9.20741 142.073 9.32936C142.134 9.51229 142.195 9.63424 142.256 9.81717C142.439 10.305 142.683 10.7318 143.11 11.0367C143.476 11.3416 143.963 11.4635 144.451 11.4635C145.305 11.4635 146.159 10.9757 146.524 10.122C147.073 8.96351 147.317 7.68302 147.256 6.40253V6.2196C147.256 4.93912 147.012 3.65863 146.463 2.43912ZM145.854 11.5245C146.037 11.5245 146.159 11.5245 146.341 11.4635C146.463 11.4025 146.646 11.3416 146.768 11.2806C146.951 11.2196 147.134 11.0977 147.256 11.0367C147.439 10.9147 147.622 10.7928 147.805 10.6708H146.585C146.402 11.0367 146.159 11.2806 145.854 11.5245ZM147.256 1.58546L146.89 1.40253L145.915 1.09765L146.28 1.46351L146.524 1.82936H147.683L147.256 1.58546ZM146.707 2.13424L146.89 2.50009L147.012 2.80497H148.72L148.415 2.43912L148.049 2.13424H146.707ZM147.073 9.69521L146.768 10.3659H148.171L148.598 9.93912L148.841 9.63424L147.073 9.69521ZM147.134 3.04887L147.317 3.7196H149.39L149.207 3.35375L148.963 3.04887H147.134ZM147.378 8.78058L147.317 9.14643L147.195 9.45131H149.024L149.268 9.08546L149.451 8.7196H147.378V8.78058ZM147.378 4.02448L147.5 4.69521H149.756L149.512 4.02448H147.378ZM147.561 7.80497L147.439 8.4757H149.634L149.756 8.10985L149.878 7.80497H147.561ZM147.561 4.93912L147.622 5.60985H150L149.878 5.00009L147.561 4.93912ZM147.622 6.89034L147.561 7.56107H149.878L150 6.89034H147.622ZM147.622 5.91473V6.58546H150.061V6.28058V5.91473H147.622Z" fill="white"/>
<path d="M164.39 6.83022V4.20827C164.39 2.31803 163.598 1.34242 162.073 1.34242V0.976562H167.378V1.34242L166.707 1.40339C166.646 1.40339 166.585 1.40339 166.524 1.46437L166.22 1.58632C165.305 2.01315 164.878 2.86681 164.878 4.20827V11.8912H164.512L155.122 2.98876V8.35461C155.122 10.2449 155.915 11.2205 157.439 11.2205V11.5863H152.134V11.2205C153.841 11.2205 154.634 10.2449 154.634 8.35461V2.6229L154.268 2.25705L154.024 2.07412L153.72 1.83022L153.415 1.58632L153.049 1.40339L152.683 1.34242L152.256 1.28144H152.195V0.976562H158.232L164.39 6.83022ZM156.829 1.34242H153.537L153.841 1.52534L154.268 1.83022H157.317L156.829 1.34242ZM153.841 11.0375L153.598 11.2205H155.183L154.939 10.8546H154.085L153.841 11.0375ZM154.817 10.5497L154.756 10.2449L154.695 9.93998L154.573 10.2449L154.329 10.5497H154.817ZM154.634 2.1351L155 2.43998L155.427 2.80583H158.415L157.683 2.1351H154.634ZM155.671 3.04973L156.402 3.72047H159.39L158.659 3.04973H155.671ZM156.707 4.02534L157.439 4.69607H160.427L159.695 4.02534H156.707ZM157.683 5.00095L158.415 5.67168H161.402L160.61 5.00095H157.683ZM158.72 5.91559L159.451 6.58632H162.439L161.646 5.91559H158.72ZM159.756 6.8912L160.488 7.56193H163.476L162.744 6.8912H159.756ZM160.732 7.80583L161.463 8.47656H164.451L163.72 7.80583H160.732ZM161.768 8.78144L162.5 9.45217H164.573V8.78144H161.768ZM162.744 9.75705L163.476 10.4278H164.512V9.75705H162.744ZM164.817 1.70827C164.878 1.64729 164.878 1.58632 164.939 1.52534C165 1.46437 165 1.40339 165.061 1.40339H163.476L163.902 1.70827H164.817ZM163.72 10.7327L164.512 11.4644V10.7327H163.72ZM164.512 2.56193L164.573 2.31803L164.695 2.01315H164.207L164.512 2.56193Z" fill="white"/>
<path d="M168.789 13.7949V10.5456H167.575V10.1108H170.495V10.5456H169.276V13.7949H168.789ZM170.983 13.7949V10.1108H171.717L172.589 12.7193C172.669 12.9623 172.728 13.144 172.764 13.2647C172.806 13.1306 172.872 12.9338 172.96 12.6741L173.843 10.1108H174.498V13.7949H174.029V10.7114L172.958 13.7949H172.518L171.453 10.6587V13.7949H170.983Z" fill="white"/>
</svg>
