<svg width="230" height="130" viewBox="0 0 230 130" fill="none" xmlns="http://www.w3.org/2000/svg">
<path d="M112.012 79.4033C111.942 79.482 111.864 79.5574 111.798 79.641C110.58 81.1545 109.362 82.6695 108.143 84.1846C108.123 84.2108 108.103 84.2371 108.083 84.2633C107.875 84.5158 107.837 84.5175 107.638 84.2682C106.659 83.0434 105.68 81.8185 104.701 80.5937C104.411 80.2313 104.121 79.869 103.831 79.5082C103.804 79.4738 103.771 79.4443 103.742 79.4148C103.644 79.4508 103.683 79.5279 103.683 79.582C103.68 80.2379 103.681 80.8938 103.683 81.5496C103.683 83.7239 103.683 85.8981 103.683 88.0739C103.683 88.1723 103.685 88.2707 103.683 88.3691C103.673 88.6445 103.636 88.679 103.339 88.6888C103.306 88.6888 103.272 88.6888 103.238 88.6888C102.261 88.6888 101.283 88.6888 100.306 88.6888C100.227 88.6888 100.148 88.6888 100.07 88.6806C99.9287 88.6642 99.8798 88.615 99.868 88.4675C99.8613 88.3806 99.863 88.292 99.863 88.2051C99.863 83.5386 99.863 78.8737 99.863 74.2071C99.863 74.0973 99.8663 73.989 99.8748 73.8808C99.8815 73.7923 99.9422 73.7431 100.028 73.7316C100.106 73.7201 100.185 73.7169 100.262 73.7169C101.251 73.7169 102.239 73.7218 103.228 73.7119C103.466 73.7103 103.624 73.789 103.766 73.9743C104.416 74.8236 105.077 75.6664 105.735 76.5109C106.374 77.3291 107.013 78.1456 107.651 78.9638C107.692 79.0163 107.731 79.0704 107.776 79.1196C107.854 79.2065 107.921 79.2082 107.997 79.1131C108.297 78.7458 108.595 78.3752 108.892 78.0046C109.97 76.6617 111.047 75.3172 112.125 73.9726C112.167 73.9218 112.208 73.8694 112.252 73.8202C112.306 73.7595 112.375 73.7251 112.457 73.7218C112.547 73.7169 112.638 73.7152 112.727 73.7152C113.615 73.7152 114.501 73.7152 115.389 73.7152C115.878 73.7152 115.88 73.7169 115.88 74.1858C115.88 77.88 115.88 81.5726 115.88 85.2668C115.88 86.2391 115.88 87.2115 115.88 88.1838C115.88 88.2937 115.88 88.4019 115.868 88.5117C115.858 88.6167 115.804 88.6642 115.694 88.679C115.617 88.6888 115.538 88.6905 115.458 88.6905C114.469 88.6905 113.482 88.6921 112.493 88.6905C112.081 88.6905 112.066 88.6741 112.066 88.2559C112.066 85.5898 112.066 82.9237 112.066 80.2576C112.066 80.028 112.066 79.7984 112.066 79.5689C112.066 79.5181 112.086 79.459 112.012 79.4082V79.4033Z" fill="#212121"/>
<path d="M118.153 63.1349C118.112 63.1496 118.109 63.1841 118.109 63.2152C118.107 63.3251 118.105 63.4333 118.105 63.5432C118.105 66.2847 118.105 69.0279 118.105 71.7695C118.105 71.8891 118.109 72.0105 118.1 72.1302C118.089 72.3122 118.046 72.3499 117.849 72.363C117.794 72.3663 117.736 72.3663 117.681 72.3663C116.693 72.3663 115.704 72.3663 114.717 72.3663C114.296 72.3663 114.285 72.3548 114.285 71.9416C114.285 68.6852 114.285 65.4304 114.285 62.174C114.285 60.7426 114.285 59.3111 114.285 57.8797C114.285 57.7715 114.29 57.6616 114.299 57.5534C114.304 57.4796 114.354 57.4321 114.425 57.4173C114.501 57.4025 114.58 57.3927 114.658 57.3927C115.657 57.3927 116.656 57.396 117.656 57.3878C117.897 57.3861 118.052 57.4845 118.19 57.6649C118.891 58.5733 119.597 59.4784 120.303 60.3835C120.906 61.1574 121.513 61.9313 122.118 62.7053C122.158 62.7577 122.202 62.8086 122.247 62.8561C122.283 62.8922 122.328 62.9004 122.367 62.8643C122.407 62.8266 122.441 62.7823 122.477 62.7397C123.223 61.81 123.97 60.8803 124.714 59.949C125.323 59.1914 125.934 58.4372 126.534 57.6731C126.693 57.4714 126.873 57.3845 127.134 57.3878C128.044 57.3976 128.954 57.3911 129.862 57.3911C130.77 57.3911 129.93 57.3911 129.963 57.3911C130.268 57.4025 130.3 57.4353 130.307 57.7436C130.307 57.8092 130.307 57.8748 130.307 57.9404C130.307 62.5626 130.307 67.1833 130.307 71.8055C130.307 71.9252 130.309 72.0466 130.299 72.1663C130.289 72.2958 130.24 72.3433 130.113 72.3565C130.024 72.3663 129.935 72.3663 129.844 72.3663C128.878 72.3663 127.913 72.3663 126.947 72.3663C126.858 72.3663 126.767 72.3663 126.677 72.3548C126.571 72.3433 126.519 72.2925 126.507 72.1843C126.495 72.0646 126.494 71.9449 126.494 71.8252C126.494 69.0509 126.494 66.2749 126.494 63.5005C126.494 63.4021 126.494 63.3038 126.489 63.2054C126.489 63.1742 126.482 63.13 126.44 63.1316C126.411 63.1316 126.376 63.1529 126.357 63.1759C126.084 63.5087 125.81 63.8416 125.54 64.1761C124.566 65.3894 123.594 66.6061 122.62 67.8195C122.551 67.9047 122.48 67.99 122.404 68.0703C122.315 68.1654 122.246 68.1621 122.15 68.0638C122.111 68.0244 122.077 67.9801 122.042 67.9375C121.134 66.7979 120.225 65.6583 119.315 64.5204C118.972 64.0892 118.623 63.6596 118.277 63.23C118.244 63.189 118.218 63.1365 118.154 63.1332L118.153 63.1349Z" fill="#212121"/>
<path d="M82.1929 66.1705C82.1979 66.0163 82.203 65.8999 82.203 65.7819C82.203 63.16 82.203 60.5382 82.203 57.9163C82.203 57.7966 82.208 57.6769 82.2148 57.5572C82.2198 57.4834 82.267 57.4342 82.3395 57.4211C82.4153 57.4064 82.4945 57.3965 82.572 57.3965C83.5595 57.3949 84.5486 57.3932 85.536 57.3965C85.8849 57.3965 85.9219 57.4392 85.932 57.772C85.932 57.8261 85.932 57.8819 85.932 57.936C85.932 62.5681 85.932 67.2002 85.932 71.8323C85.932 71.9422 85.9337 72.052 85.9219 72.1602C85.9068 72.3045 85.8528 72.3521 85.7096 72.3652C85.6321 72.3718 85.5529 72.3701 85.4737 72.3701C84.4862 72.3701 83.4971 72.3701 82.5097 72.3701C82.4423 72.3701 82.3748 72.3668 82.3074 72.3668C82.1979 72.3668 82.1137 72.3226 82.0513 72.234C82.0008 72.1619 81.9485 72.0914 81.8997 72.0176C80.4876 69.927 79.0772 67.8364 77.6651 65.7442C77.1478 64.9768 76.6304 64.2094 76.1114 63.4437C76.0811 63.3978 76.0491 63.3535 76.0154 63.3092C75.9952 63.2813 75.9648 63.2551 75.9345 63.2764C75.9126 63.2928 75.8991 63.3289 75.8958 63.3584C75.889 63.401 75.8907 63.4453 75.8907 63.4896C75.8907 63.5765 75.8907 63.665 75.8907 63.7519C75.8907 66.4279 75.8907 69.1055 75.8907 71.7815C75.8907 71.9012 75.8941 72.0225 75.8823 72.1422C75.8671 72.3078 75.8166 72.3537 75.6531 72.3652C75.552 72.3718 75.4509 72.3701 75.3498 72.3701C74.4516 72.3701 73.5535 72.3701 72.6554 72.3701C72.1397 72.3668 72.1111 72.4078 72.1111 71.8503C72.1128 69.3482 72.1111 66.846 72.1111 64.3455C72.1111 62.2156 72.1111 60.0856 72.1111 57.954C72.1111 57.8343 72.1111 57.713 72.1229 57.5933C72.1347 57.4769 72.1953 57.4211 72.3183 57.4047C72.4077 57.3932 72.497 57.3916 72.5863 57.3916C73.6529 57.3916 74.7196 57.3916 75.7862 57.3916C75.8536 57.3916 75.921 57.3949 75.9884 57.3965C76.1216 57.3998 76.226 57.4555 76.2985 57.5638C76.3726 57.6736 76.4434 57.7851 76.5175 57.8933C77.6802 59.6068 78.8446 61.3203 80.0073 63.0338C80.6628 63.9995 81.3166 64.9669 81.9738 65.9327C82.0227 66.0049 82.0581 66.0885 82.1878 66.1672L82.1929 66.1705Z" fill="#212121"/>
<path d="M96.6007 49.8415C96.653 49.7152 96.6344 49.607 96.6344 49.5021C96.6344 48.5298 96.6344 47.5574 96.6344 46.5851C96.6344 44.9356 96.6344 43.286 96.6344 41.6365C96.6344 41.5168 96.6378 41.3955 96.6479 41.2774C96.6547 41.1922 96.7103 41.1364 96.7979 41.1266C96.8872 41.1167 96.9765 41.1135 97.0658 41.1135C98.0196 41.1135 98.975 41.1135 99.9287 41.1135C100.353 41.1135 100.369 41.1282 100.369 41.5332C100.369 42.986 100.369 44.4387 100.369 45.8915C100.369 49.0922 100.369 52.2928 100.369 55.4935C100.369 55.6247 100.367 55.7558 100.357 55.887C100.35 55.9854 100.286 56.0477 100.185 56.0608C100.097 56.0739 100.006 56.0805 99.9169 56.0805C98.9295 56.0805 97.9404 56.0805 96.9529 56.0805C96.9192 56.0805 96.8855 56.0789 96.8518 56.0805C96.6648 56.0903 96.5367 56.0133 96.4356 55.8591C96.1761 55.4623 95.9031 55.0754 95.6386 54.6818C94.9123 53.6046 94.1877 52.5257 93.4614 51.4484C92.5195 50.0514 91.5758 48.6544 90.6339 47.2574C90.5598 47.1491 90.4822 47.0426 90.4132 46.9458C90.3306 46.9442 90.3289 46.9917 90.3272 47.0327C90.3238 47.1524 90.3238 47.2738 90.3238 47.3935C90.3238 50.0809 90.3238 52.7683 90.3238 55.4558C90.3238 55.587 90.3255 55.7181 90.3154 55.8493C90.3036 56.0051 90.2497 56.0543 90.0829 56.0756C90.0273 56.0821 89.9717 56.0838 89.9144 56.0838C88.937 56.0838 87.9614 56.0838 86.984 56.0838C86.9385 56.0838 86.8947 56.0838 86.8492 56.0805C86.6386 56.0625 86.5948 56.0198 86.583 55.8214C86.5779 55.7345 86.5796 55.646 86.5796 55.5591C86.5796 50.9155 86.5796 46.2736 86.5796 41.63C86.5796 41.5201 86.5796 41.4119 86.5897 41.302C86.6015 41.1774 86.6521 41.1331 86.7852 41.1217C86.8627 41.1135 86.9419 41.1151 87.0211 41.1151C88.0995 41.1151 89.1763 41.1151 90.2548 41.1151C90.3003 41.1151 90.3441 41.1184 90.3896 41.1151C90.5648 41.1003 90.6861 41.1758 90.7805 41.3184C90.981 41.6218 91.19 41.9202 91.3939 42.2203C91.987 43.0958 92.5802 43.9714 93.1733 44.847C94.2298 46.4064 95.2847 47.9673 96.3429 49.5267C96.4137 49.6316 96.471 49.7497 96.5974 49.8431L96.6007 49.8415Z" fill="#212121"/>
<path d="M144.3 64.871C144.3 62.5656 144.3 60.2619 144.3 57.9565C144.3 57.8253 144.306 57.6941 144.32 57.5646C144.328 57.481 144.386 57.4252 144.473 57.4137C144.562 57.4023 144.652 57.3957 144.741 57.3957C146.942 57.3957 149.142 57.3891 151.343 57.399C152.294 57.4039 153.22 57.5515 154.103 57.9138C155.022 58.291 155.804 58.8403 156.398 59.6273C156.818 60.1832 157.088 60.8046 157.224 61.4752C157.377 62.2328 157.379 62.9969 157.206 63.7528C156.907 65.0514 156.166 66.0581 155.039 66.7993C154.755 66.9846 154.754 66.9813 154.907 67.2551C155.433 68.1963 155.957 69.1358 156.481 70.077C156.845 70.7296 157.207 71.3838 157.571 72.0364C157.598 72.084 157.627 72.1315 157.649 72.1824C157.694 72.2857 157.652 72.3529 157.537 72.3627C157.46 72.3693 157.381 72.3693 157.302 72.3693C156.146 72.3693 154.988 72.3693 153.832 72.3693C153.439 72.3693 153.436 72.3693 153.266 72.0332C152.976 71.4658 152.695 70.8952 152.406 70.3262C152.039 69.6015 151.668 68.8784 151.299 68.1537C151.279 68.1143 151.257 68.0766 151.235 68.0389C151.188 67.9553 151.114 67.911 151.016 67.9094C150.87 67.9077 150.725 67.9061 150.578 67.9061C149.961 67.9061 149.343 67.9061 148.726 67.9061C148.647 67.9061 148.57 67.9044 148.49 67.9061C148.256 67.9143 148.224 67.9438 148.219 68.1799C148.214 68.5177 148.217 68.8571 148.217 69.1965C148.217 70.0918 148.217 70.9887 148.217 71.8839C148.217 72.366 148.216 72.366 147.705 72.3677C146.751 72.3677 145.796 72.3677 144.842 72.3677C144.335 72.3677 144.296 72.4185 144.296 71.8495C144.298 69.5228 144.296 67.1961 144.296 64.8694L144.3 64.871ZM148.219 62.6738C148.219 63.1641 148.219 63.656 148.219 64.1463C148.219 64.2332 148.217 64.3217 148.224 64.4086C148.234 64.5365 148.283 64.5808 148.413 64.5955C148.447 64.5988 148.48 64.6005 148.514 64.6005C149.444 64.5988 150.376 64.5988 151.306 64.5939C151.566 64.5939 151.82 64.5398 152.063 64.4529C152.371 64.343 152.647 64.1856 152.865 63.9348C153.342 63.3855 153.416 62.7525 153.266 62.0852C153.126 61.4687 152.705 61.085 152.096 60.8833C151.785 60.78 151.465 60.7423 151.136 60.7423C150.295 60.7423 149.454 60.7423 148.613 60.7423C148.546 60.7423 148.479 60.7423 148.411 60.7489C148.285 60.7636 148.236 60.8112 148.224 60.9391C148.216 61.026 148.219 61.1129 148.219 61.2014C148.219 61.6917 148.219 62.1836 148.219 62.6738Z" fill="#212121"/>
<path d="M127.155 48.5866C127.155 46.2813 127.155 43.9775 127.155 41.6721C127.155 41.5524 127.154 41.4311 127.162 41.3114C127.172 41.1818 127.219 41.1343 127.347 41.1212C127.425 41.113 127.504 41.113 127.583 41.113C129.885 41.113 132.185 41.1064 134.487 41.1195C135.655 41.1261 136.752 41.4179 137.754 42.0082C138.926 42.6969 139.702 43.6873 140.019 44.9793C140.415 46.5994 140.125 48.1013 139.069 49.4376C138.73 49.8656 138.317 50.2181 137.849 50.5067C137.589 50.6674 137.598 50.6707 137.733 50.9101C138.289 51.9086 138.841 52.9089 139.397 53.9074C139.728 54.5026 140.063 55.0962 140.392 55.693C140.577 56.0292 140.547 56.0784 140.149 56.08C138.993 56.0833 137.837 56.08 136.679 56.08C136.657 56.08 136.634 56.08 136.612 56.08C136.384 56.0915 136.24 55.9997 136.138 55.7914C135.845 55.1897 135.534 54.5961 135.229 53.9992C134.875 53.304 134.519 52.6104 134.165 51.9152C134.145 51.8759 134.121 51.8381 134.105 51.7971C134.047 51.6594 133.951 51.6069 133.791 51.6086C133.107 51.6184 132.421 51.6168 131.737 51.6168C131.569 51.6168 131.4 51.6053 131.233 51.602C131.102 51.5987 131.051 51.6496 131.056 51.7808C131.061 51.9332 131.078 52.0857 131.078 52.2382C131.08 53.3303 131.078 54.4223 131.078 55.5143C131.078 55.634 131.075 55.7553 131.058 55.8734C131.041 55.998 130.987 56.0472 130.864 56.0636C130.787 56.0751 130.707 56.0767 130.63 56.0767C129.619 56.0767 128.61 56.0767 127.599 56.0767C127.565 56.0767 127.531 56.0767 127.497 56.0767C127.191 56.0636 127.155 56.0341 127.154 55.7258C127.15 55.147 127.154 54.5682 127.154 53.9894C127.154 52.1874 127.154 50.3854 127.154 48.5834L127.155 48.5866ZM132.782 48.2866C133.129 48.2866 133.478 48.2882 133.825 48.2866C134.003 48.2866 134.184 48.2849 134.362 48.2653C134.77 48.221 135.153 48.0997 135.475 47.8422C136.258 47.2192 136.381 46.0697 135.894 45.2827C135.614 44.8318 135.173 44.6104 134.659 44.5071C134.396 44.4546 134.128 44.4235 133.857 44.4251C133.038 44.4284 132.219 44.4251 131.4 44.4235C131.344 44.4235 131.287 44.4235 131.232 44.4284C131.1 44.4415 131.051 44.4907 131.055 44.6186C131.06 44.8252 131.077 45.0318 131.078 45.2401C131.082 45.7861 131.078 46.3321 131.078 46.8765C131.078 47.1273 131.082 47.3782 131.051 47.6291C131.038 47.7471 131.041 47.8685 131.044 47.9882C131.051 48.2456 131.087 48.2784 131.365 48.2882C131.432 48.2899 131.499 48.2882 131.567 48.2882C131.971 48.2882 132.374 48.2882 132.778 48.2882L132.782 48.2866Z" fill="#212121"/>
<path d="M99.8607 64.8797C99.8607 62.5629 99.8607 60.246 99.8607 57.9291C99.8607 57.8094 99.864 57.6881 99.8708 57.5684C99.8758 57.4815 99.9314 57.4257 100.017 57.411C100.105 57.3962 100.196 57.3913 100.285 57.3913C101.308 57.3913 102.329 57.3896 103.352 57.3913C103.76 57.3913 103.792 57.4224 103.794 57.8225C103.795 59.3851 103.794 60.9478 103.794 62.5104C103.794 62.6301 103.797 62.7514 103.809 62.8695C103.817 62.9547 103.874 63.0088 103.962 63.0203C104.04 63.0318 104.119 63.0351 104.196 63.0351C105.656 63.0351 107.117 63.0367 108.576 63.0351C108.948 63.0351 108.965 63.0154 108.965 62.635C108.965 61.0724 108.965 59.5098 108.965 57.9471C108.965 57.8373 108.963 57.7291 108.97 57.6192C108.98 57.4618 109.032 57.4126 109.201 57.3962C109.268 57.3896 109.336 57.3896 109.403 57.3896C110.426 57.3896 111.447 57.3896 112.47 57.3896C112.881 57.3896 112.903 57.4126 112.903 57.8209C112.903 60.9789 112.903 64.1369 112.903 67.295C112.903 68.792 112.903 70.289 112.903 71.7861C112.903 71.8845 112.906 71.9828 112.9 72.0812C112.886 72.3108 112.847 72.3501 112.622 72.3616C112.566 72.3649 112.509 72.3632 112.453 72.3632C111.442 72.3632 110.431 72.3632 109.42 72.3632C109.331 72.3632 109.24 72.3632 109.15 72.3534C109.039 72.3419 108.987 72.2927 108.977 72.1878C108.965 72.0796 108.965 71.9697 108.965 71.8599C108.965 70.2972 108.965 68.7346 108.965 67.172C108.965 67.0736 108.967 66.9752 108.962 66.8769C108.952 66.6932 108.911 66.6555 108.714 66.644C108.647 66.6407 108.579 66.6424 108.512 66.6424C107.096 66.6424 105.681 66.6424 104.265 66.6424C103.795 66.6424 103.792 66.644 103.792 67.0949C103.792 68.6789 103.792 70.2644 103.792 71.8484C103.792 71.9681 103.787 72.0894 103.772 72.2075C103.762 72.2895 103.704 72.3452 103.615 72.3534C103.526 72.36 103.436 72.3632 103.345 72.3632C102.334 72.3632 101.323 72.3632 100.312 72.3632C100.211 72.3632 100.11 72.3583 100.011 72.3468C99.9382 72.3386 99.8859 72.2895 99.8775 72.2173C99.8657 72.1091 99.8607 71.9992 99.8607 71.891C99.8607 70.7219 99.8607 69.5528 99.8607 68.3837C99.8607 67.2146 99.8607 66.0455 99.8607 64.8764V64.8797Z" fill="#212121"/>
<path d="M87.2826 64.885C87.2826 62.5796 87.2826 60.2742 87.2826 57.9671C87.2826 57.836 87.2876 57.7048 87.2994 57.5752C87.3078 57.4752 87.3752 57.4178 87.4763 57.4064C87.5656 57.3965 87.655 57.3916 87.7443 57.3916C91.17 57.3916 94.5958 57.3916 98.0215 57.3916C98.1108 57.3916 98.2018 57.3965 98.2894 57.408C98.3905 57.4211 98.4512 57.4818 98.463 57.5802C98.4731 57.6671 98.4765 57.754 98.4765 57.8409C98.4765 58.6722 98.4765 59.5019 98.4765 60.3332C98.4765 60.7759 98.4529 60.8005 98.0047 60.8005C96.05 60.8005 94.0953 60.8005 92.1423 60.8005C91.9064 60.8005 91.6705 60.7972 91.4346 60.8071C91.2677 60.8136 91.2172 60.8645 91.2121 61.0317C91.2054 61.3154 91.2088 61.6007 91.2071 61.8843C91.2071 62.2238 91.2037 62.5615 91.2105 62.9009C91.2138 63.1075 91.2543 63.142 91.4733 63.1502C91.5744 63.1551 91.6755 63.1518 91.7766 63.1518C93.8206 63.1518 95.8646 63.1518 97.9086 63.1518C98.0215 63.1518 98.1344 63.1502 98.2456 63.1584C98.404 63.1698 98.4563 63.2256 98.4714 63.3863C98.4765 63.4404 98.4765 63.4961 98.4765 63.5503C98.4765 64.4144 98.4765 65.2768 98.4765 66.141C98.4765 66.1951 98.4765 66.2508 98.4697 66.3049C98.4512 66.4673 98.4023 66.5148 98.2372 66.5263C98.126 66.5328 98.0131 66.5312 97.9002 66.5312C95.8343 66.5312 93.7667 66.5312 91.7008 66.5312C91.5879 66.5312 91.4767 66.5312 91.3638 66.541C91.2711 66.5492 91.2256 66.5984 91.2138 66.6886C91.2071 66.7542 91.2054 66.8198 91.2054 66.8854C91.2054 67.4642 91.2054 68.043 91.2054 68.6234C91.2054 68.6448 91.2054 68.6677 91.2054 68.689C91.2138 68.9596 91.2357 68.9825 91.5205 68.9891C91.6772 68.9924 91.8356 68.9891 91.9923 68.9891C93.9571 68.9891 95.9236 68.9891 97.8884 68.9891C98.0013 68.9891 98.1125 68.9858 98.2254 68.994C98.4057 69.0055 98.4546 69.0563 98.4697 69.24C98.4748 69.3055 98.4731 69.3711 98.4731 69.4367C98.4731 70.268 98.4731 71.0977 98.4731 71.929C98.4731 71.9405 98.4731 71.9504 98.4731 71.9618C98.4664 72.3455 98.4478 72.3685 98.0502 72.3685C95.0962 72.3685 92.1423 72.3685 89.1884 72.3685C88.6711 72.3685 88.1554 72.3701 87.6381 72.3685C87.3213 72.3668 87.2893 72.3324 87.2775 72.034C87.2741 71.9471 87.2775 71.8585 87.2775 71.7716C87.2775 69.4761 87.2775 67.1822 87.2775 64.8866L87.2826 64.885Z" fill="#212121"/>
<path d="M131.686 64.8687C131.686 62.5518 131.686 60.2366 131.686 57.9197C131.686 57.8099 131.686 57.7016 131.694 57.5918C131.704 57.4721 131.762 57.4163 131.886 57.4016C131.976 57.3917 132.065 57.3917 132.156 57.3917C132.56 57.3917 132.965 57.3917 133.369 57.3917C136.333 57.3917 139.297 57.3917 142.263 57.3917C142.386 57.3917 142.511 57.3901 142.634 57.3983C142.802 57.4114 142.854 57.4606 142.875 57.6164C142.883 57.6803 142.883 57.7475 142.883 57.8131C142.883 58.6658 142.885 59.5168 142.883 60.3694C142.883 60.7695 142.851 60.8006 142.443 60.8006C140.355 60.8023 138.266 60.8006 136.178 60.8006C136.065 60.8006 135.954 60.799 135.841 60.8072C135.678 60.8203 135.634 60.8695 135.619 61.0351C135.619 61.0466 135.617 61.0564 135.617 61.0679C135.617 61.6795 135.617 62.2911 135.617 62.9027C135.617 62.9355 135.622 62.9683 135.627 63.0011C135.642 63.088 135.698 63.1355 135.787 63.1421C135.888 63.1487 135.989 63.1503 136.091 63.1503C138.145 63.1503 140.2 63.1503 142.254 63.1503C142.378 63.1503 142.502 63.147 142.625 63.1552C142.806 63.1667 142.858 63.2192 142.876 63.3979C142.885 63.4733 142.883 63.5504 142.883 63.6275C142.883 64.4473 142.885 65.2655 142.883 66.0853C142.883 66.5149 142.868 66.5264 142.43 66.5264C140.318 66.5264 138.207 66.5264 136.097 66.5264C135.984 66.5264 135.873 66.5281 135.76 66.5379C135.686 66.5445 135.641 66.5953 135.627 66.6658C135.619 66.7199 135.614 66.774 135.614 66.8281C135.614 67.4397 135.614 68.0513 135.614 68.6629C135.614 68.717 135.617 68.7728 135.625 68.8269C135.637 68.9138 135.691 68.9663 135.78 68.9728C135.892 68.981 136.005 68.9827 136.117 68.9827C138.183 68.9827 140.249 68.9827 142.315 68.9827C142.438 68.9827 142.563 68.9827 142.686 68.9941C142.792 69.004 142.846 69.0548 142.864 69.1597C142.88 69.245 142.885 69.3336 142.885 69.4205C142.885 70.2616 142.888 71.1028 142.885 71.9439C142.885 72.3457 142.864 72.3621 142.44 72.3621C139.016 72.3621 135.59 72.3621 132.166 72.3621C131.696 72.3621 131.691 72.3588 131.691 71.9095C131.691 69.5598 131.691 67.2118 131.691 64.8621L131.686 64.8687Z" fill="#212121"/>
<path d="M114.62 48.6017C114.62 46.2848 114.62 43.9696 114.62 41.6527C114.62 41.533 114.62 41.4117 114.63 41.292C114.64 41.1838 114.691 41.1346 114.798 41.1231C114.888 41.1133 114.977 41.1133 115.068 41.1133C118.482 41.1133 121.896 41.1133 125.31 41.1133C125.77 41.1133 125.778 41.1231 125.78 41.5724C125.78 42.4021 125.78 43.2334 125.78 44.0631C125.78 44.473 125.761 44.491 125.347 44.491C123.247 44.491 121.148 44.491 119.046 44.491C118.923 44.491 118.799 44.491 118.676 44.4992C118.563 44.5074 118.521 44.555 118.509 44.6681C118.502 44.7337 118.502 44.7993 118.502 44.8649C118.502 45.3896 118.502 45.9143 118.502 46.4373C118.502 46.4816 118.502 46.5242 118.502 46.5685C118.512 46.7899 118.549 46.8243 118.789 46.8341C118.89 46.8374 118.991 46.8358 119.092 46.8358C121.136 46.8358 123.18 46.8358 125.224 46.8358C125.347 46.8358 125.472 46.8374 125.593 46.8505C125.704 46.862 125.755 46.9161 125.768 47.0178C125.778 47.1047 125.778 47.1916 125.778 47.2801C125.778 48.1213 125.778 48.9624 125.778 49.8036C125.778 50.2332 125.763 50.2496 125.328 50.2496C123.229 50.2496 121.129 50.2496 119.028 50.2496C118.915 50.2496 118.804 50.2496 118.691 50.2578C118.563 50.2676 118.517 50.3185 118.506 50.448C118.5 50.5021 118.5 50.5579 118.5 50.612C118.5 51.1793 118.5 51.7483 118.5 52.3156C118.5 52.3697 118.5 52.4255 118.506 52.4796C118.519 52.6058 118.566 52.655 118.696 52.6649C118.807 52.6747 118.92 52.6731 119.033 52.6731C121.065 52.6731 123.097 52.6731 125.131 52.6731C125.244 52.6731 125.355 52.6698 125.468 52.6763C125.714 52.6911 125.763 52.7386 125.777 52.9698C125.78 53.0141 125.778 53.0567 125.778 53.101C125.778 53.9536 125.778 54.8046 125.778 55.6573C125.778 56.036 125.741 56.0688 125.359 56.077C125.303 56.077 125.246 56.077 125.19 56.077C121.855 56.077 118.521 56.077 115.184 56.077C115.061 56.077 114.937 56.077 114.815 56.0639C114.685 56.0492 114.637 55.9983 114.627 55.8737C114.618 55.7655 114.62 55.6556 114.62 55.5458C114.62 53.2289 114.62 50.9137 114.62 48.5968V48.6017Z" fill="#212121"/>
<path d="M81.7194 49.761C81.812 49.861 81.9233 49.8889 82.021 49.9331C82.5535 50.1791 83.0388 50.4923 83.46 50.8907C84.1863 51.5777 84.6598 52.4123 84.9362 53.3535C85.167 54.1373 85.2243 54.9424 85.2024 55.7557C85.2024 55.7999 85.199 55.8426 85.1923 55.8868C85.1788 55.9836 85.1215 56.0475 85.0204 56.0623C84.9311 56.0738 84.8418 56.0803 84.7525 56.0803C83.7195 56.0803 82.6866 56.0836 81.652 56.0803C81.2425 56.0803 81.2138 56.0459 81.2088 55.6507C81.2054 55.4326 81.2172 55.2129 81.1987 54.9948C81.1313 54.2078 80.7943 53.57 80.0815 53.1535C79.7782 52.9764 79.4462 52.8797 79.0991 52.8305C79.0435 52.8223 78.9862 52.8206 78.9306 52.8223C78.8025 52.8255 78.7452 52.8731 78.7317 52.9977C78.7216 53.0945 78.7233 53.1945 78.7233 53.2929C78.7233 54.0897 78.7233 54.8883 78.7233 55.6852C78.7233 55.7622 78.7233 55.8376 78.7233 55.9147C78.7132 56.241 78.6626 56.2951 78.3189 56.2787C77.232 56.2246 76.1788 56.0328 75.1981 55.5507C74.0405 54.9817 73.203 54.1143 72.679 52.9633C72.3756 52.2976 72.2206 51.5974 72.1583 50.8727C72.1145 50.3808 72.1111 49.8905 72.1111 49.4002C72.1111 46.821 72.1111 44.2418 72.1111 41.6642C72.1111 41.533 72.1145 41.4019 72.1296 41.2723C72.1397 41.1887 72.1953 41.1313 72.2863 41.1248C72.3638 41.1182 72.443 41.1133 72.5222 41.1133C73.5788 41.1133 74.6336 41.1133 75.6902 41.1133C75.7576 41.1133 75.825 41.1133 75.8924 41.1182C76.0373 41.1313 76.0879 41.1789 76.0996 41.3264C76.1098 41.4461 76.1081 41.5658 76.1081 41.6872C76.1081 44.5058 76.1081 47.326 76.1081 50.1447C76.1081 50.4972 76.1435 50.8432 76.2564 51.1777C76.5327 51.9893 77.1326 52.4484 77.9616 52.6517C78.1032 52.6862 78.2481 52.7042 78.393 52.7173C78.5683 52.7321 78.6205 52.6845 78.6323 52.5222C78.6374 52.4353 78.6357 52.3468 78.6357 52.2599C78.6357 51.4072 78.6357 50.5546 78.6357 49.7036C78.6357 49.6052 78.6407 49.5068 78.6508 49.4101C78.6593 49.3379 78.7098 49.2887 78.7806 49.2773C78.8682 49.2641 78.9592 49.2592 79.0485 49.2609C79.6113 49.2773 80.1657 49.3576 80.7134 49.4839C80.8111 49.5068 80.9088 49.5347 81.0083 49.5527C81.1363 49.5773 81.1953 49.5314 81.2054 49.397C81.2138 49.2887 81.2121 49.1789 81.2121 49.069C81.2121 46.5997 81.2121 44.1303 81.2121 41.6609C81.2121 41.5298 81.2172 41.3986 81.2324 41.2691C81.2425 41.1871 81.2998 41.1313 81.3891 41.1231C81.4666 41.1166 81.5458 41.1133 81.625 41.1133C82.6815 41.1133 83.7364 41.1133 84.7929 41.1133C84.8148 41.1133 84.8384 41.1133 84.8603 41.1133C85.1687 41.1215 85.1973 41.1494 85.2058 41.4609C85.2075 41.5265 85.2058 41.5921 85.2058 41.6577C85.2058 44.1598 85.2058 46.662 85.2058 49.1641C85.2058 49.2838 85.2041 49.4052 85.194 49.5249C85.1855 49.6232 85.1266 49.6888 85.0255 49.7003C84.9143 49.7134 84.8014 49.72 84.6901 49.72C83.8139 49.72 82.9377 49.72 82.0614 49.7216C81.9553 49.7216 81.8441 49.6987 81.721 49.761H81.7194Z" fill="#212121"/>
<path d="M98.4785 78.6381C98.4785 80.0466 98.4785 81.4568 98.4785 82.8652C98.4785 83.5129 98.396 84.1508 98.2174 84.7755C97.9326 85.7642 97.4254 86.6283 96.6502 87.3317C95.9543 87.9647 95.1219 88.3582 94.2103 88.6025C93.1352 88.8911 92.0449 88.9468 90.9395 88.8337C90.2082 88.7599 89.5022 88.5959 88.8248 88.3188C87.6317 87.8286 86.7285 87.03 86.127 85.9101C85.7209 85.1526 85.5136 84.3442 85.4395 83.4965C85.4007 83.0489 85.3973 82.6029 85.3973 82.1553C85.3973 79.5547 85.3973 76.9558 85.3973 74.3553C85.3973 74.2356 85.394 74.1142 85.4024 73.9946C85.4176 73.7732 85.4664 73.7256 85.6855 73.7125C85.7529 73.7076 85.8203 73.7092 85.8877 73.7092C86.8987 73.7092 87.9081 73.7092 88.9191 73.7092C89.3724 73.7092 89.3825 73.7191 89.3825 74.1766C89.3825 76.9739 89.3825 79.7695 89.3825 82.5668C89.3825 82.9505 89.3994 83.3293 89.5022 83.7031C89.6707 84.3065 90.0431 84.7492 90.5958 85.0559C90.803 85.1706 91.0288 85.2362 91.2631 85.2739C91.7214 85.3494 92.1797 85.3608 92.6347 85.2608C93.6997 85.0263 94.3855 84.2655 94.4799 83.1555C94.495 82.9702 94.4917 82.7849 94.4917 82.598C94.4917 79.8236 94.4917 77.0476 94.4917 74.2733C94.4917 74.1536 94.49 74.0323 94.5001 73.9126C94.5119 73.7748 94.5709 73.7256 94.7175 73.7142C94.795 73.7076 94.8742 73.7092 94.9534 73.7092C95.9745 73.7092 96.9974 73.7092 98.0185 73.7092C98.1078 73.7092 98.1988 73.7092 98.2881 73.7191C98.396 73.7322 98.4533 73.7814 98.4651 73.8863C98.4768 73.9946 98.4785 74.1044 98.4785 74.2126C98.4785 75.6867 98.4785 77.1624 98.4785 78.6365V78.6381Z" fill="#212121"/>
<path d="M76.2821 82.8433C76.2821 81.0725 76.2821 79.3032 76.2821 77.5324C76.2821 77.2307 76.1282 77.0798 75.8204 77.0798C74.742 77.0798 73.6635 77.0798 72.5868 77.0798C72.1251 77.0798 72.1133 77.0683 72.1133 76.6207C72.1133 75.8009 72.1133 74.981 72.1133 74.1628C72.1133 73.7283 72.1284 73.7119 72.5598 73.7119C76.2316 73.7119 79.905 73.7119 83.5768 73.7119C83.6661 73.7119 83.7571 73.7136 83.8464 73.7218C83.9475 73.73 84.0133 73.7873 84.0284 73.8857C84.0419 73.971 84.0486 74.0595 84.0486 74.1464C84.0486 74.9761 84.0486 75.8074 84.0486 76.6371C84.0486 76.6584 84.0486 76.6814 84.0486 76.7027C84.0368 77.0339 83.9981 77.0765 83.651 77.0782C82.618 77.0815 81.5851 77.0782 80.5521 77.0798C80.451 77.0798 80.3499 77.0782 80.2488 77.0798C79.9809 77.088 79.9489 77.1192 79.9404 77.393C79.9371 77.4914 79.9404 77.5898 79.9404 77.6881C79.9404 81.1512 79.9404 84.6158 79.9404 88.0788C79.9404 88.21 79.9404 88.3412 79.9286 88.4723C79.9135 88.6117 79.8545 88.6626 79.7129 88.679C79.6455 88.6855 79.5781 88.6855 79.5107 88.6855C78.5789 88.6855 77.6471 88.6855 76.7152 88.6855C76.3057 88.6855 76.2872 88.6658 76.2872 88.2526C76.2872 86.449 76.2872 84.647 76.2872 82.8433H76.2821Z" fill="#212121"/>
<path d="M107.496 41.1115C109.293 41.1115 111.089 41.1115 112.887 41.1115C113 41.1115 113.111 41.1098 113.224 41.118C113.369 41.1279 113.418 41.1787 113.433 41.3246C113.441 41.4 113.44 41.4771 113.44 41.5542C113.44 42.374 113.44 43.1922 113.44 44.0121C113.44 44.4564 113.416 44.481 112.969 44.481C111.925 44.4827 110.882 44.481 109.837 44.481C109.5 44.481 109.331 44.6417 109.33 44.9631C109.33 48.4589 109.33 51.9547 109.33 55.4521C109.33 55.5833 109.331 55.7145 109.323 55.8457C109.311 56.0014 109.256 56.0523 109.09 56.0719C109.013 56.0818 108.934 56.0818 108.855 56.0818C107.956 56.0818 107.058 56.0818 106.16 56.0818C106.059 56.0818 105.958 56.0752 105.858 56.0637C105.756 56.0523 105.697 55.985 105.69 55.8883C105.68 55.7571 105.678 55.6259 105.678 55.4948C105.678 52.0088 105.678 48.5245 105.678 45.0385C105.678 44.9188 105.68 44.7975 105.67 44.6778C105.66 44.5532 105.606 44.5023 105.479 44.4909C105.378 44.481 105.277 44.4827 105.176 44.4827C104.121 44.4827 103.065 44.4827 102.01 44.4827C101.899 44.4827 101.786 44.4777 101.674 44.4646C101.604 44.4548 101.556 44.4056 101.55 44.3302C101.546 44.2761 101.545 44.2203 101.545 44.1662C101.545 43.2922 101.545 42.4183 101.545 41.5443C101.545 41.1197 101.55 41.1147 102.005 41.1147C103.835 41.1147 105.665 41.1147 107.496 41.1147V41.1115Z" fill="#212121"/>
</svg>
