<svg width="427" height="427" viewBox="0 0 427 427" fill="none" xmlns="http://www.w3.org/2000/svg">
<path d="M104.308 230.875H87.433V306.812C87.3711 310.154 87.9836 313.473 89.2338 316.572C90.484 319.671 92.3462 322.486 94.7091 324.849C97.072 327.212 99.8871 329.074 102.986 330.324C106.085 331.574 109.404 332.187 112.745 332.125" stroke="white" stroke-width="16" stroke-miterlimit="10" stroke-linecap="round" stroke-linejoin="round"/>
<path d="M138.062 95.875V306.812C138.123 310.154 137.511 313.473 136.261 316.572C135.011 319.671 133.148 322.486 130.785 324.849C128.423 327.212 125.607 329.074 122.508 330.324C119.409 331.574 116.09 332.187 112.749 332.125H306.812C310.153 332.187 313.472 331.574 316.571 330.324C319.67 329.074 322.485 327.212 324.848 324.849C327.211 322.486 329.073 319.671 330.323 316.572C331.573 313.473 332.186 310.154 332.124 306.812V95.875H138.062Z" stroke="white" stroke-width="16" stroke-miterlimit="10" stroke-linecap="round" stroke-linejoin="round"/>
<path d="M289.937 138.062H180.249V197.125H289.937V138.062Z" stroke="white" stroke-width="16" stroke-miterlimit="10" stroke-linecap="round" stroke-linejoin="round"/>
<path d="M289.937 281.5H180.249" stroke="white" stroke-width="16" stroke-miterlimit="10" stroke-linecap="round" stroke-linejoin="round"/>
<path d="M289.937 239.312H180.249" stroke="white" stroke-width="16" stroke-miterlimit="10" stroke-linecap="round" stroke-linejoin="round"/>
</svg>
