<svg width="270" height="270" viewBox="0 0 270 270" fill="none" xmlns="http://www.w3.org/2000/svg">
<path d="M25.308 151.875H8.43297V227.812C8.37114 231.154 8.98363 234.473 10.2338 237.572C11.484 240.671 13.3462 243.486 15.7091 245.849C18.072 248.212 20.8871 250.074 23.9861 251.324C27.0851 252.574 30.4044 253.187 33.7455 253.125" stroke="white" stroke-width="16" stroke-miterlimit="10" stroke-linecap="round" stroke-linejoin="round"/>
<path d="M59.0615 16.875V227.812C59.1233 231.154 58.5109 234.473 57.2607 237.572C56.0105 240.671 54.1483 243.486 51.7854 245.849C49.4225 248.212 46.6074 250.074 43.5084 251.324C40.4094 252.574 37.0901 253.187 33.749 253.125H227.812C231.153 253.187 234.472 252.574 237.571 251.324C240.67 250.074 243.485 248.212 245.848 245.849C248.211 243.486 250.073 240.671 251.323 237.572C252.573 234.473 253.186 231.154 253.124 227.812V16.875H59.0615Z" stroke="white" stroke-width="16" stroke-miterlimit="10" stroke-linecap="round" stroke-linejoin="round"/>
<path d="M210.937 59.0625H101.249V118.125H210.937V59.0625Z" stroke="white" stroke-width="16" stroke-miterlimit="10" stroke-linecap="round" stroke-linejoin="round"/>
<path d="M210.937 202.5H101.249" stroke="white" stroke-width="16" stroke-miterlimit="10" stroke-linecap="round" stroke-linejoin="round"/>
<path d="M210.937 160.312H101.249" stroke="white" stroke-width="16" stroke-miterlimit="10" stroke-linecap="round" stroke-linejoin="round"/>
</svg>