<svg width="427" height="427" viewBox="0 0 427 427" fill="none" xmlns="http://www.w3.org/2000/svg">
<path d="M305.999 297.145C269.63 298.238 229.18 280.673 197.257 250.791C190.042 292.772 199.225 324.695 223.349 339.49C249.587 355.597 287.778 348.673 318.462 322.217C329.977 311.94 339.671 299.987 347.397 286.65C335.152 293.136 321.231 296.707 305.999 297.145Z" fill="white"/>
<path d="M183.482 236.287C172.185 223.241 162.783 208.883 155.641 193.65C149.737 181.041 146.603 171.566 146.093 164.424C145.875 164.424 145.583 164.424 145.364 164.424C100.833 164.424 81.0086 220.544 77.2915 232.424C77.1458 232.715 77.0729 233.007 77 233.298L78.3848 241.826C91.5766 309.826 151.705 359.386 221.309 359.386C223.058 359.386 224.734 359.313 226.483 359.241C222.402 357.637 218.539 355.815 214.749 353.483C182.243 333.513 170.946 290.876 183.482 236.287Z" fill="white"/>
<path d="M349.001 162.894C349.001 144.454 328.448 115.738 324.002 110.418C296.525 83.0868 260.084 68 221.31 68C148.062 68 87.2779 122.298 77.0742 192.703C90.6305 170.109 108.122 155.387 127.655 150.139C160.015 141.466 197.259 157.719 238.292 198.388C238.729 198.825 239.166 199.263 239.677 199.7L241.061 201.158C252.65 215.443 269.85 223.606 288.217 223.606C321.743 223.606 349.001 196.347 349.001 162.894Z" fill="white"/>
</svg>
