<svg width="427" height="427" viewBox="0 0 427 427" fill="none" xmlns="http://www.w3.org/2000/svg">
<path fill-rule="evenodd" clip-rule="evenodd" d="M198.375 99.8176C176.043 93.1253 159.772 72.4582 159.772 48H191.022C191.022 60.6597 201.31 70.9224 214 70.9224C226.69 70.9224 236.978 60.6597 236.978 48H268.228C268.228 72.4582 251.957 93.1253 229.625 99.8176V130.569C291.286 138.239 339 190.712 339 254.302C339 323.171 283.036 379 214 379C144.964 379 89 323.171 89 254.302C89 190.712 136.714 138.239 198.375 130.569V99.8176ZM121.546 238.715H162.057C168.765 216.436 189.483 200.205 214 200.205V231.38C201.31 231.38 191.022 241.642 191.022 254.302C191.022 266.962 201.31 277.224 214 277.224V308.399C189.483 308.399 168.765 292.168 162.057 269.889H121.546C128.985 314.121 167.547 347.825 214 347.825C265.777 347.825 307.75 305.954 307.75 254.302C307.75 202.65 265.777 160.778 214 160.778C167.547 160.778 128.985 194.483 121.546 238.715Z" fill="white"/>
</svg>
