<svg width="166" height="166" viewBox="0 0 166 166" fill="none" xmlns="http://www.w3.org/2000/svg">
<path d="M133.235 128.308C113.663 128.897 91.895 119.444 74.7159 103.363C70.8329 125.955 75.7748 143.134 88.7573 151.096C102.877 159.764 123.429 156.038 139.942 141.801C146.139 136.27 151.355 129.838 155.513 122.66C148.924 126.151 141.432 128.073 133.235 128.308Z" fill="#ff471d"/>
<path d="M67.3031 95.5595C61.2237 88.5388 56.1641 80.812 52.3204 72.6147C49.1434 65.8293 47.4569 60.7305 47.1823 56.8867C47.0647 56.8867 46.9078 56.8867 46.7901 56.8867C22.8255 56.8867 12.1572 87.0875 10.1569 93.4807C10.0784 93.6376 10.0392 93.7945 10 93.9514L10.7452 98.5403C17.8444 135.134 50.2024 161.805 87.6593 161.805C88.6006 161.805 89.5027 161.766 90.444 161.727C88.2476 160.864 86.1688 159.883 84.1293 158.628C66.6364 147.881 60.557 124.937 67.3031 95.5595Z" fill="#ff471d"/>
<path d="M156.375 56.0669C156.375 46.1437 145.315 30.6903 142.922 27.8271C128.136 13.1189 108.525 5 87.6588 5C48.2408 5 15.5298 34.2203 10.0388 72.1086C17.334 59.9498 26.7473 52.027 37.2587 49.203C54.6732 44.5356 74.7156 53.2821 96.7975 75.1679C97.0328 75.4032 97.2681 75.6386 97.5427 75.8739L98.2879 76.6583C104.524 84.3458 113.781 88.7387 123.664 88.7387C141.706 88.7387 156.375 74.0697 156.375 56.0669Z" fill="#ff471d"/>
</svg>
