<svg width="427" height="427" viewBox="0 0 427 427" fill="none" xmlns="http://www.w3.org/2000/svg">
<path d="M159.006 200.318C196.329 201.09 226.445 231.206 227.217 268.529L302.12 125.414L159.006 200.318Z" fill="white"/>
<path d="M113.701 200.316H143.045C145.619 187.446 151.539 175.863 160.033 166.468L139.441 146.005C125.928 160.677 116.533 179.467 113.701 200.316ZM271.745 132.491C255.271 120.651 235.065 113.701 213.186 113.701C186.803 113.701 162.865 123.868 144.975 140.471L165.439 160.934C178.051 149.609 194.782 142.659 213.186 142.659C223.096 142.659 232.62 144.718 241.243 148.45L271.745 132.491ZM227.086 284.358V313.701C247.935 310.87 266.726 301.475 281.397 287.961L260.934 267.498C251.539 275.863 239.956 281.784 227.086 284.358ZM294.911 155.786L278.952 186.159C282.684 194.782 284.744 204.306 284.744 214.216C284.744 232.62 277.794 249.351 266.468 261.964L286.932 282.427C303.534 264.538 313.701 240.471 313.701 214.216C313.701 192.466 306.751 172.26 294.911 155.786Z" fill="white"/>
</svg>
