<svg width="427" height="427" viewBox="0 0 427 427" fill="none" xmlns="http://www.w3.org/2000/svg">
<path fill-rule="evenodd" clip-rule="evenodd" d="M330.652 84.9492H96.2773V341.416H330.652V84.9492ZM241.546 304.364H218.474V117.212H241.546V304.364ZM165.371 304.301C170.916 304.286 175.411 299.796 175.425 294.206V294.206V217.139V213.026C175.425 207.225 170.704 202.498 164.912 202.437L165.807 202.441C171.09 202.441 175.425 198.171 175.425 192.884V127.305C175.411 121.715 170.916 117.221 165.427 117.212H119.905L119.891 304.301H165.371ZM164.798 202.436C164.836 202.436 164.874 202.436 164.912 202.437L164.798 202.436ZM152.435 140.313H142.965V193.626H152.435V140.313ZM152.435 216.535H142.965V281.149H152.435V216.535ZM307.038 117.202V304.36L261.563 304.3C256.018 304.286 251.524 299.796 251.51 294.206L251.537 159.872C251.551 154.282 256.013 149.787 261.508 149.778H283.962V117.202H307.038ZM274.5 172.64H283.971V281.149H274.5V172.64ZM208.488 140.312H185.418V117.21H208.488V140.312ZM208.488 304.364H185.418V149.787H208.488V304.364Z" fill="white"/>
</svg>
