<svg width="427" height="427" viewBox="0 0 427 427" fill="none" xmlns="http://www.w3.org/2000/svg">
<path d="M148.426 174.909C148.426 181.099 152.235 183.639 157.156 185.544L162.553 187.448C165.886 188.718 167.791 189.988 167.791 192.845C167.791 196.178 164.775 197.766 160.648 197.766C156.362 197.766 152.235 196.178 148.902 193.48V200.147C151.6 202.051 155.727 203.48 160.648 203.48C168.267 203.48 173.981 199.67 173.981 192.845C173.981 187.448 171.283 184.274 165.41 181.893L159.378 179.671C156.204 178.56 154.458 177.449 154.458 174.75C154.458 171.734 157.156 170.306 160.965 170.306C165.251 170.306 168.743 172.052 171.918 174.433V167.925C168.902 166.02 165.092 164.909 160.965 164.909C154.14 164.751 148.426 168.401 148.426 174.909Z" fill="white"/>
<path d="M338.107 174.75C338.107 180.94 341.917 183.48 346.838 185.384L352.234 187.289C355.568 188.559 357.472 189.829 357.472 192.686C357.472 196.019 354.457 197.606 350.33 197.606C346.044 197.606 341.917 196.019 338.584 193.321V199.987C341.282 201.892 345.409 203.32 350.33 203.32C357.949 203.32 363.663 199.511 363.663 192.686C363.663 187.289 360.964 184.115 355.091 181.734L349.06 179.512C345.885 178.4 344.139 177.289 344.139 174.591C344.139 171.575 346.838 170.147 350.647 170.147C354.933 170.147 358.425 171.893 361.599 174.274V167.766C358.584 165.861 354.774 164.75 350.647 164.75C343.822 164.75 338.107 168.242 338.107 174.75Z" fill="white"/>
<path d="M300.012 174.751C300.012 180.941 303.821 183.48 308.742 185.385L314.139 187.29C317.472 188.56 319.377 189.83 319.377 192.687C319.377 196.02 316.361 197.607 312.234 197.607C307.948 197.607 303.821 196.02 300.488 193.321V199.988C303.186 201.893 307.313 203.321 312.234 203.321C319.853 203.321 325.567 199.512 325.567 192.687C325.567 187.29 322.869 184.115 316.996 181.734L310.964 179.512C307.789 178.401 306.043 177.29 306.043 174.592C306.043 171.576 308.742 170.147 312.551 170.147C316.837 170.147 320.329 171.893 323.504 174.274V167.767C320.488 165.862 316.678 164.909 312.551 164.909C305.726 164.751 300.012 168.243 300.012 174.751Z" fill="white"/>
<path d="M263.028 165.385V202.686H285.568V196.972H269.219V185.385H283.822V179.829H269.219V170.782H285.568V165.227H263.028V165.385Z" fill="white"/>
<path d="M69.6948 186.178H77.6313C81.7583 186.178 84.1392 188.242 84.1392 191.734C84.1392 195.067 81.7583 197.289 77.6313 197.289H69.6948V186.178ZM69.6948 170.941H76.5202C80.8059 170.941 83.0281 172.528 83.0281 175.861C83.0281 179.353 80.6472 180.94 76.5202 180.94H69.6948V170.941ZM63.6631 165.385V202.686H77.9488C85.7265 202.686 90.4884 199.035 90.4884 191.893C90.4884 187.924 87.9487 184.432 84.4567 183.321C87.1551 182.369 89.3773 179.353 89.3773 175.385C89.3773 168.719 84.4567 165.227 76.8377 165.227L63.6631 165.385Z" fill="white"/>
<path d="M196.52 165.381H190.171V202.682H196.52V165.381Z" fill="white"/>
<path d="M127.632 165.381V187.126C127.632 194.269 124.616 197.602 119.06 197.602C113.505 197.602 110.489 194.269 110.489 187.126V165.381H104.14V187.761C104.14 197.92 110.171 203.158 119.06 203.158C127.949 203.158 133.981 197.92 133.981 187.761V165.381H127.632Z" fill="white"/>
<path d="M240.17 165.385V189.194L214.456 164.75V202.686H220.647V178.4L246.202 203.32V165.385H240.17Z" fill="white"/>
<path d="M157.631 233.002C157.631 239.034 161.44 241.573 166.202 243.478L171.599 245.383C174.932 246.653 176.837 247.764 176.837 250.621C176.837 253.954 173.821 255.541 169.694 255.541C165.409 255.541 161.282 253.954 157.948 251.414V257.922C160.647 259.827 164.774 261.255 169.694 261.255C177.155 261.255 182.869 257.605 182.869 250.938C182.869 245.542 180.17 242.367 174.456 240.304L168.583 238.24C165.567 237.129 163.663 236.177 163.663 233.32C163.663 230.304 166.361 228.875 170.171 228.875C174.456 228.875 177.948 230.463 180.964 232.843V226.494C177.948 224.59 174.139 223.479 170.012 223.479C163.345 223.002 157.631 226.494 157.631 233.002Z" fill="white"/>
<path d="M205.569 223.633H199.22V260.299H205.569V223.633Z" fill="white"/>
<path d="M92.3941 223.633H86.0449V260.299H92.3941V223.633Z" fill="white"/>
<path d="M230.17 229.195H237.948C245.726 229.195 249.853 234.115 249.853 242.051C249.853 249.988 245.726 254.908 237.948 254.908H230.17V229.195ZM223.821 223.639V260.305H237.948C248.901 260.305 255.885 253.162 255.885 241.893C255.885 230.782 248.742 223.48 237.948 223.48H223.821V223.639Z" fill="white"/>
<path d="M269.218 223.633V260.299H291.599V254.584H275.408V243.315H290.011V237.918H275.408V229.188H291.599V223.633H269.218Z" fill="white"/>
<path d="M316.679 229.036H323.822C327.949 229.036 330.33 231.258 330.33 234.75C330.33 238.083 327.949 240.464 323.822 240.464H316.679V229.036ZM310.33 223.639V260.305H316.679V245.385H321.124L333.981 260.305H341.124L327.949 245.067C333.822 244.115 336.52 240.623 336.52 234.433C336.52 227.29 331.6 223.48 323.981 223.48L310.33 223.639Z" fill="white"/>
<path d="M110.331 260.301H116.363V236.492L141.76 260.936V223.635H135.728V247.126L110.331 223V260.301Z" fill="white"/>
</svg>
