<svg width="427" height="427" viewBox="0 0 427 427" fill="none" xmlns="http://www.w3.org/2000/svg">
<path d="M113.32 314.495C160.802 290.036 230.484 250.368 313.32 192.612V173.086C240.35 220.565 166.352 259 113.32 284.281" fill="white"/>
<path d="M113.32 256.376C166.352 234.794 240.35 201.497 313.32 158.129V148.469C244.667 182.588 173.546 203.758 113.32 217.118" fill="white"/>
<path d="M313.112 314.507V216.877C267.686 255.312 222.465 288.404 184.644 314.507" fill="white"/>
<path d="M159.157 314.498C195.128 293.122 238.705 265.375 282.281 232.695C292.353 225.09 302.836 217.279 313.319 209.263V197.137C248.982 245.438 183.412 285.518 132.024 314.498" fill="white"/>
<path d="M113.32 202.885C171.902 192.609 243.433 174.11 313.32 140.813V129.92C242.817 161.573 172.313 174.932 113.32 179.66" fill="white"/>
<path d="M113.32 113.494V169.4C117.637 169.195 122.159 168.784 126.681 168.578C175.396 164.878 241.583 156.246 313.32 125.21V113.494" fill="white"/>
</svg>
