<svg width="427" height="427" viewBox="0 0 427 427" fill="none" xmlns="http://www.w3.org/2000/svg">
<g clip-path="url(#clip0_1076_82511)">
<path fill-rule="evenodd" clip-rule="evenodd" d="M135.29 286.333C115.79 278.101 114.105 277.119 89.1359 259.62L63.5 285.565L70.2094 291.971L82.0932 279.953C110.2 298.611 142.323 309.222 177.917 301.147C195.409 296.86 211.78 279.925 214.917 262.12C217.5 248.055 214.075 234.833 204.598 225.111C188.079 206.833 134.124 190.333 134.124 190.333C134.124 190.333 94.6145 179.278 95.0863 159.824C95.5769 148.972 107.155 141.499 115.762 138.639C147.654 129.556 178.611 146.714 204.062 164.074C204.109 164.111 214.575 154.046 214.575 154.046C233.103 135.491 266.18 136.667 285.504 135.991L319.932 136.546L218.342 304.332H346.993L356.331 281.638C338.432 292.314 285.198 293.296 264.227 292.425L362.957 125.047L228.421 125.186L209.115 143.528C180.748 124.657 144.97 115.408 111.18 128.815C94.3556 134.768 76.7342 150.88 75.0128 168.972C72.4316 187.898 83.0368 203.685 97.9744 214.314C126.386 234.138 165.072 229.879 188.291 257.454C202.192 275.953 185.673 305.324 135.29 286.333Z" fill="white"/>
</g>
<defs>
<clipPath id="clip0_1076_82511">
<rect width="300" height="182.051" fill="white" transform="translate(63.5 122.475)"/>
</clipPath>
</defs>
</svg>
