<svg width="427" height="427" viewBox="0 0 427 427" fill="none" xmlns="http://www.w3.org/2000/svg">
<path d="M130.638 283.796H104.65V169.836H79.3375C79.2362 169.735 79.1013 169.668 79 169.567V144.034H182.613V258.363H212.076C212.11 257.859 212.245 257.221 212.211 256.583C212.144 249.326 211.975 242.069 211.975 234.778C211.975 223.927 212.144 213.075 212.211 202.223C212.211 199.166 211.975 196.075 211.975 193.018C212.009 182.603 212.144 172.221 212.211 161.806C212.245 155.86 212.279 149.947 212.312 144H349V283.763C340.461 283.763 331.889 283.763 323.35 283.763C323.316 282.99 323.215 282.217 323.215 281.411C323.215 244.958 323.215 208.506 323.215 172.053V169.937H293.616C293.616 170.777 293.616 171.482 293.616 172.221C293.616 208.573 293.616 244.891 293.616 281.243C293.616 281.982 293.616 282.687 293.583 283.427C293.481 283.527 293.414 283.662 293.312 283.763H268L267.73 283.427C267.73 282.687 267.696 281.982 267.696 281.243C267.696 244.858 267.696 208.439 267.696 172.053V169.937H238.098C238.098 170.844 238.098 171.617 238.098 172.389C238.098 208.775 238.098 245.193 238.098 281.579C238.098 282.318 238.03 283.023 237.996 283.763H156.659V169.937H130.84C130.84 170.777 130.84 171.549 130.84 172.322C130.84 208.707 130.84 245.093 130.84 281.478C130.84 282.251 130.739 283.023 130.671 283.796H130.638Z" fill="white"/>
</svg>
